<svg width="15" height="16" viewBox="0 0 15 16" fill="none" xmlns="http://www.w3.org/2000/svg">
<path d="M2.94475 6.01457L3.476 5.48332C3.61665 5.34268 3.80741 5.26367 4.00631 5.26367C4.20522 5.26367 4.39597 5.34268 4.53662 5.48332L7.70975 8.65832L10.8838 5.48395C10.9535 5.41426 11.0362 5.35898 11.1272 5.32127C11.2182 5.28355 11.3158 5.26414 11.4143 5.26414C11.5128 5.26414 11.6104 5.28355 11.7014 5.32127C11.7924 5.35898 11.8751 5.41426 11.9447 5.48395L12.476 6.0152C12.5459 6.08488 12.6014 6.16767 12.6393 6.25884C12.6771 6.35 12.6966 6.44774 12.6966 6.54645C12.6966 6.64516 12.6771 6.7429 12.6393 6.83406C12.6014 6.92523 12.5459 7.00802 12.476 7.0777L8.241 11.3099C8.10035 11.4505 7.90959 11.5295 7.71069 11.5295C7.51178 11.5295 7.32103 11.4505 7.18038 11.3099L2.94475 7.0752C2.80411 6.93455 2.7251 6.74379 2.7251 6.54489C2.7251 6.34598 2.80411 6.15523 2.94475 6.01457Z" fill="#444854"/>
</svg>
