<svg width="12" height="14" viewBox="0 0 12 14" fill="none" xmlns="http://www.w3.org/2000/svg">
<path d="M11.2388 11.575C11.6194 12.025 11.6194 12.725 11.2388 13.175C11.0485 13.4 10.8159 13.5 10.5622 13.5C10.3085 13.5 10.0759 13.4 9.88557 13.175L6.01605 8.60005L2.14653 13.175C1.95623 13.4 1.72364 13.5 1.4699 13.5C1.21617 13.5 0.983582 13.4 0.793278 13.175C0.412671 12.725 0.412671 12.025 0.793278 11.575L4.66277 7.00005L0.793278 2.42505C0.412671 1.97505 0.412671 1.27505 0.793278 0.825046C1.17389 0.375046 1.76592 0.375046 2.14653 0.825046L6.01605 5.40004L9.88557 0.825046C10.2662 0.375046 10.8582 0.375046 11.2388 0.825046C11.6194 1.27505 11.6194 1.97505 11.2388 2.42505L7.3693 7.00005L11.2388 11.575Z" fill="white"/>
</svg>
