<svg width="424" height="212" viewBox="0 0 424 212" fill="none" xmlns="http://www.w3.org/2000/svg">
<rect width="400.603" height="30.046" rx="15.023" transform="matrix(0.911013 0.412378 -0.411986 0.91119 12.8708 142.045)" fill="url(#paint0_linear_392_3583)"/>
<rect width="400.603" height="30.046" rx="15.023" transform="matrix(0.911013 0.412378 -0.411986 0.91119 28.5227 92.1587)" fill="url(#paint1_linear_392_3583)"/>
<rect width="400.603" height="30.046" rx="15.023" transform="matrix(0.911013 0.412378 -0.411986 0.91119 58.176 49.105)" fill="url(#paint2_linear_392_3583)"/>
<rect x="323.359" y="20.5903" width="400" height="30" rx="15" transform="rotate(133.342 323.359 20.5903)" fill="url(#paint3_linear_392_3583)"/>
<rect x="365.359" y="51.5903" width="400" height="30" rx="15" transform="rotate(133.342 365.359 51.5903)" fill="url(#paint4_linear_392_3583)"/>
<rect x="396.359" y="93.5903" width="400" height="30" rx="15" transform="rotate(133.342 396.359 93.5903)" fill="url(#paint5_linear_392_3583)"/>
<g style="mix-blend-mode:multiply">
<path d="M245.474 91.1008C229.943 82.604 204.901 101.093 189.585 118.629C189.585 118.629 178.723 129.862 175.032 134.948C174.984 134.987 174.928 135.008 174.88 135.047L127.859 146.4C124.029 147.319 120.588 149.379 117.947 152.275L114.985 155.546C113.476 157.192 114.586 159.852 116.813 159.938L155.214 161.567C155.303 161.744 155.317 161.781 155.405 161.959C142.194 180.154 130.86 195.722 130.86 195.722C130.735 195.895 130.611 196.069 130.498 196.217C125.836 202.471 118.972 206.752 111.272 208.206L92.609 211.692C91.66 211.86 90.7509 212.246 90.0526 212.911C87.4321 215.356 88.364 219.666 91.7138 220.826L118.362 230.101C122.542 231.559 127.171 230.464 130.27 227.331L138.096 219.397L177.434 178.442L182.247 207.821C182.469 209.023 183.739 209.704 184.87 209.234L187.094 208.309C190.154 207.027 192.319 204.268 192.851 200.988L198.234 156.767L244.64 108.438C250.868 102.141 251.123 94.6616 245.474 91.1008Z" fill="#89128A"/>
</g>
<defs>
<linearGradient id="paint0_linear_392_3583" x1="5.36624e-06" y1="30.046" x2="34.2439" y2="-92.4547" gradientUnits="userSpaceOnUse">
<stop offset="0.0125219" stop-color="#FDEBFF"/>
<stop offset="0.526042" stop-color="#EFECFF"/>
<stop offset="0.838542" stop-color="#FFFAFE"/>
<stop offset="1" stop-color="#FAFDFF"/>
<stop offset="1" stop-color="#DAF1FF"/>
</linearGradient>
<linearGradient id="paint1_linear_392_3583" x1="5.36624e-06" y1="30.046" x2="34.2439" y2="-92.4547" gradientUnits="userSpaceOnUse">
<stop offset="0.0125219" stop-color="#FDEBFF"/>
<stop offset="0.526042" stop-color="#EFECFF"/>
<stop offset="0.838542" stop-color="#FFFAFE"/>
<stop offset="1" stop-color="#FAFDFF"/>
<stop offset="1" stop-color="#DAF1FF"/>
</linearGradient>
<linearGradient id="paint2_linear_392_3583" x1="5.36624e-06" y1="30.046" x2="34.2439" y2="-92.4547" gradientUnits="userSpaceOnUse">
<stop offset="0.0125219" stop-color="#FDEBFF"/>
<stop offset="0.526042" stop-color="#EFECFF"/>
<stop offset="0.838542" stop-color="#FFFAFE"/>
<stop offset="1" stop-color="#FAFDFF"/>
<stop offset="1" stop-color="#DAF1FF"/>
</linearGradient>
<linearGradient id="paint3_linear_392_3583" x1="323.359" y1="50.5903" x2="357.55" y2="-71.7233" gradientUnits="userSpaceOnUse">
<stop offset="0.0125219" stop-color="#FDEBFF"/>
<stop offset="0.526042" stop-color="#EFECFF"/>
<stop offset="0.838542" stop-color="#FFFAFE"/>
<stop offset="1" stop-color="#FAFDFF"/>
<stop offset="1" stop-color="#DAF1FF"/>
</linearGradient>
<linearGradient id="paint4_linear_392_3583" x1="365.359" y1="81.5903" x2="399.55" y2="-40.7233" gradientUnits="userSpaceOnUse">
<stop offset="0.0125219" stop-color="#FDEBFF"/>
<stop offset="0.526042" stop-color="#EFECFF"/>
<stop offset="0.838542" stop-color="#FFFAFE"/>
<stop offset="1" stop-color="#FAFDFF"/>
<stop offset="1" stop-color="#DAF1FF"/>
</linearGradient>
<linearGradient id="paint5_linear_392_3583" x1="396.359" y1="123.59" x2="430.55" y2="1.27665" gradientUnits="userSpaceOnUse">
<stop offset="0.0125219" stop-color="#FDEBFF"/>
<stop offset="0.526042" stop-color="#EFECFF"/>
<stop offset="0.838542" stop-color="#FFFAFE"/>
<stop offset="1" stop-color="#FAFDFF"/>
<stop offset="1" stop-color="#DAF1FF"/>
</linearGradient>
</defs>
</svg>
