<svg width="192" height="52" viewBox="0 0 192 52" fill="none" xmlns="http://www.w3.org/2000/svg">
<path d="M104.576 18.0186V33.8923H101.652V18.0186H104.576Z" fill="#89128A"/>
<path d="M133.4 30.5405L134.912 32.0303L132.91 34.0434L131.528 32.6845C130.231 33.6459 128.655 34.1517 127.043 34.124C125.75 34.1941 124.464 33.8959 123.332 33.2638C122.2 32.6316 121.269 31.6912 120.645 30.5506C119.926 29.1537 119.581 27.5926 119.644 26.021C119.581 24.4493 119.926 22.8882 120.645 21.4914C121.26 20.3398 122.188 19.3877 123.321 18.7462C124.454 18.1046 125.745 17.7999 127.043 17.8677C128.325 17.8515 129.592 18.1449 130.737 18.7233C132.92 19.8305 134.472 22.4376 134.472 25.9707C134.513 27.5614 134.144 29.1359 133.4 30.5405ZM127.393 28.5978L129.396 26.5847L131.108 28.3261C131.343 27.5743 131.455 26.7888 131.438 26.0009C131.549 24.5422 131.089 23.0976 130.157 21.9745C129.766 21.5321 129.287 21.1784 128.75 20.9372C128.213 20.6959 127.631 20.5725 127.043 20.5754C126.445 20.5605 125.851 20.674 125.3 20.9084C124.749 21.1427 124.255 21.4924 123.849 21.9343C122.932 23.065 122.481 24.5057 122.588 25.9606C122.48 27.4156 122.931 28.8567 123.849 29.9869C124.254 30.4305 124.748 30.7822 125.299 31.0183C125.85 31.2543 126.444 31.3694 127.043 31.3559C127.895 31.3722 128.734 31.1378 129.456 30.6815L127.393 28.5978Z" fill="#89128A"/>
<path d="M164.507 18.0186H167.611L163.496 33.8621H160.492L157.629 24.5311L154.775 33.8621H151.772L147.707 18.0186H150.811L153.454 29.6748L156.397 19.6895H158.92L161.924 29.6748L164.507 18.0186Z" fill="#89128A"/>
<path d="M188.856 33.8923L187.705 30.1579H182.699L181.548 33.8923H178.404L183.74 18.0186H186.664L192 33.8621L188.856 33.8923ZM185.202 21.9342L183.54 27.4402H186.874L185.202 21.9342Z" fill="#89128A"/>
<path fill-rule="evenodd" clip-rule="evenodd" d="M25.83 0C20.7213 0 15.7273 1.5149 11.4796 4.35314C7.2319 7.19138 3.92121 11.2255 1.96619 15.9453C0.0111831 20.6651 -0.500325 25.8587 0.496331 30.8692C1.49299 35.8797 3.95305 40.4822 7.56544 44.0946C11.1778 47.707 15.7803 50.167 20.7908 51.1637C25.8014 52.1603 30.9949 51.6488 35.7147 49.6938C40.4345 47.7388 44.4686 44.4281 47.3069 40.1804C50.1451 35.9327 51.66 30.9387 51.66 25.83C51.66 18.9795 48.9386 12.4095 44.0946 7.56543C39.2505 2.72137 32.6805 0 25.83 0ZM25.83 3.16C30.3137 3.16 34.6967 4.48957 38.4248 6.98059C42.1528 9.4716 45.0585 13.0122 46.7744 17.1546C48.4902 21.297 48.9391 25.8552 48.0644 30.2527C47.1897 34.6502 45.0306 38.6897 41.8601 41.8601C38.6897 45.0306 34.6503 47.1897 30.2527 48.0644C25.8552 48.9391 21.297 48.4902 17.1546 46.7744C13.0122 45.0585 9.47161 42.1528 6.9806 38.4248C4.48959 34.6967 3.16001 30.3137 3.16001 25.83C3.16266 19.8184 5.55194 14.0537 9.80282 9.80282C14.0537 5.55194 19.8184 3.16265 25.83 3.16Z" fill="#89128A"/>
<path fill-rule="evenodd" clip-rule="evenodd" d="M26.9792 14.4502H31.1692V33.4502V37.2002H26.9492L26.9792 14.4502Z" fill="#89128A"/>
<path d="M24.7023 14.4502H18.4023V18.3502H24.7023V14.4502Z" fill="#89128A"/>
<path fill-rule="evenodd" clip-rule="evenodd" d="M84.1206 18.0986H86.994V31.305V33.8919H84.0806L84.1206 18.0986Z" fill="#89128A"/>
<path d="M82.5498 18.0986H78.1946V20.8063H82.5498V18.0986Z" fill="#89128A"/>
</svg>
