<svg width="151" height="56" viewBox="0 0 151 56" fill="none" xmlns="http://www.w3.org/2000/svg">
<rect width="151" height="56" rx="6" fill="#159D54"/>
<g clip-path="url(#clip0_1055_53697)">
<path d="M44 18C38.48 18 34 22.48 34 28C34 33.52 38.48 38 44 38C49.52 38 54 33.52 54 28C54 22.48 49.52 18 44 18ZM42 33L37 28L38.41 26.59L42 30.17L49.59 22.58L51 24L42 33Z" fill="white"/>
</g>
<path d="M60.6529 22.044H62.9889L65.3569 28.94L65.7729 30.412H65.9009L66.3489 28.94L68.8129 22.044H71.1489L66.9729 33.5H64.7009L60.6529 22.044ZM78.8591 31.612C78.4964 32.252 78.0057 32.7693 77.3871 33.164C76.7791 33.5587 76.0324 33.756 75.1471 33.756C74.5497 33.756 73.9951 33.6547 73.4831 33.452C72.9817 33.2387 72.5444 32.9453 72.1711 32.572C71.7977 32.1987 71.5044 31.7613 71.2911 31.26C71.0884 30.748 70.9871 30.188 70.9871 29.58C70.9871 29.0147 71.0884 28.4813 71.2911 27.98C71.4937 27.468 71.7764 27.0253 72.1391 26.652C72.5017 26.268 72.9284 25.964 73.4191 25.74C73.9204 25.516 74.4697 25.404 75.0671 25.404C75.6964 25.404 76.2564 25.5107 76.7471 25.724C77.2377 25.9267 77.6484 26.2147 77.9791 26.588C78.3097 26.9507 78.5604 27.3827 78.7311 27.884C78.9017 28.3853 78.9871 28.9293 78.9871 29.516C78.9871 29.5907 78.9871 29.6547 78.9871 29.708C78.9764 29.772 78.9711 29.8307 78.9711 29.884C78.9604 29.9373 78.9551 29.996 78.9551 30.06H73.0511C73.0937 30.38 73.1791 30.6573 73.3071 30.892C73.4457 31.116 73.6111 31.308 73.8031 31.468C74.0057 31.6173 74.2244 31.7293 74.4591 31.804C74.6937 31.868 74.9337 31.9 75.1791 31.9C75.6591 31.9 76.0537 31.7933 76.3631 31.58C76.6831 31.356 76.9337 31.0787 77.1151 30.748L78.8591 31.612ZM76.9551 28.572C76.9444 28.4333 76.8964 28.2787 76.8111 28.108C76.7364 27.9373 76.6191 27.7773 76.4591 27.628C76.3097 27.4787 76.1177 27.356 75.8831 27.26C75.6591 27.164 75.3871 27.116 75.0671 27.116C74.6191 27.116 74.2244 27.244 73.8831 27.5C73.5417 27.756 73.3017 28.1133 73.1631 28.572H76.9551ZM80.3257 25.66H82.2937V26.748H82.4217C82.5177 26.556 82.6457 26.38 82.8057 26.22C82.9657 26.06 83.1417 25.9213 83.3337 25.804C83.5364 25.6867 83.7497 25.596 83.9737 25.532C84.2084 25.468 84.4377 25.436 84.6617 25.436C84.939 25.436 85.1737 25.4627 85.3657 25.516C85.5684 25.5693 85.739 25.6387 85.8777 25.724L85.3177 27.628C85.1897 27.564 85.0457 27.516 84.8857 27.484C84.7364 27.4413 84.5497 27.42 84.3257 27.42C84.0377 27.42 83.7764 27.4787 83.5417 27.596C83.307 27.7027 83.1044 27.8573 82.9337 28.06C82.7737 28.2627 82.6457 28.5027 82.5497 28.78C82.4644 29.0467 82.4217 29.34 82.4217 29.66V33.5H80.3257V25.66ZM88.0093 24.524C87.828 24.524 87.652 24.492 87.4813 24.428C87.3213 24.3533 87.1773 24.2573 87.0493 24.14C86.932 24.012 86.836 23.868 86.7613 23.708C86.6973 23.548 86.6653 23.372 86.6653 23.18C86.6653 22.988 86.6973 22.812 86.7613 22.652C86.836 22.492 86.932 22.3533 87.0493 22.236C87.1773 22.108 87.3213 22.012 87.4813 21.948C87.652 21.8733 87.828 21.836 88.0093 21.836C88.3826 21.836 88.7026 21.9693 88.9693 22.236C89.236 22.492 89.3693 22.8067 89.3693 23.18C89.3693 23.5533 89.236 23.8733 88.9693 24.14C88.7026 24.396 88.3826 24.524 88.0093 24.524ZM86.9693 33.5V25.66H89.0653V33.5H86.9693ZM93.9739 33.5H91.8779V27.452H90.4699V25.66H91.8779V24.892C91.8779 24.412 91.9473 23.9907 92.0859 23.628C92.2353 23.2547 92.4433 22.9453 92.7099 22.7C92.9766 22.444 93.2913 22.252 93.6539 22.124C94.0166 21.9853 94.4166 21.916 94.8539 21.916C95.0673 21.916 95.2379 21.9267 95.3659 21.948C95.4939 21.9693 95.6166 22.0013 95.7339 22.044L95.6059 24.012C95.5313 23.98 95.4459 23.9533 95.3499 23.932C95.2539 23.9107 95.1313 23.9 94.9819 23.9C94.6726 23.9 94.4273 24.0013 94.2459 24.204C94.0646 24.396 93.9739 24.668 93.9739 25.02V25.66H99.0299V33.5H96.9339V27.452H93.9739V33.5ZM97.9739 24.524C97.7926 24.524 97.6166 24.492 97.4459 24.428C97.2859 24.3533 97.1419 24.2573 97.0139 24.14C96.8966 24.012 96.8006 23.868 96.7259 23.708C96.6619 23.548 96.6299 23.372 96.6299 23.18C96.6299 22.988 96.6619 22.812 96.7259 22.652C96.8006 22.492 96.8966 22.3533 97.0139 22.236C97.1419 22.108 97.2859 22.012 97.4459 21.948C97.6166 21.8733 97.7926 21.836 97.9739 21.836C98.3473 21.836 98.6673 21.9693 98.9339 22.236C99.2006 22.492 99.3339 22.8067 99.3339 23.18C99.3339 23.5533 99.2006 23.8733 98.9339 24.14C98.6673 24.396 98.3473 24.524 97.9739 24.524ZM108.297 31.612C107.934 32.252 107.443 32.7693 106.825 33.164C106.217 33.5587 105.47 33.756 104.585 33.756C103.987 33.756 103.433 33.6547 102.921 33.452C102.419 33.2387 101.982 32.9453 101.609 32.572C101.235 32.1987 100.942 31.7613 100.729 31.26C100.526 30.748 100.425 30.188 100.425 29.58C100.425 29.0147 100.526 28.4813 100.729 27.98C100.931 27.468 101.214 27.0253 101.577 26.652C101.939 26.268 102.366 25.964 102.857 25.74C103.358 25.516 103.907 25.404 104.505 25.404C105.134 25.404 105.694 25.5107 106.185 25.724C106.675 25.9267 107.086 26.2147 107.417 26.588C107.747 26.9507 107.998 27.3827 108.169 27.884C108.339 28.3853 108.425 28.9293 108.425 29.516C108.425 29.5907 108.425 29.6547 108.425 29.708C108.414 29.772 108.409 29.8307 108.409 29.884C108.398 29.9373 108.393 29.996 108.393 30.06H102.489C102.531 30.38 102.617 30.6573 102.745 30.892C102.883 31.116 103.049 31.308 103.241 31.468C103.443 31.6173 103.662 31.7293 103.897 31.804C104.131 31.868 104.371 31.9 104.617 31.9C105.097 31.9 105.491 31.7933 105.801 31.58C106.121 31.356 106.371 31.0787 106.553 30.748L108.297 31.612ZM106.393 28.572C106.382 28.4333 106.334 28.2787 106.249 28.108C106.174 27.9373 106.057 27.7773 105.897 27.628C105.747 27.4787 105.555 27.356 105.321 27.26C105.097 27.164 104.825 27.116 104.505 27.116C104.057 27.116 103.662 27.244 103.321 27.5C102.979 27.756 102.739 28.1133 102.601 28.572H106.393ZM115.681 32.556H115.553C115.361 32.8867 115.063 33.1693 114.657 33.404C114.252 33.6387 113.751 33.756 113.153 33.756C112.652 33.756 112.172 33.6547 111.713 33.452C111.265 33.2387 110.865 32.9507 110.513 32.588C110.172 32.2147 109.9 31.772 109.697 31.26C109.495 30.748 109.393 30.188 109.393 29.58C109.393 28.972 109.495 28.412 109.697 27.9C109.9 27.388 110.172 26.9507 110.513 26.588C110.865 26.2147 111.265 25.9267 111.713 25.724C112.172 25.5107 112.652 25.404 113.153 25.404C113.751 25.404 114.252 25.5213 114.657 25.756C115.063 25.9907 115.361 26.2733 115.553 26.604H115.681L115.553 25.484V22.044H117.649V33.5H115.681V32.556ZM113.585 31.82C113.863 31.82 114.124 31.772 114.369 31.676C114.625 31.5693 114.849 31.42 115.041 31.228C115.233 31.036 115.388 30.8013 115.505 30.524C115.623 30.2467 115.681 29.932 115.681 29.58C115.681 29.228 115.623 28.9133 115.505 28.636C115.388 28.3587 115.233 28.124 115.041 27.932C114.849 27.74 114.625 27.596 114.369 27.5C114.124 27.3933 113.863 27.34 113.585 27.34C113.308 27.34 113.041 27.3933 112.785 27.5C112.54 27.6067 112.321 27.756 112.129 27.948C111.937 28.14 111.783 28.3747 111.665 28.652C111.548 28.9293 111.489 29.2387 111.489 29.58C111.489 29.9213 111.548 30.2307 111.665 30.508C111.783 30.7853 111.937 31.02 112.129 31.212C112.321 31.404 112.54 31.5533 112.785 31.66C113.041 31.7667 113.308 31.82 113.585 31.82Z" fill="white"/>
<defs>
<clipPath id="clip0_1055_53697">
<rect width="24" height="24" fill="white" transform="translate(32 16)"/>
</clipPath>
</defs>
</svg>
