<svg width="37" height="32" viewBox="0 0 37 32" fill="none" xmlns="http://www.w3.org/2000/svg">
<rect width="37" height="32" fill="white"/>
<path d="M14.5997 14.9998C14.5997 14.6498 14.7347 14.2998 14.9997 14.0348L18.2597 10.7748C18.4047 10.6298 18.6447 10.6298 18.7897 10.7748C18.9347 10.9198 18.9347 11.1598 18.7897 11.3048L15.5297 14.5648C15.2897 14.8048 15.2897 15.1948 15.5297 15.4348L18.7897 18.6948C18.9347 18.8398 18.9347 19.0798 18.7897 19.2248C18.6447 19.3698 18.4047 19.3698 18.2597 19.2248L14.9997 15.9648C14.7347 15.6998 14.5997 15.3498 14.5997 14.9998Z" fill="#575A65"/>
<path d="M19.5997 14.9998C19.5997 14.6498 19.7347 14.2998 19.9997 14.0348L23.2597 10.7748C23.4047 10.6298 23.6447 10.6298 23.7897 10.7748C23.9347 10.9198 23.9347 11.1598 23.7897 11.3048L20.5297 14.5648C20.2897 14.8048 20.2897 15.1948 20.5297 15.4348L23.7897 18.6948C23.9347 18.8398 23.9347 19.0798 23.7897 19.2248C23.6447 19.3698 23.4047 19.3698 23.2597 19.2248L19.9997 15.9648C19.7347 15.6998 19.5997 15.3498 19.5997 14.9998Z" fill="#575A65"/>
</svg>
