<svg width="37" height="32" viewBox="0 0 37 32" fill="none" xmlns="http://www.w3.org/2000/svg">
<mask id="path-1-inside-1_1368_8964" fill="white">
<path d="M0 0H37V32H0V0Z"/>
</mask>
<path d="M0 0H37V32H0V0Z" fill="white"/>
<path d="M17.4003 17.0002C17.4003 17.3502 17.2653 17.7002 17.0003 17.9652L13.7403 21.2252C13.5953 21.3702 13.3553 21.3702 13.2103 21.2252C13.0653 21.0802 13.0653 20.8402 13.2103 20.6952L16.4703 17.4352C16.7103 17.1952 16.7103 16.8052 16.4703 16.5652L13.2103 13.3052C13.0653 13.1602 13.0653 12.9202 13.2103 12.7752C13.3553 12.6302 13.5953 12.6302 13.7403 12.7752L17.0003 16.0352C17.2653 16.3002 17.4003 16.6502 17.4003 17.0002Z" fill="#575A65"/>
<path d="M22.4003 17.0002C22.4003 17.3502 22.2653 17.7002 22.0003 17.9652L18.7403 21.2252C18.5953 21.3702 18.3553 21.3702 18.2103 21.2252C18.0653 21.0802 18.0653 20.8402 18.2103 20.6952L21.4703 17.4352C21.7103 17.1952 21.7103 16.8052 21.4703 16.5652L18.2103 13.3052C18.0653 13.1602 18.0653 12.9202 18.2103 12.7752C18.3553 12.6302 18.5953 12.6302 18.7403 12.7752L22.0003 16.0352C22.2653 16.3002 22.4003 16.6502 22.4003 17.0002Z" fill="#575A65"/>
<path d="M0.6 32V0H-0.6V32H0.6Z" fill="#E5E9F2" mask="url(#path-1-inside-1_1368_8964)"/>
</svg>
