<svg width="332" height="331" viewBox="0 0 332 331" fill="none" xmlns="http://www.w3.org/2000/svg">
<path d="M121.19 85.0451C122.203 86.7549 121.55 88.8506 119.667 89.6307L89.474 102.142C87.6237 102.909 85.6152 101.917 85.1211 99.9916L72.3296 52.4161C71.8677 50.4765 72.9379 48.2846 74.8531 47.4907L91.3462 40.6562C93.2288 39.8761 95.5998 40.642 96.6139 42.3528L121.19 85.0451Z" fill="#EAF0F7"/>
<path d="M71.9845 112.814C73.9625 113.364 74.9862 115.375 74.1604 117.24L61.6566 147.374C60.9227 149.277 58.8231 149.994 57.0686 148.97L14.4756 124.398C12.7215 123.375 11.9145 120.971 12.6796 119.055L19.5195 102.603C20.2847 100.687 22.5372 99.6024 24.5134 100.152L71.9845 112.814Z" fill="#EAF0F7"/>
<path d="M56.9031 167.299C58.7382 166.312 60.77 166.989 61.5508 168.873L74.0624 199.066C74.8424 200.949 73.9127 202.931 71.89 203.466L24.3866 216.152C22.4285 216.658 20.2033 215.603 19.4229 213.72L12.5614 197.162C11.7814 195.279 12.5749 192.972 14.3503 191.932L56.9031 167.299Z" fill="#EAF0F7"/>
<path d="M84.7986 216.528C85.32 214.484 87.2469 213.535 89.1752 214.333L119.357 226.857C121.193 227.617 121.93 229.67 120.922 231.458L96.3468 274.052C95.3117 275.773 92.9197 276.613 91.0833 275.851L74.5207 269.021C72.6843 268.259 71.5208 266.005 72.0436 263.96L84.7986 216.528Z" fill="#EAF0F7"/>
<path d="M139.288 231.53C138.21 229.848 138.928 227.724 140.843 226.93L171.002 214.432C172.852 213.666 174.863 214.659 175.356 216.584L188.114 264.172C188.674 266.071 187.539 268.292 185.624 269.085L169.1 275.932C167.25 276.699 164.878 275.932 163.864 274.221L139.288 231.53Z" fill="#EAF0F7"/>
<path d="M188.426 203.788C186.45 203.239 185.491 201.201 186.316 199.337L198.794 169.137C199.554 167.3 201.653 166.582 203.44 167.592L246.001 192.18C247.756 193.202 248.595 195.593 247.77 197.457L240.958 213.974C240.192 215.888 237.94 216.973 235.963 216.424L188.426 203.788Z" fill="#EAF0F7"/>
<path d="M203.511 149.304C201.74 150.265 199.708 149.586 198.928 147.703L186.416 117.51C185.636 115.628 186.565 113.646 188.524 113.137L236.092 100.425C238.05 99.9188 240.275 100.974 241.056 102.856L247.917 119.413C248.67 121.232 247.871 123.618 246.128 124.644L203.511 149.304Z" fill="#EAF0F7"/>
<path d="M175.677 100.048C175.154 102.091 173.2 102.977 171.3 102.243L141.117 89.7202C139.217 88.9863 138.544 86.9065 139.553 85.1187L164.127 42.5254C165.163 40.8024 167.554 39.9642 169.391 40.7258L185.954 47.5565C187.791 48.3163 188.89 50.5993 188.405 52.5514L175.677 100.048Z" fill="#EAF0F7"/>
<path d="M90.4762 61.7872C37.201 83.8637 11.9156 144.934 33.9787 198.177C56.0417 251.419 117.112 276.705 170.387 254.628C223.63 232.565 248.85 171.522 226.787 118.279C204.724 65.0365 143.719 39.7241 90.4762 61.7872ZM155.831 219.502C121.971 233.533 83.0915 217.462 69.0733 183.634C55.0548 149.804 71.1712 110.945 105.032 96.9134C138.763 82.9353 177.675 98.9925 191.693 132.821C205.711 166.649 189.563 205.524 155.831 219.502Z" fill="#EAF0F7"/>
<path d="M265.558 245.28C265.974 246.013 265.693 246.884 264.889 247.217L251.914 252.594C251.109 252.928 250.264 252.523 250.039 251.711L244.552 231.276C244.333 230.385 244.774 229.447 245.611 229.1L252.694 226.165C253.499 225.831 254.538 226.156 254.982 226.954L265.558 245.28Z" fill="#EAF0F7"/>
<path d="M244.397 257.216C245.255 257.464 245.667 258.275 245.325 259.094L239.941 272.04C239.632 272.846 238.73 273.219 237.982 272.776L219.672 262.181C218.92 261.738 218.584 260.744 218.899 259.86L221.834 252.834C222.174 252.016 223.145 251.537 224.001 251.785L244.397 257.216Z" fill="#EAF0F7"/>
<path d="M237.925 280.647C238.677 280.184 239.56 280.497 239.908 281.335L245.27 294.277C245.617 295.114 245.214 295.96 244.355 296.164L223.907 301.621C223.107 301.877 222.112 301.383 221.791 300.61L218.83 293.465C218.509 292.691 218.832 291.651 219.611 291.253L237.925 280.647Z" fill="#EAF0F7"/>
<path d="M249.893 301.793C250.14 300.937 250.951 300.525 251.771 300.863L264.736 306.205C265.555 306.543 265.864 307.473 265.407 308.19L254.858 326.52C254.426 327.301 253.375 327.585 252.616 327.297L245.479 324.369C244.692 324.016 244.195 323.091 244.416 322.168L249.893 301.793Z" fill="#EAF0F7"/>
<path d="M273.311 308.232C272.862 307.514 273.173 306.63 274.01 306.283L286.953 300.919C287.757 300.586 288.605 300.99 288.828 301.802L294.315 322.237C294.566 323.114 294.092 324.066 293.256 324.413L286.141 327.362C285.368 327.682 284.328 327.356 283.885 326.56L273.311 308.232Z" fill="#EAF0F7"/>
<path d="M294.439 296.311C293.581 296.062 293.202 295.239 293.542 294.42L298.901 281.409C299.236 280.668 300.137 280.294 300.886 280.737L319.197 291.332C319.947 291.776 320.314 292.755 319.943 293.589L317.035 300.679C316.693 301.498 315.722 301.976 314.866 301.729L294.439 296.311Z" fill="#EAF0F7"/>
<path d="M300.912 272.878C300.192 273.328 299.307 273.015 298.96 272.177L293.597 259.236C293.25 258.398 293.655 257.552 294.482 257.361L314.961 251.891C315.76 251.635 316.756 252.128 317.076 252.901L320.038 260.048C320.358 260.822 320.003 261.875 319.257 262.258L300.912 272.878Z" fill="#EAF0F7"/>
<path d="M288.976 251.721C288.727 252.578 287.918 252.989 287.098 252.65L274.133 247.309C273.313 246.969 273.005 246.041 273.462 245.324L284.011 226.994C284.441 226.214 285.492 225.928 286.254 226.216L293.39 229.145C294.177 229.496 294.641 230.435 294.425 231.282L288.976 251.721Z" fill="#EAF0F7"/>
<path d="M252.362 235.282C229.439 244.781 218.579 271.01 228.051 293.868C237.55 316.791 263.779 327.651 286.702 318.152C309.592 308.666 320.419 282.451 310.921 259.528C301.448 236.67 275.252 225.797 252.362 235.282ZM280.458 303.084C265.874 309.128 249.148 302.176 243.118 287.624C237.115 273.137 244.021 256.392 258.605 250.349C273.093 244.345 289.85 251.284 295.853 265.771C301.883 280.323 294.946 297.08 280.458 303.084Z" fill="#EAF0F7"/>
<path d="M156.273 49.0542C156.273 49.0748 156.273 49.0915 156.273 49.1082V100.326C156.273 106.014 158.587 111.175 162.318 114.894C166.049 118.633 171.197 120.942 176.894 120.942C188.281 120.942 197.526 111.702 197.526 100.326V49.1082C197.526 49.0915 197.526 49.0748 197.526 49.0542H156.273Z" fill="#C0D3E6"/>
<path d="M193.249 97.6263H158.281V126.885H193.249V97.6263Z" fill="#C0D3E6"/>
<path d="M176.902 89.7107C168.47 89.7107 161.613 82.8499 161.613 74.4218C161.613 65.9896 168.47 59.1373 176.902 59.1373C185.326 59.1373 192.186 65.9899 192.186 74.4218C192.186 82.8495 185.326 89.7107 176.902 89.7107Z" fill="#2C6CAC"/>
<path d="M165.984 126.885V97.6263H156.275L142.445 139.202L165.984 126.885Z" fill="#2C6CAC"/>
<path d="M187.867 126.885V97.6263H197.576L211.406 139.202L187.867 126.885Z" fill="#2C6CAC"/>
<path d="M176.902 3.35745L156.273 49.1078H197.526L176.902 3.35745Z" fill="#2C6CAC"/>
<path d="M184.689 66.773C186.26 68.3813 187.239 70.3465 187.628 72.4111C188.267 75.8644 187.238 79.5788 184.548 82.2155C180.244 86.4357 173.322 86.3651 169.101 82.0661C166.465 79.3716 165.503 75.6487 166.208 72.2039C166.639 70.1479 167.651 68.1994 169.251 66.6283C173.545 62.4119 180.477 62.4779 184.689 66.773Z" fill="#2C6CAC"/>
<path d="M184.688 66.773C186.259 68.3814 187.237 70.3466 187.627 72.4111C187.196 74.4589 186.184 76.4114 184.588 77.9867C180.285 82.2027 173.354 82.1364 169.142 77.8416C167.567 76.2333 166.597 74.2681 166.207 72.2036C166.638 70.1476 167.65 68.199 169.25 66.6279C173.544 62.412 180.476 62.478 184.688 66.773Z" fill="#EAF0F7"/>
<path d="M182.949 69.6503C182.717 69.8656 182.36 69.8617 182.145 69.6379C179.276 66.7234 174.575 66.678 171.665 69.5343C171.433 69.7581 171.085 69.7539 170.861 69.53C170.645 69.3101 170.654 68.9579 170.869 68.734C174.235 65.4343 179.657 65.4922 182.949 68.85C183.173 69.0738 183.164 69.4264 182.949 69.6503Z" fill="white"/>
<path d="M176.867 66.461C177.099 66.693 177.091 67.0619 176.859 67.29C176.627 67.5181 176.262 67.5181 176.03 67.2857C175.806 67.0537 175.806 66.6806 176.038 66.4525C176.278 66.2247 176.643 66.229 176.867 66.461Z" fill="white"/>
<path d="M178.302 66.9632C178.435 67.0917 178.427 67.3113 178.294 67.4358C178.161 67.5685 177.946 67.5642 177.821 67.4315C177.689 67.2989 177.689 67.0874 177.829 66.959C177.954 66.8302 178.169 66.8302 178.302 66.9632Z" fill="white"/>
<path d="M187.628 126.886H165.984V220.982H187.628V126.886Z" fill="#EAF0F7"/>
</svg>
