<svg width="40" height="40" viewBox="0 0 40 40" fill="none" xmlns="http://www.w3.org/2000/svg">
<circle cx="20" cy="20" r="20" fill="#EAF0F7"/>
<path d="M24.6084 16.4753C24.55 16.467 24.4917 16.467 24.4334 16.4753C23.1417 16.4337 22.1167 15.3753 22.1167 14.0753C22.1167 12.7503 23.1917 11.667 24.525 11.667C25.85 11.667 26.9334 12.742 26.9334 14.0753C26.925 15.3753 25.9 16.4337 24.6084 16.4753Z" fill="#2C6CAC"/>
<path d="M27.3252 22.2503C26.3918 22.8753 25.0835 23.1087 23.8752 22.9503C24.1918 22.267 24.3585 21.5087 24.3668 20.7087C24.3668 19.8753 24.1835 19.0837 23.8335 18.392C25.0668 18.2253 26.3752 18.4587 27.3168 19.0837C28.6335 19.9503 28.6335 21.3753 27.3252 22.2503Z" fill="#2C6CAC"/>
<path d="M15.3665 16.4753C15.4248 16.467 15.4831 16.467 15.5415 16.4753C16.8331 16.4337 17.8581 15.3753 17.8581 14.0753C17.8581 12.742 16.7831 11.667 15.4498 11.667C14.1248 11.667 13.0498 12.742 13.0498 14.0753C13.0498 15.3753 14.0748 16.4337 15.3665 16.4753Z" fill="#2C6CAC"/>
<path d="M15.4584 20.7079C15.4584 21.5162 15.6334 22.2829 15.9501 22.9745C14.7751 23.0995 13.5501 22.8495 12.6501 22.2579C11.3334 21.3829 11.3334 19.9578 12.6501 19.0828C13.5418 18.4828 14.8001 18.2412 15.9834 18.3745C15.6418 19.0745 15.4584 19.8662 15.4584 20.7079Z" fill="#2C6CAC"/>
<path d="M20.1 23.225C20.0333 23.2167 19.9583 23.2167 19.8833 23.225C18.35 23.175 17.125 21.9167 17.125 20.3667C17.1333 18.7833 18.4083 17.5 20 17.5C21.5833 17.5 22.8667 18.7833 22.8667 20.3667C22.8583 21.9167 21.6417 23.175 20.1 23.225Z" fill="#2C6CAC"/>
<path d="M17.3915 24.9502C16.1332 25.7919 16.1332 27.1752 17.3915 28.0085C18.8248 28.9669 21.1748 28.9669 22.6082 28.0085C23.8665 27.1669 23.8665 25.7835 22.6082 24.9502C21.1832 23.9919 18.8332 23.9919 17.3915 24.9502Z" fill="#2C6CAC"/>
</svg>
