<svg width="152" height="141" viewBox="0 0 152 141" fill="none" xmlns="http://www.w3.org/2000/svg">
<path d="M61.454 122.543C95.3942 122.543 122.908 95.1109 122.908 61.2715C122.908 27.4322 95.3942 0 61.454 0C27.5139 0 0 27.4322 0 61.2715C0 95.1109 27.5139 122.543 61.454 122.543Z" fill="#F1E4F2"/>
<path d="M8.82106 94.8982C11.8833 94.8982 14.3658 92.4232 14.3658 89.37C14.3658 86.3169 11.8833 83.8418 8.82106 83.8418C5.75881 83.8418 3.27637 86.3169 3.27637 89.37C3.27637 92.4232 5.75881 94.8982 8.82106 94.8982Z" fill="#89128A"/>
<path d="M6.70201 119.438C8.59394 119.438 10.1276 117.909 10.1276 116.023C10.1276 114.137 8.59394 112.607 6.70201 112.607C4.81008 112.607 3.27637 114.137 3.27637 116.023C3.27637 117.909 4.81008 119.438 6.70201 119.438Z" fill="#F1E4F2"/>
<path d="M107.821 34.904C112.775 34.904 116.791 30.8998 116.791 25.9603C116.791 21.0208 112.775 17.0166 107.821 17.0166C102.867 17.0166 98.8506 21.0208 98.8506 25.9603C98.8506 30.8998 102.867 34.904 107.821 34.904Z" fill="#89128A"/>
<path d="M119.198 6.09281C120.453 6.09281 121.47 5.07899 121.47 3.82839C121.47 2.57778 120.453 1.56396 119.198 1.56396C117.944 1.56396 116.927 2.57778 116.927 3.82839C116.927 5.07899 117.944 6.09281 119.198 6.09281Z" fill="#F1E4F2"/>
<g clip-path="url(#clip0_434_6576)">
<path d="M40.0842 91.8054C35.5593 88.1722 34.7757 81.6063 38.3186 77.0104L48.5607 63.9925C49.6756 62.5754 51.2255 61.4274 52.9069 60.7484C54.5882 60.0694 56.4128 59.8516 58.1164 60.0448C59.9104 60.3091 61.678 60.9857 63.1758 62.091L63.3495 62.2276C67.955 65.8512 68.7386 72.4171 65.1151 77.0227L54.873 90.0405C51.2556 94.6454 44.6091 95.4385 40.0842 91.8054ZM69.067 54.9677C60.481 48.2125 47.9015 49.7137 41.1401 58.3004L30.9787 71.3087C24.2235 79.8946 25.7247 92.4741 34.3114 99.2355C42.8981 105.997 55.4769 104.49 62.2383 95.9028L72.4804 82.885C79.1541 74.3024 77.6537 61.7291 69.067 54.9677Z" fill="#9D3A9E"/>
<path d="M62.6257 54.1562C64.5857 52.8586 66.6652 53.3531 66.6652 53.3531C61.9784 50.6834 57.1723 50.338 53.1564 51.0753C53.1353 51.1093 53.1204 51.1426 53.1 51.1828C51.6502 54.119 51.6826 57.7659 53.1486 60.6625C54.763 60.0545 56.4897 59.861 58.1112 60.0514C58.7773 60.1482 59.2876 60.2572 60.3098 60.5947C60.3153 60.5878 59.4526 56.2595 62.6257 54.1562ZM50.8908 61.8384C50.8996 61.2268 50.8643 60.6141 50.829 60.0015C50.6902 57.3619 50.826 54.702 51.232 52.0918C51.2602 51.9059 51.2869 51.7076 51.3136 51.5093C49.4322 52.0422 47.6214 52.85 45.9564 53.9299C43.6253 57.8147 45.0809 62.3114 48.5616 63.9983C49.212 63.1717 50.006 62.4412 50.8908 61.8384Z" fill="#89128A"/>
<path d="M83.9157 36.1945C88.4406 39.8277 89.2241 46.3936 85.6813 50.9895L75.4392 64.0074C74.3243 65.4245 72.7744 66.5725 71.093 67.2515C69.4116 67.9305 67.5871 68.1483 65.8834 67.955C64.0894 67.6907 62.3218 67.0142 60.824 65.9089L60.6504 65.7722C56.0448 62.1487 55.2612 55.5828 58.8848 50.9772L69.1269 37.9594C72.7442 33.3545 79.3908 32.5613 83.9157 36.1945ZM54.9329 73.0322C63.5188 79.7873 76.0983 78.2861 82.8597 69.6994L93.0211 56.6912C99.7763 48.1052 98.2751 35.5257 89.6884 28.7644C81.1017 22.003 68.523 23.5104 61.7616 32.0971L51.5257 45.1142C44.8457 53.6975 46.3462 66.2708 54.9329 73.0322Z" fill="#9D3A9E"/>
<path d="M51.7708 49.7489C51.7934 49.7273 51.8152 49.6995 51.8378 49.6779C52.1327 49.3532 52.4662 49.0364 52.8856 48.9109C53.3049 48.7853 53.8305 48.9177 54.0284 49.3095C54.1764 49.6003 54.1171 49.9473 54.0478 50.2639C53.0044 55.3925 52.4423 61.8105 54.6405 66.7285C54.8549 67.2064 55.0801 67.8279 54.7014 68.1878C54.4815 68.4028 54.1179 68.4148 53.834 68.3039C50.7291 67.0756 49.7107 62.8667 49.2246 59.9537C48.6218 56.2742 49.2207 52.5898 51.7708 49.7489Z" fill="#D8B0D8"/>
<path d="M67.0866 68.013C66.6835 68.0107 66.2518 67.9804 66.2518 67.9804C66.2518 67.9804 66.506 70.6378 64.652 73.0872C62.5964 75.7999 60.2494 76.017 60.2494 76.017C61.5695 76.5834 64.1214 77.0278 65.0403 77.1322L65.1222 77.028C67.2147 74.3613 67.8255 71.0405 67.0866 68.013ZM78.3963 60.2494L75.4833 63.9519C76.7486 67.5397 76.9873 71.4389 76.1355 75.1661C77.6747 74.4033 79.1259 73.4308 80.4464 72.2598C82.3375 67.905 81.2422 63.1576 78.3963 60.2494Z" fill="#89128A"/>
<path d="M72.3066 66.5529C71.7978 65.6128 70.9153 64.7047 69.9707 64.9118C69.3815 65.0388 68.5235 65.7077 68.7892 67.4069C68.9904 68.7236 69.6472 69.9544 69.1339 71.7718C68.381 74.4298 68.7045 75.0835 69.0071 75.4566C69.339 75.8639 69.8778 76.001 70.3549 75.9377C71.614 75.7812 72.5188 74.5025 72.9387 73.1683C73.6219 71.0348 73.3793 68.5271 72.3066 66.5529ZM56.1184 92.5102C56.4763 92.1339 57.3754 90.9125 57.9362 91.5506C57.9905 93.4827 56.7056 95.216 55.2165 96.4511C53.3839 97.9727 51.1222 99.0106 48.7496 99.2245C46.7818 99.4026 43.4351 98.9964 42.0762 97.3143C40.969 95.9483 42.906 95.4591 44.0471 95.7384C48.1152 96.7572 52.519 96.2632 56.1184 92.5102Z" fill="#D8B0D8"/>
</g>
<path d="M120.125 137.25C135.658 137.25 148.25 124.658 148.25 109.125C148.25 93.592 135.658 81 120.125 81C104.592 81 92 93.592 92 109.125C92 124.658 104.592 137.25 120.125 137.25Z" fill="#89128A"/>
<path opacity="0.25" d="M120.125 81C115.977 80.9795 111.876 81.8766 108.116 83.6271C104.356 85.3775 101.029 87.938 98.375 91.125C103.707 86.157 110.758 83.4524 118.045 83.581C125.331 83.7095 132.283 86.6612 137.436 91.8142C142.589 96.9672 145.541 103.919 145.669 111.205C145.798 118.492 143.093 125.543 138.125 130.875C142.621 127.189 145.864 122.201 147.409 116.596C148.953 110.991 148.723 105.045 146.749 99.5769C144.776 94.1084 141.156 89.3859 136.388 86.0592C131.62 82.7325 125.939 80.965 120.125 81Z" fill="white"/>
<path d="M131.375 103.5L116.375 118.5L108.875 111" stroke="white" stroke-width="3.75" stroke-miterlimit="10" stroke-linecap="round" stroke-linejoin="round"/>
<path d="M120.125 137.25C135.658 137.25 148.25 124.658 148.25 109.125C148.25 93.592 135.658 81 120.125 81C104.592 81 92 93.592 92 109.125C92 124.658 104.592 137.25 120.125 137.25Z" stroke="white" stroke-width="3.75" stroke-miterlimit="10" stroke-linecap="round" stroke-linejoin="round"/>
<defs>
<clipPath id="clip0_434_6576">
<rect width="80" height="80" fill="white" transform="translate(17.542 29.0215) rotate(-6.80533)"/>
</clipPath>
</defs>
</svg>
