<svg width="41" height="40" viewBox="0 0 41 40" fill="none" xmlns="http://www.w3.org/2000/svg">
<g clip-path="url(#clip0_581_6609)">
<path fill-rule="evenodd" clip-rule="evenodd" d="M8 34.9998H36.3333C37.714 34.9998 38.8333 33.8805 38.8333 32.4998V14.1665C38.8333 12.7858 37.714 11.6665 36.3333 11.6665H18.8333L14.5656 7.39874C14.0967 6.9299 13.4608 6.6665 12.7978 6.6665H8C6.61929 6.6665 5.5 7.78579 5.5 9.1665V32.4998C5.5 33.8805 6.61929 34.9998 8 34.9998Z" fill="#D1822C"/>
<path fill-rule="evenodd" clip-rule="evenodd" d="M4.66699 31.6668H33.0003C34.381 31.6668 35.5003 30.5475 35.5003 29.1668V10.8335C35.5003 9.45279 34.381 8.3335 33.0003 8.3335H15.5003L11.2326 4.06573C10.7637 3.59689 10.1278 3.3335 9.46479 3.3335H4.66699C3.28628 3.3335 2.16699 4.45278 2.16699 5.8335V29.1668C2.16699 30.5475 3.28628 31.6668 4.66699 31.6668Z" fill="#F3B357"/>
<path fill-rule="evenodd" clip-rule="evenodd" d="M24.5601 22.5095H21.2993V25.8556C21.2993 26.3159 20.9262 26.689 20.466 26.689H18.7605C18.3002 26.689 17.9271 26.3159 17.9271 25.8556V22.5095H14.6663C14.2061 22.5095 13.833 22.1364 13.833 21.6762C13.833 21.479 13.9029 21.2882 14.0303 21.1377L18.9772 15.2949C19.2746 14.9437 19.8004 14.9 20.1517 15.1974C20.1868 15.2272 20.2195 15.2598 20.2492 15.2949L25.1961 21.1377C25.4935 21.489 25.4498 22.0148 25.0986 22.3122C24.9481 22.4396 24.7573 22.5095 24.5601 22.5095Z" fill="#EB9B2C"/>
</g>
<defs>
<clipPath id="clip0_581_6609">
<rect width="40" height="40" fill="white" transform="translate(0.5)"/>
</clipPath>
</defs>
</svg>
