<svg width="1264" height="170" viewBox="0 0 1264 170" fill="none" xmlns="http://www.w3.org/2000/svg">
<g clip-path="url(#clip0_243_4902)">
<rect width="1264" height="170" rx="8" fill="#F8F1F8"/>
<g opacity="0.218">
<path opacity="0.54" d="M1288.24 207.528C1296.56 181.471 1275.79 153.113 1249.98 144.079C1224.18 135.045 1195.67 140.508 1169.41 148.152C1143.15 155.797 1116.84 165.604 1089.5 165.065C1032.93 163.936 987.515 119.905 949.69 77.8331C911.865 35.7612 870.029 -10.2453 813.92 -17.6296C769.929 -23.4115 726.966 -3.77733 683.05 2.52763C606.387 13.54 524.915 -19.5997 477.725 -81.023" stroke="#89128A" stroke-width="0.937053" stroke-miterlimit="10"/>
<path opacity="0.54" d="M1287.65 214.885C1295.97 188.864 1275.44 160.501 1249.79 151.213C1247.5 150.378 1245.18 149.679 1242.84 149.052C1219.05 142.855 1193.31 147.693 1169.4 154.36C1164.79 155.643 1160.16 156.996 1155.54 158.352C1133.85 164.715 1112 171.084 1089.5 170.519C1082.32 170.338 1075.18 169.475 1068.16 167.939C1021.39 157.787 982.882 119.61 950.262 82.7638C947.895 80.0839 945.511 77.3941 943.109 74.6942C907.578 34.7612 868.269 -5.74932 816.693 -14.5074C801.968 -16.9554 786.957 -17.1452 772.176 -15.0702C754.446 -12.6923 736.757 -7.51551 719.336 -2.62373C707.434 0.718252 695.608 3.92608 683.636 6.14049C678.008 7.18093 672.339 7.97758 666.63 8.53038C629.752 11.7477 592.673 5.27942 559.062 -10.2343C525.245 -25.6023 495.783 -49.1444 473.334 -78.7383" stroke="#89128A" stroke-width="0.937053" stroke-miterlimit="10"/>
<path opacity="0.54" d="M1287.05 222.241C1295.4 196.241 1275.11 167.884 1249.61 158.342C1247.33 157.49 1245.03 156.748 1242.7 156.116C1219.03 149.692 1193.32 154.21 1169.39 160.579C1164.76 161.817 1160.15 163.11 1155.53 164.414C1133.82 170.527 1111.96 176.684 1089.49 176.001C1082.32 175.782 1075.18 174.889 1068.18 173.332C1021.44 162.995 983.112 124.775 950.822 87.7234C948.477 85.033 946.117 82.3228 943.748 79.6134C908.634 39.465 870.025 -0.809778 819.429 -11.3351C804.62 -14.5535 789.39 -15.372 774.321 -13.7591C756.077 -11.7203 737.837 -6.04264 720.208 -0.486339C708.178 3.30225 696.286 7.05431 684.198 9.78054C678.507 11.0579 672.777 12.0956 666.977 12.8521C630.019 17.6846 590.925 10.8406 556.401 -5.10362C521.731 -21.1903 491.654 -45.7222 468.926 -76.4506" stroke="#89128A" stroke-width="0.937053" stroke-miterlimit="10"/>
<path opacity="0.54" d="M1286.47 229.596C1294.83 203.635 1274.79 175.271 1249.43 165.489C1247.17 164.617 1244.88 163.852 1242.56 163.196C1218.99 156.534 1193.33 160.728 1169.37 166.811C1164.75 167.989 1160.12 169.229 1155.5 170.474C1133.79 176.334 1111.91 182.285 1089.48 181.482C1082.31 181.228 1075.19 180.306 1068.2 178.731C1021.51 168.22 983.351 129.95 951.386 92.6885L944.394 84.5348C909.696 44.1592 871.759 4.08534 822.182 -8.17653C807.303 -12.1658 791.855 -13.6054 776.495 -12.4342C757.726 -10.7456 738.944 -4.55339 721.113 1.67614C708.934 5.91797 696.993 10.2234 684.789 13.4445C679.052 14.9662 673.248 16.2305 667.352 17.192C629.78 23.3541 589.216 16.627 553.774 0.0578133C518.253 -16.7595 487.56 -42.2837 464.547 -74.1427" stroke="#89128A" stroke-width="0.937053" stroke-miterlimit="10"/>
<path opacity="0.54" d="M1285.88 236.966C1294.24 211.025 1274.45 182.667 1249.26 172.631C1247 171.731 1244.73 170.954 1242.43 170.27C1218.97 163.374 1193.35 167.252 1169.37 173.047C1164.75 174.162 1160.12 175.355 1155.49 176.554C1133.77 182.165 1111.87 187.893 1089.46 186.989C1082.31 186.699 1075.2 185.747 1068.22 184.146C1021.55 173.462 983.592 135.126 951.939 97.6738C949.638 94.9524 947.333 92.2168 945.025 89.4671C910.747 48.8774 873.471 8.91789 824.924 -4.99763C810.057 -9.26534 794.943 -12.2574 778.658 -11.0978C759.352 -9.75297 740.04 -3.05456 722.004 3.83629C709.695 8.53985 697.687 13.3776 685.357 17.1119C679.567 18.8674 673.683 20.3585 667.691 21.5438C629.51 29.0441 587.468 22.4141 551.112 5.23117C514.735 -12.3116 483.424 -38.8261 460.126 -71.8146" stroke="#89128A" stroke-width="0.937053" stroke-miterlimit="10"/>
<path opacity="0.54" d="M1285.28 244.323C1293.67 218.414 1274.12 190.043 1249.08 179.76C1246.84 178.838 1244.57 178.03 1242.28 177.335C1218.94 170.189 1193.35 173.767 1169.35 179.265C1164.72 180.327 1160.09 181.471 1155.46 182.612C1133.74 187.978 1111.81 193.495 1089.45 192.466C1082.3 192.141 1075.2 191.161 1068.23 189.538C1021.6 178.668 983.817 140.294 952.489 102.634C950.207 99.8941 947.939 97.1514 945.65 94.3883C911.795 53.5813 875.158 13.6786 827.655 -1.83669C812.719 -6.71097 797.524 -10.6492 780.807 -9.79244C760.979 -8.7867 741.122 -1.58492 722.863 5.97321C710.407 11.13 698.339 16.5125 685.906 20.7496C680.037 22.7588 674.069 24.4635 668.025 25.8568C629.229 34.6867 585.72 28.1792 548.444 10.3657C511.109 -7.47506 479.532 -35.736 455.703 -69.5259" stroke="#89128A" stroke-width="0.937053" stroke-miterlimit="10"/>
<path opacity="0.54" d="M1284.69 251.68C1293.09 225.793 1273.79 197.424 1248.89 186.896C1246.67 185.956 1244.41 185.122 1242.13 184.402C1218.9 177.038 1193.36 180.273 1169.35 185.498C1164.71 186.505 1160.09 187.583 1155.45 188.673C1133.73 193.784 1111.78 199.086 1089.45 197.943C1082.31 197.576 1075.21 196.563 1068.26 194.919C1021.66 183.877 984.061 145.438 953.06 107.582C950.803 104.834 948.55 102.071 946.299 99.2936C912.858 58.2726 876.852 18.3597 830.413 1.31965C815.42 -4.1759 800.13 -9.06822 782.977 -8.48533C762.625 -7.82612 742.226 -0.116072 723.765 8.11717C711.175 13.7226 699.044 19.6487 686.496 24.3969C680.57 26.6552 674.525 28.5884 668.389 30.1879C628.98 40.3447 583.991 33.9405 545.806 15.5164C507.555 -2.93745 475.521 -32.383 451.318 -67.2226" stroke="#89128A" stroke-width="0.937053" stroke-miterlimit="10"/>
<path opacity="0.54" d="M1284.1 259.034C1292.53 233.182 1273.45 204.809 1248.72 194.033C1246.51 193.076 1244.27 192.223 1241.99 191.475C1218.88 183.862 1193.37 186.797 1169.34 191.715C1164.71 192.669 1160.07 193.698 1155.44 194.733C1133.69 199.606 1111.74 204.681 1089.44 203.428C1082.31 203.029 1075.24 201.986 1068.29 200.312C1021.73 189.101 984.309 150.612 953.639 112.545C951.413 109.773 949.186 106.996 946.958 104.215C913.937 62.9783 878.573 22.9881 833.181 4.47788C818.119 -1.66199 802.753 -7.45397 785.163 -7.17266C764.285 -6.86495 743.346 1.36091 724.676 10.2549C711.935 16.3168 699.757 22.7804 687.075 28.0427C681.094 30.5429 674.977 32.7032 668.752 34.5134C628.733 46.0111 582.271 39.7126 543.168 20.6634C504 1.58466 471.513 -29.0261 446.926 -64.9221" stroke="#89128A" stroke-width="0.937053" stroke-miterlimit="10"/>
<path opacity="0.54" d="M1283.51 266.405C1291.95 240.588 1273.12 212.21 1248.54 201.181C1246.34 200.19 1244.1 199.322 1241.85 198.553C1218.84 190.702 1193.39 193.31 1169.32 197.946C1164.68 198.838 1160.05 199.809 1155.42 200.791C1133.66 205.412 1111.69 210.281 1089.43 208.911C1082.31 208.479 1075.24 207.411 1068.31 205.72C1021.78 194.326 984.532 155.781 954.193 117.518C951.992 114.737 949.79 111.942 947.586 109.133C914.996 67.6782 880.259 27.5696 835.913 7.647C820.779 0.848355 805.32 -5.84553 787.318 -5.84673C765.92 -5.87243 744.434 2.84928 725.559 12.4065C712.685 18.9163 700.447 25.9354 687.65 31.7107C681.616 34.4517 675.427 36.8383 669.114 38.8586C628.489 51.6806 580.555 45.4871 540.526 25.8308C500.446 6.1376 467.496 -25.6596 442.529 -62.5988" stroke="#89128A" stroke-width="0.937053" stroke-miterlimit="10"/>
<path opacity="0.54" d="M1282.92 273.761C1291.37 247.962 1272.78 219.594 1248.35 208.31C1246.17 207.304 1243.95 206.406 1241.7 205.618C1218.82 197.537 1193.41 199.82 1169.31 204.17C1164.67 205.008 1160.03 205.928 1155.4 206.86C1133.63 211.23 1111.65 215.887 1089.42 214.399C1082.31 213.93 1075.25 212.831 1068.33 211.114C1021.83 199.541 984.768 160.952 954.748 122.484C952.569 119.695 950.394 116.877 948.22 114.06C916.049 72.3893 881.956 32.0952 838.669 10.8205C823.471 3.35035 807.923 -4.23858 789.487 -4.5269C767.564 -4.90731 745.533 4.32151 726.44 14.5554C713.423 21.5315 701.131 29.0783 688.219 35.361C682.132 38.3496 675.868 40.9642 669.463 43.1901C628.223 57.3611 578.819 51.2676 537.874 30.9837C496.877 10.6693 463.463 -22.2954 438.12 -60.2917" stroke="#89128A" stroke-width="0.937053" stroke-miterlimit="10"/>
<path opacity="0.54" d="M1282.32 281.12C1290.79 255.356 1272.45 226.969 1248.18 215.453C1246.01 214.427 1243.81 213.507 1241.57 212.694C1218.79 204.372 1193.41 206.338 1169.3 210.408C1164.67 211.193 1160.02 212.059 1155.38 212.939C1133.61 217.071 1111.6 221.497 1089.41 219.9C1082.31 219.397 1075.26 218.267 1068.35 216.523C1021.89 204.778 985.01 166.139 955.315 127.458C953.156 124.648 951.007 121.826 948.867 118.991C917.113 77.1077 883.671 36.5681 841.417 13.9888C826.151 5.8316 810.525 -2.6242 791.651 -3.19899C769.202 -3.92902 746.63 5.81182 727.335 16.7208C714.17 24.1502 701.829 32.2378 688.801 39.0298C682.659 42.2602 676.32 45.1023 669.822 47.5393C627.967 63.0336 577.09 57.0502 535.227 36.1413C493.314 15.212 459.449 -18.9268 433.717 -57.9781" stroke="#89128A" stroke-width="0.937053" stroke-miterlimit="10"/>
<path opacity="0.54" d="M1281.74 288.475C1290.23 262.73 1272.13 234.349 1248 222.584C1245.86 221.532 1243.67 220.588 1241.43 219.755C1218.75 211.196 1193.43 212.849 1169.31 216.62C1164.67 217.35 1160.01 218.155 1155.37 218.981C1133.59 222.861 1111.56 227.08 1089.4 225.369C1082.3 224.829 1075.26 223.67 1068.36 221.905C1021.93 209.973 985.238 171.281 955.866 132.408C953.728 129.591 951.61 126.738 949.492 123.89C918.161 81.7948 885.393 40.9704 844.154 17.1374C828.827 8.28027 813.109 -1.04032 793.809 -1.90743C770.84 -2.97462 747.721 7.2677 728.22 18.8386C714.918 26.711 702.516 35.3478 689.373 42.6491C683.177 46.1273 676.762 49.1976 670.167 51.8405C627.697 68.6624 575.345 62.7872 532.57 41.264C489.745 19.7184 455.421 -15.5962 429.304 -55.7014" stroke="#89128A" stroke-width="0.937053" stroke-miterlimit="10"/>
<path opacity="0.54" d="M1281.15 295.844C1289.65 270.134 1271.79 241.753 1247.82 229.727C1245.68 228.658 1243.49 227.69 1241.28 226.823C1218.72 218.023 1193.42 219.357 1169.28 222.841C1164.63 223.509 1159.99 224.267 1155.35 225.04C1133.56 228.669 1111.53 232.674 1089.39 230.848C1082.3 230.27 1075.27 229.079 1068.39 227.288C1021.99 215.186 985.478 176.432 956.432 137.359C954.316 134.52 952.218 131.666 950.138 128.798C919.22 86.4682 887.154 45.3239 846.907 20.2828C831.515 10.7121 815.702 0.555679 795.978 -0.602538C772.475 -2.0167 748.823 8.73501 729.104 20.9738C715.657 29.3051 703.194 38.4929 689.934 46.2915C683.686 50.0096 677.198 53.3073 670.512 56.1627C627.434 74.3247 573.601 68.5579 529.912 46.402C486.171 24.2308 451.393 -12.2483 424.905 -53.4038" stroke="#89128A" stroke-width="0.937053" stroke-miterlimit="10"/>
<path opacity="0.54" d="M1280.55 303.201C1289.07 277.511 1271.46 249.135 1247.63 236.862C1245.5 235.767 1243.34 234.775 1241.13 233.886C1218.67 224.854 1193.43 225.873 1169.26 229.072C1164.6 229.689 1159.96 230.379 1155.32 231.113C1133.51 234.494 1111.47 238.28 1089.37 236.341C1082.28 235.731 1075.27 234.51 1068.4 232.692C1022.04 220.414 985.703 181.61 956.988 142.327C954.908 139.475 952.833 136.597 950.778 133.724C920.278 91.181 888.926 49.6699 849.648 23.4714C834.211 13.1672 818.289 2.17784 798.128 0.733158C774.107 -1.03395 749.909 10.2344 729.985 23.147C716.406 31.9407 703.881 41.6695 690.502 49.9662C684.201 53.919 677.641 57.4431 670.866 60.5145C627.173 80.0042 571.872 74.343 527.266 51.5811C482.613 28.7936 447.382 -8.86084 420.503 -51.0814" stroke="#89128A" stroke-width="0.937053" stroke-miterlimit="10"/>
<path opacity="0.54" d="M1279.97 310.553C1288.5 284.902 1271.14 256.515 1247.46 244C1245.36 242.884 1243.19 241.871 1241 240.958C1218.67 231.69 1193.45 232.382 1169.27 235.29C1164.61 235.854 1159.96 236.495 1155.31 237.163C1133.5 240.305 1111.43 243.87 1089.37 241.813C1082.3 241.163 1075.29 239.918 1068.43 238.089C1022.1 225.639 985.948 186.783 957.547 147.298C955.487 144.427 953.435 141.54 951.41 138.656C921.333 95.9066 890.707 53.9845 852.384 26.6315C836.896 15.5813 820.875 3.7852 800.294 2.04808C775.753 -0.0561816 751.018 11.7077 730.876 25.2863C717.152 34.5345 704.572 44.7935 691.07 53.6128C684.719 57.8139 678.084 61.5678 671.213 64.8473C626.903 85.6653 570.135 80.1223 524.611 56.7354C479.039 33.3235 443.352 -5.49728 416.088 -48.7735" stroke="#89128A" stroke-width="0.937053" stroke-miterlimit="10"/>
<path opacity="0.54" d="M1279.37 317.91C1287.93 292.277 1270.79 263.904 1247.28 251.131C1245.17 249.988 1243.03 248.953 1240.85 248.023C1218.62 238.518 1193.45 238.896 1169.26 241.504C1164.6 242.013 1159.95 242.601 1155.3 243.215C1133.48 246.107 1111.4 249.463 1089.36 247.287C1082.3 246.603 1075.31 245.325 1068.46 243.468C1022.16 230.833 986.192 191.927 958.123 152.244C956.087 149.365 954.066 146.466 952.062 143.548C922.401 100.573 892.535 58.2221 855.147 29.774C839.634 17.9711 823.489 5.36172 802.469 3.33693C777.403 0.884249 752.13 13.1595 731.778 27.4015C717.916 37.097 705.276 47.9008 691.661 57.2306C685.258 61.6701 678.548 65.6501 671.583 69.1406C626.664 91.2987 568.415 85.8514 521.978 61.8508C475.49 37.8259 439.349 -2.17213 411.698 -46.4978" stroke="#89128A" stroke-width="0.937053" stroke-miterlimit="10"/>
<path opacity="0.54" d="M1278.78 325.279C1287.35 299.682 1270.46 271.287 1247.1 258.275C1245.01 257.112 1242.89 256.053 1240.71 255.099C1218.6 245.353 1193.47 245.422 1169.25 247.744C1164.59 248.188 1159.93 248.72 1155.29 249.285C1133.45 251.924 1111.36 255.059 1089.36 252.776C1082.31 252.055 1075.32 250.746 1068.49 248.865C1022.22 236.057 986.438 197.099 958.695 157.206C956.684 154.306 954.689 151.393 952.712 148.467C923.469 105.279 894.392 62.4733 857.904 32.9283C842.373 20.3549 826.085 6.96661 804.635 4.65083C779.043 1.84852 753.227 14.6365 732.657 29.5444C718.648 39.695 705.962 51.049 692.227 60.875C685.777 65.5581 678.995 69.7649 671.935 73.4622C626.401 96.9479 566.683 91.6195 519.328 66.992C471.924 42.3415 435.33 1.17829 407.292 -44.2024" stroke="#89128A" stroke-width="0.937053" stroke-miterlimit="10"/>
<path opacity="0.54" d="M1278.19 332.639C1286.76 307.065 1270.13 278.674 1246.92 265.42C1244.84 264.24 1242.74 263.151 1240.57 262.18C1218.57 252.204 1193.47 251.944 1169.23 253.976C1164.56 254.362 1159.92 254.849 1155.26 255.357C1133.42 257.746 1111.3 260.673 1089.35 258.275C1082.3 257.521 1075.33 256.183 1068.5 254.275C1022.28 241.299 986.668 202.286 959.253 162.184C957.259 159.277 955.298 156.341 953.352 153.404C924.529 110 896.27 66.7166 860.654 36.1161C845.113 22.7569 828.685 8.59732 806.821 5.99339C780.708 2.85393 754.348 16.1427 733.573 31.7245C719.429 42.3237 706.681 54.2232 692.819 64.5624C686.316 69.486 679.457 73.9219 672.299 77.834C626.155 102.661 564.958 97.4272 516.69 72.1853C468.375 46.9203 431.322 4.57944 402.91 -41.859" stroke="#89128A" stroke-width="0.937053" stroke-miterlimit="10"/>
<path opacity="0.54" d="M1277.6 339.993C1286.21 314.45 1269.8 286.059 1246.74 272.55C1244.68 271.341 1242.58 270.238 1240.43 269.241C1218.53 259.028 1193.49 258.454 1169.23 260.2C1164.57 260.536 1159.9 260.958 1155.26 261.423C1133.4 263.552 1111.28 266.278 1089.34 263.761C1082.3 262.967 1075.34 261.598 1068.52 259.669C1022.33 246.502 986.896 207.445 959.81 167.146C957.837 164.218 955.895 161.278 953.985 158.326C925.583 114.708 898.153 70.9163 863.396 39.2794C847.856 25.1305 831.276 10.1979 808.971 7.30441C782.333 3.81466 755.423 17.6 734.449 33.8618C720.163 44.9274 707.349 57.3566 693.392 68.2129C686.839 73.3755 679.908 78.0383 672.657 82.1617C625.887 108.32 563.232 103.201 514.043 77.3233C464.814 51.4446 427.306 7.92914 398.507 -39.565" stroke="#89128A" stroke-width="0.937053" stroke-miterlimit="10"/>
<path opacity="0.54" d="M1277.01 347.349C1285.62 321.831 1269.47 293.442 1246.56 279.678C1244.52 278.447 1242.42 277.329 1240.3 276.299C1218.52 265.844 1193.51 264.951 1169.23 266.416C1164.56 266.701 1159.9 267.066 1155.24 267.47C1133.39 269.368 1111.23 271.857 1089.33 269.218C1082.3 268.387 1075.35 266.993 1068.55 265.049C1022.39 251.71 987.154 212.602 960.374 172.096C958.436 169.154 956.507 166.196 954.612 163.227C926.627 119.393 900.059 75.0957 866.133 42.4261C850.619 27.4789 833.86 11.78 811.116 8.61141C783.953 4.77136 756.504 19.0724 735.32 35.9932C720.886 47.512 708.023 60.482 693.948 71.8464C687.345 77.2529 680.337 82.1442 672.986 86.4771C625.602 113.967 561.473 108.952 511.372 82.4639C461.225 55.9603 423.256 11.291 394.087 -37.2667" stroke="#89128A" stroke-width="0.937053" stroke-miterlimit="10"/>
<path opacity="0.54" d="M1276.42 354.72C1285.05 329.233 1269.14 300.839 1246.38 286.825C1244.34 285.575 1242.27 284.428 1240.14 283.384C1218.47 272.703 1193.51 271.481 1169.21 272.642C1164.53 272.863 1159.87 273.189 1155.22 273.537C1133.35 275.183 1111.18 277.462 1089.31 274.7C1082.29 273.833 1075.35 272.406 1068.56 270.433C1022.44 256.92 987.377 217.743 960.928 177.044C959.01 174.083 957.115 171.113 955.242 168.135C927.685 124.072 901.996 79.2733 868.874 45.5828C853.384 29.8379 836.441 13.3873 813.288 9.90972C785.604 5.73318 757.61 20.537 736.212 38.1331C721.641 50.1012 708.719 63.6152 694.518 75.4929C687.866 81.1342 680.786 86.2502 673.342 90.7945C625.349 119.622 559.743 114.717 508.725 87.599C457.665 60.4817 419.232 14.6154 389.676 -34.981" stroke="#89128A" stroke-width="0.937053" stroke-miterlimit="10"/>
<path opacity="0.54" d="M1275.82 362.077C1284.47 336.615 1268.8 308.217 1246.19 293.969C1244.18 292.701 1242.1 291.522 1240 290.463C1218.44 279.541 1193.51 278.001 1169.2 278.885C1164.52 279.062 1159.85 279.315 1155.2 279.617C1133.33 281.014 1111.15 283.079 1089.31 280.207C1082.3 279.302 1075.37 277.847 1068.59 275.853C1022.49 262.162 987.611 222.948 961.493 182.041C959.598 179.071 957.725 176.081 955.89 173.09C928.751 128.809 903.97 83.4784 871.629 48.775C856.186 32.2093 839.045 15.0123 815.459 11.2595C787.249 6.73266 758.711 22.0542 737.103 40.3111C722.385 52.7324 709.416 66.7992 695.096 79.1724C688.397 85.0551 681.244 90.4009 673.705 95.16C625.097 125.315 558.029 120.513 506.084 92.7848C454.139 65.0564 415.229 17.9932 385.278 -32.6556" stroke="#89128A" stroke-width="0.937053" stroke-miterlimit="10"/>
<path opacity="0.54" d="M1275.24 369.43C1283.91 343.994 1268.48 315.597 1246.03 301.095C1244.02 299.798 1241.97 298.605 1239.87 297.517C1218.43 286.354 1193.54 284.507 1169.2 285.09C1164.53 285.202 1159.85 285.414 1155.2 285.653C1133.3 286.801 1111.12 288.657 1089.31 285.664C1082.31 284.728 1075.39 283.242 1068.62 281.219C1022.56 267.349 987.863 228.072 962.075 186.966C960.2 183.972 958.358 180.974 956.55 177.971C929.83 133.474 906.002 87.6058 874.4 51.9065C859.017 34.5306 841.667 16.5905 817.639 12.5381C788.901 7.66229 759.829 23.4977 738.015 42.4121C723.16 55.2978 710.131 69.8924 695.685 82.7807C688.937 88.9069 681.707 94.4819 674.067 99.452C624.851 130.935 556.308 126.252 503.445 97.8984C450.582 69.5449 411.212 21.3343 380.896 -30.3756" stroke="#89128A" stroke-width="0.937053" stroke-miterlimit="10"/>
<path opacity="0.54" d="M1274.64 376.789C1283.32 351.381 1268.14 322.982 1245.83 308.231C1243.84 306.916 1241.8 305.701 1239.71 304.587C1218.37 293.187 1193.52 291.018 1169.17 291.322C1164.5 291.384 1159.83 291.518 1155.18 291.725C1133.26 292.639 1111.05 294.265 1089.29 291.162C1082.3 290.186 1075.39 288.669 1068.64 286.623C1022.62 272.58 988.093 233.256 962.632 191.94C960.782 188.941 958.961 185.918 957.184 182.894C930.878 138.176 908.003 91.7918 877.131 55.0679C861.825 36.8606 844.243 18.1879 819.798 13.855C790.521 8.64867 760.924 24.9801 738.887 44.5599C723.891 57.8963 710.807 73.0317 696.246 86.4293C689.445 92.789 682.144 98.5909 674.412 103.779C624.582 136.606 554.565 132.014 500.789 103.048C447.013 74.0829 407.188 24.6933 376.484 -28.0698" stroke="#89128A" stroke-width="0.937053" stroke-miterlimit="10"/>
<path opacity="0.54" d="M1274.05 384.157C1282.75 358.781 1267.81 330.382 1245.66 315.386C1243.68 314.05 1241.65 312.795 1239.58 311.675C1218.36 300.034 1193.55 297.551 1169.18 297.555C1164.5 297.565 1159.83 297.644 1155.16 297.792C1133.25 298.45 1111.03 299.864 1089.29 296.646C1082.31 295.638 1075.41 294.092 1068.66 292.021C1022.67 277.791 988.329 238.431 963.199 196.905C961.366 193.885 959.579 190.85 957.828 187.816C931.947 142.89 910.054 95.9614 879.883 58.2424C864.665 39.2167 846.832 19.8017 821.962 15.1759C792.169 9.61594 762.01 26.4585 739.782 46.7183C724.655 60.5126 711.502 76.1848 696.829 90.0928C689.979 96.6948 682.601 102.725 674.768 108.124C624.323 142.277 552.837 137.806 498.143 108.213C443.449 78.6212 403.172 28.0701 372.081 -25.7505" stroke="#89128A" stroke-width="0.937053" stroke-miterlimit="10"/>
<path opacity="0.54" d="M1277.47 406.213C1286.18 380.86 1271.48 352.465 1249.48 337.217C1247.52 335.849 1245.5 334.596 1243.43 333.426C1222.31 321.56 1197.54 318.747 1173.15 318.463C1168.48 318.407 1163.8 318.454 1159.13 318.541C1137.21 318.947 1114.96 320.157 1093.26 316.82C1086.29 315.771 1079.4 314.199 1072.67 312.117C1026.71 297.715 992.548 258.289 967.738 216.569C965.931 213.541 964.167 210.498 962.446 207.441C936.977 162.301 916.095 114.841 886.608 76.1019C871.493 56.2337 853.409 36.1054 828.103 31.1949C797.784 25.2872 767.092 42.6392 744.651 63.563C729.373 77.8031 716.165 94.0394 701.374 108.443C694.475 115.282 687.025 121.54 679.098 127.154C628.041 162.645 555.077 158.271 499.455 128.056C443.833 97.8399 403.114 46.1201 371.636 -8.75179" stroke="#89128A" stroke-width="0.937053" stroke-miterlimit="10"/>
<path opacity="0.54" d="M1272.87 398.87C1281.61 373.549 1267.14 345.14 1245.3 329.647C1243.35 328.261 1241.35 326.976 1239.29 325.79C1218.29 313.68 1193.56 310.559 1169.15 309.99C1164.47 309.878 1159.78 309.866 1155.12 309.908C1133.2 310.065 1110.93 311.051 1089.26 307.611C1082.29 306.524 1075.42 304.919 1068.7 302.809C1022.78 288.247 988.797 248.76 964.312 206.832C962.535 203.78 960.801 200.726 959.095 197.649C934.051 152.292 914.183 104.313 885.367 64.5614C870.361 43.8631 852.017 22.9996 826.285 17.7986C795.445 11.5545 764.207 29.4054 741.558 50.9918C726.143 65.6811 712.873 82.4566 697.97 97.3725C691.024 104.448 683.501 110.934 675.479 116.761C623.808 153.58 549.368 149.312 492.833 118.484C436.298 87.6569 395.122 34.7589 363.259 -21.1669" stroke="#89128A" stroke-width="0.937053" stroke-miterlimit="10"/>
<path opacity="0.54" d="M1272.28 406.227C1281.02 380.928 1266.81 352.525 1245.12 336.776C1243.18 335.376 1241.19 334.061 1239.15 332.852C1218.26 320.518 1193.58 317.07 1169.14 316.202C1164.45 316.04 1159.77 315.969 1155.1 315.949C1133.17 315.853 1110.9 316.63 1089.26 313.081C1082.3 311.962 1075.44 310.328 1068.72 308.194C1022.83 293.449 989.041 253.903 964.874 211.777C963.121 208.716 961.409 205.642 959.736 202.553C935.112 156.981 916.29 108.485 888.115 67.7027C873.24 46.1644 854.603 24.5921 828.449 19.0975C797.085 12.5024 765.301 30.8548 742.44 53.1322C726.883 68.2879 713.56 85.5948 698.53 101.02C691.536 108.336 683.936 115.049 675.812 121.088C623.529 159.236 547.617 155.087 490.157 123.636C432.697 92.1839 391.075 38.118 358.826 -18.8634" stroke="#89128A" stroke-width="0.937053" stroke-miterlimit="10"/>
<path opacity="0.54" d="M1271.69 413.598C1280.46 388.336 1266.48 359.924 1244.93 343.941C1243.01 342.52 1241.03 341.19 1238.99 339.951C1218.21 327.375 1193.57 323.608 1169.11 322.471C1164.42 322.258 1159.73 322.124 1155.07 322.057C1133.13 321.724 1110.83 322.28 1089.23 318.6C1082.28 317.439 1075.43 315.773 1068.73 313.615C1022.88 298.682 989.266 259.102 965.425 216.771C963.692 213.689 962.006 210.6 960.367 207.504C936.161 161.717 918.406 112.71 890.857 70.9021C876.117 48.5333 857.196 26.2255 830.601 20.4439C798.714 13.4979 766.386 32.3655 743.326 55.3023C727.623 70.9105 714.249 88.7589 699.102 104.692C692.058 112.245 684.387 119.186 676.169 125.441C623.275 164.93 545.886 160.876 487.52 128.808C429.153 96.7401 387.068 41.5023 354.444 -16.5388" stroke="#89128A" stroke-width="0.937053" stroke-miterlimit="10"/>
<path opacity="0.54" d="M1271.1 420.95C1279.88 395.707 1266.15 367.306 1244.77 351.062C1242.86 349.61 1240.89 348.26 1238.88 347.004C1218.2 334.189 1193.6 330.115 1169.14 328.664C1164.45 328.384 1159.75 328.209 1155.08 328.084C1133.12 327.502 1110.81 327.835 1089.25 324.05C1082.31 322.859 1075.47 321.163 1068.78 318.977C1022.96 303.874 989.525 264.229 966.018 221.701C964.308 218.612 962.648 215.51 961.037 212.395C937.25 166.392 920.575 116.883 893.633 74.0303C879.052 50.8286 859.822 27.801 832.806 21.727C800.395 14.4451 767.525 33.8129 744.25 57.4124C728.407 73.4712 714.976 91.8631 699.718 108.316C692.626 116.105 684.882 123.273 676.57 129.743C623.06 170.561 544.202 166.625 484.919 133.934C425.636 101.243 383.097 44.8362 350.087 -14.2587" stroke="#89128A" stroke-width="0.937053" stroke-miterlimit="10"/>
<path opacity="0.54" d="M1270.51 428.307C1279.3 403.1 1265.82 374.69 1244.58 358.197C1242.68 356.727 1240.73 355.339 1238.71 354.076C1218.15 341.019 1193.59 336.621 1169.1 334.901C1164.41 334.566 1159.71 334.343 1155.04 334.161C1133.08 333.326 1110.76 333.448 1089.22 329.537C1082.29 328.312 1075.46 326.592 1068.78 324.39C1022.99 309.111 989.741 269.42 966.548 226.683C964.858 223.572 963.234 220.454 961.642 217.322C938.269 171.093 922.684 121.103 896.348 77.2065C881.933 53.1693 862.382 29.4113 834.931 23.0502C801.995 15.418 768.584 35.2979 745.101 59.5619C729.114 76.0745 715.634 95.0178 700.247 111.973C693.109 120.004 685.288 127.402 676.873 134.083C622.755 176.236 542.416 172.399 482.221 139.093C422.026 105.787 379.018 48.2087 345.628 -11.9439" stroke="#89128A" stroke-width="0.937053" stroke-miterlimit="10"/>
<path opacity="0.54" d="M1269.92 435.666C1279.51 408.234 1262.95 376.979 1238.58 361.137C1214.21 345.296 1184.06 341.643 1155.03 340.215C1126.01 338.788 1096.33 339.078 1068.8 329.787C1019.73 313.208 985.238 268.678 962.3 222.242C939.362 175.806 924.874 125.324 899.118 80.3767C884.871 55.5058 864.989 31.0416 837.117 24.3799C803.656 16.3974 769.704 36.7919 746.006 61.7331C722.309 86.6743 704.182 117.033 677.251 138.436C622.518 181.92 540.709 178.196 479.596 144.265C418.484 110.334 375.023 51.5906 341.253 -9.61781" stroke="#89128A" stroke-width="0.937053" stroke-miterlimit="10"/>
</g>
</g>
<defs>
<clipPath id="clip0_243_4902">
<rect width="1264" height="170" rx="8" fill="white"/>
</clipPath>
</defs>
</svg>
