<svg width="30" height="30" viewBox="0 0 40 40" fill="none" xmlns="http://www.w3.org/2000/svg">
<circle cx="20" cy="20" r="20" fill="#EAF0F7"/>
<path d="M29.09 14.9795C28.24 14.0395 26.82 13.5695 24.76 13.5695H24.52V13.5295C24.52 11.8495 24.52 9.76953 20.76 9.76953H19.24C15.48 9.76953 15.48 11.8595 15.48 13.5295V13.5795H15.24C13.17 13.5795 11.76 14.0495 10.91 14.9895C9.91998 16.0895 9.94998 17.5695 10.05 18.5795L10.06 18.6495L10.1374 19.4628C10.1517 19.6126 10.2324 19.7479 10.3583 19.8303C10.5981 19.9872 10.9994 20.2459 11.24 20.3795C11.38 20.4695 11.53 20.5495 11.68 20.6295C13.39 21.5695 15.27 22.1995 17.18 22.5095C17.27 23.4495 17.68 24.5495 19.87 24.5495C22.06 24.5495 22.49 23.4595 22.56 22.4895C24.6 22.1595 26.57 21.4495 28.35 20.4095C28.41 20.3795 28.45 20.3495 28.5 20.3195C28.8967 20.0953 29.3083 19.819 29.6834 19.5484C29.7965 19.4668 29.8687 19.3408 29.8841 19.2023L29.9 19.0595L29.95 18.5895C29.96 18.5295 29.96 18.4795 29.97 18.4095C30.05 17.3995 30.03 16.0195 29.09 14.9795ZM21.09 21.8295C21.09 22.8895 21.09 23.0495 19.86 23.0495C18.63 23.0495 18.63 22.8595 18.63 21.8395V20.5795H21.09V21.8295ZM16.91 13.5695V13.5295C16.91 11.8295 16.91 11.1995 19.24 11.1995H20.76C23.09 11.1995 23.09 11.8395 23.09 13.5295V13.5795H16.91V13.5695Z" fill="#2C6CAC"/>
<path d="M28.8735 21.7349C29.2271 21.5666 29.6344 21.8469 29.599 22.2369L29.24 26.1907C29.03 28.1907 28.21 30.2307 23.81 30.2307H16.19C11.79 30.2307 10.97 28.1907 10.76 26.2007L10.4193 22.4529C10.3843 22.0674 10.7822 21.7874 11.1349 21.947C12.2743 22.4625 14.3774 23.3771 15.6766 23.7174C15.8409 23.7604 15.9738 23.878 16.0457 24.0319C16.6527 25.33 17.9691 26.0207 19.87 26.0207C21.7521 26.0207 23.0852 25.3034 23.6942 24.0021C23.7662 23.8481 23.8992 23.7305 24.0636 23.6873C25.4432 23.3243 27.6818 22.3019 28.8735 21.7349Z" fill="#2C6CAC"/>
</svg>
