<svg width="56" height="40" viewBox="0 0 56 40" fill="none" xmlns="http://www.w3.org/2000/svg">
<path d="M28.9406 20.0002L33.8006 15.1402C33.9099 15.0126 33.9669 14.8486 33.9604 14.6808C33.954 14.513 33.8844 14.3539 33.7657 14.2351C33.6469 14.1164 33.4878 14.0468 33.32 14.0404C33.1522 14.0339 32.9882 14.091 32.8606 14.2002L28.0006 19.0602L23.1406 14.1935C23.0131 14.0843 22.849 14.0272 22.6813 14.0337C22.5135 14.0402 22.3543 14.1097 22.2356 14.2285C22.1169 14.3472 22.0473 14.5064 22.0408 14.6741C22.0343 14.8419 22.0914 15.006 22.2006 15.1335L27.0606 20.0002L22.194 24.8602C22.1242 24.9199 22.0675 24.9935 22.0275 25.0762C21.9875 25.1589 21.965 25.249 21.9614 25.3408C21.9579 25.4326 21.9734 25.5242 22.0069 25.6097C22.0404 25.6953 22.0912 25.773 22.1562 25.8379C22.2212 25.9029 22.2989 25.9537 22.3844 25.9873C22.47 26.0208 22.5615 26.0363 22.6533 26.0327C22.7451 26.0292 22.8352 26.0067 22.9179 25.9667C23.0007 25.9266 23.0742 25.87 23.134 25.8002L28.0006 20.9402L32.8606 25.8002C32.9882 25.9094 33.1522 25.9665 33.32 25.96C33.4878 25.9535 33.6469 25.8839 33.7657 25.7652C33.8844 25.6465 33.954 25.4873 33.9604 25.3195C33.9669 25.1518 33.9099 24.9877 33.8006 24.8602L28.9406 20.0002Z" fill="#444854"/>
<rect x="0.3" y="0.3" width="55.4" height="39.4" rx="5.7" stroke="#E5E9F2" stroke-width="0.6"/>
</svg>
