<svg width="374" height="373" viewBox="0 0 374 373" fill="none" xmlns="http://www.w3.org/2000/svg">
<path opacity="0.55" d="M182.835 328.427C208.276 328.427 228.9 323.611 228.9 317.672C228.9 311.732 208.276 306.917 182.835 306.917C157.394 306.917 136.769 311.732 136.769 317.672C136.769 323.611 157.394 328.427 182.835 328.427Z" fill="#E1ECFF"/>
<path opacity="0.55" d="M244.38 324.261C269.752 324.261 290.321 322.703 290.321 320.78C290.321 318.857 269.752 317.299 244.38 317.299C219.007 317.299 198.439 318.857 198.439 320.78C198.439 322.703 219.007 324.261 244.38 324.261Z" fill="#E1ECFF"/>
<path d="M243.261 205.772L235.925 246.553L235.241 250.221L230.89 274.466L230.579 276.331L223.554 315.434C223.554 315.434 218.27 320.967 203.288 323.764C198.252 324.697 192.098 325.318 184.7 325.318C153.989 325.318 140.624 315.434 140.624 315.434L133.91 276.269L133.599 274.404L129.496 250.283L128.874 246.677L121.911 205.896C121.911 205.896 133.848 191.1 183.083 191.1C193.838 191.1 203.35 192.344 211.494 194.022C231.76 198.25 243.261 205.772 243.261 205.772Z" fill="#99ADF9"/>
<path d="M178.297 218.391L180.97 237.29L206.272 233.747L202.355 217.148L178.297 218.391Z" fill="#8EA6F4"/>
<path d="M166.671 218.205L163.377 236.047L146.778 232.068L148.457 215.283L166.671 218.205Z" fill="#8EA6F4"/>
<path d="M243.261 205.772L235.925 246.553L235.241 250.221L230.89 274.466L230.579 276.331L223.554 315.434C223.554 315.434 218.27 320.966 203.288 323.764L208.137 197.068L211.556 193.96C231.76 198.249 243.261 205.772 243.261 205.772Z" fill="#8EA6F4"/>
<path d="M182.649 219.573C216.159 219.573 243.324 213.171 243.324 205.274C243.324 197.378 216.159 190.976 182.649 190.976C149.139 190.976 121.974 197.378 121.974 205.274C121.974 213.171 149.139 219.573 182.649 219.573Z" fill="#F0F4FF"/>
<path d="M236.36 204.59C236.36 205.212 236.174 205.772 235.739 206.331C234.184 208.507 229.833 210.434 223.43 211.988C220.757 212.672 217.71 213.232 214.416 213.791C207.453 214.848 199.247 215.594 190.295 215.905C187.746 215.967 185.073 216.029 182.4 216.029C179.975 216.029 177.551 215.967 175.188 215.905C166.796 215.656 159.025 215.034 152.311 214.04C150.943 213.853 149.638 213.667 148.332 213.418C138.137 211.677 131.05 209.129 128.998 206.269C128.812 205.958 128.625 205.647 128.501 205.399C128.377 205.15 128.377 204.839 128.377 204.59C128.377 201.669 133.475 199.058 141.805 197.006C151.689 194.644 166.174 193.09 182.338 193.09C201.236 193.09 217.835 195.141 227.471 198.249C232.755 199.928 235.925 201.979 236.236 204.155C236.36 204.342 236.36 204.466 236.36 204.59Z" fill="#CCD6ED"/>
<path d="M235.987 246.553L235.366 250.221L231.014 274.466L230.703 276.331C216.716 281.118 200.179 283.915 182.462 283.915C164.682 283.915 148.146 281.118 134.096 276.269L133.785 274.404L129.682 250.283L129.061 246.677C144.043 251.837 162.506 254.821 182.462 254.821C202.417 254.759 220.943 251.713 235.987 246.553Z" fill="#E1ECFF"/>
<path d="M194.087 297.716C193.403 299.643 192.657 299.705 190.979 299.395C189.611 299.146 187.622 298.586 184.513 298.649C181.529 298.711 179.478 299.146 177.924 299.332C175.934 299.581 175.002 299.457 174.38 297.467C173.137 293.427 179.043 290.194 184.389 290.194C190.668 290.256 195.517 293.489 194.087 297.716Z" fill="#293475"/>
<path d="M190.979 299.208C190.979 299.27 190.979 299.332 190.979 299.395C189.611 299.146 187.622 298.586 184.513 298.649C181.529 298.711 179.478 299.146 177.924 299.332C177.924 299.27 177.924 299.208 177.924 299.208C177.924 296.286 180.846 293.924 184.451 293.924C188.057 293.924 190.979 296.286 190.979 299.208Z" fill="#FF97C9"/>
<path d="M157.471 275.771C161.934 275.771 165.552 272.153 165.552 267.69C165.552 263.226 161.934 259.608 157.471 259.608C153.007 259.608 149.389 263.226 149.389 267.69C149.389 272.153 153.007 275.771 157.471 275.771Z" fill="white"/>
<path d="M210.002 275.771C214.465 275.771 218.083 272.153 218.083 267.69C218.083 263.226 214.465 259.608 210.002 259.608C205.538 259.608 201.92 263.226 201.92 267.69C201.92 272.153 205.538 275.771 210.002 275.771Z" fill="white"/>
<path d="M157.72 269.244C160.329 269.244 162.444 267.129 162.444 264.519C162.444 261.91 160.329 259.795 157.72 259.795C155.11 259.795 152.995 261.91 152.995 264.519C152.995 267.129 155.11 269.244 157.72 269.244Z" fill="#293475"/>
<path d="M210.25 269.244C212.86 269.244 214.975 267.129 214.975 264.519C214.975 261.91 212.86 259.795 210.25 259.795C207.641 259.795 205.526 261.91 205.526 264.519C205.526 267.129 207.641 269.244 210.25 269.244Z" fill="#293475"/>
<path d="M237.79 203.347C237.293 204.031 236.795 204.715 236.236 205.336C235.117 206.642 233.874 207.761 232.444 208.818C230.268 209.999 227.16 211.056 223.43 211.988C220.756 212.672 217.71 213.232 214.415 213.791C207.453 214.91 199.247 215.656 190.295 215.905C187.746 215.967 185.073 216.029 182.4 216.029C179.975 216.029 177.551 216.029 175.188 215.905C166.796 215.656 159.025 215.034 152.311 214.102C150.943 213.915 149.638 213.667 148.332 213.48C142.551 212.486 137.826 211.242 134.345 209.812C132.107 208.507 130.118 206.953 128.439 205.088C124.647 200.798 122.533 194.955 122.844 186.873C123.155 179.413 125.828 173.942 127.569 168.472C128.998 163.996 129.745 159.582 128.128 153.987C124.523 141.802 121.103 141.678 120.979 141.678C121.29 141.678 129.247 141.429 135.961 144.786C142.799 148.267 146.467 155.665 146.467 155.665C146.467 155.665 145.659 134.777 163.874 117.184C182.089 99.591 200.304 81.6248 200.304 81.6248C200.304 81.6248 198.687 94.1203 206.831 108.294C214.975 122.468 221.502 131.172 224.859 140.559C228.216 149.946 226.289 159.333 226.289 159.333C226.289 159.333 230.765 153.552 235.366 151.189C240.028 148.827 244.815 146.34 244.815 146.34C244.815 146.34 243.385 155.727 244.504 165.736C244.753 167.788 244.939 170.026 245.064 172.45C245.561 181.837 244.566 193.649 237.79 203.347Z" fill="#FEC272"/>
<path d="M237.79 203.347C237.293 204.031 236.796 204.715 236.236 205.336C235.117 206.642 233.874 207.761 232.444 208.818C230.268 209.999 227.16 211.056 223.43 211.988C220.757 212.672 217.71 213.232 214.416 213.791C207.453 214.91 199.247 215.656 190.295 215.905C187.746 215.967 185.073 216.029 182.4 216.029C179.975 216.029 177.551 216.029 175.188 215.905C166.796 215.656 159.025 215.035 152.311 214.102C150.943 213.916 149.638 213.667 148.332 213.48C142.551 212.486 137.826 211.242 134.345 209.813C132.107 208.507 130.118 206.953 128.439 205.088C124.647 200.798 122.533 194.955 122.844 186.873C123.155 179.413 125.828 173.942 127.569 168.472C129.62 177.672 139.816 199.555 185.881 199.555C222.995 199.555 238.474 184.759 245.002 172.326C245.561 181.838 244.566 193.649 237.79 203.347Z" fill="#FFB65F"/>
<path d="M186.378 215.283C172.329 215.532 163.19 214.413 152.746 207.015C143.048 200.114 138.945 192.717 139.442 180.843C139.94 168.969 136.334 162.752 136.334 162.752C136.334 162.752 142.675 164.244 150.259 169.591C157.844 174.937 162.382 182.832 162.382 182.832C162.382 182.832 156.352 160.825 167.79 139.067C177.986 119.671 191.662 108.792 191.662 108.792C191.662 108.792 211.245 133.783 212.24 154.049C213.234 174.253 207.453 185.94 207.453 185.94C207.453 185.94 213.048 181.527 219.451 178.232C225.854 174.937 234.122 173.321 234.122 173.321C234.122 173.321 230.89 184.946 228.714 193.4C225.916 203.409 214.54 214.848 186.378 215.283Z" fill="#FF8D76"/>
<path d="M175.188 215.905C166.796 215.656 159.025 215.034 152.311 214.04L148.705 206.02L164.496 194.084L175.188 215.905Z" fill="#6C85C2"/>
<path d="M219.575 198.933L214.416 213.791C207.453 214.848 199.247 215.594 190.295 215.905L198.19 194.209L219.575 198.933Z" fill="#6C85C2"/>
<path d="M148.395 213.48C138.199 211.74 131.112 209.191 129.061 206.331L128.563 205.461L119.736 188.676L136.086 182.397L141.867 197.006L148.395 213.48Z" fill="#9DAAD6"/>
<path d="M238.536 196.447L236.36 204.217L235.739 206.393C234.185 208.569 229.833 210.496 223.43 212.05L227.533 198.312L228.776 194.271L238.536 196.447Z" fill="#9DAAD6"/>
<path d="M148.457 213.418L143.546 227.219C143.546 227.219 157.036 233.933 157.72 234.306C158.403 234.679 167.045 215.47 167.045 215.47L148.457 213.418Z" fill="#E0E7F4"/>
<path d="M180.162 215.967L181.032 233.249L207.826 231.26L201.796 215.159L180.162 215.967Z" fill="#E0E7F4"/>
<path d="M192.533 65.3372C192.533 65.3372 194.895 69.5645 194.584 72.735C194.274 75.9055 192.906 79.076 192.906 79.076C192.906 79.076 198.066 77.584 198.687 72.6107C199.309 67.6373 192.533 65.3372 192.533 65.3372Z" fill="#FEC272"/>
<path d="M147.213 128.25C147.213 128.25 147.027 123.463 151.503 119.049C155.171 115.443 157.16 114.076 157.968 109.848C158.776 105.559 156.601 102.637 156.601 102.637C156.601 102.637 155.73 107.3 151.13 111.962C145.97 117.184 145.348 124.022 147.213 128.25Z" fill="#FEC272"/>
<path d="M228.9 137.202C228.9 137.202 228.465 130.55 225.543 126.633C222.621 122.717 219.948 120.541 219.327 117.681C218.705 114.76 219.264 113.578 219.264 113.578C219.264 113.578 224.424 115.879 227.906 121.722C232.382 129.058 228.9 137.202 228.9 137.202Z" fill="#FEC272"/>
<path d="M106.494 144.848C106.494 144.848 111.405 146.03 112.835 152.495C114.514 160.079 113.892 162.752 114.141 165.674C114.576 170.399 117.125 173.01 117.125 173.01C117.125 173.01 116.006 168.347 117.373 163.561C118.492 159.706 120.979 155.355 119.549 150.07C117.995 144.289 110.038 141.554 106.494 144.848Z" fill="#FEC272"/>
<path d="M259.548 155.479C259.548 155.479 252.524 157.966 251.342 163.312C250.161 168.596 252.088 172.948 252.088 172.948C252.088 172.948 256.067 170.648 256.254 166.855C256.44 163.063 257.186 157.53 259.548 155.479Z" fill="#FEC272"/>
<path d="M86.7874 173.942L93.8744 165.239C93.8744 165.239 96.4854 171.145 101.086 176.615C105.686 182.024 109.478 185.07 109.478 185.07L99.0342 190.665C99.0342 190.603 89.3984 181.589 86.7874 173.942Z" fill="#99ADF9"/>
<path d="M175.188 215.905C166.796 215.656 159.025 215.034 152.311 214.04L148.705 206.02L164.496 194.084L175.188 215.905Z" fill="#1C3177"/>
<path d="M219.575 198.933L214.416 213.791C207.453 214.848 199.247 215.594 190.295 215.905L198.19 194.209L219.575 198.933Z" fill="#1C3177"/>
<path d="M148.395 213.48C138.199 211.74 131.112 209.191 129.061 206.331L128.563 205.461L119.736 188.676L136.086 182.397L141.867 197.006L148.395 213.48Z" fill="#99ADF9"/>
<path d="M238.536 196.447L236.36 204.217L235.739 206.393C234.185 208.569 229.833 210.496 223.43 212.05L227.533 198.312L228.776 194.271L238.536 196.447Z" fill="#99ADF9"/>
<path d="M148.457 213.418L143.546 227.219C143.546 227.219 157.036 233.933 157.72 234.306C158.403 234.679 167.045 215.47 167.045 215.47L148.457 213.418Z" fill="#E1ECFF"/>
<path d="M180.162 215.967L181.032 233.249L207.826 231.26L201.796 215.159L180.162 215.967Z" fill="#E1ECFF"/>
<path d="M94.9933 94.9285L113.581 85.7278C113.581 85.7278 113.581 92.3175 117.187 102.202C120.792 112.087 123.279 115.692 123.279 115.692L108.67 125.701C108.67 125.701 103.883 117.806 99.5936 108.232C95.3041 98.7207 94.9933 94.9285 94.9933 94.9285Z" fill="#1C3177"/>
<path d="M232.382 76.838C232.382 76.838 235.366 84.9197 236.485 90.3282C237.666 95.7367 237.666 97.726 237.666 97.726L249.042 98.4099C249.042 98.4099 250.659 92.131 247.426 82.9304C244.131 73.7297 242.328 71.243 242.328 71.243L232.382 76.838Z" fill="#99ADF9"/>
<path d="M276.147 138.88C276.147 138.88 276.147 143.978 272.168 153.862C268.19 163.747 267.568 165.55 267.568 165.55L279.255 172.45C279.255 172.45 283.669 166.669 287.337 155.665C291.005 144.662 291.44 136.767 291.44 136.767L276.147 138.88Z" fill="#1C3177"/>
<path d="M79.949 125.763L93.1905 138.321L76.8407 132.166L79.949 125.763Z" fill="#E1ECFF"/>
<path d="M262.781 116.314L258.492 128.809L268.749 123.09L262.781 116.314Z" fill="#E1ECFF"/>
<path d="M143.297 68.8185L156.663 82.3087L152.87 58.6232L143.297 68.8185Z" fill="#E1ECFF"/>
<path d="M291.005 319.164C290.259 319.723 289.326 320.034 288.269 320.034H217.337C213.794 320.034 211.556 316.304 213.172 313.196L238.971 263.711L248.483 245.496C250.223 242.139 255.01 242.139 256.813 245.496L292.435 313.196C293.616 315.372 292.808 317.92 291.005 319.164Z" fill="#FEC272"/>
<path d="M291.005 319.164C290.259 319.723 289.326 320.034 288.269 320.034H217.337C213.794 320.034 211.556 316.304 213.172 313.196L238.971 263.711L231.138 305.301C230.454 308.844 232.941 312.201 236.547 312.636L291.005 319.164Z" fill="#FFB96C"/>
<path d="M249.353 295.105L245.685 268.622C245.561 267.752 246.245 266.944 247.177 266.944H257.683C258.554 266.944 259.3 267.752 259.175 268.622L255.508 295.105C255.383 295.851 254.762 296.411 254.016 296.411H250.845C250.037 296.349 249.415 295.851 249.353 295.105Z" fill="#1C3177"/>
<path d="M252.399 311.393C255.318 311.393 257.684 309.027 257.684 306.109C257.684 303.19 255.318 300.825 252.399 300.825C249.481 300.825 247.115 303.19 247.115 306.109C247.115 309.027 249.481 311.393 252.399 311.393Z" fill="#1C3177"/>
</svg>
