<svg width="589" height="96" viewBox="0 0 589 96" fill="none" xmlns="http://www.w3.org/2000/svg">
<rect x="0.5" y="0.5" width="588" height="95" rx="3.5" fill="#FEFCF1"/>
<path d="M23.2 20H24.8V21.6H23.2V20ZM23.2 23.2H24.8V28H23.2V23.2ZM24 16C19.584 16 16 19.584 16 24C16 28.416 19.584 32 24 32C28.416 32 32 28.416 32 24C32 19.584 28.416 16 24 16ZM24 30.4C20.472 30.4 17.6 27.528 17.6 24C17.6 20.472 20.472 17.6 24 17.6C27.528 17.6 30.4 20.472 30.4 24C30.4 27.528 27.528 30.4 24 30.4Z" fill="#F1D302"/>
<path d="M39.968 26.316V30H38.864V21.408H43.88V22.464H39.968V25.284H43.496V26.316H39.968ZM49.8672 30H48.8112V29.184H48.7632C48.5952 29.472 48.3352 29.712 47.9832 29.904C47.6392 30.096 47.2792 30.192 46.9032 30.192C46.1832 30.192 45.6272 29.988 45.2352 29.58C44.8512 29.164 44.6592 28.576 44.6592 27.816V24.12H45.7632V27.744C45.7872 28.704 46.2712 29.184 47.2152 29.184C47.6552 29.184 48.0232 29.008 48.3192 28.656C48.6152 28.296 48.7632 27.868 48.7632 27.372V24.12H49.8672V30ZM52.3151 21.408V30H51.2111V21.408H52.3151ZM54.7643 21.408V30H53.6603V21.408H54.7643ZM60.0422 26.52V30H58.9382V21.408H61.8662C62.6102 21.408 63.2422 21.656 63.7622 22.152C64.2902 22.648 64.5542 23.252 64.5542 23.964C64.5542 24.692 64.2902 25.3 63.7622 25.788C63.2502 26.276 62.6182 26.52 61.8662 26.52H60.0422ZM60.0422 22.464V25.464H61.8902C62.3302 25.464 62.6942 25.316 62.9822 25.02C63.2782 24.724 63.4262 24.372 63.4262 23.964C63.4262 23.564 63.2782 23.216 62.9822 22.92C62.6942 22.616 62.3302 22.464 61.8902 22.464H60.0422ZM67.7378 30.192C66.8738 30.192 66.1618 29.896 65.6018 29.304C65.0418 28.712 64.7618 27.964 64.7618 27.06C64.7618 26.164 65.0338 25.42 65.5778 24.828C66.1218 24.228 66.8178 23.928 67.6658 23.928C68.5378 23.928 69.2298 24.212 69.7418 24.78C70.2618 25.34 70.5218 26.128 70.5218 27.144L70.5098 27.264H65.8898C65.9058 27.84 66.0978 28.304 66.4658 28.656C66.8338 29.008 67.2738 29.184 67.7858 29.184C68.4898 29.184 69.0418 28.832 69.4418 28.128L70.4258 28.608C70.1618 29.104 69.7938 29.492 69.3218 29.772C68.8578 30.052 68.3298 30.192 67.7378 30.192ZM65.9738 26.352H69.3458C69.3138 25.944 69.1458 25.608 68.8418 25.344C68.5458 25.072 68.1458 24.936 67.6418 24.936C67.2258 24.936 66.8658 25.064 66.5618 25.32C66.2658 25.576 66.0698 25.92 65.9738 26.352ZM72.6354 30H71.5314V24.12H72.5874V25.08H72.6354C72.7474 24.768 72.9754 24.504 73.3194 24.288C73.6714 24.064 74.0154 23.952 74.3514 23.952C74.6714 23.952 74.9434 24 75.1674 24.096L74.8314 25.164C74.6954 25.108 74.4794 25.08 74.1834 25.08C73.7674 25.08 73.4034 25.248 73.0914 25.584C72.7874 25.92 72.6354 26.312 72.6354 26.76V30ZM76.9948 30H75.8908V24.12H76.9468V24.936H76.9948C77.1628 24.648 77.4188 24.408 77.7628 24.216C78.1148 24.024 78.4628 23.928 78.8068 23.928C79.2388 23.928 79.6188 24.028 79.9468 24.228C80.2748 24.428 80.5148 24.704 80.6668 25.056C81.1548 24.304 81.8308 23.928 82.6948 23.928C83.3748 23.928 83.8988 24.136 84.2668 24.552C84.6348 24.968 84.8188 25.56 84.8188 26.328V30H83.7148V26.496C83.7148 25.944 83.6148 25.548 83.4148 25.308C83.2148 25.06 82.8788 24.936 82.4068 24.936C81.9828 24.936 81.6268 25.116 81.3388 25.476C81.0508 25.836 80.9068 26.26 80.9068 26.748V30H79.8028V26.496C79.8028 25.944 79.7028 25.548 79.5028 25.308C79.3028 25.06 78.9668 24.936 78.4948 24.936C78.0708 24.936 77.7148 25.116 77.4268 25.476C77.1388 25.836 76.9948 26.26 76.9948 26.748V30ZM87.5375 22.092C87.5375 22.308 87.4615 22.492 87.3095 22.644C87.1575 22.796 86.9735 22.872 86.7575 22.872C86.5415 22.872 86.3575 22.796 86.2055 22.644C86.0535 22.492 85.9775 22.308 85.9775 22.092C85.9775 21.876 86.0535 21.692 86.2055 21.54C86.3575 21.388 86.5415 21.312 86.7575 21.312C86.9735 21.312 87.1575 21.388 87.3095 21.54C87.4615 21.692 87.5375 21.876 87.5375 22.092ZM87.3095 24.12V30H86.2055V24.12H87.3095ZM93.2462 28.368C93.2462 28.88 93.0222 29.312 92.5742 29.664C92.1262 30.016 91.5622 30.192 90.8822 30.192C90.2902 30.192 89.7702 30.04 89.3222 29.736C88.8742 29.424 88.5542 29.016 88.3622 28.512L89.3462 28.092C89.4902 28.444 89.6982 28.72 89.9702 28.92C90.2502 29.112 90.5542 29.208 90.8822 29.208C91.2342 29.208 91.5262 29.132 91.7582 28.98C91.9982 28.828 92.1182 28.648 92.1182 28.44C92.1182 28.064 91.8302 27.788 91.2542 27.612L90.2462 27.36C89.1022 27.072 88.5302 26.52 88.5302 25.704C88.5302 25.168 88.7462 24.74 89.1782 24.42C89.6182 24.092 90.1782 23.928 90.8582 23.928C91.3782 23.928 91.8462 24.052 92.2622 24.3C92.6862 24.548 92.9822 24.88 93.1502 25.296L92.1662 25.704C92.0542 25.456 91.8702 25.264 91.6142 25.128C91.3662 24.984 91.0862 24.912 90.7742 24.912C90.4862 24.912 90.2262 24.984 89.9942 25.128C89.7702 25.272 89.6582 25.448 89.6582 25.656C89.6582 25.992 89.9742 26.232 90.6062 26.376L91.4942 26.604C92.6622 26.892 93.2462 27.48 93.2462 28.368ZM98.7072 28.368C98.7072 28.88 98.4832 29.312 98.0352 29.664C97.5872 30.016 97.0232 30.192 96.3432 30.192C95.7512 30.192 95.2312 30.04 94.7832 29.736C94.3352 29.424 94.0152 29.016 93.8232 28.512L94.8072 28.092C94.9512 28.444 95.1592 28.72 95.4312 28.92C95.7112 29.112 96.0152 29.208 96.3432 29.208C96.6952 29.208 96.9872 29.132 97.2192 28.98C97.4592 28.828 97.5792 28.648 97.5792 28.44C97.5792 28.064 97.2912 27.788 96.7152 27.612L95.7072 27.36C94.5632 27.072 93.9912 26.52 93.9912 25.704C93.9912 25.168 94.2072 24.74 94.6392 24.42C95.0792 24.092 95.6392 23.928 96.3192 23.928C96.8392 23.928 97.3072 24.052 97.7232 24.3C98.1472 24.548 98.4432 24.88 98.6112 25.296L97.6272 25.704C97.5152 25.456 97.3312 25.264 97.0752 25.128C96.8272 24.984 96.5472 24.912 96.2352 24.912C95.9472 24.912 95.6872 24.984 95.4552 25.128C95.2312 25.272 95.1192 25.448 95.1192 25.656C95.1192 25.992 95.4352 26.232 96.0672 26.376L96.9552 26.604C98.1232 26.892 98.7072 27.48 98.7072 28.368ZM101.038 22.092C101.038 22.308 100.962 22.492 100.81 22.644C100.658 22.796 100.474 22.872 100.258 22.872C100.042 22.872 99.8575 22.796 99.7055 22.644C99.5535 22.492 99.4775 22.308 99.4775 22.092C99.4775 21.876 99.5535 21.692 99.7055 21.54C99.8575 21.388 100.042 21.312 100.258 21.312C100.474 21.312 100.658 21.388 100.81 21.54C100.962 21.692 101.038 21.876 101.038 22.092ZM100.81 24.12V30H99.7055V24.12H100.81ZM101.852 27.06C101.852 26.156 102.136 25.408 102.704 24.816C103.28 24.224 104.004 23.928 104.876 23.928C105.748 23.928 106.468 24.224 107.036 24.816C107.612 25.408 107.9 26.156 107.9 27.06C107.9 27.972 107.612 28.72 107.036 29.304C106.468 29.896 105.748 30.192 104.876 30.192C104.004 30.192 103.28 29.896 102.704 29.304C102.136 28.712 101.852 27.964 101.852 27.06ZM102.956 27.06C102.956 27.692 103.14 28.204 103.508 28.596C103.876 28.988 104.332 29.184 104.876 29.184C105.42 29.184 105.876 28.988 106.244 28.596C106.612 28.204 106.796 27.692 106.796 27.06C106.796 26.436 106.612 25.928 106.244 25.536C105.868 25.136 105.412 24.936 104.876 24.936C104.34 24.936 103.884 25.136 103.508 25.536C103.14 25.928 102.956 26.436 102.956 27.06ZM108.785 24.12H109.841V24.936H109.889C110.057 24.648 110.313 24.408 110.657 24.216C111.009 24.024 111.373 23.928 111.749 23.928C112.469 23.928 113.021 24.136 113.405 24.552C113.797 24.96 113.993 25.544 113.993 26.304V30H112.889V26.376C112.865 25.416 112.381 24.936 111.437 24.936C110.997 24.936 110.629 25.116 110.333 25.476C110.037 25.828 109.889 26.252 109.889 26.748V30H108.785V24.12Z" fill="#F1D302"/>
<path d="M21.796 45.408H23.224V45.456L20.032 49.14L23.44 53.952V54H22.084L19.288 49.992L17.968 51.516V54H16.864V45.408H17.968V49.836H18.016L21.796 45.408ZM25.5648 46.092C25.5648 46.308 25.4888 46.492 25.3368 46.644C25.1848 46.796 25.0008 46.872 24.7848 46.872C24.5688 46.872 24.3848 46.796 24.2328 46.644C24.0808 46.492 24.0048 46.308 24.0048 46.092C24.0048 45.876 24.0808 45.692 24.2328 45.54C24.3848 45.388 24.5688 45.312 24.7848 45.312C25.0008 45.312 25.1848 45.388 25.3368 45.54C25.4888 45.692 25.5648 45.876 25.5648 46.092ZM25.3368 48.12V54H24.2328V48.12H25.3368ZM26.7736 48.12H27.8296V48.936H27.8776C28.0456 48.648 28.3016 48.408 28.6456 48.216C28.9976 48.024 29.3616 47.928 29.7376 47.928C30.4576 47.928 31.0096 48.136 31.3936 48.552C31.7856 48.96 31.9816 49.544 31.9816 50.304V54H30.8776V50.376C30.8536 49.416 30.3696 48.936 29.4256 48.936C28.9856 48.936 28.6176 49.116 28.3216 49.476C28.0256 49.828 27.8776 50.252 27.8776 50.748V54H26.7736V48.12ZM35.9175 53.184C36.4615 53.184 36.9055 52.988 37.2495 52.596C37.6095 52.204 37.7895 51.692 37.7895 51.06C37.7895 50.444 37.6095 49.936 37.2495 49.536C36.8975 49.136 36.4535 48.936 35.9175 48.936C35.3895 48.936 34.9455 49.136 34.5855 49.536C34.2255 49.936 34.0455 50.444 34.0455 51.06C34.0455 51.684 34.2255 52.192 34.5855 52.584C34.9455 52.984 35.3895 53.184 35.9175 53.184ZM35.7375 54.192C34.9695 54.192 34.3095 53.888 33.7575 53.28C33.2135 52.664 32.9415 51.924 32.9415 51.06C32.9415 50.196 33.2135 49.456 33.7575 48.84C34.3095 48.232 34.9695 47.928 35.7375 47.928C36.1695 47.928 36.5615 48.02 36.9135 48.204C37.2735 48.388 37.5495 48.632 37.7415 48.936H37.7895L37.7415 48.12V45.408H38.8455V54H37.7895V53.184H37.7415C37.5495 53.488 37.2735 53.732 36.9135 53.916C36.5615 54.1 36.1695 54.192 35.7375 54.192ZM41.2955 45.408V54H40.1915V45.408H41.2955ZM47.8968 48.12L44.2128 56.592H43.0728L44.4408 53.628L42.0168 48.12H43.2168L44.9688 52.344H44.9928L46.6968 48.12H47.8968ZM51.254 48.12H52.31V48.936H52.358C52.526 48.648 52.782 48.408 53.126 48.216C53.478 48.024 53.842 47.928 54.218 47.928C54.938 47.928 55.49 48.136 55.874 48.552C56.266 48.96 56.462 49.544 56.462 50.304V54H55.358V50.376C55.334 49.416 54.85 48.936 53.906 48.936C53.466 48.936 53.098 49.116 52.802 49.476C52.506 49.828 52.358 50.252 52.358 50.748V54H51.254V48.12ZM57.4219 51.06C57.4219 50.156 57.7059 49.408 58.2739 48.816C58.8499 48.224 59.5739 47.928 60.4459 47.928C61.3179 47.928 62.0379 48.224 62.6059 48.816C63.1819 49.408 63.4699 50.156 63.4699 51.06C63.4699 51.972 63.1819 52.72 62.6059 53.304C62.0379 53.896 61.3179 54.192 60.4459 54.192C59.5739 54.192 58.8499 53.896 58.2739 53.304C57.7059 52.712 57.4219 51.964 57.4219 51.06ZM58.5259 51.06C58.5259 51.692 58.7099 52.204 59.0779 52.596C59.4459 52.988 59.9019 53.184 60.4459 53.184C60.9899 53.184 61.4459 52.988 61.8139 52.596C62.1819 52.204 62.3659 51.692 62.3659 51.06C62.3659 50.436 62.1819 49.928 61.8139 49.536C61.4379 49.136 60.9819 48.936 60.4459 48.936C59.9099 48.936 59.4539 49.136 59.0779 49.536C58.7099 49.928 58.5259 50.436 58.5259 51.06ZM66.625 54.096C66.145 54.096 65.745 53.948 65.425 53.652C65.113 53.356 64.953 52.944 64.945 52.416V49.128H63.913V48.12H64.945V46.32H66.049V48.12H67.489V49.128H66.049V52.056C66.049 52.448 66.125 52.716 66.277 52.86C66.429 52.996 66.601 53.064 66.793 53.064C66.881 53.064 66.965 53.056 67.045 53.04C67.133 53.016 67.213 52.988 67.285 52.956L67.633 53.94C67.345 54.044 67.009 54.096 66.625 54.096ZM71.1206 54.192C70.2566 54.192 69.5446 53.896 68.9846 53.304C68.4246 52.712 68.1446 51.964 68.1446 51.06C68.1446 50.164 68.4166 49.42 68.9606 48.828C69.5046 48.228 70.2006 47.928 71.0486 47.928C71.9206 47.928 72.6126 48.212 73.1246 48.78C73.6446 49.34 73.9046 50.128 73.9046 51.144L73.8926 51.264H69.2726C69.2886 51.84 69.4806 52.304 69.8486 52.656C70.2166 53.008 70.6566 53.184 71.1686 53.184C71.8726 53.184 72.4246 52.832 72.8246 52.128L73.8086 52.608C73.5446 53.104 73.1766 53.492 72.7046 53.772C72.2406 54.052 71.7126 54.192 71.1206 54.192ZM69.3566 50.352H72.7286C72.6966 49.944 72.5286 49.608 72.2246 49.344C71.9286 49.072 71.5286 48.936 71.0246 48.936C70.6086 48.936 70.2486 49.064 69.9446 49.32C69.6486 49.576 69.4526 49.92 69.3566 50.352ZM79.8789 54.096C79.3989 54.096 78.9989 53.948 78.6789 53.652C78.3669 53.356 78.2069 52.944 78.1989 52.416V49.128H77.1669V48.12H78.1989V46.32H79.3029V48.12H80.7429V49.128H79.3029V52.056C79.3029 52.448 79.3789 52.716 79.5309 52.86C79.6829 52.996 79.8549 53.064 80.0469 53.064C80.1349 53.064 80.2189 53.056 80.2989 53.04C80.3869 53.016 80.4669 52.988 80.5389 52.956L80.8869 53.94C80.5989 54.044 80.2629 54.096 79.8789 54.096ZM81.8517 45.408H82.9557V48.12L82.9077 48.936H82.9557C83.1237 48.648 83.3797 48.408 83.7237 48.216C84.0757 48.024 84.4397 47.928 84.8157 47.928C85.5357 47.928 86.0877 48.136 86.4717 48.552C86.8637 48.96 87.0597 49.544 87.0597 50.304V54H85.9557V50.52C85.9557 49.464 85.4877 48.936 84.5517 48.936C84.1037 48.936 83.7237 49.124 83.4117 49.5C83.1077 49.868 82.9557 50.3 82.9557 50.796V54H81.8517V45.408ZM89.101 52.2C89.101 52.488 89.221 52.728 89.461 52.92C89.709 53.112 89.997 53.208 90.325 53.208C90.789 53.208 91.201 53.036 91.561 52.692C91.929 52.348 92.113 51.944 92.113 51.48C91.769 51.208 91.289 51.072 90.673 51.072C90.225 51.072 89.849 51.18 89.545 51.396C89.249 51.612 89.101 51.88 89.101 52.2ZM90.529 47.928C91.345 47.928 91.989 48.148 92.461 48.588C92.933 49.02 93.169 49.616 93.169 50.376V54H92.113V53.184H92.065C91.609 53.856 91.001 54.192 90.241 54.192C89.593 54.192 89.049 54 88.609 53.616C88.177 53.232 87.961 52.752 87.961 52.176C87.961 51.568 88.189 51.084 88.645 50.724C89.109 50.364 89.725 50.184 90.493 50.184C91.149 50.184 91.689 50.304 92.113 50.544V50.292C92.113 49.908 91.961 49.584 91.657 49.32C91.353 49.048 90.997 48.912 90.589 48.912C89.973 48.912 89.485 49.172 89.125 49.692L88.153 49.08C88.689 48.312 89.481 47.928 90.529 47.928ZM96.625 54.096C96.145 54.096 95.745 53.948 95.425 53.652C95.113 53.356 94.953 52.944 94.945 52.416V49.128H93.913V48.12H94.945V46.32H96.049V48.12H97.489V49.128H96.049V52.056C96.049 52.448 96.125 52.716 96.277 52.86C96.429 52.996 96.601 53.064 96.793 53.064C96.881 53.064 96.965 53.056 97.045 53.04C97.133 53.016 97.213 52.988 97.285 52.956L97.633 53.94C97.345 54.044 97.009 54.096 96.625 54.096ZM109.504 48.12L107.608 54H106.48L105.016 49.488L103.564 54H102.448L100.552 48.12H101.704L103.012 52.56H103.024L104.476 48.12H105.616L107.068 52.56H107.08L108.376 48.12H109.504ZM111.651 46.092C111.651 46.308 111.575 46.492 111.423 46.644C111.271 46.796 111.087 46.872 110.871 46.872C110.655 46.872 110.471 46.796 110.319 46.644C110.167 46.492 110.091 46.308 110.091 46.092C110.091 45.876 110.167 45.692 110.319 45.54C110.471 45.388 110.655 45.312 110.871 45.312C111.087 45.312 111.271 45.388 111.423 45.54C111.575 45.692 111.651 45.876 111.651 46.092ZM111.423 48.12V54H110.319V48.12H111.423ZM115.129 54.096C114.649 54.096 114.249 53.948 113.929 53.652C113.617 53.356 113.457 52.944 113.449 52.416V49.128H112.417V48.12H113.449V46.32H114.553V48.12H115.993V49.128H114.553V52.056C114.553 52.448 114.629 52.716 114.781 52.86C114.933 52.996 115.105 53.064 115.297 53.064C115.385 53.064 115.469 53.056 115.549 53.04C115.637 53.016 115.717 52.988 115.789 52.956L116.137 53.94C115.849 54.044 115.513 54.096 115.129 54.096ZM117.102 45.408H118.206V48.12L118.158 48.936H118.206C118.374 48.648 118.63 48.408 118.974 48.216C119.326 48.024 119.69 47.928 120.066 47.928C120.786 47.928 121.338 48.136 121.722 48.552C122.114 48.96 122.31 49.544 122.31 50.304V54H121.206V50.52C121.206 49.464 120.738 48.936 119.802 48.936C119.354 48.936 118.974 49.124 118.662 49.5C118.358 49.868 118.206 50.3 118.206 50.796V54H117.102V45.408ZM128.72 45.312C129.12 45.312 129.448 45.38 129.704 45.516L129.404 46.488C129.212 46.392 128.996 46.344 128.756 46.344C128.484 46.344 128.26 46.44 128.084 46.632C127.916 46.816 127.832 47.064 127.832 47.376V48.12H129.368V49.128H127.832V54H126.728V49.128H125.624V48.12H126.728V47.268C126.728 46.684 126.912 46.212 127.28 45.852C127.656 45.492 128.136 45.312 128.72 45.312ZM135.469 54H134.413V53.184H134.365C134.197 53.472 133.937 53.712 133.585 53.904C133.241 54.096 132.881 54.192 132.505 54.192C131.785 54.192 131.229 53.988 130.837 53.58C130.453 53.164 130.261 52.576 130.261 51.816V48.12H131.365V51.744C131.389 52.704 131.873 53.184 132.817 53.184C133.257 53.184 133.625 53.008 133.921 52.656C134.217 52.296 134.365 51.868 134.365 51.372V48.12H135.469V54ZM137.917 45.408V54H136.813V45.408H137.917ZM140.366 45.408V54H139.262V45.408H140.366ZM147.228 53.184C147.756 53.184 148.2 52.984 148.56 52.584C148.92 52.192 149.1 51.684 149.1 51.06C149.1 50.444 148.92 49.936 148.56 49.536C148.2 49.136 147.756 48.936 147.228 48.936C146.692 48.936 146.244 49.136 145.884 49.536C145.532 49.936 145.356 50.444 145.356 51.06C145.356 51.684 145.532 52.196 145.884 52.596C146.244 52.988 146.692 53.184 147.228 53.184ZM147.408 54.192C146.976 54.192 146.58 54.1 146.22 53.916C145.868 53.732 145.596 53.488 145.404 53.184H145.356L145.404 54V56.592H144.3V48.12H145.356V48.936H145.404C145.596 48.632 145.868 48.388 146.22 48.204C146.58 48.02 146.976 47.928 147.408 47.928C148.184 47.928 148.84 48.232 149.376 48.84C149.928 49.456 150.204 50.196 150.204 51.06C150.204 51.932 149.928 52.672 149.376 53.28C148.84 53.888 148.184 54.192 147.408 54.192ZM153.855 54.192C152.991 54.192 152.279 53.896 151.719 53.304C151.159 52.712 150.879 51.964 150.879 51.06C150.879 50.164 151.151 49.42 151.695 48.828C152.239 48.228 152.935 47.928 153.783 47.928C154.655 47.928 155.347 48.212 155.859 48.78C156.379 49.34 156.639 50.128 156.639 51.144L156.627 51.264H152.007C152.023 51.84 152.215 52.304 152.583 52.656C152.951 53.008 153.391 53.184 153.903 53.184C154.607 53.184 155.159 52.832 155.559 52.128L156.543 52.608C156.279 53.104 155.911 53.492 155.439 53.772C154.975 54.052 154.447 54.192 153.855 54.192ZM152.091 50.352H155.463C155.431 49.944 155.263 49.608 154.959 49.344C154.663 49.072 154.263 48.936 153.759 48.936C153.343 48.936 152.983 49.064 152.679 49.32C152.383 49.576 152.187 49.92 152.091 50.352ZM158.753 54H157.649V48.12H158.705V49.08H158.753C158.865 48.768 159.093 48.504 159.437 48.288C159.789 48.064 160.133 47.952 160.469 47.952C160.789 47.952 161.061 48 161.285 48.096L160.949 49.164C160.813 49.108 160.597 49.08 160.301 49.08C159.885 49.08 159.521 49.248 159.209 49.584C158.905 49.92 158.753 50.312 158.753 50.76V54ZM163.112 54H162.008V48.12H163.064V48.936H163.112C163.28 48.648 163.536 48.408 163.88 48.216C164.232 48.024 164.58 47.928 164.924 47.928C165.356 47.928 165.736 48.028 166.064 48.228C166.392 48.428 166.632 48.704 166.784 49.056C167.272 48.304 167.948 47.928 168.812 47.928C169.492 47.928 170.016 48.136 170.384 48.552C170.752 48.968 170.936 49.56 170.936 50.328V54H169.832V50.496C169.832 49.944 169.732 49.548 169.532 49.308C169.332 49.06 168.996 48.936 168.524 48.936C168.1 48.936 167.744 49.116 167.456 49.476C167.168 49.836 167.024 50.26 167.024 50.748V54H165.92V50.496C165.92 49.944 165.82 49.548 165.62 49.308C165.42 49.06 165.084 48.936 164.612 48.936C164.188 48.936 163.832 49.116 163.544 49.476C163.256 49.836 163.112 50.26 163.112 50.748V54ZM173.655 46.092C173.655 46.308 173.579 46.492 173.427 46.644C173.275 46.796 173.091 46.872 172.875 46.872C172.659 46.872 172.475 46.796 172.323 46.644C172.171 46.492 172.095 46.308 172.095 46.092C172.095 45.876 172.171 45.692 172.323 45.54C172.475 45.388 172.659 45.312 172.875 45.312C173.091 45.312 173.275 45.388 173.427 45.54C173.579 45.692 173.655 45.876 173.655 46.092ZM173.427 48.12V54H172.323V48.12H173.427ZM179.363 52.368C179.363 52.88 179.139 53.312 178.691 53.664C178.243 54.016 177.679 54.192 176.999 54.192C176.407 54.192 175.887 54.04 175.439 53.736C174.991 53.424 174.671 53.016 174.479 52.512L175.463 52.092C175.607 52.444 175.815 52.72 176.087 52.92C176.367 53.112 176.671 53.208 176.999 53.208C177.351 53.208 177.643 53.132 177.875 52.98C178.115 52.828 178.235 52.648 178.235 52.44C178.235 52.064 177.947 51.788 177.371 51.612L176.363 51.36C175.219 51.072 174.647 50.52 174.647 49.704C174.647 49.168 174.863 48.74 175.295 48.42C175.735 48.092 176.295 47.928 176.975 47.928C177.495 47.928 177.963 48.052 178.379 48.3C178.803 48.548 179.099 48.88 179.267 49.296L178.283 49.704C178.171 49.456 177.987 49.264 177.731 49.128C177.483 48.984 177.203 48.912 176.891 48.912C176.603 48.912 176.343 48.984 176.111 49.128C175.887 49.272 175.775 49.448 175.775 49.656C175.775 49.992 176.091 50.232 176.723 50.376L177.611 50.604C178.779 50.892 179.363 51.48 179.363 52.368ZM184.824 52.368C184.824 52.88 184.6 53.312 184.152 53.664C183.704 54.016 183.14 54.192 182.46 54.192C181.868 54.192 181.348 54.04 180.9 53.736C180.452 53.424 180.132 53.016 179.94 52.512L180.924 52.092C181.068 52.444 181.276 52.72 181.548 52.92C181.828 53.112 182.132 53.208 182.46 53.208C182.812 53.208 183.104 53.132 183.336 52.98C183.576 52.828 183.696 52.648 183.696 52.44C183.696 52.064 183.408 51.788 182.832 51.612L181.824 51.36C180.68 51.072 180.108 50.52 180.108 49.704C180.108 49.168 180.324 48.74 180.756 48.42C181.196 48.092 181.756 47.928 182.436 47.928C182.956 47.928 183.424 48.052 183.84 48.3C184.264 48.548 184.56 48.88 184.728 49.296L183.744 49.704C183.632 49.456 183.448 49.264 183.192 49.128C182.944 48.984 182.664 48.912 182.352 48.912C182.064 48.912 181.804 48.984 181.572 49.128C181.348 49.272 181.236 49.448 181.236 49.656C181.236 49.992 181.552 50.232 182.184 50.376L183.072 50.604C184.24 50.892 184.824 51.48 184.824 52.368ZM187.155 46.092C187.155 46.308 187.079 46.492 186.927 46.644C186.775 46.796 186.591 46.872 186.375 46.872C186.159 46.872 185.975 46.796 185.823 46.644C185.671 46.492 185.595 46.308 185.595 46.092C185.595 45.876 185.671 45.692 185.823 45.54C185.975 45.388 186.159 45.312 186.375 45.312C186.591 45.312 186.775 45.388 186.927 45.54C187.079 45.692 187.155 45.876 187.155 46.092ZM186.927 48.12V54H185.823V48.12H186.927ZM187.969 51.06C187.969 50.156 188.253 49.408 188.821 48.816C189.397 48.224 190.121 47.928 190.993 47.928C191.865 47.928 192.585 48.224 193.153 48.816C193.729 49.408 194.017 50.156 194.017 51.06C194.017 51.972 193.729 52.72 193.153 53.304C192.585 53.896 191.865 54.192 190.993 54.192C190.121 54.192 189.397 53.896 188.821 53.304C188.253 52.712 187.969 51.964 187.969 51.06ZM189.073 51.06C189.073 51.692 189.257 52.204 189.625 52.596C189.993 52.988 190.449 53.184 190.993 53.184C191.537 53.184 191.993 52.988 192.361 52.596C192.729 52.204 192.913 51.692 192.913 51.06C192.913 50.436 192.729 49.928 192.361 49.536C191.985 49.136 191.529 48.936 190.993 48.936C190.457 48.936 190.001 49.136 189.625 49.536C189.257 49.928 189.073 50.436 189.073 51.06ZM194.902 48.12H195.958V48.936H196.006C196.174 48.648 196.43 48.408 196.774 48.216C197.126 48.024 197.49 47.928 197.866 47.928C198.586 47.928 199.138 48.136 199.522 48.552C199.914 48.96 200.11 49.544 200.11 50.304V54H199.006V50.376C198.982 49.416 198.498 48.936 197.554 48.936C197.114 48.936 196.746 49.116 196.45 49.476C196.154 49.828 196.006 50.252 196.006 50.748V54H194.902V48.12ZM201.778 55.344L201.262 55.008L201.91 54C201.742 53.968 201.598 53.884 201.478 53.748C201.366 53.612 201.31 53.448 201.31 53.256C201.31 53.024 201.39 52.832 201.55 52.68C201.71 52.52 201.902 52.44 202.126 52.44C202.358 52.44 202.55 52.52 202.702 52.68C202.862 52.832 202.942 53.024 202.942 53.256C202.942 53.472 202.862 53.708 202.702 53.964L201.778 55.344ZM207.636 52.2C207.636 52.488 207.756 52.728 207.996 52.92C208.244 53.112 208.532 53.208 208.86 53.208C209.324 53.208 209.736 53.036 210.096 52.692C210.464 52.348 210.648 51.944 210.648 51.48C210.304 51.208 209.824 51.072 209.208 51.072C208.76 51.072 208.384 51.18 208.08 51.396C207.784 51.612 207.636 51.88 207.636 52.2ZM209.064 47.928C209.88 47.928 210.524 48.148 210.996 48.588C211.468 49.02 211.704 49.616 211.704 50.376V54H210.648V53.184H210.6C210.144 53.856 209.536 54.192 208.776 54.192C208.128 54.192 207.584 54 207.144 53.616C206.712 53.232 206.496 52.752 206.496 52.176C206.496 51.568 206.724 51.084 207.18 50.724C207.644 50.364 208.26 50.184 209.028 50.184C209.684 50.184 210.224 50.304 210.648 50.544V50.292C210.648 49.908 210.496 49.584 210.192 49.32C209.888 49.048 209.532 48.912 209.124 48.912C208.508 48.912 208.02 49.172 207.66 49.692L206.688 49.08C207.224 48.312 208.016 47.928 209.064 47.928ZM214.053 45.408V54H212.949V45.408H214.053ZM216.503 45.408V54H215.399V45.408H216.503ZM223.365 53.184C223.893 53.184 224.337 52.984 224.697 52.584C225.057 52.192 225.237 51.684 225.237 51.06C225.237 50.444 225.057 49.936 224.697 49.536C224.337 49.136 223.893 48.936 223.365 48.936C222.829 48.936 222.381 49.136 222.021 49.536C221.669 49.936 221.493 50.444 221.493 51.06C221.493 51.684 221.669 52.196 222.021 52.596C222.381 52.988 222.829 53.184 223.365 53.184ZM223.545 54.192C223.113 54.192 222.717 54.1 222.357 53.916C222.005 53.732 221.733 53.488 221.541 53.184H221.493L221.541 54V56.592H220.437V48.12H221.493V48.936H221.541C221.733 48.632 222.005 48.388 222.357 48.204C222.717 48.02 223.113 47.928 223.545 47.928C224.321 47.928 224.977 48.232 225.513 48.84C226.065 49.456 226.341 50.196 226.341 51.06C226.341 51.932 226.065 52.672 225.513 53.28C224.977 53.888 224.321 54.192 223.545 54.192ZM229.992 54.192C229.128 54.192 228.416 53.896 227.856 53.304C227.296 52.712 227.016 51.964 227.016 51.06C227.016 50.164 227.288 49.42 227.832 48.828C228.376 48.228 229.072 47.928 229.92 47.928C230.792 47.928 231.484 48.212 231.996 48.78C232.516 49.34 232.776 50.128 232.776 51.144L232.764 51.264H228.144C228.16 51.84 228.352 52.304 228.72 52.656C229.088 53.008 229.528 53.184 230.04 53.184C230.744 53.184 231.296 52.832 231.696 52.128L232.68 52.608C232.416 53.104 232.048 53.492 231.576 53.772C231.112 54.052 230.584 54.192 229.992 54.192ZM228.228 50.352H231.6C231.568 49.944 231.4 49.608 231.096 49.344C230.8 49.072 230.4 48.936 229.896 48.936C229.48 48.936 229.12 49.064 228.816 49.32C228.52 49.576 228.324 49.92 228.228 50.352ZM234.889 54H233.785V48.12H234.841V49.08H234.889C235.001 48.768 235.229 48.504 235.573 48.288C235.925 48.064 236.269 47.952 236.605 47.952C236.925 47.952 237.197 48 237.421 48.096L237.085 49.164C236.949 49.108 236.733 49.08 236.437 49.08C236.021 49.08 235.657 49.248 235.345 49.584C235.041 49.92 234.889 50.312 234.889 50.76V54ZM239.249 54H238.145V48.12H239.201V48.936H239.249C239.417 48.648 239.673 48.408 240.017 48.216C240.369 48.024 240.717 47.928 241.061 47.928C241.493 47.928 241.873 48.028 242.201 48.228C242.529 48.428 242.769 48.704 242.921 49.056C243.409 48.304 244.085 47.928 244.949 47.928C245.629 47.928 246.153 48.136 246.521 48.552C246.889 48.968 247.073 49.56 247.073 50.328V54H245.969V50.496C245.969 49.944 245.869 49.548 245.669 49.308C245.469 49.06 245.133 48.936 244.661 48.936C244.237 48.936 243.881 49.116 243.593 49.476C243.305 49.836 243.161 50.26 243.161 50.748V54H242.057V50.496C242.057 49.944 241.957 49.548 241.757 49.308C241.557 49.06 241.221 48.936 240.749 48.936C240.325 48.936 239.969 49.116 239.681 49.476C239.393 49.836 239.249 50.26 239.249 50.748V54ZM249.791 46.092C249.791 46.308 249.715 46.492 249.563 46.644C249.411 46.796 249.227 46.872 249.011 46.872C248.795 46.872 248.611 46.796 248.459 46.644C248.307 46.492 248.231 46.308 248.231 46.092C248.231 45.876 248.307 45.692 248.459 45.54C248.611 45.388 248.795 45.312 249.011 45.312C249.227 45.312 249.411 45.388 249.563 45.54C249.715 45.692 249.791 45.876 249.791 46.092ZM249.563 48.12V54H248.459V48.12H249.563ZM255.5 52.368C255.5 52.88 255.276 53.312 254.828 53.664C254.38 54.016 253.816 54.192 253.136 54.192C252.544 54.192 252.024 54.04 251.576 53.736C251.128 53.424 250.808 53.016 250.616 52.512L251.6 52.092C251.744 52.444 251.952 52.72 252.224 52.92C252.504 53.112 252.808 53.208 253.136 53.208C253.488 53.208 253.78 53.132 254.012 52.98C254.252 52.828 254.372 52.648 254.372 52.44C254.372 52.064 254.084 51.788 253.508 51.612L252.5 51.36C251.356 51.072 250.784 50.52 250.784 49.704C250.784 49.168 251 48.74 251.432 48.42C251.872 48.092 252.432 47.928 253.112 47.928C253.632 47.928 254.1 48.052 254.516 48.3C254.94 48.548 255.236 48.88 255.404 49.296L254.42 49.704C254.308 49.456 254.124 49.264 253.868 49.128C253.62 48.984 253.34 48.912 253.028 48.912C252.74 48.912 252.48 48.984 252.248 49.128C252.024 49.272 251.912 49.448 251.912 49.656C251.912 49.992 252.228 50.232 252.86 50.376L253.748 50.604C254.916 50.892 255.5 51.48 255.5 52.368ZM260.961 52.368C260.961 52.88 260.737 53.312 260.289 53.664C259.841 54.016 259.277 54.192 258.597 54.192C258.005 54.192 257.485 54.04 257.037 53.736C256.589 53.424 256.269 53.016 256.077 52.512L257.061 52.092C257.205 52.444 257.413 52.72 257.685 52.92C257.965 53.112 258.269 53.208 258.597 53.208C258.949 53.208 259.241 53.132 259.473 52.98C259.713 52.828 259.833 52.648 259.833 52.44C259.833 52.064 259.545 51.788 258.969 51.612L257.961 51.36C256.817 51.072 256.245 50.52 256.245 49.704C256.245 49.168 256.461 48.74 256.893 48.42C257.333 48.092 257.893 47.928 258.573 47.928C259.093 47.928 259.561 48.052 259.977 48.3C260.401 48.548 260.697 48.88 260.865 49.296L259.881 49.704C259.769 49.456 259.585 49.264 259.329 49.128C259.081 48.984 258.801 48.912 258.489 48.912C258.201 48.912 257.941 48.984 257.709 49.128C257.485 49.272 257.373 49.448 257.373 49.656C257.373 49.992 257.689 50.232 258.321 50.376L259.209 50.604C260.377 50.892 260.961 51.48 260.961 52.368ZM263.291 46.092C263.291 46.308 263.215 46.492 263.063 46.644C262.911 46.796 262.727 46.872 262.511 46.872C262.295 46.872 262.111 46.796 261.959 46.644C261.807 46.492 261.731 46.308 261.731 46.092C261.731 45.876 261.807 45.692 261.959 45.54C262.111 45.388 262.295 45.312 262.511 45.312C262.727 45.312 262.911 45.388 263.063 45.54C263.215 45.692 263.291 45.876 263.291 46.092ZM263.063 48.12V54H261.959V48.12H263.063ZM264.106 51.06C264.106 50.156 264.39 49.408 264.958 48.816C265.534 48.224 266.258 47.928 267.13 47.928C268.002 47.928 268.722 48.224 269.29 48.816C269.866 49.408 270.154 50.156 270.154 51.06C270.154 51.972 269.866 52.72 269.29 53.304C268.722 53.896 268.002 54.192 267.13 54.192C266.258 54.192 265.534 53.896 264.958 53.304C264.39 52.712 264.106 51.964 264.106 51.06ZM265.21 51.06C265.21 51.692 265.394 52.204 265.762 52.596C266.13 52.988 266.586 53.184 267.13 53.184C267.674 53.184 268.13 52.988 268.498 52.596C268.866 52.204 269.05 51.692 269.05 51.06C269.05 50.436 268.866 49.928 268.498 49.536C268.122 49.136 267.666 48.936 267.13 48.936C266.594 48.936 266.138 49.136 265.762 49.536C265.394 49.928 265.21 50.436 265.21 51.06ZM271.039 48.12H272.095V48.936H272.143C272.311 48.648 272.567 48.408 272.911 48.216C273.263 48.024 273.627 47.928 274.003 47.928C274.723 47.928 275.275 48.136 275.659 48.552C276.051 48.96 276.247 49.544 276.247 50.304V54H275.143V50.376C275.119 49.416 274.635 48.936 273.691 48.936C273.251 48.936 272.883 49.116 272.587 49.476C272.291 49.828 272.143 50.252 272.143 50.748V54H271.039V48.12ZM281.985 52.368C281.985 52.88 281.761 53.312 281.313 53.664C280.865 54.016 280.301 54.192 279.621 54.192C279.029 54.192 278.509 54.04 278.061 53.736C277.613 53.424 277.293 53.016 277.101 52.512L278.085 52.092C278.229 52.444 278.437 52.72 278.709 52.92C278.989 53.112 279.293 53.208 279.621 53.208C279.973 53.208 280.265 53.132 280.497 52.98C280.737 52.828 280.857 52.648 280.857 52.44C280.857 52.064 280.569 51.788 279.993 51.612L278.985 51.36C277.841 51.072 277.269 50.52 277.269 49.704C277.269 49.168 277.485 48.74 277.917 48.42C278.357 48.092 278.917 47.928 279.597 47.928C280.117 47.928 280.585 48.052 281.001 48.3C281.425 48.548 281.721 48.88 281.889 49.296L280.905 49.704C280.793 49.456 280.609 49.264 280.353 49.128C280.105 48.984 279.825 48.912 279.513 48.912C279.225 48.912 278.965 48.984 278.733 49.128C278.509 49.272 278.396 49.448 278.396 49.656C278.396 49.992 278.713 50.232 279.345 50.376L280.233 50.604C281.401 50.892 281.985 51.48 281.985 52.368ZM286.386 52.2C286.386 52.488 286.506 52.728 286.746 52.92C286.994 53.112 287.282 53.208 287.61 53.208C288.074 53.208 288.486 53.036 288.846 52.692C289.214 52.348 289.398 51.944 289.398 51.48C289.054 51.208 288.574 51.072 287.958 51.072C287.51 51.072 287.134 51.18 286.83 51.396C286.534 51.612 286.386 51.88 286.386 52.2ZM287.814 47.928C288.63 47.928 289.274 48.148 289.746 48.588C290.218 49.02 290.454 49.616 290.454 50.376V54H289.398V53.184H289.35C288.894 53.856 288.286 54.192 287.526 54.192C286.878 54.192 286.334 54 285.894 53.616C285.462 53.232 285.246 52.752 285.246 52.176C285.246 51.568 285.474 51.084 285.93 50.724C286.394 50.364 287.01 50.184 287.778 50.184C288.434 50.184 288.974 50.304 289.398 50.544V50.292C289.398 49.908 289.246 49.584 288.942 49.32C288.638 49.048 288.282 48.912 287.874 48.912C287.258 48.912 286.77 49.172 286.41 49.692L285.438 49.08C285.974 48.312 286.766 47.928 287.814 47.928ZM291.699 48.12H292.755V48.936H292.803C292.971 48.648 293.227 48.408 293.571 48.216C293.923 48.024 294.287 47.928 294.663 47.928C295.383 47.928 295.935 48.136 296.319 48.552C296.711 48.96 296.907 49.544 296.907 50.304V54H295.803V50.376C295.779 49.416 295.295 48.936 294.351 48.936C293.911 48.936 293.543 49.116 293.247 49.476C292.951 49.828 292.803 50.252 292.803 50.748V54H291.699V48.12ZM300.843 53.184C301.387 53.184 301.831 52.988 302.175 52.596C302.535 52.204 302.715 51.692 302.715 51.06C302.715 50.444 302.535 49.936 302.175 49.536C301.823 49.136 301.379 48.936 300.843 48.936C300.315 48.936 299.871 49.136 299.511 49.536C299.151 49.936 298.971 50.444 298.971 51.06C298.971 51.684 299.151 52.192 299.511 52.584C299.871 52.984 300.315 53.184 300.843 53.184ZM300.663 54.192C299.895 54.192 299.235 53.888 298.683 53.28C298.139 52.664 297.867 51.924 297.867 51.06C297.867 50.196 298.139 49.456 298.683 48.84C299.235 48.232 299.895 47.928 300.663 47.928C301.095 47.928 301.487 48.02 301.839 48.204C302.199 48.388 302.475 48.632 302.667 48.936H302.715L302.667 48.12V45.408H303.771V54H302.715V53.184H302.667C302.475 53.488 302.199 53.732 301.839 53.916C301.487 54.1 301.095 54.192 300.663 54.192ZM310.232 45.312C310.632 45.312 310.96 45.38 311.216 45.516L310.916 46.488C310.724 46.392 310.508 46.344 310.268 46.344C309.996 46.344 309.772 46.44 309.596 46.632C309.428 46.816 309.344 47.064 309.344 47.376V48.12H310.88V49.128H309.344V54H308.24V49.128H307.136V48.12H308.24V47.268C308.24 46.684 308.424 46.212 308.792 45.852C309.168 45.492 309.648 45.312 310.232 45.312ZM316.98 54H315.924V53.184H315.876C315.708 53.472 315.448 53.712 315.096 53.904C314.752 54.096 314.392 54.192 314.016 54.192C313.296 54.192 312.74 53.988 312.348 53.58C311.964 53.164 311.772 52.576 311.772 51.816V48.12H312.876V51.744C312.9 52.704 313.384 53.184 314.328 53.184C314.768 53.184 315.136 53.008 315.432 52.656C315.728 52.296 315.876 51.868 315.876 51.372V48.12H316.98V54ZM318.324 48.12H319.38V48.936H319.428C319.596 48.648 319.852 48.408 320.196 48.216C320.548 48.024 320.912 47.928 321.288 47.928C322.008 47.928 322.56 48.136 322.944 48.552C323.336 48.96 323.532 49.544 323.532 50.304V54H322.428V50.376C322.404 49.416 321.92 48.936 320.976 48.936C320.536 48.936 320.168 49.116 319.872 49.476C319.576 49.828 319.428 50.252 319.428 50.748V54H318.324V48.12ZM327.516 54.192C326.644 54.192 325.92 53.896 325.344 53.304C324.776 52.696 324.492 51.948 324.492 51.06C324.492 50.156 324.776 49.408 325.344 48.816C325.92 48.224 326.644 47.928 327.516 47.928C328.116 47.928 328.64 48.08 329.088 48.384C329.536 48.68 329.872 49.092 330.096 49.62L329.088 50.04C328.776 49.304 328.228 48.936 327.444 48.936C326.94 48.936 326.504 49.14 326.136 49.548C325.776 49.956 325.596 50.46 325.596 51.06C325.596 51.66 325.776 52.164 326.136 52.572C326.504 52.98 326.94 53.184 327.444 53.184C328.252 53.184 328.82 52.816 329.148 52.08L330.132 52.5C329.916 53.028 329.576 53.444 329.112 53.748C328.656 54.044 328.124 54.192 327.516 54.192ZM333.367 54.096C332.887 54.096 332.487 53.948 332.167 53.652C331.855 53.356 331.695 52.944 331.687 52.416V49.128H330.655V48.12H331.687V46.32H332.791V48.12H334.231V49.128H332.791V52.056C332.791 52.448 332.867 52.716 333.019 52.86C333.171 52.996 333.343 53.064 333.535 53.064C333.623 53.064 333.707 53.056 333.787 53.04C333.875 53.016 333.955 52.988 334.027 52.956L334.375 53.94C334.087 54.044 333.751 54.096 333.367 54.096ZM336.768 46.092C336.768 46.308 336.692 46.492 336.54 46.644C336.388 46.796 336.204 46.872 335.988 46.872C335.772 46.872 335.588 46.796 335.436 46.644C335.284 46.492 335.208 46.308 335.208 46.092C335.208 45.876 335.284 45.692 335.436 45.54C335.588 45.388 335.772 45.312 335.988 45.312C336.204 45.312 336.388 45.388 336.54 45.54C336.692 45.692 336.768 45.876 336.768 46.092ZM336.54 48.12V54H335.436V48.12H336.54ZM337.582 51.06C337.582 50.156 337.866 49.408 338.434 48.816C339.01 48.224 339.734 47.928 340.606 47.928C341.478 47.928 342.198 48.224 342.766 48.816C343.342 49.408 343.63 50.156 343.63 51.06C343.63 51.972 343.342 52.72 342.766 53.304C342.198 53.896 341.478 54.192 340.606 54.192C339.734 54.192 339.01 53.896 338.434 53.304C337.866 52.712 337.582 51.964 337.582 51.06ZM338.686 51.06C338.686 51.692 338.87 52.204 339.238 52.596C339.606 52.988 340.062 53.184 340.606 53.184C341.15 53.184 341.606 52.988 341.974 52.596C342.342 52.204 342.526 51.692 342.526 51.06C342.526 50.436 342.342 49.928 341.974 49.536C341.598 49.136 341.142 48.936 340.606 48.936C340.07 48.936 339.614 49.136 339.238 49.536C338.87 49.928 338.686 50.436 338.686 51.06ZM344.516 48.12H345.572V48.936H345.62C345.788 48.648 346.044 48.408 346.388 48.216C346.74 48.024 347.104 47.928 347.48 47.928C348.2 47.928 348.752 48.136 349.136 48.552C349.528 48.96 349.724 49.544 349.724 50.304V54H348.62V50.376C348.596 49.416 348.112 48.936 347.168 48.936C346.728 48.936 346.36 49.116 346.064 49.476C345.768 49.828 345.62 50.252 345.62 50.748V54H344.516V48.12ZM351.765 52.2C351.765 52.488 351.885 52.728 352.125 52.92C352.373 53.112 352.661 53.208 352.989 53.208C353.453 53.208 353.865 53.036 354.225 52.692C354.593 52.348 354.777 51.944 354.777 51.48C354.433 51.208 353.953 51.072 353.337 51.072C352.889 51.072 352.513 51.18 352.209 51.396C351.913 51.612 351.765 51.88 351.765 52.2ZM353.193 47.928C354.009 47.928 354.653 48.148 355.125 48.588C355.597 49.02 355.833 49.616 355.833 50.376V54H354.777V53.184H354.729C354.273 53.856 353.665 54.192 352.905 54.192C352.257 54.192 351.713 54 351.273 53.616C350.841 53.232 350.625 52.752 350.625 52.176C350.625 51.568 350.853 51.084 351.309 50.724C351.773 50.364 352.389 50.184 353.157 50.184C353.813 50.184 354.353 50.304 354.777 50.544V50.292C354.777 49.908 354.625 49.584 354.321 49.32C354.017 49.048 353.661 48.912 353.253 48.912C352.637 48.912 352.149 49.172 351.789 49.692L350.817 49.08C351.353 48.312 352.145 47.928 353.193 47.928ZM358.182 45.408V54H357.078V45.408H358.182ZM360.955 46.092C360.955 46.308 360.879 46.492 360.727 46.644C360.575 46.796 360.391 46.872 360.175 46.872C359.959 46.872 359.775 46.796 359.623 46.644C359.471 46.492 359.395 46.308 359.395 46.092C359.395 45.876 359.471 45.692 359.623 45.54C359.775 45.388 359.959 45.312 360.175 45.312C360.391 45.312 360.575 45.388 360.727 45.54C360.879 45.692 360.955 45.876 360.955 46.092ZM360.727 48.12V54H359.623V48.12H360.727ZM364.434 54.096C363.954 54.096 363.554 53.948 363.234 53.652C362.922 53.356 362.762 52.944 362.754 52.416V49.128H361.722V48.12H362.754V46.32H363.858V48.12H365.298V49.128H363.858V52.056C363.858 52.448 363.934 52.716 364.086 52.86C364.238 52.996 364.41 53.064 364.602 53.064C364.69 53.064 364.774 53.056 364.854 53.04C364.942 53.016 365.022 52.988 365.094 52.956L365.442 53.94C365.154 54.044 364.818 54.096 364.434 54.096ZM367.834 46.092C367.834 46.308 367.758 46.492 367.606 46.644C367.454 46.796 367.27 46.872 367.054 46.872C366.838 46.872 366.654 46.796 366.502 46.644C366.35 46.492 366.274 46.308 366.274 46.092C366.274 45.876 366.35 45.692 366.502 45.54C366.654 45.388 366.838 45.312 367.054 45.312C367.27 45.312 367.454 45.388 367.606 45.54C367.758 45.692 367.834 45.876 367.834 46.092ZM367.606 48.12V54H366.502V48.12H367.606ZM371.625 54.192C370.761 54.192 370.049 53.896 369.489 53.304C368.929 52.712 368.649 51.964 368.649 51.06C368.649 50.164 368.921 49.42 369.465 48.828C370.009 48.228 370.705 47.928 371.553 47.928C372.425 47.928 373.117 48.212 373.629 48.78C374.149 49.34 374.409 50.128 374.409 51.144L374.397 51.264H369.777C369.793 51.84 369.985 52.304 370.353 52.656C370.721 53.008 371.161 53.184 371.673 53.184C372.377 53.184 372.929 52.832 373.329 52.128L374.312 52.608C374.049 53.104 373.681 53.492 373.209 53.772C372.745 54.052 372.217 54.192 371.625 54.192ZM369.861 50.352H373.233C373.201 49.944 373.033 49.608 372.729 49.344C372.433 49.072 372.033 48.936 371.529 48.936C371.113 48.936 370.753 49.064 370.449 49.32C370.153 49.576 369.957 49.92 369.861 50.352ZM379.977 52.368C379.977 52.88 379.753 53.312 379.305 53.664C378.857 54.016 378.293 54.192 377.613 54.192C377.021 54.192 376.501 54.04 376.053 53.736C375.605 53.424 375.285 53.016 375.093 52.512L376.077 52.092C376.221 52.444 376.429 52.72 376.701 52.92C376.981 53.112 377.285 53.208 377.613 53.208C377.965 53.208 378.257 53.132 378.489 52.98C378.729 52.828 378.849 52.648 378.849 52.44C378.849 52.064 378.561 51.788 377.985 51.612L376.977 51.36C375.833 51.072 375.261 50.52 375.261 49.704C375.261 49.168 375.477 48.74 375.909 48.42C376.349 48.092 376.909 47.928 377.589 47.928C378.109 47.928 378.577 48.052 378.993 48.3C379.417 48.548 379.713 48.88 379.881 49.296L378.897 49.704C378.785 49.456 378.601 49.264 378.345 49.128C378.097 48.984 377.817 48.912 377.505 48.912C377.217 48.912 376.957 48.984 376.725 49.128C376.501 49.272 376.389 49.448 376.389 49.656C376.389 49.992 376.705 50.232 377.337 50.376L378.225 50.604C379.393 50.892 379.977 51.48 379.977 52.368ZM391.902 48.12L390.006 54H388.878L387.414 49.488L385.962 54H384.846L382.95 48.12H384.102L385.41 52.56H385.422L386.874 48.12H388.014L389.466 52.56H389.478L390.774 48.12H391.902ZM392.168 51.06C392.168 50.156 392.452 49.408 393.02 48.816C393.596 48.224 394.32 47.928 395.192 47.928C396.064 47.928 396.784 48.224 397.352 48.816C397.928 49.408 398.216 50.156 398.216 51.06C398.216 51.972 397.928 52.72 397.352 53.304C396.784 53.896 396.064 54.192 395.192 54.192C394.32 54.192 393.596 53.896 393.02 53.304C392.452 52.712 392.168 51.964 392.168 51.06ZM393.272 51.06C393.272 51.692 393.456 52.204 393.824 52.596C394.192 52.988 394.648 53.184 395.192 53.184C395.736 53.184 396.192 52.988 396.56 52.596C396.928 52.204 397.112 51.692 397.112 51.06C397.112 50.436 396.928 49.928 396.56 49.536C396.184 49.136 395.728 48.936 395.192 48.936C394.656 48.936 394.2 49.136 393.824 49.536C393.456 49.928 393.272 50.436 393.272 51.06ZM404.32 54H403.264V53.184H403.216C403.048 53.472 402.788 53.712 402.436 53.904C402.092 54.096 401.732 54.192 401.356 54.192C400.636 54.192 400.08 53.988 399.688 53.58C399.304 53.164 399.112 52.576 399.112 51.816V48.12H400.216V51.744C400.24 52.704 400.724 53.184 401.668 53.184C402.108 53.184 402.476 53.008 402.772 52.656C403.068 52.296 403.216 51.868 403.216 51.372V48.12H404.32V54ZM406.768 45.408V54H405.664V45.408H406.768ZM410.695 53.184C411.239 53.184 411.683 52.988 412.027 52.596C412.387 52.204 412.567 51.692 412.567 51.06C412.567 50.444 412.387 49.936 412.027 49.536C411.675 49.136 411.231 48.936 410.695 48.936C410.167 48.936 409.723 49.136 409.363 49.536C409.003 49.936 408.823 50.444 408.823 51.06C408.823 51.684 409.003 52.192 409.363 52.584C409.723 52.984 410.167 53.184 410.695 53.184ZM410.515 54.192C409.747 54.192 409.087 53.888 408.535 53.28C407.991 52.664 407.719 51.924 407.719 51.06C407.719 50.196 407.991 49.456 408.535 48.84C409.087 48.232 409.747 47.928 410.515 47.928C410.947 47.928 411.339 48.02 411.691 48.204C412.051 48.388 412.327 48.632 412.519 48.936H412.567L412.519 48.12V45.408H413.623V54H412.567V53.184H412.519C412.327 53.488 412.051 53.732 411.691 53.916C411.339 54.1 410.947 54.192 410.515 54.192ZM420.714 54.192C420.282 54.192 419.886 54.1 419.526 53.916C419.174 53.732 418.902 53.488 418.71 53.184H418.662V54H417.606V45.408H418.71V48.12L418.662 48.936H418.71C418.902 48.632 419.174 48.388 419.526 48.204C419.886 48.02 420.282 47.928 420.714 47.928C421.49 47.928 422.146 48.232 422.682 48.84C423.234 49.456 423.51 50.196 423.51 51.06C423.51 51.932 423.234 52.672 422.682 53.28C422.146 53.888 421.49 54.192 420.714 54.192ZM420.534 53.184C421.062 53.184 421.506 52.984 421.866 52.584C422.226 52.192 422.406 51.684 422.406 51.06C422.406 50.444 422.226 49.936 421.866 49.536C421.506 49.136 421.062 48.936 420.534 48.936C419.998 48.936 419.55 49.136 419.19 49.536C418.838 49.936 418.662 50.444 418.662 51.06C418.662 51.684 418.838 52.196 419.19 52.596C419.55 52.988 419.998 53.184 420.534 53.184ZM427.16 54.192C426.296 54.192 425.584 53.896 425.024 53.304C424.464 52.712 424.184 51.964 424.184 51.06C424.184 50.164 424.456 49.42 425 48.828C425.544 48.228 426.24 47.928 427.088 47.928C427.96 47.928 428.652 48.212 429.164 48.78C429.684 49.34 429.944 50.128 429.944 51.144L429.932 51.264H425.312C425.328 51.84 425.52 52.304 425.888 52.656C426.256 53.008 426.696 53.184 427.208 53.184C427.912 53.184 428.464 52.832 428.864 52.128L429.848 52.608C429.584 53.104 429.216 53.492 428.744 53.772C428.28 54.052 427.752 54.192 427.16 54.192ZM425.396 50.352H428.768C428.736 49.944 428.568 49.608 428.264 49.344C427.968 49.072 427.568 48.936 427.064 48.936C426.648 48.936 426.288 49.064 425.984 49.32C425.688 49.576 425.492 49.92 425.396 50.352ZM434.394 52.2C434.394 52.488 434.514 52.728 434.754 52.92C435.002 53.112 435.29 53.208 435.618 53.208C436.082 53.208 436.494 53.036 436.854 52.692C437.222 52.348 437.406 51.944 437.406 51.48C437.062 51.208 436.582 51.072 435.966 51.072C435.518 51.072 435.142 51.18 434.838 51.396C434.542 51.612 434.394 51.88 434.394 52.2ZM435.822 47.928C436.638 47.928 437.282 48.148 437.754 48.588C438.226 49.02 438.462 49.616 438.462 50.376V54H437.406V53.184H437.358C436.902 53.856 436.294 54.192 435.534 54.192C434.886 54.192 434.342 54 433.902 53.616C433.47 53.232 433.254 52.752 433.254 52.176C433.254 51.568 433.482 51.084 433.938 50.724C434.402 50.364 435.018 50.184 435.786 50.184C436.442 50.184 436.982 50.304 437.406 50.544V50.292C437.406 49.908 437.254 49.584 436.95 49.32C436.646 49.048 436.29 48.912 435.882 48.912C435.266 48.912 434.778 49.172 434.418 49.692L433.446 49.08C433.982 48.312 434.774 47.928 435.822 47.928ZM442.446 54H441.342L438.966 48.12H440.166L441.894 52.68H441.918L443.67 48.12H444.846L442.446 54ZM446.253 52.2C446.253 52.488 446.373 52.728 446.613 52.92C446.861 53.112 447.149 53.208 447.477 53.208C447.941 53.208 448.353 53.036 448.713 52.692C449.081 52.348 449.265 51.944 449.265 51.48C448.921 51.208 448.441 51.072 447.825 51.072C447.377 51.072 447.001 51.18 446.697 51.396C446.401 51.612 446.253 51.88 446.253 52.2ZM447.681 47.928C448.497 47.928 449.141 48.148 449.613 48.588C450.085 49.02 450.321 49.616 450.321 50.376V54H449.265V53.184H449.217C448.761 53.856 448.153 54.192 447.393 54.192C446.745 54.192 446.201 54 445.761 53.616C445.329 53.232 445.113 52.752 445.113 52.176C445.113 51.568 445.341 51.084 445.797 50.724C446.261 50.364 446.877 50.184 447.645 50.184C448.301 50.184 448.841 50.304 449.265 50.544V50.292C449.265 49.908 449.113 49.584 448.809 49.32C448.505 49.048 448.149 48.912 447.741 48.912C447.125 48.912 446.637 49.172 446.277 49.692L445.305 49.08C445.841 48.312 446.633 47.928 447.681 47.928ZM452.995 46.092C452.995 46.308 452.919 46.492 452.767 46.644C452.615 46.796 452.431 46.872 452.215 46.872C451.999 46.872 451.815 46.796 451.663 46.644C451.511 46.492 451.435 46.308 451.435 46.092C451.435 45.876 451.511 45.692 451.663 45.54C451.815 45.388 451.999 45.312 452.215 45.312C452.431 45.312 452.615 45.388 452.767 45.54C452.919 45.692 452.995 45.876 452.995 46.092ZM452.767 48.12V54H451.663V48.12H452.767ZM455.307 45.408V54H454.203V45.408H455.307ZM457.398 52.2C457.398 52.488 457.518 52.728 457.758 52.92C458.006 53.112 458.294 53.208 458.622 53.208C459.086 53.208 459.498 53.036 459.858 52.692C460.226 52.348 460.41 51.944 460.41 51.48C460.066 51.208 459.586 51.072 458.97 51.072C458.522 51.072 458.146 51.18 457.842 51.396C457.546 51.612 457.398 51.88 457.398 52.2ZM458.826 47.928C459.642 47.928 460.286 48.148 460.758 48.588C461.23 49.02 461.466 49.616 461.466 50.376V54H460.41V53.184H460.362C459.906 53.856 459.298 54.192 458.538 54.192C457.89 54.192 457.346 54 456.906 53.616C456.474 53.232 456.258 52.752 456.258 52.176C456.258 51.568 456.486 51.084 456.942 50.724C457.406 50.364 458.022 50.184 458.79 50.184C459.446 50.184 459.986 50.304 460.41 50.544V50.292C460.41 49.908 460.258 49.584 459.954 49.32C459.65 49.048 459.294 48.912 458.886 48.912C458.27 48.912 457.782 49.172 457.422 49.692L456.45 49.08C456.986 48.312 457.778 47.928 458.826 47.928ZM465.819 54.192C465.387 54.192 464.991 54.1 464.631 53.916C464.279 53.732 464.007 53.488 463.815 53.184H463.767V54H462.711V45.408H463.815V48.12L463.767 48.936H463.815C464.007 48.632 464.279 48.388 464.631 48.204C464.991 48.02 465.387 47.928 465.819 47.928C466.595 47.928 467.251 48.232 467.787 48.84C468.339 49.456 468.615 50.196 468.615 51.06C468.615 51.932 468.339 52.672 467.787 53.28C467.251 53.888 466.595 54.192 465.819 54.192ZM465.639 53.184C466.167 53.184 466.611 52.984 466.971 52.584C467.331 52.192 467.511 51.684 467.511 51.06C467.511 50.444 467.331 49.936 466.971 49.536C466.611 49.136 466.167 48.936 465.639 48.936C465.103 48.936 464.655 49.136 464.295 49.536C463.943 49.936 463.767 50.444 463.767 51.06C463.767 51.684 463.943 52.196 464.295 52.596C464.655 52.988 465.103 53.184 465.639 53.184ZM470.671 45.408V54H469.567V45.408H470.671ZM474.597 54.192C473.733 54.192 473.021 53.896 472.461 53.304C471.901 52.712 471.621 51.964 471.621 51.06C471.621 50.164 471.893 49.42 472.437 48.828C472.981 48.228 473.677 47.928 474.525 47.928C475.397 47.928 476.089 48.212 476.601 48.78C477.121 49.34 477.381 50.128 477.381 51.144L477.369 51.264H472.749C472.765 51.84 472.957 52.304 473.325 52.656C473.693 53.008 474.133 53.184 474.645 53.184C475.349 53.184 475.901 52.832 476.301 52.128L477.285 52.608C477.021 53.104 476.653 53.492 476.181 53.772C475.717 54.052 475.189 54.192 474.597 54.192ZM472.833 50.352H476.205C476.173 49.944 476.005 49.608 475.701 49.344C475.405 49.072 475.005 48.936 474.501 48.936C474.085 48.936 473.725 49.064 473.421 49.32C473.125 49.576 472.929 49.92 472.833 50.352ZM483.355 54.096C482.875 54.096 482.475 53.948 482.155 53.652C481.843 53.356 481.683 52.944 481.675 52.416V49.128H480.643V48.12H481.675V46.32H482.779V48.12H484.219V49.128H482.779V52.056C482.779 52.448 482.855 52.716 483.007 52.86C483.159 52.996 483.331 53.064 483.523 53.064C483.611 53.064 483.695 53.056 483.775 53.04C483.863 53.016 483.943 52.988 484.015 52.956L484.363 53.94C484.075 54.044 483.739 54.096 483.355 54.096ZM484.875 51.06C484.875 50.156 485.159 49.408 485.727 48.816C486.303 48.224 487.027 47.928 487.899 47.928C488.771 47.928 489.491 48.224 490.059 48.816C490.635 49.408 490.923 50.156 490.923 51.06C490.923 51.972 490.635 52.72 490.059 53.304C489.491 53.896 488.771 54.192 487.899 54.192C487.027 54.192 486.303 53.896 485.727 53.304C485.159 52.712 484.875 51.964 484.875 51.06ZM485.979 51.06C485.979 51.692 486.163 52.204 486.531 52.596C486.899 52.988 487.355 53.184 487.899 53.184C488.443 53.184 488.899 52.988 489.267 52.596C489.635 52.204 489.819 51.692 489.819 51.06C489.819 50.436 489.635 49.928 489.267 49.536C488.891 49.136 488.435 48.936 487.899 48.936C487.363 48.936 486.907 49.136 486.531 49.536C486.163 49.928 485.979 50.436 485.979 51.06ZM495.367 52.2C495.367 52.488 495.487 52.728 495.727 52.92C495.975 53.112 496.263 53.208 496.591 53.208C497.055 53.208 497.467 53.036 497.827 52.692C498.195 52.348 498.379 51.944 498.379 51.48C498.035 51.208 497.555 51.072 496.939 51.072C496.491 51.072 496.115 51.18 495.811 51.396C495.515 51.612 495.367 51.88 495.367 52.2ZM496.795 47.928C497.611 47.928 498.255 48.148 498.727 48.588C499.199 49.02 499.435 49.616 499.435 50.376V54H498.379V53.184H498.331C497.875 53.856 497.267 54.192 496.507 54.192C495.859 54.192 495.315 54 494.875 53.616C494.443 53.232 494.227 52.752 494.227 52.176C494.227 51.568 494.455 51.084 494.911 50.724C495.375 50.364 495.991 50.184 496.759 50.184C497.415 50.184 497.955 50.304 498.379 50.544V50.292C498.379 49.908 498.227 49.584 497.923 49.32C497.619 49.048 497.263 48.912 496.855 48.912C496.239 48.912 495.751 49.172 495.391 49.692L494.419 49.08C494.955 48.312 495.747 47.928 496.795 47.928ZM505.121 52.368C505.121 52.88 504.897 53.312 504.449 53.664C504.001 54.016 503.437 54.192 502.757 54.192C502.165 54.192 501.645 54.04 501.197 53.736C500.749 53.424 500.429 53.016 500.237 52.512L501.221 52.092C501.365 52.444 501.573 52.72 501.845 52.92C502.125 53.112 502.429 53.208 502.757 53.208C503.109 53.208 503.401 53.132 503.633 52.98C503.873 52.828 503.993 52.648 503.993 52.44C503.993 52.064 503.705 51.788 503.129 51.612L502.121 51.36C500.977 51.072 500.405 50.52 500.405 49.704C500.405 49.168 500.621 48.74 501.053 48.42C501.493 48.092 502.053 47.928 502.733 47.928C503.253 47.928 503.721 48.052 504.137 48.3C504.561 48.548 504.857 48.88 505.025 49.296L504.041 49.704C503.929 49.456 503.745 49.264 503.489 49.128C503.241 48.984 502.961 48.912 502.649 48.912C502.361 48.912 502.101 48.984 501.869 49.128C501.645 49.272 501.533 49.448 501.533 49.656C501.533 49.992 501.849 50.232 502.481 50.376L503.369 50.604C504.537 50.892 505.121 51.48 505.121 52.368ZM510.582 52.368C510.582 52.88 510.358 53.312 509.91 53.664C509.462 54.016 508.898 54.192 508.218 54.192C507.626 54.192 507.106 54.04 506.658 53.736C506.21 53.424 505.89 53.016 505.698 52.512L506.682 52.092C506.826 52.444 507.034 52.72 507.306 52.92C507.586 53.112 507.89 53.208 508.218 53.208C508.57 53.208 508.862 53.132 509.094 52.98C509.334 52.828 509.454 52.648 509.454 52.44C509.454 52.064 509.166 51.788 508.59 51.612L507.582 51.36C506.438 51.072 505.866 50.52 505.866 49.704C505.866 49.168 506.082 48.74 506.514 48.42C506.954 48.092 507.514 47.928 508.194 47.928C508.714 47.928 509.182 48.052 509.598 48.3C510.022 48.548 510.318 48.88 510.486 49.296L509.502 49.704C509.39 49.456 509.206 49.264 508.95 49.128C508.702 48.984 508.422 48.912 508.11 48.912C507.822 48.912 507.562 48.984 507.33 49.128C507.106 49.272 506.994 49.448 506.994 49.656C506.994 49.992 507.31 50.232 507.942 50.376L508.83 50.604C509.998 50.892 510.582 51.48 510.582 52.368ZM512.913 46.092C512.913 46.308 512.837 46.492 512.685 46.644C512.533 46.796 512.349 46.872 512.133 46.872C511.917 46.872 511.733 46.796 511.581 46.644C511.429 46.492 511.353 46.308 511.353 46.092C511.353 45.876 511.429 45.692 511.581 45.54C511.733 45.388 511.917 45.312 512.133 45.312C512.349 45.312 512.533 45.388 512.685 45.54C512.837 45.692 512.913 45.876 512.913 46.092ZM512.685 48.12V54H511.581V48.12H512.685ZM516.703 53.184C517.247 53.184 517.691 52.988 518.035 52.596C518.395 52.204 518.575 51.692 518.575 51.06C518.575 50.444 518.395 49.936 518.035 49.536C517.683 49.136 517.239 48.936 516.703 48.936C516.175 48.936 515.731 49.136 515.371 49.536C515.011 49.936 514.831 50.444 514.831 51.06C514.831 51.684 515.011 52.192 515.371 52.584C515.731 52.984 516.175 53.184 516.703 53.184ZM516.667 56.784C516.339 56.784 516.031 56.74 515.743 56.652C515.455 56.572 515.191 56.456 514.951 56.304C514.719 56.152 514.519 55.972 514.351 55.764C514.183 55.556 514.055 55.324 513.967 55.068L515.011 54.636C515.131 54.98 515.339 55.256 515.635 55.464C515.931 55.672 516.275 55.776 516.667 55.776C517.267 55.776 517.735 55.596 518.071 55.236C518.407 54.876 518.575 54.38 518.575 53.748V53.184H518.527C518.319 53.496 518.035 53.744 517.675 53.928C517.323 54.104 516.939 54.192 516.523 54.192C515.755 54.192 515.095 53.892 514.543 53.292C513.999 52.676 513.727 51.932 513.727 51.06C513.727 50.188 513.999 49.448 514.543 48.84C515.095 48.232 515.755 47.928 516.523 47.928C516.939 47.928 517.323 48.02 517.675 48.204C518.035 48.38 518.319 48.624 518.527 48.936H518.575V48.12H519.631V53.748C519.631 54.692 519.363 55.432 518.827 55.968C518.283 56.512 517.563 56.784 516.667 56.784ZM520.977 48.12H522.033V48.936H522.081C522.249 48.648 522.505 48.408 522.849 48.216C523.201 48.024 523.565 47.928 523.941 47.928C524.661 47.928 525.213 48.136 525.597 48.552C525.989 48.96 526.185 49.544 526.185 50.304V54H525.081V50.376C525.057 49.416 524.573 48.936 523.629 48.936C523.189 48.936 522.821 49.116 522.525 49.476C522.229 49.828 522.081 50.252 522.081 50.748V54H520.977V48.12ZM530.121 54.192C529.257 54.192 528.545 53.896 527.985 53.304C527.425 52.712 527.145 51.964 527.145 51.06C527.145 50.164 527.417 49.42 527.961 48.828C528.505 48.228 529.201 47.928 530.049 47.928C530.921 47.928 531.613 48.212 532.125 48.78C532.645 49.34 532.905 50.128 532.905 51.144L532.893 51.264H528.273C528.289 51.84 528.481 52.304 528.849 52.656C529.217 53.008 529.657 53.184 530.169 53.184C530.873 53.184 531.425 52.832 531.825 52.128L532.809 52.608C532.545 53.104 532.177 53.492 531.705 53.772C531.241 54.052 530.713 54.192 530.121 54.192ZM528.357 50.352H531.729C531.697 49.944 531.529 49.608 531.225 49.344C530.929 49.072 530.529 48.936 530.025 48.936C529.609 48.936 529.249 49.064 528.945 49.32C528.649 49.576 528.453 49.92 528.357 50.352ZM536.613 53.184C537.157 53.184 537.601 52.988 537.945 52.596C538.305 52.204 538.485 51.692 538.485 51.06C538.485 50.444 538.305 49.936 537.945 49.536C537.593 49.136 537.149 48.936 536.613 48.936C536.085 48.936 535.641 49.136 535.281 49.536C534.921 49.936 534.741 50.444 534.741 51.06C534.741 51.684 534.921 52.192 535.281 52.584C535.641 52.984 536.085 53.184 536.613 53.184ZM536.433 54.192C535.665 54.192 535.005 53.888 534.453 53.28C533.909 52.664 533.637 51.924 533.637 51.06C533.637 50.196 533.909 49.456 534.453 48.84C535.005 48.232 535.665 47.928 536.433 47.928C536.865 47.928 537.257 48.02 537.609 48.204C537.969 48.388 538.245 48.632 538.437 48.936H538.485L538.437 48.12V45.408H539.541V54H538.485V53.184H538.437C538.245 53.488 537.969 53.732 537.609 53.916C537.257 54.1 536.865 54.192 536.433 54.192ZM543.188 51.06C543.188 50.156 543.472 49.408 544.04 48.816C544.616 48.224 545.34 47.928 546.212 47.928C547.084 47.928 547.804 48.224 548.372 48.816C548.948 49.408 549.236 50.156 549.236 51.06C549.236 51.972 548.948 52.72 548.372 53.304C547.804 53.896 547.084 54.192 546.212 54.192C545.34 54.192 544.616 53.896 544.04 53.304C543.472 52.712 543.188 51.964 543.188 51.06ZM544.292 51.06C544.292 51.692 544.476 52.204 544.844 52.596C545.212 52.988 545.668 53.184 546.212 53.184C546.756 53.184 547.212 52.988 547.58 52.596C547.948 52.204 548.132 51.692 548.132 51.06C548.132 50.436 547.948 49.928 547.58 49.536C547.204 49.136 546.748 48.936 546.212 48.936C545.676 48.936 545.22 49.136 544.844 49.536C544.476 49.928 544.292 50.436 544.292 51.06ZM551.225 54H550.121V48.12H551.177V49.08H551.225C551.337 48.768 551.565 48.504 551.909 48.288C552.261 48.064 552.605 47.952 552.941 47.952C553.261 47.952 553.533 48 553.757 48.096L553.421 49.164C553.285 49.108 553.069 49.08 552.773 49.08C552.357 49.08 551.993 49.248 551.681 49.584C551.377 49.92 551.225 50.312 551.225 50.76V54ZM19.36 74.192C18.488 74.192 17.764 73.896 17.188 73.304C16.62 72.696 16.336 71.948 16.336 71.06C16.336 70.156 16.62 69.408 17.188 68.816C17.764 68.224 18.488 67.928 19.36 67.928C19.96 67.928 20.484 68.08 20.932 68.384C21.38 68.68 21.716 69.092 21.94 69.62L20.932 70.04C20.62 69.304 20.072 68.936 19.288 68.936C18.784 68.936 18.348 69.14 17.98 69.548C17.62 69.956 17.44 70.46 17.44 71.06C17.44 71.66 17.62 72.164 17.98 72.572C18.348 72.98 18.784 73.184 19.288 73.184C20.096 73.184 20.664 72.816 20.992 72.08L21.976 72.5C21.76 73.028 21.42 73.444 20.956 73.748C20.5 74.044 19.968 74.192 19.36 74.192ZM23.9869 74H22.8829V68.12H23.9389V69.08H23.9869C24.0989 68.768 24.3269 68.504 24.6709 68.288C25.0229 68.064 25.3669 67.952 25.7029 67.952C26.0229 67.952 26.2949 68 26.5189 68.096L26.1829 69.164C26.0469 69.108 25.8309 69.08 25.5349 69.08C25.1189 69.08 24.7549 69.248 24.4429 69.584C24.1389 69.92 23.9869 70.312 23.9869 70.76V74ZM29.519 74.192C28.655 74.192 27.943 73.896 27.383 73.304C26.823 72.712 26.543 71.964 26.543 71.06C26.543 70.164 26.815 69.42 27.359 68.828C27.903 68.228 28.599 67.928 29.447 67.928C30.319 67.928 31.011 68.212 31.523 68.78C32.043 69.34 32.303 70.128 32.303 71.144L32.291 71.264H27.671C27.687 71.84 27.879 72.304 28.247 72.656C28.615 73.008 29.055 73.184 29.567 73.184C30.271 73.184 30.823 72.832 31.223 72.128L32.207 72.608C31.943 73.104 31.575 73.492 31.103 73.772C30.639 74.052 30.111 74.192 29.519 74.192ZM27.755 70.352H31.127C31.095 69.944 30.927 69.608 30.623 69.344C30.327 69.072 29.927 68.936 29.423 68.936C29.007 68.936 28.647 69.064 28.343 69.32C28.047 69.576 27.851 69.92 27.755 70.352ZM34.1752 72.2C34.1752 72.488 34.2952 72.728 34.5352 72.92C34.7832 73.112 35.0712 73.208 35.3992 73.208C35.8632 73.208 36.2752 73.036 36.6352 72.692C37.0032 72.348 37.1872 71.944 37.1872 71.48C36.8432 71.208 36.3632 71.072 35.7472 71.072C35.2992 71.072 34.9232 71.18 34.6192 71.396C34.3232 71.612 34.1752 71.88 34.1752 72.2ZM35.6032 67.928C36.4192 67.928 37.0632 68.148 37.5352 68.588C38.0072 69.02 38.2432 69.616 38.2432 70.376V74H37.1872V73.184H37.1392C36.6832 73.856 36.0752 74.192 35.3152 74.192C34.6672 74.192 34.1232 74 33.6832 73.616C33.2512 73.232 33.0352 72.752 33.0352 72.176C33.0352 71.568 33.2632 71.084 33.7192 70.724C34.1832 70.364 34.7992 70.184 35.5672 70.184C36.2232 70.184 36.7632 70.304 37.1872 70.544V70.292C37.1872 69.908 37.0352 69.584 36.7312 69.32C36.4272 69.048 36.0712 68.912 35.6632 68.912C35.0472 68.912 34.5592 69.172 34.1992 69.692L33.2272 69.08C33.7632 68.312 34.5552 67.928 35.6032 67.928ZM41.6992 74.096C41.2192 74.096 40.8192 73.948 40.4992 73.652C40.1872 73.356 40.0272 72.944 40.0192 72.416V69.128H38.9872V68.12H40.0192V66.32H41.1232V68.12H42.5632V69.128H41.1232V72.056C41.1232 72.448 41.1992 72.716 41.3512 72.86C41.5032 72.996 41.6752 73.064 41.8672 73.064C41.9552 73.064 42.0392 73.056 42.1192 73.04C42.2072 73.016 42.2872 72.988 42.3592 72.956L42.7072 73.94C42.4192 74.044 42.0832 74.096 41.6992 74.096ZM46.1948 74.192C45.3308 74.192 44.6188 73.896 44.0588 73.304C43.4988 72.712 43.2188 71.964 43.2188 71.06C43.2188 70.164 43.4908 69.42 44.0348 68.828C44.5788 68.228 45.2748 67.928 46.1228 67.928C46.9948 67.928 47.6868 68.212 48.1988 68.78C48.7188 69.34 48.9788 70.128 48.9788 71.144L48.9668 71.264H44.3468C44.3628 71.84 44.5548 72.304 44.9228 72.656C45.2908 73.008 45.7308 73.184 46.2428 73.184C46.9468 73.184 47.4988 72.832 47.8988 72.128L48.8828 72.608C48.6188 73.104 48.2508 73.492 47.7788 73.772C47.3148 74.052 46.7868 74.192 46.1948 74.192ZM44.4308 70.352H47.8028C47.7708 69.944 47.6028 69.608 47.2988 69.344C47.0028 69.072 46.6028 68.936 46.0988 68.936C45.6828 68.936 45.3228 69.064 45.0188 69.32C44.7228 69.576 44.5268 69.92 44.4308 70.352ZM52.687 73.184C53.231 73.184 53.675 72.988 54.019 72.596C54.379 72.204 54.559 71.692 54.559 71.06C54.559 70.444 54.379 69.936 54.019 69.536C53.667 69.136 53.223 68.936 52.687 68.936C52.159 68.936 51.715 69.136 51.355 69.536C50.995 69.936 50.815 70.444 50.815 71.06C50.815 71.684 50.995 72.192 51.355 72.584C51.715 72.984 52.159 73.184 52.687 73.184ZM52.507 74.192C51.739 74.192 51.079 73.888 50.527 73.28C49.983 72.664 49.711 71.924 49.711 71.06C49.711 70.196 49.983 69.456 50.527 68.84C51.079 68.232 51.739 67.928 52.507 67.928C52.939 67.928 53.331 68.02 53.683 68.204C54.043 68.388 54.319 68.632 54.511 68.936H54.559L54.511 68.12V65.408H55.615V74H54.559V73.184H54.511C54.319 73.488 54.043 73.732 53.683 73.916C53.331 74.1 52.939 74.192 52.507 74.192ZM60.7018 74H59.5978V68.12H60.6538V69.08H60.7018C60.8138 68.768 61.0418 68.504 61.3858 68.288C61.7378 68.064 62.0818 67.952 62.4178 67.952C62.7378 67.952 63.0098 68 63.2338 68.096L62.8978 69.164C62.7618 69.108 62.5458 69.08 62.2498 69.08C61.8338 69.08 61.4698 69.248 61.1578 69.584C60.8538 69.92 60.7018 70.312 60.7018 70.76V74ZM63.2579 71.06C63.2579 70.156 63.5419 69.408 64.1099 68.816C64.6859 68.224 65.4099 67.928 66.2819 67.928C67.1539 67.928 67.8739 68.224 68.4419 68.816C69.0179 69.408 69.3059 70.156 69.3059 71.06C69.3059 71.972 69.0179 72.72 68.4419 73.304C67.8739 73.896 67.1539 74.192 66.2819 74.192C65.4099 74.192 64.6859 73.896 64.1099 73.304C63.5419 72.712 63.2579 71.964 63.2579 71.06ZM64.3619 71.06C64.3619 71.692 64.5459 72.204 64.9139 72.596C65.2819 72.988 65.7379 73.184 66.2819 73.184C66.8259 73.184 67.2819 72.988 67.6499 72.596C68.0179 72.204 68.2019 71.692 68.2019 71.06C68.2019 70.436 68.0179 69.928 67.6499 69.536C67.2739 69.136 66.8179 68.936 66.2819 68.936C65.7459 68.936 65.2899 69.136 64.9139 69.536C64.5459 69.928 64.3619 70.436 64.3619 71.06ZM71.3541 65.408V74H70.2501V65.408H71.3541ZM75.2808 74.192C74.4168 74.192 73.7048 73.896 73.1448 73.304C72.5848 72.712 72.3048 71.964 72.3048 71.06C72.3048 70.164 72.5768 69.42 73.1208 68.828C73.6648 68.228 74.3608 67.928 75.2088 67.928C76.0808 67.928 76.7728 68.212 77.2848 68.78C77.8048 69.34 78.0648 70.128 78.0648 71.144L78.0528 71.264H73.4328C73.4488 71.84 73.6408 72.304 74.0088 72.656C74.3768 73.008 74.8168 73.184 75.3288 73.184C76.0328 73.184 76.5848 72.832 76.9848 72.128L77.9688 72.608C77.7048 73.104 77.3368 73.492 76.8648 73.772C76.4008 74.052 75.8728 74.192 75.2808 74.192ZM73.5168 70.352H76.8888C76.8568 69.944 76.6888 69.608 76.3848 69.344C76.0888 69.072 75.6888 68.936 75.1848 68.936C74.7688 68.936 74.4088 69.064 74.1048 69.32C73.8088 69.576 73.6128 69.92 73.5168 70.352ZM80.6103 73.256C80.6103 73.48 80.5303 73.672 80.3703 73.832C80.2183 73.992 80.0263 74.072 79.7943 74.072C79.5703 74.072 79.3783 73.992 79.2183 73.832C79.0583 73.672 78.9783 73.48 78.9783 73.256C78.9783 73.024 79.0583 72.832 79.2183 72.68C79.3783 72.52 79.5703 72.44 79.7943 72.44C80.0263 72.44 80.2183 72.52 80.3703 72.68C80.5303 72.832 80.6103 73.024 80.6103 73.256Z" fill="#575A65"/>
<rect x="0.5" y="0.5" width="588" height="95" rx="3.5" stroke="#FAF0AB"/>
</svg>
