<svg width="931" height="170" viewBox="0 0 931 170" fill="none" xmlns="http://www.w3.org/2000/svg">
<g opacity="0.218">
<path opacity="0.54" d="M955.243 207.528C963.555 181.471 942.787 153.113 916.984 144.079C891.182 135.045 862.666 140.508 836.41 148.152C810.155 155.797 783.842 165.604 756.503 165.065C699.93 163.936 654.515 119.905 616.69 77.8331C578.865 35.7612 537.029 -10.2453 480.921 -17.6296C436.929 -23.4115 393.966 -3.77733 350.05 2.52763C273.388 13.54 191.915 -19.5997 144.725 -81.023" stroke="#2C6CAC" stroke-width="0.937053" stroke-miterlimit="10"/>
<path opacity="0.54" d="M954.647 214.885C962.972 188.864 942.443 160.501 916.793 151.213C914.501 150.378 912.181 149.679 909.845 149.052C886.05 142.855 860.313 147.693 836.398 154.36C831.787 155.643 827.158 156.996 822.54 158.352C800.847 164.715 778.996 171.084 756.498 170.519C749.32 170.338 742.175 169.475 735.161 167.939C688.395 157.787 649.882 119.61 617.262 82.7638C614.895 80.0839 612.511 77.3941 610.11 74.6942C574.578 34.7612 535.269 -5.74932 483.693 -14.5074C468.968 -16.9554 453.957 -17.1452 439.176 -15.0702C421.446 -12.6923 403.757 -7.51551 386.336 -2.62373C374.435 0.718252 362.608 3.92608 350.636 6.14049C345.008 7.18093 339.339 7.97758 333.63 8.53038C296.752 11.7477 259.673 5.27942 226.062 -10.2343C192.245 -25.6023 162.783 -49.1444 140.334 -78.7383" stroke="#2C6CAC" stroke-width="0.937053" stroke-miterlimit="10"/>
<path opacity="0.54" d="M954.052 222.241C962.396 196.241 942.111 167.884 916.612 158.342C914.329 157.49 912.027 156.748 909.704 156.116C886.03 149.692 860.324 154.21 836.386 160.579C831.76 161.817 827.152 163.11 822.525 164.414C800.824 170.527 778.962 176.684 756.494 176.001C749.32 175.782 742.184 174.889 735.178 173.332C688.437 162.995 650.112 124.775 617.822 87.7234C615.477 85.033 613.117 82.3228 610.748 79.6134C575.634 39.465 537.025 -0.809778 486.429 -11.3351C471.62 -14.5535 456.39 -15.372 441.321 -13.7591C423.077 -11.7203 404.837 -6.04264 387.208 -0.486339C375.178 3.30225 363.286 7.05431 351.198 9.78054C345.507 11.0579 339.777 12.0956 333.977 12.8521C297.019 17.6846 257.925 10.8406 223.401 -5.10362C188.731 -21.1903 158.654 -45.7222 135.926 -76.4506" stroke="#2C6CAC" stroke-width="0.937053" stroke-miterlimit="10"/>
<path opacity="0.54" d="M953.468 229.596C961.827 203.635 941.792 175.271 916.433 165.489C914.17 164.617 911.879 163.852 909.559 163.196C885.988 156.534 860.329 160.728 836.369 166.811C831.753 167.989 827.12 169.229 822.5 170.474C800.79 176.334 778.911 182.285 756.477 181.482C749.315 181.228 742.193 180.306 735.202 178.731C688.507 168.22 650.352 129.95 618.386 92.6885L611.394 84.5348C576.696 44.1592 538.759 4.08534 489.182 -8.17653C474.303 -12.1658 458.855 -13.6054 443.495 -12.4342C424.726 -10.7456 405.944 -4.55339 388.113 1.67614C375.934 5.91797 363.994 10.2234 351.79 13.4445C346.052 14.9662 340.248 16.2305 334.352 17.192C296.78 23.3541 256.216 16.627 220.775 0.0578133C185.253 -16.7595 154.56 -42.2837 131.547 -74.1427" stroke="#2C6CAC" stroke-width="0.937053" stroke-miterlimit="10"/>
<path opacity="0.54" d="M952.877 236.966C961.245 211.025 941.452 182.667 916.259 172.631C914.001 171.731 911.73 170.954 909.428 170.27C885.975 163.374 860.351 167.252 836.37 173.047C831.746 174.162 827.123 175.355 822.486 176.554C800.768 182.165 778.866 187.893 756.461 186.989C749.308 186.699 742.196 185.747 735.219 184.146C688.555 173.462 650.592 135.126 618.939 97.6738C616.638 94.9524 614.333 92.2168 612.025 89.4671C577.747 48.8774 540.471 8.91789 491.924 -4.99763C477.057 -9.26534 461.943 -12.2574 445.659 -11.0978C426.352 -9.75297 407.04 -3.05456 389.004 3.83629C376.695 8.53985 364.688 13.3776 352.357 17.1119C346.567 18.8674 340.683 20.3585 334.691 21.5438C296.51 29.0441 254.468 22.4141 218.112 5.23117C181.736 -12.3116 150.424 -38.8261 127.127 -71.8146" stroke="#2C6CAC" stroke-width="0.937053" stroke-miterlimit="10"/>
<path opacity="0.54" d="M952.283 244.323C960.673 218.414 941.116 190.043 916.078 179.76C913.839 178.838 911.572 178.03 909.277 177.335C885.936 170.189 860.354 173.767 836.348 179.265C831.718 180.327 827.09 181.471 822.463 182.612C800.738 187.978 778.813 193.495 756.447 192.466C749.299 192.141 742.197 191.161 735.229 189.538C688.595 178.668 650.817 140.294 619.489 102.634C617.207 99.8941 614.938 97.1514 612.65 94.3883C578.795 53.5813 542.158 13.6786 494.655 -1.83669C479.719 -6.71097 464.523 -10.6492 447.807 -9.79244C427.979 -8.7867 408.121 -1.58492 389.863 5.97321C377.407 11.13 365.339 16.5125 352.906 20.7496C347.037 22.7588 341.069 24.4635 335.025 25.8568C296.229 34.6867 252.719 28.1792 215.444 10.3657C178.109 -7.47506 146.532 -35.736 122.703 -69.5259" stroke="#2C6CAC" stroke-width="0.937053" stroke-miterlimit="10"/>
<path opacity="0.54" d="M951.687 251.68C960.087 225.793 940.786 197.424 915.89 186.896C913.67 185.956 911.409 185.122 909.132 184.402C885.9 177.038 860.357 180.273 836.347 185.498C831.71 186.505 827.086 187.583 822.453 188.673C800.727 193.784 778.785 199.086 756.446 197.943C749.306 197.576 742.215 196.563 735.257 194.919C688.655 183.877 651.061 145.438 620.061 107.582C617.804 104.834 615.55 102.071 613.3 99.2936C579.858 58.2726 543.853 18.3597 497.414 1.31965C482.421 -4.1759 467.13 -9.06822 449.977 -8.48533C429.626 -7.82612 409.226 -0.116072 390.766 8.11717C378.175 13.7226 366.044 19.6487 353.496 24.3969C347.57 26.6552 341.526 28.5884 335.389 30.1879C295.98 40.3447 250.992 33.9405 212.806 15.5164C174.555 -2.93745 142.521 -32.383 118.318 -67.2226" stroke="#2C6CAC" stroke-width="0.937053" stroke-miterlimit="10"/>
<path opacity="0.54" d="M951.103 259.034C959.528 233.182 940.454 204.809 915.723 194.033C913.51 193.076 911.267 192.223 908.995 191.475C885.877 183.862 860.371 186.797 836.338 191.715C831.709 192.669 827.068 193.698 822.443 194.733C800.691 199.606 778.744 204.681 756.445 203.428C749.315 203.029 742.236 201.986 735.294 200.312C688.727 189.101 651.309 150.612 620.639 112.545C618.413 109.773 616.186 106.996 613.959 104.215C580.937 62.9783 545.573 22.9881 500.182 4.47788C485.119 -1.66199 469.753 -7.45397 452.164 -7.17266C431.285 -6.86495 410.346 1.36091 391.676 10.2549C378.935 16.3168 366.758 22.7804 354.075 28.0427C348.094 30.5429 341.977 32.7032 335.753 34.5134C295.733 46.0111 249.271 39.7126 210.168 20.6634C171 1.58466 138.514 -29.0261 113.926 -64.9221" stroke="#2C6CAC" stroke-width="0.937053" stroke-miterlimit="10"/>
<path opacity="0.54" d="M950.511 266.405C958.947 240.588 940.119 212.21 915.535 201.181C913.338 200.19 911.104 199.322 908.85 198.553C885.836 190.702 860.392 193.31 836.322 197.946C831.684 198.838 827.049 199.809 822.419 200.791C800.658 205.412 778.692 210.281 756.43 208.911C749.308 208.479 742.238 207.411 735.306 205.72C688.78 194.326 651.532 155.781 621.194 117.518C618.993 114.737 616.79 111.942 614.586 109.133C581.996 67.6782 547.259 27.5696 502.913 7.647C487.779 0.848355 472.32 -5.84553 454.318 -5.84673C432.921 -5.87243 411.434 2.84928 392.56 12.4065C379.685 18.9163 367.447 25.9354 354.651 31.7107C348.616 34.4517 342.427 36.8383 336.114 38.8586C295.489 51.6806 247.556 45.4871 207.526 25.8308C167.446 6.1376 134.496 -25.6596 109.529 -62.5988" stroke="#2C6CAC" stroke-width="0.937053" stroke-miterlimit="10"/>
<path opacity="0.54" d="M949.917 273.761C958.373 247.962 939.784 219.594 915.355 208.31C913.17 207.304 910.953 206.406 908.704 205.618C885.815 197.537 860.408 199.82 836.314 204.17C831.673 205.008 827.033 205.928 822.397 206.86C800.628 211.23 778.652 215.887 756.419 214.399C749.305 213.93 742.247 212.831 735.328 211.114C688.831 199.541 651.768 160.952 621.748 122.484C619.569 119.695 617.394 116.877 615.22 114.06C583.049 72.3893 548.955 32.0952 505.669 10.8205C490.471 3.35035 474.923 -4.23858 456.486 -4.5269C434.564 -4.90731 412.533 4.32151 393.44 14.5554C380.423 21.5315 368.131 29.0783 355.219 35.361C349.132 38.3496 342.868 40.9642 336.463 43.1901C295.222 57.3611 245.819 51.2676 204.874 30.9837C163.877 10.6693 130.463 -22.2954 105.12 -60.2917" stroke="#2C6CAC" stroke-width="0.937053" stroke-miterlimit="10"/>
<path opacity="0.54" d="M949.322 281.12C957.793 255.356 939.448 226.969 915.179 215.453C913.009 214.427 910.806 213.507 908.568 212.694C885.786 204.372 860.412 206.338 836.302 210.408C831.669 211.193 827.02 212.059 822.381 212.939C800.608 217.071 778.605 221.497 756.411 219.9C749.306 219.397 742.259 218.267 735.353 216.523C688.89 204.778 652.01 166.139 622.316 127.458C620.157 124.648 618.007 121.826 615.867 118.991C584.113 77.1077 550.671 36.5681 508.418 13.9888C493.152 5.8316 477.525 -2.6242 458.651 -3.19899C436.202 -3.92902 413.63 5.81182 394.335 16.7208C381.17 24.1502 368.829 32.2378 355.801 39.0298C349.659 42.2602 343.32 45.1023 336.822 47.5393C294.967 63.0336 244.09 57.0502 202.227 36.1413C160.315 15.212 126.449 -18.9268 100.718 -57.9781" stroke="#2C6CAC" stroke-width="0.937053" stroke-miterlimit="10"/>
<path opacity="0.54" d="M948.735 288.475C957.23 262.73 939.13 234.349 914.999 222.584C912.858 221.532 910.666 220.588 908.43 219.755C885.754 211.196 860.428 212.849 836.305 216.62C831.665 217.35 827.012 218.155 822.368 218.981C800.586 222.861 778.563 227.08 756.396 225.369C749.297 224.829 742.259 223.67 735.362 221.905C688.933 209.973 652.238 171.281 622.866 132.408C620.728 129.591 618.61 126.738 616.492 123.89C585.161 81.7948 552.393 40.9704 511.154 17.1374C495.827 8.28027 480.109 -1.04032 460.809 -1.90743C437.84 -2.97462 414.721 7.2677 395.22 18.8386C381.918 26.711 369.516 35.3478 356.373 42.6491C350.177 46.1273 343.762 49.1976 337.167 51.8405C294.697 68.6624 242.345 62.7872 199.57 41.264C156.745 19.7184 122.421 -15.5962 96.3041 -55.7014" stroke="#2C6CAC" stroke-width="0.937053" stroke-miterlimit="10"/>
<path opacity="0.54" d="M948.146 295.844C956.655 270.134 938.789 241.753 914.821 229.727C912.676 228.658 910.495 227.69 908.279 226.823C885.716 218.023 860.425 219.357 836.282 222.841C831.633 223.509 826.991 224.267 822.351 225.04C800.561 228.669 778.53 232.674 756.389 230.848C749.299 230.27 742.272 229.079 735.387 227.288C688.986 215.186 652.479 176.432 623.433 137.359C621.317 134.52 619.219 131.666 617.139 128.798C586.221 86.4682 554.154 45.3239 513.908 20.2828C498.515 10.7121 482.702 0.555679 462.978 -0.602538C439.475 -2.0167 415.823 8.73501 396.104 20.9738C382.657 29.3051 370.194 38.4929 356.934 46.2915C350.687 50.0096 344.198 53.3073 337.513 56.1627C294.434 74.3247 240.601 68.5579 196.912 46.402C153.172 24.2308 118.394 -12.2483 91.905 -53.4038" stroke="#2C6CAC" stroke-width="0.937053" stroke-miterlimit="10"/>
<path opacity="0.54" d="M947.552 303.201C956.075 277.511 938.458 249.135 914.63 236.862C912.502 235.767 910.335 234.775 908.13 233.886C885.673 224.854 860.43 225.873 836.257 229.072C831.602 229.689 826.963 230.379 822.32 231.113C800.514 234.494 778.466 238.28 756.366 236.341C749.285 235.731 742.269 234.51 735.398 232.692C689.04 220.414 652.703 181.61 623.988 142.327C621.909 139.475 619.833 136.597 617.778 133.724C587.278 91.181 555.926 49.6699 516.648 23.4714C501.211 13.1672 485.29 2.17784 465.129 0.733158C441.108 -1.03395 416.909 10.2344 396.985 23.147C383.406 31.9407 370.882 41.6695 357.502 49.9662C351.201 53.919 344.641 57.4431 337.867 60.5145C294.173 80.0042 238.873 74.343 194.267 51.5811C149.614 28.7936 114.382 -8.86084 87.5037 -51.0814" stroke="#2C6CAC" stroke-width="0.937053" stroke-miterlimit="10"/>
<path opacity="0.54" d="M946.969 310.553C955.503 284.902 938.137 256.515 914.462 244C912.356 242.884 910.189 241.871 908.004 240.958C885.666 231.69 860.453 232.382 836.268 235.29C831.614 235.854 826.963 236.495 822.314 237.163C800.499 240.305 778.432 243.87 756.371 241.813C749.297 241.163 742.291 239.918 735.427 238.089C689.101 225.639 652.948 186.783 624.547 147.298C622.487 144.427 620.435 141.54 618.41 138.656C588.333 95.9066 557.707 53.9845 519.384 26.6315C503.897 15.5813 487.875 3.7852 467.294 2.04808C442.753 -0.0561816 418.018 11.7077 397.877 25.2863C384.152 34.5345 371.573 44.7935 358.07 53.6128C351.72 57.8139 345.085 61.5678 338.213 64.8473C293.903 85.6653 237.135 80.1223 191.612 56.7354C146.039 33.3235 110.352 -5.49728 83.0879 -48.7735" stroke="#2C6CAC" stroke-width="0.937053" stroke-miterlimit="10"/>
<path opacity="0.54" d="M946.373 317.91C954.929 292.277 937.792 263.904 914.278 251.131C912.175 249.988 910.033 248.953 907.852 248.023C885.618 238.518 860.455 238.896 836.256 241.504C831.603 242.013 826.953 242.601 822.3 243.215C800.476 246.107 778.403 249.463 756.365 247.287C749.302 246.603 742.308 245.325 735.459 243.468C689.162 230.833 653.192 191.927 625.123 152.244C623.087 149.365 621.066 146.466 619.062 143.548C589.401 100.573 559.535 58.2221 522.147 29.774C506.634 17.9711 490.489 5.36172 469.469 3.33693C444.403 0.884249 419.13 13.1595 398.778 27.4015C384.916 37.097 372.276 47.9008 358.661 57.2306C352.258 61.6701 345.548 65.6501 338.583 69.1406C293.664 91.2987 235.415 85.8514 188.978 61.8508C142.49 37.8259 106.349 -2.17213 78.6982 -46.4978" stroke="#2C6CAC" stroke-width="0.937053" stroke-miterlimit="10"/>
<path opacity="0.54" d="M945.784 325.279C954.35 299.682 937.465 271.287 914.097 258.275C912.013 257.112 909.885 256.053 907.715 255.099C885.595 245.353 860.471 245.422 836.25 247.744C831.59 248.188 826.932 248.72 822.287 249.285C800.454 251.924 778.356 255.059 756.36 252.776C749.306 252.055 742.325 250.746 735.489 248.865C689.224 236.057 653.438 197.099 625.695 157.206C623.684 154.306 621.69 151.393 619.712 148.467C590.469 105.279 561.392 62.4733 524.904 32.9283C509.373 20.3549 493.086 6.96661 471.635 4.65083C446.043 1.84852 420.227 14.6365 399.657 29.5444C385.648 39.695 372.962 51.049 359.227 60.875C352.778 65.5581 345.996 69.7649 338.935 73.4622C293.401 96.9479 233.683 91.6195 186.328 66.992C138.924 42.3415 102.331 1.17829 74.2921 -44.2024" stroke="#2C6CAC" stroke-width="0.937053" stroke-miterlimit="10"/>
<path opacity="0.54" d="M945.188 332.639C953.764 307.065 937.133 278.674 913.919 265.42C911.843 264.24 909.739 263.151 907.566 262.18C885.566 252.204 860.471 251.944 836.23 253.976C831.561 254.362 826.916 254.849 822.265 255.357C800.424 257.746 778.305 260.673 756.352 258.275C749.304 257.521 742.331 256.183 735.505 254.275C689.276 241.299 653.668 202.286 626.253 162.184C624.259 159.277 622.298 156.341 620.352 153.404C591.529 110 563.27 66.7166 527.653 36.1161C512.113 22.7569 495.685 8.59732 473.821 5.99339C447.708 2.85393 421.348 16.1427 400.573 31.7245C386.429 42.3237 373.681 54.2232 359.819 64.5624C353.316 69.486 346.457 73.9219 339.299 77.834C293.155 102.661 231.958 97.4272 183.69 72.1853C135.375 46.9203 98.3224 4.57944 69.9095 -41.859" stroke="#2C6CAC" stroke-width="0.937053" stroke-miterlimit="10"/>
<path opacity="0.54" d="M944.604 339.993C953.206 314.45 936.801 286.059 913.739 272.55C911.679 271.341 909.575 270.238 907.429 269.241C885.533 259.028 860.489 258.454 836.225 260.2C831.566 260.536 826.898 260.958 822.257 261.423C800.404 263.552 778.281 266.278 756.337 263.761C749.299 262.967 742.337 261.598 735.522 259.669C689.331 246.502 653.896 207.445 626.81 167.146C624.837 164.218 622.895 161.278 620.986 158.326C592.583 114.708 565.153 70.9163 530.396 39.2794C514.856 25.1305 498.276 10.1979 475.971 7.30441C449.333 3.81466 422.423 17.6 401.449 33.8618C387.163 44.9274 374.349 57.3566 360.392 68.2129C353.839 73.3755 346.908 78.0383 339.657 82.1617C292.887 108.32 230.232 103.201 181.043 77.3233C131.814 51.4446 94.3059 7.92914 65.5067 -39.565" stroke="#2C6CAC" stroke-width="0.937053" stroke-miterlimit="10"/>
<path opacity="0.54" d="M944.01 347.349C952.619 321.831 936.47 293.442 913.562 279.678C911.521 278.447 909.424 277.329 907.302 276.299C885.523 265.844 860.511 264.951 836.229 266.416C831.564 266.701 826.903 267.066 822.241 267.47C800.386 269.368 778.234 271.857 756.325 269.218C749.3 268.387 742.353 266.993 735.551 265.049C689.394 251.71 654.154 212.602 627.374 172.096C625.436 169.154 623.507 166.196 621.612 163.227C593.627 119.393 567.059 75.0957 533.133 42.4261C517.619 27.4789 500.86 11.78 478.116 8.61141C450.954 4.77136 423.504 19.0724 402.32 35.9932C387.886 47.512 375.023 60.482 360.948 71.8464C354.346 77.2529 347.338 82.1442 339.986 86.4771C292.602 113.967 228.473 108.952 178.372 82.4639C128.226 55.9603 90.2561 11.291 61.0869 -37.2667" stroke="#2C6CAC" stroke-width="0.937053" stroke-miterlimit="10"/>
<path opacity="0.54" d="M943.418 354.72C952.055 329.233 936.145 300.839 913.379 286.825C911.344 285.575 909.266 284.428 907.143 283.384C885.47 272.703 860.513 271.481 836.207 272.642C831.533 272.863 826.872 273.189 822.215 273.537C800.352 275.183 778.179 277.462 756.308 274.7C749.291 273.833 742.354 272.406 735.565 270.433C689.439 256.92 654.377 217.743 627.928 177.044C626.011 174.083 624.116 171.113 622.243 168.135C594.685 124.072 568.997 79.2733 535.875 45.5828C520.384 29.8379 503.442 13.3873 480.289 9.90972C452.604 5.73318 424.611 20.537 403.212 38.1331C388.642 50.1012 375.72 63.6152 361.518 75.4929C354.866 81.1342 347.786 86.2502 340.342 90.7945C292.349 119.622 226.743 114.717 175.725 87.599C124.665 60.4817 86.2321 14.6154 56.6764 -34.981" stroke="#2C6CAC" stroke-width="0.937053" stroke-miterlimit="10"/>
<path opacity="0.54" d="M942.825 362.077C951.466 336.615 935.795 308.217 913.193 293.969C911.179 292.701 909.101 291.522 907 290.463C885.442 279.541 860.511 278.001 836.196 278.885C831.521 279.062 826.852 279.315 822.201 279.617C800.326 281.014 778.149 283.079 756.307 280.207C749.297 279.302 742.369 277.847 735.588 275.853C689.491 262.162 654.611 222.948 628.493 182.041C626.598 179.071 624.725 176.081 622.89 173.09C595.752 128.809 570.97 83.4784 538.629 48.775C523.186 32.2093 506.045 15.0123 482.459 11.2595C454.249 6.73266 425.711 22.0542 404.103 40.3111C389.385 52.7324 376.416 66.7992 362.096 79.1724C355.397 85.0551 348.244 90.4009 340.705 95.16C292.097 125.315 225.03 120.513 173.084 92.7848C121.139 65.0564 82.2296 17.9932 52.2783 -32.6556" stroke="#2C6CAC" stroke-width="0.937053" stroke-miterlimit="10"/>
<path opacity="0.54" d="M942.24 369.43C950.905 343.994 935.477 315.597 913.026 301.095C911.02 299.798 908.969 298.605 906.875 297.517C885.432 286.354 860.539 284.507 836.199 285.09C831.528 285.202 826.851 285.414 822.198 285.653C800.303 286.801 778.115 288.657 756.312 285.664C749.31 284.728 742.393 283.242 735.625 281.219C689.565 267.349 654.863 228.072 629.075 186.966C627.2 183.972 625.358 180.974 623.55 177.971C596.831 133.474 573.003 87.6058 541.4 51.9065C526.017 34.5306 508.667 16.5905 484.64 12.5381C455.902 7.66229 426.83 23.4977 405.016 42.4121C390.16 55.2978 377.131 69.8924 362.685 82.7807C355.937 88.9069 348.708 94.4819 341.067 99.452C291.851 130.935 223.308 126.252 170.445 97.8984C117.582 69.5449 78.2119 21.3343 47.8957 -30.3756" stroke="#2C6CAC" stroke-width="0.937053" stroke-miterlimit="10"/>
<path opacity="0.54" d="M941.644 376.789C950.32 351.381 935.145 322.982 912.833 308.231C910.841 306.916 908.8 305.701 906.711 304.587C885.372 293.187 860.525 291.018 836.174 291.322C831.498 291.384 826.832 291.518 822.177 291.725C800.263 292.639 778.046 294.265 756.292 291.162C749.3 290.186 742.395 288.669 735.638 286.623C689.62 272.58 655.093 233.256 629.632 191.94C627.782 188.941 625.961 185.918 624.184 182.894C597.878 138.176 575.003 91.7918 544.131 55.0679C528.825 36.8606 511.243 18.1879 486.798 13.855C457.521 8.64867 427.924 24.9801 405.887 44.5599C390.891 57.8963 377.807 73.0317 363.246 86.4293C356.446 92.789 349.144 98.5909 341.412 103.779C291.583 136.606 221.565 132.014 167.789 103.048C114.013 74.0829 74.1877 24.6933 43.4841 -28.0698" stroke="#2C6CAC" stroke-width="0.937053" stroke-miterlimit="10"/>
<path opacity="0.54" d="M941.055 384.157C949.748 358.781 934.807 330.382 912.655 315.386C910.684 314.05 908.647 312.795 906.577 311.675C885.362 300.034 860.549 297.551 836.182 297.555C831.501 297.565 826.826 297.644 822.158 297.792C800.254 298.45 778.027 299.864 756.291 296.646C749.306 295.638 742.409 294.092 735.661 292.021C689.67 277.791 655.329 238.431 630.199 196.905C628.367 193.885 626.579 190.85 624.828 187.816C598.947 142.89 577.055 95.9614 546.884 58.2424C531.666 39.2167 513.832 19.8017 488.962 15.1759C459.17 9.61594 429.011 26.4585 406.782 46.7183C391.655 60.5126 378.503 76.1848 363.829 90.0928C356.98 96.6948 349.601 102.725 341.768 108.124C291.323 142.277 219.837 137.806 165.143 108.213C110.449 78.6212 70.1723 28.0701 39.0817 -25.7505" stroke="#2C6CAC" stroke-width="0.937053" stroke-miterlimit="10"/>
<path opacity="0.54" d="M944.467 406.213C953.177 380.86 938.484 352.465 916.478 337.217C914.517 335.849 912.499 334.596 910.426 333.426C889.311 321.56 864.544 318.747 840.153 318.463C835.476 318.407 830.797 318.454 826.128 318.541C804.214 318.947 781.96 320.157 760.258 316.82C753.286 315.771 746.403 314.199 739.668 312.117C693.711 297.715 659.549 258.289 634.739 216.569C632.931 213.541 631.167 210.498 629.447 207.441C603.977 162.301 583.096 114.841 553.608 76.1019C538.493 56.2337 520.409 36.1054 495.103 31.1949C464.784 25.2872 434.092 42.6392 411.651 63.563C396.374 77.8031 383.166 94.0394 368.374 108.443C361.476 115.282 354.025 121.54 346.098 127.154C295.042 162.645 222.077 158.271 166.455 128.056C110.834 97.8399 70.114 46.1201 38.6367 -8.75179" stroke="#2C6CAC" stroke-width="0.937053" stroke-miterlimit="10"/>
<path opacity="0.54" d="M939.875 398.87C948.608 373.549 934.145 345.14 912.301 329.647C910.351 328.261 908.348 326.976 906.291 325.79C885.29 313.68 860.562 310.559 836.148 309.99C831.466 309.878 826.777 309.866 822.119 309.908C800.199 310.065 777.929 311.051 756.256 307.611C749.295 306.524 742.424 304.919 735.701 302.809C689.78 288.247 655.797 248.76 631.312 206.832C629.536 203.78 627.801 200.726 626.096 197.649C601.051 152.292 581.183 104.313 552.367 64.5614C537.361 43.8631 519.017 22.9996 493.286 17.7986C462.445 11.5545 431.207 29.4054 408.558 50.9918C393.144 65.6811 379.873 82.4566 364.97 97.3725C358.024 104.448 350.501 110.934 342.479 116.761C290.808 153.58 216.368 149.312 159.833 118.484C103.299 87.6569 62.122 34.7589 30.2592 -21.1669" stroke="#2C6CAC" stroke-width="0.937053" stroke-miterlimit="10"/>
<path opacity="0.54" d="M939.279 406.227C948.022 380.928 933.808 352.525 912.121 336.776C910.18 335.376 908.188 334.061 906.155 332.852C885.26 320.518 860.579 317.07 836.14 316.202C831.452 316.04 826.772 315.969 822.105 315.949C800.173 315.853 777.897 316.63 756.257 313.081C749.301 311.962 742.437 310.328 735.722 308.194C689.829 293.449 656.041 253.903 631.874 211.777C630.121 208.716 628.409 205.642 626.736 202.553C602.112 156.981 583.291 108.485 555.115 67.7027C540.24 46.1644 521.603 24.5921 495.449 19.0975C464.085 12.5024 432.301 30.8548 409.44 53.1322C393.883 68.2879 380.56 85.5948 365.531 101.02C358.536 108.336 350.936 115.049 342.812 121.088C290.529 159.236 214.618 155.087 157.157 123.636C99.697 92.1839 58.0754 38.118 25.8263 -18.8634" stroke="#2C6CAC" stroke-width="0.937053" stroke-miterlimit="10"/>
<path opacity="0.54" d="M938.688 413.598C947.457 388.336 933.48 359.924 911.929 343.941C910.008 342.52 908.029 341.19 905.992 339.951C885.215 327.375 860.566 323.608 836.112 322.471C831.417 322.258 826.727 322.124 822.073 322.057C800.125 321.724 777.834 322.28 756.23 318.6C749.284 317.439 742.432 315.773 735.728 313.615C689.879 298.682 656.266 259.102 632.425 216.771C630.692 213.689 629.006 210.6 627.367 207.504C603.161 161.717 585.406 112.71 557.857 70.9021C543.117 48.5333 524.196 26.2255 497.601 20.4439C465.714 13.4979 433.386 32.3655 410.326 55.3023C394.623 70.9105 381.249 88.7589 366.102 104.692C359.058 112.245 351.387 119.186 343.169 125.441C290.275 164.93 212.886 160.876 154.52 128.808C96.1533 96.7401 54.0685 41.5023 21.4445 -16.5388" stroke="#2C6CAC" stroke-width="0.937053" stroke-miterlimit="10"/>
<path opacity="0.54" d="M938.105 420.95C946.881 395.707 933.149 367.306 911.769 351.062C909.862 349.61 907.886 348.26 905.876 347.004C885.203 334.189 860.603 330.115 836.136 328.664C831.447 328.384 826.753 328.209 822.079 328.084C800.123 327.502 777.808 327.835 756.247 324.05C749.311 322.859 742.471 321.163 735.782 318.977C689.958 303.874 656.525 264.229 633.018 221.701C631.309 218.612 629.648 215.51 628.037 212.395C604.25 166.392 587.575 116.883 560.633 74.0303C546.052 50.8286 526.822 27.801 499.807 21.727C467.396 14.4451 434.525 33.8129 411.25 57.4124C395.407 73.4712 381.976 91.8631 366.718 108.316C359.626 116.105 351.882 123.273 343.571 129.743C290.06 170.561 211.202 166.625 151.919 133.934C92.6356 101.243 50.097 44.8362 17.0874 -14.2587" stroke="#2C6CAC" stroke-width="0.937053" stroke-miterlimit="10"/>
<path opacity="0.54" d="M937.508 428.307C946.297 403.1 932.817 374.69 911.575 358.197C909.677 356.727 907.725 355.339 905.712 354.076C885.153 341.019 860.589 336.621 836.101 334.901C831.406 334.566 826.709 334.343 822.04 334.161C800.079 333.326 777.757 333.448 756.217 329.537C749.29 328.312 742.459 326.592 735.778 324.39C689.992 309.111 656.74 269.42 633.548 226.683C631.858 223.572 630.234 220.454 628.642 217.322C605.269 171.093 589.684 121.103 563.348 77.2065C548.933 53.1693 529.382 29.4113 501.931 23.0502C468.995 15.418 435.584 35.2979 412.101 59.5619C396.114 76.0745 382.634 95.0178 367.247 111.973C360.109 120.004 352.288 127.402 343.873 134.083C289.755 176.236 209.416 172.399 149.221 139.093C89.0262 105.787 46.0181 48.2087 12.6279 -11.9439" stroke="#2C6CAC" stroke-width="0.937053" stroke-miterlimit="10"/>
<path opacity="0.54" d="M936.915 435.666C946.51 408.234 929.948 376.979 905.577 361.137C881.206 345.296 851.059 341.643 822.034 340.215C793.009 338.788 763.33 339.078 735.803 329.787C686.733 313.208 652.238 268.678 629.3 222.242C606.362 175.806 591.874 125.324 566.118 80.3767C551.871 55.5058 531.989 31.0416 504.117 24.3799C470.656 16.3974 436.704 36.7919 413.006 61.7331C389.309 86.6743 371.182 117.033 344.251 138.436C289.518 181.92 207.709 178.196 146.596 144.265C85.4838 110.334 42.0234 51.5906 8.25325 -9.61781" stroke="#2C6CAC" stroke-width="0.937053" stroke-miterlimit="10"/>
</g>
</svg>
