<svg width="332" height="331" viewBox="0 0 332 331" fill="none" xmlns="http://www.w3.org/2000/svg">
<path d="M121.19 85.0452C122.203 86.7549 121.55 88.8507 119.667 89.6307L89.474 102.142C87.6237 102.909 85.6152 101.917 85.1211 99.9916L72.3296 52.4162C71.8677 50.4765 72.9379 48.2847 74.8531 47.4908L91.3462 40.6562C93.2288 39.8762 95.5998 40.642 96.6139 42.3529L121.19 85.0452Z" fill="url(#paint0_linear_1950_49619)"/>
<path d="M71.9845 112.814C73.9625 113.364 74.9862 115.375 74.1604 117.24L61.6566 147.374C60.9227 149.277 58.8231 149.994 57.0686 148.97L14.4756 124.398C12.7215 123.375 11.9145 120.971 12.6796 119.055L19.5195 102.603C20.2847 100.687 22.5372 99.6025 24.5134 100.152L71.9845 112.814Z" fill="url(#paint1_linear_1950_49619)"/>
<path d="M56.9031 167.299C58.7382 166.312 60.77 166.989 61.5508 168.873L74.0624 199.066C74.8424 200.949 73.9127 202.931 71.89 203.466L24.3866 216.152C22.4285 216.658 20.2033 215.603 19.4229 213.72L12.5614 197.162C11.7814 195.279 12.5749 192.972 14.3503 191.932L56.9031 167.299Z" fill="url(#paint2_linear_1950_49619)"/>
<path d="M84.7986 216.528C85.32 214.484 87.2469 213.535 89.1752 214.333L119.357 226.857C121.193 227.617 121.93 229.67 120.922 231.458L96.3468 274.052C95.3117 275.773 92.9197 276.613 91.0833 275.852L74.5207 269.021C72.6843 268.259 71.5208 266.005 72.0436 263.96L84.7986 216.528Z" fill="url(#paint3_linear_1950_49619)"/>
<path d="M139.286 231.531C138.208 229.848 138.926 227.724 140.841 226.93L171 214.433C172.85 213.666 174.861 214.659 175.354 216.584L188.112 264.172C188.672 266.072 187.537 268.292 185.622 269.085L169.098 275.933C167.248 276.699 164.876 275.932 163.862 274.221L139.286 231.531Z" fill="url(#paint4_linear_1950_49619)"/>
<path d="M188.426 203.788C186.45 203.239 185.491 201.201 186.316 199.337L198.794 169.137C199.554 167.3 201.653 166.582 203.44 167.592L246.001 192.18C247.756 193.202 248.595 195.593 247.77 197.457L240.958 213.974C240.192 215.888 237.94 216.973 235.963 216.424L188.426 203.788Z" fill="url(#paint5_linear_1950_49619)"/>
<path d="M203.509 149.304C201.738 150.266 199.706 149.586 198.926 147.703L186.414 117.511C185.634 115.628 186.563 113.646 188.522 113.138L236.09 100.425C238.048 99.919 240.274 100.974 241.054 102.857L247.915 119.413C248.669 121.232 247.869 123.618 246.127 124.644L203.509 149.304Z" fill="url(#paint6_linear_1950_49619)"/>
<path d="M175.679 100.048C175.156 102.091 173.202 102.977 171.302 102.243L141.119 89.7202C139.219 88.9862 138.546 86.9065 139.555 85.1186L164.129 42.5253C165.165 40.8024 167.556 39.9642 169.393 40.7258L185.956 47.5564C187.793 48.3163 188.892 50.5993 188.407 52.5514L175.679 100.048Z" fill="url(#paint7_linear_1950_49619)"/>
<path d="M90.4762 61.7871C37.201 83.8636 11.9156 144.934 33.9787 198.177C56.0417 251.419 117.112 276.705 170.387 254.628C223.63 232.565 248.85 171.522 226.787 118.279C204.724 65.0364 143.719 39.7241 90.4762 61.7871ZM155.831 219.502C121.971 233.533 83.0915 217.462 69.0733 183.634C55.0548 149.804 71.1712 110.945 105.032 96.9133C138.763 82.9353 177.675 98.9924 191.693 132.821C205.711 166.649 189.563 205.524 155.831 219.502Z" fill="url(#paint8_linear_1950_49619)"/>
<path d="M265.556 245.28C265.972 246.013 265.691 246.884 264.887 247.218L251.912 252.594C251.107 252.928 250.262 252.523 250.037 251.711L244.55 231.276C244.331 230.385 244.772 229.447 245.609 229.1L252.692 226.165C253.497 225.832 254.536 226.156 254.98 226.954L265.556 245.28Z" fill="url(#paint9_linear_1950_49619)"/>
<path d="M244.397 257.216C245.255 257.465 245.667 258.276 245.325 259.095L239.941 272.041C239.632 272.847 238.73 273.22 237.982 272.776L219.672 262.182C218.92 261.738 218.584 260.744 218.899 259.86L221.834 252.835C222.174 252.016 223.145 251.538 224.001 251.785L244.397 257.216Z" fill="url(#paint10_linear_1950_49619)"/>
<path d="M237.923 280.647C238.675 280.184 239.558 280.497 239.906 281.335L245.268 294.277C245.615 295.114 245.212 295.96 244.353 296.165L223.906 301.621C223.105 301.877 222.11 301.383 221.789 300.61L218.828 293.465C218.507 292.691 218.83 291.651 219.609 291.253L237.923 280.647Z" fill="url(#paint11_linear_1950_49619)"/>
<path d="M249.893 301.793C250.14 300.937 250.951 300.525 251.771 300.863L264.736 306.205C265.555 306.543 265.864 307.473 265.407 308.19L254.858 326.52C254.426 327.301 253.375 327.585 252.616 327.297L245.479 324.37C244.692 324.017 244.195 323.091 244.416 322.168L249.893 301.793Z" fill="url(#paint12_linear_1950_49619)"/>
<path d="M273.309 308.233C272.86 307.514 273.171 306.63 274.008 306.283L286.951 300.919C287.755 300.586 288.603 300.99 288.826 301.802L294.313 322.238C294.564 323.114 294.09 324.067 293.254 324.413L286.139 327.362C285.366 327.682 284.326 327.356 283.883 326.56L273.309 308.233Z" fill="url(#paint13_linear_1950_49619)"/>
<path d="M294.435 296.311C293.577 296.062 293.198 295.239 293.538 294.42L298.897 281.409C299.232 280.668 300.133 280.294 300.882 280.737L319.193 291.332C319.943 291.776 320.31 292.755 319.939 293.589L317.031 300.679C316.689 301.498 315.718 301.976 314.862 301.729L294.435 296.311Z" fill="url(#paint14_linear_1950_49619)"/>
<path d="M300.91 272.878C300.19 273.328 299.305 273.015 298.958 272.177L293.595 259.236C293.248 258.398 293.653 257.552 294.48 257.361L314.959 251.891C315.758 251.636 316.754 252.128 317.074 252.901L320.036 260.048C320.356 260.822 320.002 261.875 319.256 262.258L300.91 272.878Z" fill="url(#paint15_linear_1950_49619)"/>
<path d="M288.974 251.721C288.726 252.578 287.916 252.989 287.096 252.65L274.131 247.309C273.311 246.969 273.003 246.041 273.46 245.324L284.009 226.994C284.439 226.214 285.49 225.928 286.252 226.216L293.388 229.145C294.175 229.496 294.639 230.435 294.423 231.282L288.974 251.721Z" fill="url(#paint16_linear_1950_49619)"/>
<path d="M252.36 235.282C229.437 244.781 218.577 271.01 228.049 293.868C237.548 316.791 263.777 327.651 286.7 318.152C309.59 308.666 320.418 282.451 310.919 259.528C301.446 236.67 275.25 225.797 252.36 235.282ZM280.456 303.084C265.872 309.128 249.146 302.176 243.116 287.624C237.113 273.137 244.019 256.393 258.603 250.349C273.091 244.345 289.848 251.284 295.851 265.772C301.882 280.323 294.944 297.081 280.456 303.084Z" fill="url(#paint17_linear_1950_49619)"/>
<path d="M156.275 49.0542C156.275 49.0748 156.275 49.0914 156.275 49.1081V100.326C156.275 106.014 158.589 111.175 162.32 114.893C166.051 118.633 171.199 120.942 176.895 120.942C188.283 120.942 197.528 111.702 197.528 100.326V49.1081C197.528 49.0914 197.528 49.0748 197.528 49.0542H156.275Z" fill="#D8B0D8"/>
<path d="M193.249 97.6265H158.281V126.886H193.249V97.6265Z" fill="#D8B0D8"/>
<path d="M176.902 89.7106C168.47 89.7106 161.613 82.8498 161.613 74.4218C161.613 65.9895 168.47 59.1372 176.902 59.1372C185.326 59.1372 192.186 65.9899 192.186 74.4218C192.186 82.8494 185.326 89.7106 176.902 89.7106Z" fill="#89128A"/>
<path d="M165.984 126.886V97.6265H156.275L142.445 139.202L165.984 126.886Z" fill="#89128A"/>
<path d="M187.867 126.886V97.6265H197.576L211.406 139.202L187.867 126.886Z" fill="#89128A"/>
<path d="M176.904 3.35742L156.275 49.1078H197.528L176.904 3.35742Z" fill="#89128A"/>
<path d="M184.689 66.7729C186.26 68.3813 187.239 70.3465 187.628 72.411C188.267 75.8643 187.238 79.5787 184.548 82.2154C180.244 86.4356 173.322 86.365 169.101 82.0661C166.465 79.3715 165.503 75.6486 166.208 72.2039C166.639 70.1478 167.651 68.1993 169.251 66.6282C173.545 62.4119 180.477 62.4779 184.689 66.7729Z" fill="#89128A"/>
<path d="M184.688 66.773C186.259 68.3813 187.237 70.3465 187.627 72.411C187.196 74.4589 186.184 76.4113 184.588 77.9867C180.285 82.2026 173.354 82.1363 169.142 77.8416C167.567 76.2332 166.597 74.268 166.207 72.2035C166.638 70.1475 167.65 68.199 169.25 66.6279C173.544 62.4119 180.476 62.4779 184.688 66.773Z" fill="url(#paint18_linear_1950_49619)"/>
<path d="M182.949 69.6502C182.717 69.8655 182.36 69.8616 182.145 69.6378C179.276 66.7233 174.575 66.6779 171.665 69.5342C171.433 69.758 171.085 69.7538 170.861 69.5299C170.645 69.31 170.654 68.9578 170.869 68.7339C174.235 65.4342 179.657 65.4921 182.949 68.8499C183.173 69.0738 183.164 69.4264 182.949 69.6502Z" fill="white"/>
<path d="M176.869 66.4609C177.101 66.6929 177.093 67.0618 176.861 67.2899C176.629 67.5179 176.264 67.5179 176.032 67.2856C175.808 67.0536 175.808 66.6804 176.04 66.4524C176.28 66.2246 176.645 66.2289 176.869 66.4609Z" fill="white"/>
<path d="M178.304 66.9631C178.437 67.0915 178.429 67.3112 178.295 67.4357C178.163 67.5684 177.948 67.5641 177.823 67.4314C177.691 67.2987 177.691 67.0873 177.831 66.9589C177.956 66.8301 178.171 66.8301 178.304 66.9631Z" fill="white"/>
<path d="M187.628 126.886H165.984V220.981H187.628V126.886Z" fill="url(#paint19_linear_1950_49619)"/>
<defs>
<linearGradient id="paint0_linear_1950_49619" x1="72.2227" y1="102.402" x2="127.986" y2="90.481" gradientUnits="userSpaceOnUse">
<stop offset="0.0125219" stop-color="#FDEBFF"/>
<stop offset="0.526042" stop-color="#EFECFF"/>
<stop offset="0.838542" stop-color="#FFFAFE"/>
<stop offset="1" stop-color="#FAFDFF"/>
<stop offset="1" stop-color="#DAF1FF"/>
</linearGradient>
<linearGradient id="paint1_linear_1950_49619" x1="12.3906" y1="149.437" x2="78.1214" y2="127.295" gradientUnits="userSpaceOnUse">
<stop offset="0.0125219" stop-color="#FDEBFF"/>
<stop offset="0.526042" stop-color="#EFECFF"/>
<stop offset="0.838542" stop-color="#FFFAFE"/>
<stop offset="1" stop-color="#FAFDFF"/>
<stop offset="1" stop-color="#DAF1FF"/>
</linearGradient>
<linearGradient id="paint2_linear_1950_49619" x1="12.2617" y1="216.278" x2="78.0086" y2="194.125" gradientUnits="userSpaceOnUse">
<stop offset="0.0125219" stop-color="#FDEBFF"/>
<stop offset="0.526042" stop-color="#EFECFF"/>
<stop offset="0.838542" stop-color="#FFFAFE"/>
<stop offset="1" stop-color="#FAFDFF"/>
<stop offset="1" stop-color="#DAF1FF"/>
</linearGradient>
<linearGradient id="paint3_linear_1950_49619" x1="71.918" y1="276.134" x2="127.699" y2="264.211" gradientUnits="userSpaceOnUse">
<stop offset="0.0125219" stop-color="#FDEBFF"/>
<stop offset="0.526042" stop-color="#EFECFF"/>
<stop offset="0.838542" stop-color="#FFFAFE"/>
<stop offset="1" stop-color="#FAFDFF"/>
<stop offset="1" stop-color="#DAF1FF"/>
</linearGradient>
<linearGradient id="paint4_linear_1950_49619" x1="138.783" y1="276.23" x2="194.577" y2="264.296" gradientUnits="userSpaceOnUse">
<stop offset="0.0125219" stop-color="#FDEBFF"/>
<stop offset="0.526042" stop-color="#EFECFF"/>
<stop offset="0.838542" stop-color="#FFFAFE"/>
<stop offset="1" stop-color="#FAFDFF"/>
<stop offset="1" stop-color="#DAF1FF"/>
</linearGradient>
<linearGradient id="paint5_linear_1950_49619" x1="186.02" y1="216.566" x2="251.762" y2="194.418" gradientUnits="userSpaceOnUse">
<stop offset="0.0125219" stop-color="#FDEBFF"/>
<stop offset="0.526042" stop-color="#EFECFF"/>
<stop offset="0.838542" stop-color="#FFFAFE"/>
<stop offset="1" stop-color="#FAFDFF"/>
<stop offset="1" stop-color="#DAF1FF"/>
</linearGradient>
<linearGradient id="paint6_linear_1950_49619" x1="186.139" y1="149.738" x2="251.875" y2="127.599" gradientUnits="userSpaceOnUse">
<stop offset="0.0125219" stop-color="#FDEBFF"/>
<stop offset="0.526042" stop-color="#EFECFF"/>
<stop offset="0.838542" stop-color="#FFFAFE"/>
<stop offset="1" stop-color="#FAFDFF"/>
<stop offset="1" stop-color="#DAF1FF"/>
</linearGradient>
<linearGradient id="paint7_linear_1950_49619" x1="139.088" y1="102.498" x2="194.842" y2="90.5815" gradientUnits="userSpaceOnUse">
<stop offset="0.0125219" stop-color="#FDEBFF"/>
<stop offset="0.526042" stop-color="#EFECFF"/>
<stop offset="0.838542" stop-color="#FFFAFE"/>
<stop offset="1" stop-color="#FAFDFF"/>
<stop offset="1" stop-color="#DAF1FF"/>
</linearGradient>
<linearGradient id="paint8_linear_1950_49619" x1="26.0039" y1="262.611" x2="255.692" y2="200.993" gradientUnits="userSpaceOnUse">
<stop offset="0.0125219" stop-color="#FDEBFF"/>
<stop offset="0.526042" stop-color="#EFECFF"/>
<stop offset="0.838542" stop-color="#FFFAFE"/>
<stop offset="1" stop-color="#FAFDFF"/>
<stop offset="1" stop-color="#DAF1FF"/>
</linearGradient>
<linearGradient id="paint9_linear_1950_49619" x1="244.494" y1="252.711" x2="268.464" y2="247.588" gradientUnits="userSpaceOnUse">
<stop offset="0.0125219" stop-color="#FDEBFF"/>
<stop offset="0.526042" stop-color="#EFECFF"/>
<stop offset="0.838542" stop-color="#FFFAFE"/>
<stop offset="1" stop-color="#FAFDFF"/>
<stop offset="1" stop-color="#DAF1FF"/>
</linearGradient>
<linearGradient id="paint10_linear_1950_49619" x1="218.781" y1="272.966" x2="247.026" y2="263.455" gradientUnits="userSpaceOnUse">
<stop offset="0.0125219" stop-color="#FDEBFF"/>
<stop offset="0.526042" stop-color="#EFECFF"/>
<stop offset="0.838542" stop-color="#FFFAFE"/>
<stop offset="1" stop-color="#FAFDFF"/>
<stop offset="1" stop-color="#DAF1FF"/>
</linearGradient>
<linearGradient id="paint11_linear_1950_49619" x1="218.705" y1="301.689" x2="246.972" y2="292.167" gradientUnits="userSpaceOnUse">
<stop offset="0.0125219" stop-color="#FDEBFF"/>
<stop offset="0.526042" stop-color="#EFECFF"/>
<stop offset="0.838542" stop-color="#FFFAFE"/>
<stop offset="1" stop-color="#FAFDFF"/>
<stop offset="1" stop-color="#DAF1FF"/>
</linearGradient>
<linearGradient id="paint12_linear_1950_49619" x1="244.363" y1="327.407" x2="268.335" y2="322.28" gradientUnits="userSpaceOnUse">
<stop offset="0.0125219" stop-color="#FDEBFF"/>
<stop offset="0.526042" stop-color="#EFECFF"/>
<stop offset="0.838542" stop-color="#FFFAFE"/>
<stop offset="1" stop-color="#FAFDFF"/>
<stop offset="1" stop-color="#DAF1FF"/>
</linearGradient>
<linearGradient id="paint13_linear_1950_49619" x1="273.104" y1="327.484" x2="297.098" y2="322.35" gradientUnits="userSpaceOnUse">
<stop offset="0.0125219" stop-color="#FDEBFF"/>
<stop offset="0.526042" stop-color="#EFECFF"/>
<stop offset="0.838542" stop-color="#FFFAFE"/>
<stop offset="1" stop-color="#FAFDFF"/>
<stop offset="1" stop-color="#DAF1FF"/>
</linearGradient>
<linearGradient id="paint14_linear_1950_49619" x1="293.414" y1="301.794" x2="321.665" y2="292.28" gradientUnits="userSpaceOnUse">
<stop offset="0.0125219" stop-color="#FDEBFF"/>
<stop offset="0.526042" stop-color="#EFECFF"/>
<stop offset="0.838542" stop-color="#FFFAFE"/>
<stop offset="1" stop-color="#FAFDFF"/>
<stop offset="1" stop-color="#DAF1FF"/>
</linearGradient>
<linearGradient id="paint15_linear_1950_49619" x1="293.471" y1="273.084" x2="321.735" y2="263.566" gradientUnits="userSpaceOnUse">
<stop offset="0.0125219" stop-color="#FDEBFF"/>
<stop offset="0.526042" stop-color="#EFECFF"/>
<stop offset="0.838542" stop-color="#FFFAFE"/>
<stop offset="1" stop-color="#FAFDFF"/>
<stop offset="1" stop-color="#DAF1FF"/>
</linearGradient>
<linearGradient id="paint16_linear_1950_49619" x1="273.248" y1="252.769" x2="297.191" y2="247.654" gradientUnits="userSpaceOnUse">
<stop offset="0.0125219" stop-color="#FDEBFF"/>
<stop offset="0.526042" stop-color="#EFECFF"/>
<stop offset="0.838542" stop-color="#FFFAFE"/>
<stop offset="1" stop-color="#FAFDFF"/>
<stop offset="1" stop-color="#DAF1FF"/>
</linearGradient>
<linearGradient id="paint17_linear_1950_49619" x1="224.627" y1="321.589" x2="323.352" y2="295.101" gradientUnits="userSpaceOnUse">
<stop offset="0.0125219" stop-color="#FDEBFF"/>
<stop offset="0.526042" stop-color="#EFECFF"/>
<stop offset="0.838542" stop-color="#FFFAFE"/>
<stop offset="1" stop-color="#FAFDFF"/>
<stop offset="1" stop-color="#DAF1FF"/>
</linearGradient>
<linearGradient id="paint18_linear_1950_49619" x1="166.207" y1="81.1061" x2="189.034" y2="73.6513" gradientUnits="userSpaceOnUse">
<stop offset="0.0125219" stop-color="#FDEBFF"/>
<stop offset="0.526042" stop-color="#EFECFF"/>
<stop offset="0.838542" stop-color="#FFFAFE"/>
<stop offset="1" stop-color="#FAFDFF"/>
<stop offset="1" stop-color="#DAF1FF"/>
</linearGradient>
<linearGradient id="paint19_linear_1950_49619" x1="165.984" y1="220.981" x2="191.414" y2="219.412" gradientUnits="userSpaceOnUse">
<stop offset="0.0125219" stop-color="#FDEBFF"/>
<stop offset="0.526042" stop-color="#EFECFF"/>
<stop offset="0.838542" stop-color="#FFFAFE"/>
<stop offset="1" stop-color="#FAFDFF"/>
<stop offset="1" stop-color="#DAF1FF"/>
</linearGradient>
</defs>
</svg>
