<svg width="39" height="38" viewBox="0 0 39 38" fill="none" xmlns="http://www.w3.org/2000/svg">
<path d="M19.7297 27.5299C17.3997 27.5299 15.0697 27.1599 12.8597 26.4199C12.0197 26.1299 11.3797 25.5399 11.0997 24.7699C10.8097 23.9999 10.9097 23.1499 11.3697 22.3899L12.5197 20.4799C12.7597 20.0799 12.9797 19.2799 12.9797 18.8099V15.9199C12.9797 12.1999 16.0097 9.16992 19.7297 9.16992C23.4497 9.16992 26.4797 12.1999 26.4797 15.9199V18.8099C26.4797 19.2699 26.6997 20.0799 26.9397 20.4899L28.0797 22.3899C28.5097 23.1099 28.5897 23.9799 28.2997 24.7699C28.0097 25.5599 27.3797 26.1599 26.5897 26.4199C24.3897 27.1599 22.0597 27.5299 19.7297 27.5299ZM19.7297 10.6699C16.8397 10.6699 14.4797 13.0199 14.4797 15.9199V18.8099C14.4797 19.5399 14.1797 20.6199 13.8097 21.2499L12.6597 23.1599C12.4397 23.5299 12.3797 23.9199 12.5097 24.2499C12.6297 24.5899 12.9297 24.8499 13.3397 24.9899C17.5197 26.3899 21.9497 26.3899 26.1297 24.9899C26.4897 24.8699 26.7697 24.5999 26.8997 24.2399C27.0297 23.8799 26.9997 23.4899 26.7997 23.1599L25.6497 21.2499C25.2697 20.5999 24.9797 19.5299 24.9797 18.7999V15.9199C24.9797 13.0199 22.6297 10.6699 19.7297 10.6699Z" fill="#444854"/>
<path d="M21.5897 10.9397C21.5197 10.9397 21.4497 10.9297 21.3797 10.9097C21.0897 10.8297 20.8097 10.7697 20.5397 10.7297C19.6897 10.6197 18.8697 10.6797 18.0997 10.9097C17.8197 10.9997 17.5197 10.9097 17.3297 10.6997C17.1397 10.4897 17.0797 10.1897 17.1897 9.91969C17.5997 8.86969 18.5997 8.17969 19.7397 8.17969C20.8797 8.17969 21.8797 8.85969 22.2897 9.91969C22.3897 10.1897 22.3397 10.4897 22.1497 10.6997C21.9997 10.8597 21.7897 10.9397 21.5897 10.9397Z" fill="#444854"/>
<path d="M19.7297 29.8105C18.7397 29.8105 17.7797 29.4105 17.0797 28.7105C16.3797 28.0105 15.9797 27.0505 15.9797 26.0605H17.4797C17.4797 26.6505 17.7197 27.2305 18.1397 27.6505C18.5597 28.0705 19.1397 28.3105 19.7297 28.3105C20.9697 28.3105 21.9797 27.3005 21.9797 26.0605H23.4797C23.4797 28.1305 21.7997 29.8105 19.7297 29.8105Z" fill="#444854"/>
<rect x="1.20972" y="0.5" width="37" height="37" rx="18.5" stroke="#EFF2F7"/>
</svg>
