<svg width="603" height="691" viewBox="0 0 603 691" fill="none" xmlns="http://www.w3.org/2000/svg">
<g opacity="0.218">
<path opacity="0.54" d="M743.278 449.033C755.744 429.126 744.507 401.109 724.964 388.097C705.421 375.084 680.534 373.554 657.062 374.321C633.59 375.088 609.609 377.642 586.979 371.371C540.152 358.38 511.748 312.073 489.241 269.013C466.735 225.953 441.729 178.766 396.621 160.67C361.253 146.488 321.327 153.671 283.447 149.562C217.321 142.393 156.598 97.4664 130.422 36.3118" stroke="#89128A" stroke-width="0.804745" stroke-miterlimit="10"/>
<path opacity="0.54" d="M741.215 455.027C753.685 435.152 742.647 407.182 723.285 393.991C721.557 392.808 719.776 391.732 717.965 390.713C699.489 380.489 677.046 379.031 655.729 379.483C651.62 379.568 647.481 379.708 643.349 379.852C623.946 380.525 604.41 381.169 585.813 375.907C579.879 374.227 574.119 371.987 568.611 369.215C531.865 350.807 507.957 310.84 488.667 273.237C487.269 270.503 485.858 267.758 484.435 265C463.381 224.208 439.307 182.131 398.263 163.858C386.534 158.684 374.086 155.329 361.346 153.906C346.089 152.108 330.269 152.647 314.734 153.005C304.12 153.251 293.597 153.4 283.166 152.692C278.262 152.359 273.376 151.814 268.508 151.058C237.141 145.879 207.671 132.599 183.012 112.532C158.151 92.5424 138.655 66.6803 126.282 37.2769" stroke="#89128A" stroke-width="0.804745" stroke-miterlimit="10"/>
<path opacity="0.54" d="M739.154 461.02C751.633 441.166 740.798 413.253 721.616 399.883C719.899 398.688 718.141 397.58 716.343 396.56C698.016 386.171 675.667 384.455 654.395 384.654C650.282 384.698 646.173 384.792 642.046 384.892C622.689 385.355 603.189 385.82 584.642 380.466C578.72 378.756 572.973 376.492 567.476 373.704C530.791 355.148 507.048 315.186 488.076 277.482C486.699 274.744 485.312 271.986 483.919 269.228C463.258 228.346 439.716 186.614 399.864 167.079C388.229 161.247 375.732 157.321 362.852 155.453C347.239 153.263 330.854 154.101 315.004 154.969C304.188 155.558 293.495 156.146 282.858 155.839C277.851 155.69 272.863 155.332 267.877 154.726C236.099 150.874 205.032 136.852 179.706 116.233C154.288 95.4638 134.491 68.6469 122.128 38.2405" stroke="#89128A" stroke-width="0.804745" stroke-miterlimit="10"/>
<path opacity="0.54" d="M737.101 467.014C749.586 447.196 738.959 419.33 719.945 405.79C718.248 404.582 716.505 403.458 714.714 402.418C696.523 391.854 674.282 389.878 653.053 389.835C648.961 389.831 644.843 389.876 640.734 389.927C621.424 390.179 601.954 390.468 583.46 385.022C577.556 383.284 571.826 381.001 566.346 378.201C529.736 359.509 506.145 319.542 487.488 281.732L483.408 273.459C463.141 232.476 440.115 191.055 401.481 170.293C389.952 163.804 377.407 159.316 364.378 157.018C348.403 154.425 331.458 155.576 315.296 156.96C304.26 157.895 293.409 158.933 282.569 159.013C277.472 159.057 272.374 158.872 267.264 158.416C234.692 155.539 202.378 141.302 176.421 119.967C150.451 98.4086 130.352 70.635 117.993 39.2272" stroke="#89128A" stroke-width="0.804745" stroke-miterlimit="10"/>
<path opacity="0.54" d="M735.039 473.02C747.527 453.221 737.101 425.412 718.279 411.695C716.592 410.466 714.868 409.335 713.099 408.276C695.055 397.543 672.911 395.311 651.726 395.023C647.641 394.966 643.54 394.974 639.428 394.984C620.163 395.025 600.721 395.125 582.273 389.601C576.384 387.835 570.671 385.529 565.206 382.71C528.66 363.881 505.242 323.9 486.886 285.998C485.551 283.244 484.217 280.477 482.882 277.698C463.01 236.626 440.51 195.441 403.085 173.522C391.625 166.804 379.689 161.096 365.893 158.591C349.544 155.597 332.051 157.057 315.577 158.947C304.335 160.239 293.314 161.706 282.26 162.186C277.069 162.413 271.856 162.4 266.619 162.11C233.255 160.216 199.69 145.744 173.104 123.704C146.577 101.36 126.175 72.6311 113.819 40.223" stroke="#89128A" stroke-width="0.804745" stroke-miterlimit="10"/>
<path opacity="0.54" d="M732.977 479.015C745.477 459.247 735.25 431.477 716.61 417.588C714.943 416.344 713.229 415.189 711.468 414.122C693.571 403.205 671.526 400.732 650.383 400.192C646.304 400.09 642.21 400.055 638.117 400.019C618.9 399.856 599.484 399.775 581.095 394.154C575.218 392.362 569.518 390.033 564.066 387.199C527.584 368.221 504.328 328.248 486.287 290.242C484.972 287.477 483.669 284.712 482.354 281.925C462.88 240.763 440.9 199.761 404.683 176.734C393.296 169.497 381.493 162.983 367.402 160.135C350.692 156.748 332.637 158.51 315.837 160.909C304.375 162.545 293.188 164.453 281.942 165.329C276.632 165.751 271.303 165.898 265.978 165.769C231.82 164.851 197.008 150.169 169.791 127.408C142.529 104.612 122.279 74.3733 109.651 41.1849" stroke="#89128A" stroke-width="0.804745" stroke-miterlimit="10"/>
<path opacity="0.54" d="M730.914 485.01C743.418 465.262 733.403 437.548 714.933 423.486C713.287 422.231 711.582 421.056 709.842 419.972C692.082 408.896 670.142 406.146 649.054 405.378C644.981 405.229 640.904 405.14 636.818 405.06C617.654 404.684 598.27 404.421 579.927 398.712C574.066 396.885 568.381 394.532 562.944 391.682C526.524 372.568 503.435 332.58 485.708 294.481C484.416 291.714 483.13 288.935 481.849 286.145C462.766 244.894 441.312 204.017 406.307 179.948C395.003 172.182 383.325 164.855 368.929 161.686C351.857 157.899 333.243 159.968 316.131 162.885C304.462 164.867 293.107 167.213 281.656 168.49C276.245 169.107 270.804 169.427 265.358 169.451C230.407 169.506 194.343 154.595 166.498 131.132C138.606 107.631 118.227 76.3092 105.513 42.168" stroke="#89128A" stroke-width="0.804745" stroke-miterlimit="10"/>
<path opacity="0.54" d="M728.862 491.002C741.378 471.29 731.553 443.621 713.273 429.387C711.636 428.119 709.952 426.932 708.221 425.826C690.609 414.567 668.764 411.576 647.721 410.548C643.667 410.356 639.586 410.223 635.518 410.099C616.384 409.519 597.043 409.067 578.758 403.274C572.911 401.423 567.244 399.048 561.825 396.176C525.471 376.929 502.54 336.937 485.132 298.733C483.871 295.952 482.61 293.168 481.349 290.38C462.66 249.038 441.757 208.234 407.936 183.165C396.713 174.848 385.162 166.756 370.469 163.243C353.033 159.051 333.86 161.435 316.433 164.857C304.541 167.186 293.033 169.97 281.361 171.646C275.852 172.452 270.303 172.946 264.739 173.126C228.995 174.167 191.682 159.029 163.207 134.851C134.684 110.635 114.178 78.2475 101.368 43.1456" stroke="#89128A" stroke-width="0.804745" stroke-miterlimit="10"/>
<path opacity="0.54" d="M726.799 497.009C739.317 477.327 729.699 449.706 711.595 435.294C709.978 434.001 708.304 432.803 706.593 431.684C689.118 420.25 667.394 416.998 646.381 415.728C642.333 415.482 638.27 415.303 634.208 415.134C615.12 414.343 595.807 413.714 577.578 407.832C571.744 405.955 566.09 403.561 560.683 400.677C524.402 381.287 501.624 341.285 484.534 302.988C483.296 300.206 482.059 297.411 480.823 294.605C462.54 253.173 442.184 212.404 409.534 186.383C398.391 177.503 386.956 168.641 371.979 164.805C354.182 160.225 334.448 162.904 316.71 166.835C304.612 169.508 292.935 172.741 281.058 174.82C275.454 175.815 269.796 176.482 264.114 176.818C227.584 178.832 189.024 163.468 159.909 138.588C130.758 113.666 110.118 80.1923 97.2152 44.1416" stroke="#89128A" stroke-width="0.804745" stroke-miterlimit="10"/>
<path opacity="0.54" d="M724.738 503.002C737.27 483.34 727.847 455.779 709.926 441.187C708.322 439.884 706.669 438.665 704.966 437.53C687.645 425.931 666.021 422.419 645.049 420.905C641.009 420.614 636.953 420.391 632.897 420.178C613.855 419.177 594.58 418.37 576.399 412.396C570.581 410.491 564.943 408.073 559.552 405.17C523.334 385.637 500.719 345.637 483.938 307.238C482.719 304.453 481.51 301.645 480.301 298.839C462.413 257.317 442.632 216.531 411.151 189.61C400.098 180.158 388.779 170.532 373.502 166.365C355.345 161.379 335.049 164.363 316.985 168.811C304.669 171.842 292.835 175.502 280.754 177.978C275.053 179.168 269.285 180.009 263.482 180.496C226.152 183.501 186.349 167.907 156.604 142.31C126.824 116.676 106.047 82.1322 93.056 45.1219" stroke="#89128A" stroke-width="0.804745" stroke-miterlimit="10"/>
<path opacity="0.54" d="M722.675 508.997C735.211 489.367 725.996 461.842 708.258 447.092C706.672 445.776 705.034 444.541 703.346 443.388C686.164 431.612 664.635 427.842 643.71 426.092C639.688 425.758 635.636 425.489 631.588 425.232C612.594 424.031 593.346 423.027 575.221 416.97C569.417 415.039 563.795 412.598 558.421 409.675C522.268 390.006 499.816 350.003 483.351 311.496C482.153 308.699 480.966 305.893 479.789 303.079C462.293 261.469 443.106 220.618 412.762 192.831C401.799 182.793 390.6 172.429 375.02 167.93C356.499 162.541 335.644 165.837 317.268 170.802C304.732 174.179 292.742 178.279 280.457 181.154C274.658 182.533 268.779 183.548 262.854 184.191C224.732 188.166 183.678 172.35 153.303 146.037C122.892 119.696 101.989 84.0794 88.9004 46.1086" stroke="#89128A" stroke-width="0.804745" stroke-miterlimit="10"/>
<path opacity="0.54" d="M720.621 514.991C733.172 495.382 724.159 467.914 706.589 452.986C705.032 451.654 703.409 450.402 701.727 449.233C684.685 437.281 663.262 433.262 642.389 431.26C638.373 430.879 634.33 430.557 630.291 430.256C611.343 428.843 592.122 427.663 574.044 421.517C568.253 419.555 562.645 417.092 557.282 414.154C521.196 394.337 498.91 354.33 482.754 315.732C481.575 312.933 480.421 310.108 479.266 307.287C462.167 265.592 443.601 224.647 414.369 196.034C403.503 185.4 392.412 174.297 376.54 169.464C357.658 163.684 336.242 167.28 317.553 172.752C304.809 176.469 292.651 181.012 280.161 184.287C274.266 185.861 268.274 187.048 262.224 187.842C223.307 192.791 181.004 176.751 150.001 149.732C118.962 122.684 97.9289 85.992 84.7436 47.0623" stroke="#89128A" stroke-width="0.804745" stroke-miterlimit="10"/>
<path opacity="0.54" d="M718.56 520.998C731.117 501.42 722.299 474.003 704.92 458.892C703.362 457.545 701.754 456.275 700.095 455.083C683.198 442.955 661.873 438.677 641.045 436.433C637.035 435.998 633.011 435.64 628.986 435.294C610.084 433.672 590.902 432.311 572.871 426.075C567.095 424.084 561.502 421.596 556.156 418.64C520.13 398.687 498.013 358.668 482.171 319.973C481.015 317.16 479.877 314.339 478.758 311.51C462.052 269.707 444.138 228.645 415.989 199.238C405.222 187.997 394.23 176.179 378.067 171.013C358.814 164.83 336.846 168.737 317.834 174.719C304.871 178.785 292.545 183.775 279.852 187.438C273.862 189.201 267.762 190.562 261.591 191.513C221.883 197.447 178.324 181.181 146.696 153.442C115.028 125.679 93.8647 87.9207 80.594 48.0381" stroke="#89128A" stroke-width="0.804745" stroke-miterlimit="10"/>
<path opacity="0.54" d="M716.499 526.991C729.062 507.434 720.45 480.073 703.241 464.786C701.704 463.423 700.112 462.136 698.467 460.926C681.707 448.628 660.489 444.098 639.696 441.611C635.692 441.133 631.686 440.719 627.667 440.34C608.804 438.508 589.655 436.961 571.682 430.64C565.92 428.624 560.344 426.113 555.014 423.138C519.061 403.047 497.096 363.023 481.574 324.224C480.452 321.409 479.338 318.572 478.241 315.744C461.928 273.852 444.687 232.638 417.59 202.475C406.942 190.613 396.037 178.079 379.571 172.582C359.963 165.995 337.43 170.215 318.104 176.714C304.933 181.137 292.441 186.563 279.542 190.616C273.458 192.562 267.249 194.097 260.959 195.209C220.456 202.116 175.654 185.626 143.392 157.187C111.096 128.716 89.8056 89.8839 76.4377 49.0322" stroke="#89128A" stroke-width="0.804745" stroke-miterlimit="10"/>
<path opacity="0.54" d="M714.448 532.985C727.012 513.462 718.611 486.145 701.581 470.69C700.066 469.313 698.479 468.009 696.856 466.784C680.246 454.315 659.122 449.519 638.381 446.787C634.389 446.265 630.383 445.808 626.373 445.373C607.554 443.34 588.436 441.605 570.52 435.194C564.773 433.147 559.209 430.618 553.888 427.635C517.999 407.408 496.198 367.38 480.981 328.48C479.878 325.652 478.786 322.813 477.716 319.983C461.8 278.009 445.25 236.608 419.193 205.687C408.662 193.195 397.845 179.968 381.093 174.138C361.124 167.16 338.039 171.678 318.39 178.684C305.001 183.455 292.35 189.31 279.238 193.771C273.059 195.914 266.74 197.623 260.324 198.888C219.025 206.769 172.977 190.065 140.085 160.91C107.157 131.724 85.7367 91.8246 72.2723 50.0123" stroke="#89128A" stroke-width="0.804745" stroke-miterlimit="10"/>
<path opacity="0.54" d="M712.385 538.979C724.963 519.475 716.75 492.219 699.909 476.584C698.402 475.185 696.84 473.867 695.224 472.629C678.751 459.985 657.735 454.94 637.047 451.954C633.068 451.386 629.074 450.885 625.072 450.405C606.299 448.162 587.22 446.252 569.349 439.747C563.618 437.673 558.072 435.12 552.769 432.117C516.944 411.742 495.306 371.711 480.406 332.717C479.325 329.888 478.262 327.046 477.216 324.191C461.694 282.119 445.867 240.522 420.823 208.89C410.43 195.766 399.684 181.836 382.627 175.674C362.296 168.294 338.655 173.122 318.689 180.636C305.091 185.749 292.273 192.045 278.958 196.907C272.686 199.236 266.256 201.118 259.717 202.539C217.626 211.405 170.325 194.464 136.804 164.605C103.245 134.714 81.6974 93.738 68.1354 50.9704" stroke="#89128A" stroke-width="0.804745" stroke-miterlimit="10"/>
<path opacity="0.54" d="M710.325 544.984C722.905 525.513 714.905 498.293 698.236 482.489C696.75 481.078 695.205 479.744 693.602 478.488C677.276 465.667 656.358 460.373 635.714 457.145C631.741 456.521 627.753 455.972 623.768 455.452C605.042 452.998 585.989 450.898 568.175 444.313C562.461 442.21 556.931 439.635 551.644 436.613C515.882 416.102 494.408 376.067 479.825 336.967C478.77 334.126 477.731 331.278 476.709 328.423C461.58 286.262 446.507 244.455 422.444 212.102C412.201 198.333 401.503 183.725 384.15 177.229C363.455 169.446 339.253 174.586 318.964 182.607C305.147 188.067 292.174 194.811 278.653 200.06C272.29 202.582 265.752 204.638 259.09 206.21C216.204 216.049 167.656 198.895 133.504 168.318C99.317 137.712 77.6409 95.6701 63.9807 51.9421" stroke="#89128A" stroke-width="0.804745" stroke-miterlimit="10"/>
<path opacity="0.54" d="M708.262 550.98C720.845 531.531 713.057 504.367 696.566 488.395C695.09 486.972 693.572 485.617 691.971 484.347C675.793 471.361 654.97 465.799 634.369 462.325C630.403 461.651 626.434 461.067 622.457 460.499C603.777 457.835 584.751 455.558 566.998 448.886C561.295 446.757 555.779 444.159 550.506 441.117C514.809 420.474 493.495 380.431 479.229 341.228C478.19 338.384 477.184 335.524 476.19 332.666C461.456 290.415 447.166 248.385 424.053 215.34C413.969 200.915 403.319 185.635 385.683 178.811C364.627 170.637 339.865 176.077 319.261 184.615C305.237 190.42 292.096 197.605 278.361 203.254C271.901 205.965 265.25 208.194 258.461 209.924C214.783 220.749 164.983 203.359 130.204 172.077C95.3891 140.765 73.582 97.6456 59.8358 52.9578" stroke="#89128A" stroke-width="0.804745" stroke-miterlimit="10"/>
<path opacity="0.54" d="M706.209 556.975C718.807 537.557 711.206 510.441 694.897 494.29C693.441 492.845 691.926 491.479 690.352 490.193C674.311 477.031 653.598 471.219 633.039 467.503C629.092 466.79 625.118 466.146 621.157 465.544C602.523 462.661 583.537 460.216 565.817 453.447C560.13 451.288 554.63 448.666 549.371 445.609C513.747 424.815 492.586 384.772 478.635 345.475C477.617 342.619 476.628 339.759 475.668 336.897C461.33 294.557 447.838 252.281 425.66 218.556C415.746 203.475 405.132 187.519 387.192 180.36C365.774 171.783 340.449 177.519 319.535 186.581C305.292 192.743 291.984 200.354 278.059 206.413C271.508 209.313 264.749 211.715 257.837 213.601C213.354 225.401 162.317 207.796 126.907 175.788C91.4625 143.771 69.5266 99.5773 55.6839 53.929" stroke="#89128A" stroke-width="0.804745" stroke-miterlimit="10"/>
<path opacity="0.54" d="M704.148 562.967C716.746 543.571 709.358 516.512 693.232 500.181C691.795 498.722 690.289 497.346 688.743 496.036C672.851 482.699 652.232 476.628 631.718 472.674C627.776 471.918 623.82 471.228 619.855 470.571C601.269 467.495 582.309 464.847 564.644 457.984C558.976 455.796 553.493 453.157 548.248 450.09C512.689 429.16 491.701 389.117 478.05 349.713C477.064 346.852 476.09 343.98 475.146 341.106C461.2 298.676 448.533 256.163 427.267 221.756C417.544 206.016 406.945 189.385 388.698 181.904C366.918 172.923 341.034 178.973 319.806 188.538C305.343 195.047 291.878 203.097 277.748 209.554C271.103 212.645 264.231 215.222 257.191 217.261C211.914 230.037 159.629 212.204 123.589 179.495C87.5145 146.762 65.4407 101.511 51.5168 54.8986" stroke="#89128A" stroke-width="0.804745" stroke-miterlimit="10"/>
<path opacity="0.54" d="M702.086 568.974C714.7 549.609 707.512 522.597 691.557 506.088C690.13 504.615 688.645 503.218 687.102 501.897C671.346 488.395 650.843 482.061 630.374 477.85C626.438 477.038 622.491 476.316 618.542 475.614C600.002 472.326 581.069 469.498 563.462 462.541C557.809 460.325 552.342 457.661 547.113 454.573C511.617 433.505 490.792 393.442 477.457 353.948C476.492 351.076 475.549 348.201 474.625 345.324C461.084 302.795 449.255 260.052 428.876 224.967C419.342 208.568 408.751 191.272 390.229 183.447C368.086 174.075 341.643 180.428 320.092 190.509C305.42 197.362 291.791 205.853 277.446 212.709C270.71 215.986 263.73 218.734 256.568 220.929C210.499 234.689 156.962 216.632 120.293 183.203C83.5895 149.766 61.385 103.42 47.3607 55.861" stroke="#89128A" stroke-width="0.804745" stroke-miterlimit="10"/>
<path opacity="0.54" d="M700.024 574.968C712.638 555.626 705.65 528.661 689.881 511.993C688.475 510.508 686.997 509.085 685.474 507.756C669.865 494.078 649.452 487.485 629.035 483.041C625.107 482.193 621.169 481.409 617.236 480.669C598.738 477.171 579.848 474.165 562.288 467.123C556.649 464.877 551.195 462.19 545.978 459.087C510.544 437.877 489.878 397.822 476.863 358.225C475.919 355.351 474.998 352.464 474.108 349.584C460.962 306.963 450.001 263.971 430.487 228.209C421.168 211.138 410.57 193.179 391.747 185.032C369.242 175.257 342.235 181.925 320.369 192.511C305.478 199.71 291.692 208.65 277.143 215.894C270.316 219.361 263.226 222.285 255.94 224.638C209.077 239.372 154.301 221.09 116.991 186.955C79.6814 152.821 57.3356 105.377 43.2064 56.8588" stroke="#89128A" stroke-width="0.804745" stroke-miterlimit="10"/>
<path opacity="0.54" d="M697.972 580.961C710.599 561.645 703.813 534.733 688.224 517.886C686.831 516.379 685.379 514.95 683.868 513.598C668.406 499.743 648.089 492.904 627.715 488.204C623.806 487.302 619.869 486.482 615.947 485.69C597.487 481.981 578.632 478.798 561.129 471.664C555.504 469.394 550.066 466.684 544.866 463.559C509.5 442.208 488.996 402.139 476.298 362.447C475.375 359.556 474.482 356.669 473.617 353.786C460.866 311.074 450.813 267.837 432.126 231.405C423.029 213.672 412.416 195.05 393.289 186.561C370.419 176.382 342.859 183.364 320.681 194.453C305.577 202.009 291.628 211.376 276.864 219.021C269.945 222.68 262.743 225.779 255.327 228.286C207.675 243.995 151.647 225.497 113.706 190.647C75.7662 155.797 53.2814 107.301 39.0746 57.822" stroke="#89128A" stroke-width="0.804745" stroke-miterlimit="10"/>
<path opacity="0.54" d="M695.908 586.956C708.538 567.666 701.963 540.807 686.543 523.781C685.166 522.262 683.727 520.817 682.225 519.446C666.901 505.415 646.691 498.318 626.366 493.383C622.463 492.439 618.553 491.557 614.636 490.737C596.21 486.83 577.38 483.449 559.942 476.234C554.333 473.932 548.911 471.199 543.725 468.057C508.431 446.572 488.083 406.5 475.702 366.703C474.801 363.814 473.93 360.911 473.096 358.016C460.736 315.209 451.585 271.746 433.724 234.617C424.868 216.208 414.219 196.928 394.804 188.116C371.556 177.548 343.453 184.83 320.948 196.425C305.631 204.326 291.521 214.131 276.553 222.176C269.541 226.018 262.23 229.29 254.692 231.959C206.243 248.655 148.969 229.919 110.399 194.366C71.83 158.812 49.2176 109.238 34.9129 58.8004" stroke="#89128A" stroke-width="0.804745" stroke-miterlimit="10"/>
<path opacity="0.54" d="M693.848 592.961C706.486 573.7 700.105 546.891 684.871 529.696C683.515 528.164 682.088 526.686 680.604 525.313C665.433 511.11 645.319 503.758 625.046 498.57C621.149 497.582 617.243 496.652 613.328 495.78C594.964 491.662 576.171 488.103 558.773 480.796C553.176 478.469 547.767 475.713 542.595 472.553C507.363 450.918 487.177 410.856 475.115 370.954C474.234 368.052 473.394 365.146 472.583 362.249C460.621 319.359 452.404 275.652 435.338 237.844C426.73 218.773 416.029 198.822 396.323 189.675C372.721 178.703 344.042 186.291 321.233 198.412C305.709 206.666 291.429 216.903 276.258 225.348C269.153 229.381 261.73 232.827 254.063 235.65C204.819 253.318 146.298 234.37 107.098 198.099C67.8978 161.828 45.1576 111.192 30.7562 59.792" stroke="#89128A" stroke-width="0.804745" stroke-miterlimit="10"/>
<path opacity="0.54" d="M691.989 612.038C704.635 592.801 698.46 566.047 683.4 548.674C682.06 547.118 680.648 545.646 679.173 544.231C664.133 529.861 644.127 522.244 623.896 516.813C620.016 515.769 616.113 514.812 612.21 513.889C593.892 509.559 575.12 505.825 557.775 498.426C552.198 496.068 546.807 493.294 541.647 490.127C506.48 468.355 486.457 428.277 474.703 388.283C473.844 385.378 473.025 382.471 472.245 379.561C460.671 336.58 453.408 292.647 437.128 254.136C428.785 234.386 418.028 213.788 398.02 204.312C374.054 192.938 344.823 200.837 321.696 213.464C305.952 222.057 291.504 232.751 276.13 241.584C268.934 245.804 261.402 249.423 253.611 252.405C203.574 271.057 143.801 251.875 103.962 214.888C64.1237 177.901 41.2638 126.198 26.7646 73.8406" stroke="#89128A" stroke-width="0.804745" stroke-miterlimit="10"/>
<path opacity="0.54" d="M689.732 604.95C702.392 585.744 696.411 559.028 681.538 541.485C680.211 539.917 678.819 538.421 677.36 536.996C662.467 522.447 642.559 514.583 622.369 508.909C618.497 507.819 614.598 506.81 610.715 505.853C592.445 501.314 573.707 497.39 556.408 489.911C550.848 487.524 545.474 484.725 540.33 481.537C505.227 459.64 485.366 419.549 473.927 379.451C473.099 376.533 472.306 373.623 471.543 370.7C460.369 327.629 454.06 283.48 438.554 244.269C430.479 223.853 419.662 202.587 399.362 192.779C375.033 181.014 345.242 189.211 321.8 202.346C305.847 211.283 291.233 222.413 275.656 231.648C268.371 236.055 260.73 239.848 252.815 242.987C201.983 262.612 140.96 243.204 100.492 205.514C60.0245 167.823 37.0354 115.042 22.4399 61.7263" stroke="#89128A" stroke-width="0.804745" stroke-miterlimit="10"/>
<path opacity="0.54" d="M687.67 610.944C700.333 591.758 694.558 565.1 679.869 547.378C678.553 545.799 677.176 544.281 675.742 542.842C660.985 528.129 641.186 520.004 621.038 514.075C617.173 512.942 613.294 511.886 609.416 510.876C591.19 506.123 572.491 502.025 555.244 494.462C549.695 492.049 544.332 489.228 539.2 486.022C504.16 463.978 484.473 423.88 473.341 383.684C472.535 380.765 471.765 377.842 471.031 374.916C460.253 331.756 454.925 287.4 440.171 247.468C432.384 226.38 421.474 204.463 400.885 194.32C376.196 182.152 345.843 190.65 322.078 204.314C305.907 213.609 291.136 225.17 275.346 234.801C267.968 239.398 260.215 243.365 252.17 246.658C200.546 267.258 138.274 247.636 97.1687 209.229C56.0635 170.822 32.953 116.975 18.2611 62.6983" stroke="#89128A" stroke-width="0.804745" stroke-miterlimit="10"/>
<path opacity="0.54" d="M685.608 616.95C698.285 597.801 692.709 571.185 678.184 553.297C676.888 551.706 675.525 550.178 674.095 548.713C659.487 533.824 639.783 525.439 619.68 519.284C615.82 518.107 611.946 516.996 608.088 515.949C589.9 510.997 571.236 506.711 554.046 499.047C548.514 496.602 543.168 493.756 538.051 490.532C503.087 468.341 483.553 428.252 472.736 387.955C471.951 385.023 471.206 382.094 470.502 379.168C460.117 335.919 455.785 291.364 441.771 250.713C434.273 228.963 423.284 206.373 402.388 195.898C377.339 183.326 346.425 192.137 322.353 206.307C305.964 215.948 291.035 227.948 275.039 237.977C267.57 242.761 259.709 246.901 251.54 250.355C199.122 271.941 135.6 252.083 93.8728 212.97C52.1451 173.857 28.8988 118.936 14.1207 63.6979" stroke="#89128A" stroke-width="0.804745" stroke-miterlimit="10"/>
<path opacity="0.54" d="M683.556 622.944C696.235 603.812 690.86 577.258 676.533 559.189C675.256 557.575 673.9 556.031 672.495 554.558C658.026 539.492 638.427 530.863 618.381 524.444C614.539 523.212 610.671 522.066 606.809 520.966C588.667 515.805 570.03 511.329 552.898 503.586C547.382 501.118 542.052 498.25 536.953 495.007C502.046 472.68 482.676 432.574 472.179 392.185C471.415 389.251 470.694 386.316 470.017 383.382C460.026 340.042 456.7 295.3 443.414 253.909C436.226 231.5 425.132 208.245 403.95 197.437C378.536 184.474 347.064 193.586 322.672 208.261C306.07 218.247 290.979 230.687 274.779 241.125C267.22 246.094 259.25 250.409 250.957 254.021C197.743 276.581 132.974 256.508 90.6167 216.682C48.2589 176.855 24.8841 120.865 10.0097 64.6684" stroke="#89128A" stroke-width="0.804745" stroke-miterlimit="10"/>
<path opacity="0.54" d="M681.493 628.936C694.175 609.836 689.012 583.329 674.852 565.082C673.586 563.455 672.258 561.884 670.853 560.404C656.529 545.162 637.03 536.27 617.024 529.623C613.188 528.344 609.328 527.158 605.483 526.012C587.39 520.639 568.793 515.986 551.705 508.144C546.203 505.649 540.886 502.763 535.797 499.507C500.959 477.043 481.75 436.938 471.558 396.441C470.816 393.494 470.128 390.553 469.471 387.608C459.873 344.168 457.556 299.258 444.996 257.128C438.124 234.059 426.919 210.128 405.436 198.988C379.66 185.623 347.629 195.045 322.923 210.229C306.105 220.562 290.854 233.45 274.441 244.278C266.791 249.439 258.709 253.928 250.285 257.694C196.281 281.236 130.259 260.93 87.2738 220.398C44.2883 179.866 20.7726 122.8 5.80681 65.6427" stroke="#89128A" stroke-width="0.804745" stroke-miterlimit="10"/>
<path opacity="0.54" d="M679.432 634.933C693.258 614.154 686.138 584.623 669.236 566.252C652.335 547.88 628.031 538.419 604.188 531.049C580.344 523.678 555.591 517.597 534.668 504.004C497.375 479.757 478.162 435.362 468.971 391.842C459.779 348.323 458.479 303.237 446.626 260.356C440.07 236.629 428.741 212.041 406.971 200.561C380.834 186.792 348.242 196.527 323.213 212.229C298.185 227.931 276.637 249.327 249.672 261.397C194.873 285.915 127.604 265.389 83.9882 224.142C40.3725 182.895 16.7286 124.764 1.67167 66.6466" stroke="#89128A" stroke-width="0.804745" stroke-miterlimit="10"/>
</g>
</svg>
