<svg width="474" height="282" viewBox="0 0 474 282" fill="none" xmlns="http://www.w3.org/2000/svg">
<g clip-path="url(#clip0_142_15565)">
<path d="M236.954 122.543C270.894 122.543 298.408 95.1109 298.408 61.2715C298.408 27.4322 270.894 0 236.954 0C203.014 0 175.5 27.4322 175.5 61.2715C175.5 95.1109 203.014 122.543 236.954 122.543Z" fill="#F1E4F2"/>
<path d="M184.321 94.8982C187.383 94.8982 189.866 92.4232 189.866 89.37C189.866 86.3169 187.383 83.8418 184.321 83.8418C181.259 83.8418 178.776 86.3169 178.776 89.37C178.776 92.4232 181.259 94.8982 184.321 94.8982Z" fill="#89128A"/>
<path d="M182.202 119.438C184.094 119.438 185.628 117.909 185.628 116.023C185.628 114.137 184.094 112.607 182.202 112.607C180.31 112.607 178.776 114.137 178.776 116.023C178.776 117.909 180.31 119.438 182.202 119.438Z" fill="#F1E4F2"/>
<path d="M283.321 34.904C288.275 34.904 292.291 30.8998 292.291 25.9603C292.291 21.0208 288.275 17.0166 283.321 17.0166C278.367 17.0166 274.351 21.0208 274.351 25.9603C274.351 30.8998 278.367 34.904 283.321 34.904Z" fill="#89128A"/>
<path d="M294.699 6.09281C295.953 6.09281 296.97 5.07899 296.97 3.82839C296.97 2.57778 295.953 1.56396 294.699 1.56396C293.445 1.56396 292.428 2.57778 292.428 3.82839C292.428 5.07899 293.445 6.09281 294.699 6.09281Z" fill="#F1E4F2"/>
<path opacity="0.22" d="M230.694 78.2604C229.827 115.799 235.648 113.947 238.249 111.971C240.23 110.366 242.459 101.722 242.459 74.1855C242.459 53.8109 231.437 42.2035 230.694 78.2604Z" fill="#FCEE21"/>
<path d="M213.726 70.6045L213.355 67.7644C213.355 67.6409 212.736 65.1713 212.24 64.9243H211.992C211.745 65.0478 211.621 65.7887 211.497 67.6409L213.355 78.1369L214.965 78.3839L214.469 75.0499L213.726 70.6045Z" fill="#6764A0"/>
<path d="M216.451 68.999L216.079 66.1589C216.079 66.1589 215.46 63.5658 214.965 63.3188C214.841 63.3188 214.841 63.3188 214.717 63.3188L211.992 64.9241C211.992 64.9241 211.992 64.9241 212.116 64.9241C212.116 64.9241 212.116 64.9241 212.24 64.9241C212.735 65.2946 213.355 67.6407 213.355 67.7642L214.841 78.3837L217.565 76.7784L216.451 68.999Z" fill="#54518C"/>
<path d="M224.625 65.4179L213.727 70.6041L214.346 74.926L226.359 78.3835L226.731 78.507L225.245 65.1709L224.625 65.4179Z" fill="#7D7DB7"/>
<path d="M239.983 75.0497C235.524 75.7906 230.198 75.9141 226.359 73.1975C225.74 72.7035 225.121 72.3331 224.625 71.7157C224.501 71.5922 224.254 71.4687 224.13 71.3452C224.006 71.4687 224.006 71.5922 224.006 71.5922C224.006 78.3837 227.35 85.1753 227.845 86.2866C227.845 88.0154 231.437 89.3737 235.895 89.3737C240.354 89.3737 243.946 88.0154 243.946 86.2866C243.946 86.2866 247.537 78.3837 247.661 72.2096C246.794 72.58 245.804 72.827 244.937 73.074C243.574 74.1853 241.964 74.8027 239.983 75.0497Z" fill="#6764A0"/>
<path d="M255.959 90.1147H255.835H255.711C255.216 90.3617 254.844 91.5965 254.844 91.5965L254.473 93.9427L253.854 97.6472L253.234 100.487L254.844 101.969L256.702 93.5723C256.578 91.1026 256.331 90.2382 255.959 90.1147Z" fill="#6764A0"/>
<path d="M229.579 25.6567C226.235 34.9179 222.148 50.1063 223.635 67.5173L223.882 71.4688C223.882 73.9384 229.208 75.9141 235.896 75.9141C242.46 75.9141 247.909 73.9384 247.909 71.4688C249.643 54.6751 246.423 38.005 241.717 25.9037C241.717 25.9037 229.951 25.9037 229.579 25.6567Z" fill="#9D3A9E"/>
<path d="M241.716 25.9038C241.716 25.9038 239.611 25.9038 237.134 25.9038C240.973 39.7338 243.326 57.5153 241.84 75.4203C245.432 74.6794 247.909 73.1976 247.909 71.5923C249.643 54.6752 246.423 38.0051 241.716 25.9038Z" fill="#720F73"/>
<path d="M229.579 25.6567C235.276 28.2498 241.716 26.0271 241.716 26.0271C240.602 21.7052 235.895 15.1606 235.895 15.1606C235.895 15.1606 231.808 19.606 229.579 25.6567Z" fill="#6764A0"/>
<g opacity="0.3">
<g opacity="0.3">
<path opacity="0.3" d="M226.606 58.8736C226.73 57.3918 226.73 58.1327 226.606 58.8736V58.8736Z" fill="#CDCDD2"/>
</g>
</g>
<g opacity="0.3">
<g opacity="0.3">
<path opacity="0.3" d="M231.313 61.2197C231.313 61.3432 231.313 61.4667 231.437 61.5902C231.561 61.9606 231.437 61.9606 231.437 61.7137C231.437 62.3311 231.685 62.4546 231.313 61.2197Z" fill="#CDCDD2"/>
</g>
</g>
<g opacity="0.3">
<g opacity="0.3">
<path opacity="0.3" d="M231.437 59.6145C231.437 59.8614 231.437 59.9849 231.313 60.2319C231.313 60.3554 231.313 60.3554 231.313 60.4789C231.685 59.3675 231.561 59.244 231.437 59.6145Z" fill="#CDCDD2"/>
</g>
</g>
<path d="M231.189 38.1284H230.941H230.817C230.693 38.1284 230.693 38.1284 230.57 38.1284C230.57 38.1284 230.446 38.1284 230.322 38.1284H230.198H230.074C229.95 38.1284 229.95 38.1284 229.826 38.1284C229.703 38.1284 229.703 38.1284 229.579 38.1284C229.331 38.2519 228.96 38.2519 228.712 38.4989H228.464L228.34 38.6223C228.216 38.6223 228.216 38.7458 228.093 38.7458L227.969 38.8693C227.721 39.1163 227.473 39.3632 227.349 39.6102C227.102 39.9807 226.854 40.4746 226.606 40.9685C226.359 41.4624 226.235 41.9564 226.111 42.4503C225.987 42.9442 225.987 43.4382 225.863 44.0556C225.863 45.4139 225.987 46.6487 226.483 47.6366C226.73 48.1305 226.978 48.501 227.226 48.7479C227.226 48.7479 227.226 48.8714 227.349 48.8714L227.473 48.9949C228.093 49.6123 228.96 49.9827 229.826 49.9827C229.95 49.9827 229.95 49.9827 230.074 49.9827C230.446 49.9827 230.693 49.8593 231.065 49.7358C231.808 49.4888 232.427 48.9949 232.923 48.254C233.17 48.007 233.294 47.6366 233.418 47.3896C233.542 47.1426 233.666 46.7722 233.79 46.4017C233.914 46.0313 234.037 45.7843 234.037 45.4139C234.161 45.0434 234.161 44.673 234.161 44.426C234.285 42.9442 234.037 41.4624 233.542 40.3511C232.923 39.2398 232.056 38.4989 231.189 38.1284Z" fill="#54518C"/>
<path d="M230.694 39.3633H230.57H230.446H230.322H230.198H230.074H229.95C229.827 39.3633 229.579 39.4868 229.455 39.6102L229.331 39.7337C229.331 39.7337 229.207 39.7337 229.207 39.8572L229.084 39.9807C229.084 39.9807 228.96 39.9807 228.96 40.1042C228.836 40.2277 228.588 40.4746 228.464 40.7216C228.217 41.092 228.093 41.4625 227.845 41.8329C227.721 42.2034 227.597 42.6973 227.473 43.0678C227.35 43.5617 227.35 43.9321 227.35 44.4261C227.35 45.4139 227.473 46.5253 227.845 47.3896C227.969 47.7601 228.217 48.0071 228.34 48.254C228.712 48.748 229.207 48.8714 229.827 48.8714C229.95 48.8714 230.198 48.8714 230.322 48.748C230.817 48.6245 231.189 48.254 231.561 47.6366C231.684 47.3896 231.808 47.1427 231.932 46.8957C232.056 46.6487 232.18 46.4018 232.304 46.1548C232.427 45.9079 232.427 45.5374 232.551 45.2904C232.551 45.0435 232.675 44.673 232.675 44.4261C232.799 43.1912 232.675 41.9564 232.18 41.092C231.808 40.1042 231.313 39.6102 230.694 39.3633Z" fill="#FEF1F1"/>
<path d="M229.207 53.4404C229.084 53.4404 228.96 53.4404 228.96 53.4404C228.836 53.4404 228.836 53.4404 228.712 53.4404C228.588 53.4404 228.588 53.4404 228.464 53.4404C228.341 53.4404 228.341 53.4404 228.217 53.4404C228.093 53.4404 228.093 53.4404 227.969 53.4404C227.845 53.4404 227.845 53.4404 227.721 53.4404C227.474 53.5639 227.226 53.6874 226.978 53.8109H226.854L226.73 53.9344C226.73 53.9344 226.607 53.9344 226.607 54.0578L226.483 54.1813C226.483 54.1813 226.359 54.3048 226.235 54.4283L226.111 54.5518C225.863 54.7987 225.74 55.0457 225.492 55.4161C225.244 55.9101 224.997 56.2805 224.873 56.8979C224.749 57.3919 224.625 57.8858 224.625 58.3797C224.625 58.8737 224.625 59.3676 224.625 59.985C224.749 61.3433 225.12 62.4547 225.616 63.4425C225.864 63.813 226.111 64.1834 226.483 64.5539L226.607 64.6773C227.226 65.1713 227.969 65.5417 228.712 65.5417C228.836 65.5417 229.084 65.5417 229.207 65.5417C229.579 65.5417 229.827 65.4182 230.074 65.1713C230.694 64.8008 231.313 64.1834 231.808 63.4425C231.932 63.1955 232.056 62.8251 232.18 62.4547C232.304 62.0842 232.428 61.8372 232.428 61.4668C232.551 61.0963 232.551 60.7259 232.551 60.4789C232.551 60.1085 232.551 59.738 232.551 59.3676C232.551 57.8858 232.18 56.404 231.437 55.4161C231.189 54.1813 230.322 53.5639 229.207 53.4404Z" fill="#54518C"/>
<path d="M229.084 54.6753H228.96H228.836H228.712H228.589H228.465H228.341C228.217 54.6753 227.969 54.7988 227.845 54.9223L227.722 55.0457C227.722 55.0457 227.598 55.0457 227.598 55.1692L227.474 55.2927L227.35 55.4162C227.226 55.5397 227.102 55.7866 226.978 56.0336C226.731 56.404 226.607 56.7745 226.483 57.1449C226.359 57.5154 226.235 58.0093 226.235 58.3798C226.235 58.8737 226.235 59.2441 226.235 59.7381C226.359 60.7259 226.607 61.8373 227.102 62.5782C227.35 62.9486 227.474 63.1956 227.722 63.3191C228.217 63.6895 228.712 63.813 229.208 63.813C229.332 63.813 229.579 63.6895 229.703 63.6895C230.075 63.4425 230.57 63.0721 230.818 62.4547C230.942 62.2077 231.066 61.9608 231.189 61.7138C231.313 61.4668 231.313 61.2199 231.437 60.8494C231.437 60.6025 231.561 60.232 231.561 59.985C231.561 59.7381 231.561 59.3676 231.561 59.1207C231.561 57.8858 231.189 56.7745 230.694 55.7866C230.199 55.2927 229.579 54.7988 229.084 54.6753Z" fill="#FEF1F1"/>
<path d="M255.712 90.1146L246.299 74.8027L243.574 76.408L254.473 94.066L254.845 91.7198C254.845 91.5964 255.216 90.3615 255.712 90.1146Z" fill="#54518C"/>
<path d="M241.345 86.9042L253.73 97.6472L254.349 93.9427L243.574 76.4082L241.345 86.9042Z" fill="#7D7DB7"/>
<path d="M258.684 88.5093C258.56 88.5093 258.436 88.5093 258.436 88.5093L255.712 90.1145H255.836H255.959C256.331 90.238 256.579 91.2259 256.702 93.5721L254.845 101.969L257.569 100.364L259.427 91.9668C259.303 89.6206 259.056 88.6328 258.684 88.5093Z" fill="#54518C"/>
</g>
<path d="M15.8371 169.088H20.5091L25.2451 182.88L26.0771 185.824H26.3331L27.2291 182.88L32.1571 169.088H36.8291L28.4771 192H23.9331L15.8371 169.088ZM52.2494 188.224C51.524 189.504 50.5427 190.539 49.3054 191.328C48.0894 192.117 46.596 192.512 44.8254 192.512C43.6307 192.512 42.5214 192.309 41.4974 191.904C40.4947 191.477 39.62 190.891 38.8734 190.144C38.1267 189.397 37.54 188.523 37.1134 187.52C36.708 186.496 36.5054 185.376 36.5054 184.16C36.5054 183.029 36.708 181.963 37.1134 180.96C37.5187 179.936 38.084 179.051 38.8094 178.304C39.5347 177.536 40.388 176.928 41.3694 176.48C42.372 176.032 43.4707 175.808 44.6654 175.808C45.924 175.808 47.044 176.021 48.0254 176.448C49.0067 176.853 49.828 177.429 50.4894 178.176C51.1507 178.901 51.652 179.765 51.9934 180.768C52.3347 181.771 52.5054 182.859 52.5054 184.032C52.5054 184.181 52.5054 184.309 52.5054 184.416C52.484 184.544 52.4734 184.661 52.4734 184.768C52.452 184.875 52.4414 184.992 52.4414 185.12H40.6334C40.7187 185.76 40.8894 186.315 41.1454 186.784C41.4227 187.232 41.7534 187.616 42.1374 187.936C42.5427 188.235 42.98 188.459 43.4494 188.608C43.9187 188.736 44.3987 188.8 44.8894 188.8C45.8494 188.8 46.6387 188.587 47.2574 188.16C47.8974 187.712 48.3987 187.157 48.7614 186.496L52.2494 188.224ZM48.4414 182.144C48.42 181.867 48.324 181.557 48.1534 181.216C48.004 180.875 47.7694 180.555 47.4494 180.256C47.1507 179.957 46.7667 179.712 46.2974 179.52C45.8494 179.328 45.3054 179.232 44.6654 179.232C43.7694 179.232 42.98 179.488 42.2974 180C41.6147 180.512 41.1347 181.227 40.8574 182.144H48.4414ZM55.1826 176.32H59.1186V178.496H59.3746C59.5666 178.112 59.8226 177.76 60.1426 177.44C60.4626 177.12 60.8146 176.843 61.1986 176.608C61.604 176.373 62.0306 176.192 62.4786 176.064C62.948 175.936 63.4066 175.872 63.8546 175.872C64.4093 175.872 64.8786 175.925 65.2626 176.032C65.668 176.139 66.0093 176.277 66.2866 176.448L65.1666 180.256C64.9106 180.128 64.6226 180.032 64.3026 179.968C64.004 179.883 63.6306 179.84 63.1826 179.84C62.6066 179.84 62.084 179.957 61.6146 180.192C61.1453 180.405 60.74 180.715 60.3986 181.12C60.0786 181.525 59.8226 182.005 59.6306 182.56C59.46 183.093 59.3746 183.68 59.3746 184.32V192H55.1826V176.32ZM70.5499 174.048C70.1872 174.048 69.8352 173.984 69.4939 173.856C69.1739 173.707 68.8859 173.515 68.6299 173.28C68.3952 173.024 68.2032 172.736 68.0539 172.416C67.9259 172.096 67.8619 171.744 67.8619 171.36C67.8619 170.976 67.9259 170.624 68.0539 170.304C68.2032 169.984 68.3952 169.707 68.6299 169.472C68.8859 169.216 69.1739 169.024 69.4939 168.896C69.8352 168.747 70.1872 168.672 70.5499 168.672C71.2965 168.672 71.9365 168.939 72.4699 169.472C73.0032 169.984 73.2699 170.613 73.2699 171.36C73.2699 172.107 73.0032 172.747 72.4699 173.28C71.9365 173.792 71.2965 174.048 70.5499 174.048ZM68.4699 192V176.32H72.6619V192H68.4699ZM82.4791 192H78.2871V179.904H75.4711V176.32H78.2871V174.784C78.2871 173.824 78.4258 172.981 78.7031 172.256C79.0018 171.509 79.4178 170.891 79.9511 170.4C80.4845 169.888 81.1138 169.504 81.8391 169.248C82.5645 168.971 83.3645 168.832 84.2391 168.832C84.6658 168.832 85.0071 168.853 85.2631 168.896C85.5191 168.939 85.7645 169.003 85.9991 169.088L85.7431 173.024C85.5938 172.96 85.4231 172.907 85.2311 172.864C85.0391 172.821 84.7938 172.8 84.4951 172.8C83.8765 172.8 83.3858 173.003 83.0231 173.408C82.6605 173.792 82.4791 174.336 82.4791 175.04V176.32H92.5911V192H88.3991V179.904H82.4791V192ZM90.4791 174.048C90.1165 174.048 89.7645 173.984 89.4231 173.856C89.1031 173.707 88.8151 173.515 88.5591 173.28C88.3245 173.024 88.1325 172.736 87.9831 172.416C87.8551 172.096 87.7911 171.744 87.7911 171.36C87.7911 170.976 87.8551 170.624 87.9831 170.304C88.1325 169.984 88.3245 169.707 88.5591 169.472C88.8151 169.216 89.1031 169.024 89.4231 168.896C89.7645 168.747 90.1165 168.672 90.4791 168.672C91.2258 168.672 91.8658 168.939 92.3991 169.472C92.9325 169.984 93.1991 170.613 93.1991 171.36C93.1991 172.107 92.9325 172.747 92.3991 173.28C91.8658 173.792 91.2258 174.048 90.4791 174.048ZM111.156 188C110.474 189.323 109.514 190.411 108.276 191.264C107.06 192.096 105.535 192.512 103.7 192.512C102.484 192.512 101.364 192.309 100.34 191.904C99.3377 191.477 98.463 190.891 97.7164 190.144C96.991 189.397 96.415 188.523 95.9884 187.52C95.583 186.496 95.3804 185.376 95.3804 184.16C95.3804 182.944 95.583 181.824 95.9884 180.8C96.415 179.776 96.991 178.901 97.7164 178.176C98.463 177.429 99.3377 176.853 100.34 176.448C101.364 176.021 102.484 175.808 103.7 175.808C105.514 175.808 107.039 176.224 108.276 177.056C109.514 177.888 110.42 178.965 110.996 180.288L107.156 181.888C106.794 181.163 106.324 180.619 105.748 180.256C105.194 179.872 104.49 179.68 103.636 179.68C103.082 179.68 102.559 179.787 102.068 180C101.578 180.213 101.14 180.512 100.756 180.896C100.394 181.28 100.106 181.749 99.8924 182.304C99.679 182.859 99.5724 183.477 99.5724 184.16C99.5724 184.843 99.679 185.461 99.8924 186.016C100.106 186.571 100.394 187.04 100.756 187.424C101.14 187.808 101.578 188.107 102.068 188.32C102.559 188.533 103.082 188.64 103.636 188.64C104.511 188.64 105.247 188.448 105.844 188.064C106.463 187.659 106.954 187.083 107.316 186.336L111.156 188ZM123.222 190.336H122.966C122.475 190.933 121.878 191.445 121.174 191.872C120.491 192.299 119.606 192.512 118.518 192.512C117.707 192.512 116.939 192.373 116.214 192.096C115.51 191.84 114.891 191.477 114.358 191.008C113.824 190.539 113.408 189.973 113.11 189.312C112.811 188.651 112.662 187.925 112.662 187.136C112.662 186.325 112.822 185.6 113.142 184.96C113.462 184.299 113.91 183.733 114.486 183.264C115.062 182.795 115.734 182.443 116.502 182.208C117.291 181.952 118.144 181.824 119.062 181.824C120.086 181.824 120.928 181.909 121.59 182.08C122.251 182.229 122.795 182.389 123.222 182.56V182.08C123.222 181.248 122.891 180.565 122.23 180.032C121.568 179.477 120.747 179.2 119.766 179.2C118.315 179.2 117.088 179.808 116.086 181.024L113.046 178.944C114.71 176.853 116.982 175.808 119.862 175.808C122.294 175.808 124.15 176.384 125.43 177.536C126.71 178.667 127.35 180.352 127.35 182.592V192H123.222V190.336ZM123.222 185.632C122.731 185.397 122.219 185.216 121.686 185.088C121.174 184.939 120.608 184.864 119.99 184.864C118.987 184.864 118.208 185.088 117.654 185.536C117.12 185.963 116.854 186.496 116.854 187.136C116.854 187.776 117.11 188.288 117.622 188.672C118.155 189.056 118.763 189.248 119.446 189.248C120 189.248 120.512 189.152 120.982 188.96C121.451 188.747 121.846 188.48 122.166 188.16C122.507 187.819 122.763 187.435 122.934 187.008C123.126 186.56 123.222 186.101 123.222 185.632ZM132.098 179.904H129.346V176.32H132.098V171.52H136.29V176.32H140.13V179.904H136.29V185.984C136.29 186.347 136.322 186.688 136.386 187.008C136.471 187.307 136.621 187.563 136.834 187.776C137.133 188.117 137.559 188.288 138.114 188.288C138.477 188.288 138.765 188.256 138.978 188.192C139.191 188.107 139.394 188 139.586 187.872L140.77 191.552C140.279 191.787 139.746 191.957 139.17 192.064C138.615 192.192 137.997 192.256 137.314 192.256C136.525 192.256 135.81 192.139 135.17 191.904C134.551 191.648 134.029 191.307 133.602 190.88C132.599 189.92 132.098 188.555 132.098 186.784V179.904ZM145.706 174.048C145.343 174.048 144.991 173.984 144.65 173.856C144.33 173.707 144.042 173.515 143.786 173.28C143.551 173.024 143.359 172.736 143.21 172.416C143.082 172.096 143.018 171.744 143.018 171.36C143.018 170.976 143.082 170.624 143.21 170.304C143.359 169.984 143.551 169.707 143.786 169.472C144.042 169.216 144.33 169.024 144.65 168.896C144.991 168.747 145.343 168.672 145.706 168.672C146.453 168.672 147.093 168.939 147.626 169.472C148.159 169.984 148.426 170.613 148.426 171.36C148.426 172.107 148.159 172.747 147.626 173.28C147.093 173.792 146.453 174.048 145.706 174.048ZM143.626 192V176.32H147.818V192H143.626ZM158.919 175.808C160.135 175.808 161.244 176.021 162.247 176.448C163.271 176.853 164.146 177.429 164.871 178.176C165.618 178.901 166.194 179.776 166.599 180.8C167.026 181.824 167.239 182.944 167.239 184.16C167.239 185.376 167.026 186.496 166.599 187.52C166.194 188.544 165.618 189.429 164.871 190.176C164.146 190.901 163.271 191.477 162.247 191.904C161.244 192.309 160.135 192.512 158.919 192.512C157.703 192.512 156.583 192.309 155.559 191.904C154.556 191.477 153.682 190.901 152.935 190.176C152.21 189.429 151.634 188.544 151.207 187.52C150.802 186.496 150.599 185.376 150.599 184.16C150.599 182.944 150.802 181.824 151.207 180.8C151.634 179.776 152.21 178.901 152.935 178.176C153.682 177.429 154.556 176.853 155.559 176.448C156.583 176.021 157.703 175.808 158.919 175.808ZM158.919 188.64C159.452 188.64 159.964 188.544 160.455 188.352C160.967 188.139 161.415 187.84 161.799 187.456C162.183 187.072 162.482 186.603 162.695 186.048C162.93 185.493 163.047 184.864 163.047 184.16C163.047 183.456 162.93 182.827 162.695 182.272C162.482 181.717 162.183 181.248 161.799 180.864C161.415 180.48 160.967 180.192 160.455 180C159.964 179.787 159.452 179.68 158.919 179.68C158.364 179.68 157.842 179.787 157.351 180C156.86 180.192 156.423 180.48 156.039 180.864C155.655 181.248 155.346 181.717 155.111 182.272C154.898 182.827 154.791 183.456 154.791 184.16C154.791 184.864 154.898 185.493 155.111 186.048C155.346 186.603 155.655 187.072 156.039 187.456C156.423 187.84 156.86 188.139 157.351 188.352C157.842 188.544 158.364 188.64 158.919 188.64ZM173.556 178.368H173.812C174.303 177.579 174.964 176.96 175.796 176.512C176.628 176.043 177.577 175.808 178.644 175.808C179.625 175.808 180.489 175.968 181.236 176.288C181.983 176.608 182.591 177.067 183.06 177.664C183.551 178.24 183.913 178.944 184.148 179.776C184.404 180.587 184.532 181.493 184.532 182.496V192H180.34V183.008C180.34 181.877 180.084 181.045 179.572 180.512C179.081 179.957 178.356 179.68 177.396 179.68C176.82 179.68 176.308 179.808 175.86 180.064C175.433 180.299 175.06 180.629 174.74 181.056C174.441 181.461 174.207 181.952 174.036 182.528C173.887 183.083 173.812 183.68 173.812 184.32V192H169.62V176.32H173.556V178.368ZM195.538 192V169.088H203.602C204.69 169.088 205.704 169.269 206.642 169.632C207.602 169.973 208.434 170.464 209.138 171.104C209.842 171.744 210.397 172.512 210.802 173.408C211.208 174.283 211.41 175.253 211.41 176.32C211.41 177.408 211.208 178.4 210.802 179.296C210.397 180.171 209.842 180.928 209.138 181.568C208.434 182.208 207.602 182.709 206.642 183.072C205.704 183.413 204.69 183.584 203.602 183.584H199.858V192H195.538ZM203.666 179.488C204.797 179.488 205.65 179.168 206.226 178.528C206.802 177.888 207.09 177.152 207.09 176.32C207.09 175.915 207.016 175.52 206.866 175.136C206.738 174.752 206.525 174.421 206.226 174.144C205.949 173.845 205.597 173.611 205.17 173.44C204.744 173.269 204.242 173.184 203.666 173.184H199.858V179.488H203.666ZM213.964 176.32H217.9V178.496H218.156C218.348 178.112 218.604 177.76 218.924 177.44C219.244 177.12 219.596 176.843 219.98 176.608C220.385 176.373 220.812 176.192 221.26 176.064C221.729 175.936 222.188 175.872 222.636 175.872C223.191 175.872 223.66 175.925 224.044 176.032C224.449 176.139 224.791 176.277 225.068 176.448L223.948 180.256C223.692 180.128 223.404 180.032 223.084 179.968C222.785 179.883 222.412 179.84 221.964 179.84C221.388 179.84 220.865 179.957 220.396 180.192C219.927 180.405 219.521 180.715 219.18 181.12C218.86 181.525 218.604 182.005 218.412 182.56C218.241 183.093 218.156 183.68 218.156 184.32V192H213.964V176.32ZM233.45 175.808C234.666 175.808 235.776 176.021 236.778 176.448C237.802 176.853 238.677 177.429 239.402 178.176C240.149 178.901 240.725 179.776 241.13 180.8C241.557 181.824 241.77 182.944 241.77 184.16C241.77 185.376 241.557 186.496 241.13 187.52C240.725 188.544 240.149 189.429 239.402 190.176C238.677 190.901 237.802 191.477 236.778 191.904C235.776 192.309 234.666 192.512 233.45 192.512C232.234 192.512 231.114 192.309 230.09 191.904C229.088 191.477 228.213 190.901 227.466 190.176C226.741 189.429 226.165 188.544 225.738 187.52C225.333 186.496 225.13 185.376 225.13 184.16C225.13 182.944 225.333 181.824 225.738 180.8C226.165 179.776 226.741 178.901 227.466 178.176C228.213 177.429 229.088 176.853 230.09 176.448C231.114 176.021 232.234 175.808 233.45 175.808ZM233.45 188.64C233.984 188.64 234.496 188.544 234.986 188.352C235.498 188.139 235.946 187.84 236.33 187.456C236.714 187.072 237.013 186.603 237.226 186.048C237.461 185.493 237.578 184.864 237.578 184.16C237.578 183.456 237.461 182.827 237.226 182.272C237.013 181.717 236.714 181.248 236.33 180.864C235.946 180.48 235.498 180.192 234.986 180C234.496 179.787 233.984 179.68 233.45 179.68C232.896 179.68 232.373 179.787 231.882 180C231.392 180.192 230.954 180.48 230.57 180.864C230.186 181.248 229.877 181.717 229.642 182.272C229.429 182.827 229.322 183.456 229.322 184.16C229.322 184.864 229.429 185.493 229.642 186.048C229.877 186.603 230.186 187.072 230.57 187.456C230.954 187.84 231.392 188.139 231.882 188.352C232.373 188.544 232.896 188.64 233.45 188.64ZM259.344 188C258.661 189.323 257.701 190.411 256.464 191.264C255.248 192.096 253.723 192.512 251.888 192.512C250.672 192.512 249.552 192.309 248.528 191.904C247.525 191.477 246.651 190.891 245.904 190.144C245.179 189.397 244.603 188.523 244.176 187.52C243.771 186.496 243.568 185.376 243.568 184.16C243.568 182.944 243.771 181.824 244.176 180.8C244.603 179.776 245.179 178.901 245.904 178.176C246.651 177.429 247.525 176.853 248.528 176.448C249.552 176.021 250.672 175.808 251.888 175.808C253.701 175.808 255.227 176.224 256.464 177.056C257.701 177.888 258.608 178.965 259.184 180.288L255.344 181.888C254.981 181.163 254.512 180.619 253.936 180.256C253.381 179.872 252.677 179.68 251.824 179.68C251.269 179.68 250.747 179.787 250.256 180C249.765 180.213 249.328 180.512 248.944 180.896C248.581 181.28 248.293 181.749 248.08 182.304C247.867 182.859 247.76 183.477 247.76 184.16C247.76 184.843 247.867 185.461 248.08 186.016C248.293 186.571 248.581 187.04 248.944 187.424C249.328 187.808 249.765 188.107 250.256 188.32C250.747 188.533 251.269 188.64 251.824 188.64C252.699 188.64 253.435 188.448 254.032 188.064C254.651 187.659 255.141 187.083 255.504 186.336L259.344 188ZM276.593 188.224C275.868 189.504 274.886 190.539 273.649 191.328C272.433 192.117 270.94 192.512 269.169 192.512C267.974 192.512 266.865 192.309 265.841 191.904C264.838 191.477 263.964 190.891 263.217 190.144C262.47 189.397 261.884 188.523 261.457 187.52C261.052 186.496 260.849 185.376 260.849 184.16C260.849 183.029 261.052 181.963 261.457 180.96C261.862 179.936 262.428 179.051 263.153 178.304C263.878 177.536 264.732 176.928 265.713 176.48C266.716 176.032 267.814 175.808 269.009 175.808C270.268 175.808 271.388 176.021 272.369 176.448C273.35 176.853 274.172 177.429 274.833 178.176C275.494 178.901 275.996 179.765 276.337 180.768C276.678 181.771 276.849 182.859 276.849 184.032C276.849 184.181 276.849 184.309 276.849 184.416C276.828 184.544 276.817 184.661 276.817 184.768C276.796 184.875 276.785 184.992 276.785 185.12H264.977C265.062 185.76 265.233 186.315 265.489 186.784C265.766 187.232 266.097 187.616 266.481 187.936C266.886 188.235 267.324 188.459 267.793 188.608C268.262 188.736 268.742 188.8 269.233 188.8C270.193 188.8 270.982 188.587 271.601 188.16C272.241 187.712 272.742 187.157 273.105 186.496L276.593 188.224ZM272.785 182.144C272.764 181.867 272.668 181.557 272.497 181.216C272.348 180.875 272.113 180.555 271.793 180.256C271.494 179.957 271.11 179.712 270.641 179.52C270.193 179.328 269.649 179.232 269.009 179.232C268.113 179.232 267.324 179.488 266.641 180C265.958 180.512 265.478 181.227 265.201 182.144H272.785ZM285.891 192.512C284.867 192.512 283.949 192.384 283.139 192.128C282.349 191.872 281.656 191.541 281.059 191.136C280.483 190.709 279.992 190.229 279.587 189.696C279.181 189.141 278.872 188.587 278.659 188.032L282.403 186.432C282.765 187.243 283.245 187.851 283.843 188.256C284.461 188.64 285.144 188.832 285.891 188.832C286.659 188.832 287.267 188.693 287.715 188.416C288.163 188.139 288.387 187.808 288.387 187.424C288.387 186.997 288.195 186.656 287.811 186.4C287.448 186.123 286.808 185.877 285.891 185.664L283.683 185.184C283.192 185.077 282.68 184.907 282.147 184.672C281.635 184.437 281.165 184.139 280.739 183.776C280.312 183.413 279.96 182.976 279.683 182.464C279.405 181.952 279.267 181.355 279.267 180.672C279.267 179.904 279.427 179.221 279.747 178.624C280.088 178.027 280.547 177.525 281.123 177.12C281.699 176.693 282.371 176.373 283.139 176.16C283.928 175.925 284.771 175.808 285.667 175.808C287.16 175.808 288.493 176.107 289.667 176.704C290.84 177.28 291.704 178.208 292.259 179.488L288.643 180.96C288.344 180.341 287.907 179.893 287.331 179.616C286.755 179.339 286.179 179.2 285.603 179.2C285.005 179.2 284.483 179.328 284.035 179.584C283.587 179.819 283.363 180.128 283.363 180.512C283.363 180.875 283.544 181.163 283.907 181.376C284.291 181.589 284.803 181.781 285.443 181.952L287.843 182.528C289.443 182.912 290.627 183.531 291.395 184.384C292.184 185.216 292.579 186.208 292.579 187.36C292.579 188.043 292.419 188.693 292.099 189.312C291.779 189.931 291.32 190.485 290.723 190.976C290.147 191.445 289.443 191.819 288.611 192.096C287.8 192.373 286.893 192.512 285.891 192.512ZM301.359 192.512C300.335 192.512 299.418 192.384 298.607 192.128C297.818 191.872 297.125 191.541 296.527 191.136C295.951 190.709 295.461 190.229 295.055 189.696C294.65 189.141 294.341 188.587 294.127 188.032L297.871 186.432C298.234 187.243 298.714 187.851 299.311 188.256C299.93 188.64 300.613 188.832 301.359 188.832C302.127 188.832 302.735 188.693 303.183 188.416C303.631 188.139 303.855 187.808 303.855 187.424C303.855 186.997 303.663 186.656 303.279 186.4C302.917 186.123 302.277 185.877 301.359 185.664L299.151 185.184C298.661 185.077 298.149 184.907 297.615 184.672C297.103 184.437 296.634 184.139 296.207 183.776C295.781 183.413 295.429 182.976 295.151 182.464C294.874 181.952 294.735 181.355 294.735 180.672C294.735 179.904 294.895 179.221 295.215 178.624C295.557 178.027 296.015 177.525 296.591 177.12C297.167 176.693 297.839 176.373 298.607 176.16C299.397 175.925 300.239 175.808 301.135 175.808C302.629 175.808 303.962 176.107 305.135 176.704C306.309 177.28 307.173 178.208 307.727 179.488L304.111 180.96C303.813 180.341 303.375 179.893 302.799 179.616C302.223 179.339 301.647 179.2 301.071 179.2C300.474 179.2 299.951 179.328 299.503 179.584C299.055 179.819 298.831 180.128 298.831 180.512C298.831 180.875 299.013 181.163 299.375 181.376C299.759 181.589 300.271 181.781 300.911 181.952L303.311 182.528C304.911 182.912 306.095 183.531 306.863 184.384C307.653 185.216 308.047 186.208 308.047 187.36C308.047 188.043 307.887 188.693 307.567 189.312C307.247 189.931 306.789 190.485 306.191 190.976C305.615 191.445 304.911 191.819 304.079 192.096C303.269 192.373 302.362 192.512 301.359 192.512ZM337.57 188.32C336.44 189.685 335.106 190.731 333.57 191.456C332.034 192.16 330.317 192.512 328.418 192.512C326.712 192.512 325.122 192.203 323.65 191.584C322.2 190.965 320.941 190.123 319.874 189.056C318.808 187.989 317.965 186.731 317.346 185.28C316.728 183.808 316.418 182.229 316.418 180.544C316.418 178.859 316.728 177.291 317.346 175.84C317.965 174.368 318.808 173.099 319.874 172.032C320.941 170.965 322.2 170.123 323.65 169.504C325.122 168.885 326.712 168.576 328.418 168.576C330.253 168.576 331.864 168.896 333.25 169.536C334.658 170.176 335.906 171.104 336.994 172.32L333.954 175.264C333.272 174.475 332.482 173.845 331.586 173.376C330.712 172.907 329.666 172.672 328.45 172.672C327.384 172.672 326.381 172.864 325.442 173.248C324.504 173.611 323.682 174.133 322.978 174.816C322.296 175.499 321.752 176.331 321.346 177.312C320.941 178.272 320.738 179.349 320.738 180.544C320.738 181.739 320.941 182.827 321.346 183.808C321.752 184.768 322.296 185.589 322.978 186.272C323.682 186.955 324.504 187.488 325.442 187.872C326.381 188.235 327.384 188.416 328.45 188.416C329.73 188.416 330.861 188.16 331.842 187.648C332.845 187.115 333.73 186.368 334.498 185.408L337.57 188.32ZM347.325 175.808C348.541 175.808 349.651 176.021 350.653 176.448C351.677 176.853 352.552 177.429 353.277 178.176C354.024 178.901 354.6 179.776 355.005 180.8C355.432 181.824 355.645 182.944 355.645 184.16C355.645 185.376 355.432 186.496 355.005 187.52C354.6 188.544 354.024 189.429 353.277 190.176C352.552 190.901 351.677 191.477 350.653 191.904C349.651 192.309 348.541 192.512 347.325 192.512C346.109 192.512 344.989 192.309 343.965 191.904C342.963 191.477 342.088 190.901 341.341 190.176C340.616 189.429 340.04 188.544 339.613 187.52C339.208 186.496 339.005 185.376 339.005 184.16C339.005 182.944 339.208 181.824 339.613 180.8C340.04 179.776 340.616 178.901 341.341 178.176C342.088 177.429 342.963 176.853 343.965 176.448C344.989 176.021 346.109 175.808 347.325 175.808ZM347.325 188.64C347.859 188.64 348.371 188.544 348.861 188.352C349.373 188.139 349.821 187.84 350.205 187.456C350.589 187.072 350.888 186.603 351.101 186.048C351.336 185.493 351.453 184.864 351.453 184.16C351.453 183.456 351.336 182.827 351.101 182.272C350.888 181.717 350.589 181.248 350.205 180.864C349.821 180.48 349.373 180.192 348.861 180C348.371 179.787 347.859 179.68 347.325 179.68C346.771 179.68 346.248 179.787 345.757 180C345.267 180.192 344.829 180.48 344.445 180.864C344.061 181.248 343.752 181.717 343.517 182.272C343.304 182.827 343.197 183.456 343.197 184.16C343.197 184.864 343.304 185.493 343.517 186.048C343.752 186.603 344.061 187.072 344.445 187.456C344.829 187.84 345.267 188.139 345.757 188.352C346.248 188.544 346.771 188.64 347.325 188.64ZM358.026 176.32H361.962V178.368H362.218C362.709 177.6 363.37 176.981 364.202 176.512C365.056 176.043 365.994 175.808 367.018 175.808C368.213 175.808 369.216 176.085 370.026 176.64C370.837 177.195 371.413 177.877 371.754 178.688C372.245 177.899 372.938 177.227 373.834 176.672C374.73 176.096 375.818 175.808 377.098 175.808C378.058 175.808 378.89 175.968 379.594 176.288C380.298 176.587 380.874 177.013 381.322 177.568C381.792 178.123 382.144 178.795 382.378 179.584C382.613 180.352 382.73 181.195 382.73 182.112V192H378.538V182.88C378.538 180.747 377.664 179.68 375.914 179.68C375.36 179.68 374.869 179.808 374.442 180.064C374.016 180.299 373.653 180.629 373.354 181.056C373.077 181.461 372.853 181.952 372.682 182.528C372.533 183.104 372.458 183.723 372.458 184.384V192H368.266V182.88C368.266 180.747 367.349 179.68 365.514 179.68C364.981 179.68 364.512 179.808 364.106 180.064C363.701 180.299 363.36 180.629 363.082 181.056C362.805 181.461 362.592 181.952 362.442 182.528C362.293 183.104 362.218 183.723 362.218 184.384V192H358.026V176.32ZM386.055 176.32H389.991V178.208H390.247C390.631 177.547 391.228 176.981 392.039 176.512C392.849 176.043 393.852 175.808 395.047 175.808C396.049 175.808 396.999 176.021 397.895 176.448C398.812 176.853 399.612 177.429 400.295 178.176C400.999 178.901 401.553 179.776 401.959 180.8C402.364 181.824 402.567 182.944 402.567 184.16C402.567 185.376 402.364 186.496 401.959 187.52C401.553 188.544 400.999 189.429 400.295 190.176C399.612 190.901 398.812 191.477 397.895 191.904C396.999 192.309 396.049 192.512 395.047 192.512C393.852 192.512 392.849 192.277 392.039 191.808C391.228 191.339 390.631 190.773 390.247 190.112H389.991L390.247 192.352V198.912H386.055V176.32ZM394.183 188.64C394.737 188.64 395.26 188.533 395.751 188.32C396.263 188.107 396.711 187.808 397.095 187.424C397.479 187.04 397.788 186.571 398.023 186.016C398.257 185.461 398.375 184.843 398.375 184.16C398.375 183.477 398.257 182.859 398.023 182.304C397.788 181.749 397.479 181.28 397.095 180.896C396.711 180.512 396.263 180.213 395.751 180C395.26 179.787 394.737 179.68 394.183 179.68C393.628 179.68 393.095 179.787 392.583 180C392.092 180.192 391.655 180.48 391.271 180.864C390.887 181.248 390.577 181.717 390.343 182.272C390.108 182.827 389.991 183.456 389.991 184.16C389.991 184.864 390.108 185.493 390.343 186.048C390.577 186.603 390.887 187.072 391.271 187.456C391.655 187.84 392.092 188.139 392.583 188.352C393.095 188.544 393.628 188.64 394.183 188.64ZM404.933 192V169.088H409.125V192H404.933ZM427.406 188.224C426.68 189.504 425.699 190.539 424.462 191.328C423.246 192.117 421.752 192.512 419.982 192.512C418.787 192.512 417.678 192.309 416.654 191.904C415.651 191.477 414.776 190.891 414.03 190.144C413.283 189.397 412.696 188.523 412.27 187.52C411.864 186.496 411.662 185.376 411.662 184.16C411.662 183.029 411.864 181.963 412.27 180.96C412.675 179.936 413.24 179.051 413.966 178.304C414.691 177.536 415.544 176.928 416.526 176.48C417.528 176.032 418.627 175.808 419.822 175.808C421.08 175.808 422.2 176.021 423.182 176.448C424.163 176.853 424.984 177.429 425.646 178.176C426.307 178.901 426.808 179.765 427.15 180.768C427.491 181.771 427.662 182.859 427.662 184.032C427.662 184.181 427.662 184.309 427.662 184.416C427.64 184.544 427.63 184.661 427.63 184.768C427.608 184.875 427.598 184.992 427.598 185.12H415.79C415.875 185.76 416.046 186.315 416.302 186.784C416.579 187.232 416.91 187.616 417.294 187.936C417.699 188.235 418.136 188.459 418.606 188.608C419.075 188.736 419.555 188.8 420.046 188.8C421.006 188.8 421.795 188.587 422.414 188.16C423.054 187.712 423.555 187.157 423.918 186.496L427.406 188.224ZM423.598 182.144C423.576 181.867 423.48 181.557 423.31 181.216C423.16 180.875 422.926 180.555 422.606 180.256C422.307 179.957 421.923 179.712 421.454 179.52C421.006 179.328 420.462 179.232 419.822 179.232C418.926 179.232 418.136 179.488 417.454 180C416.771 180.512 416.291 181.227 416.014 182.144H423.598ZM431.598 179.904H428.846V176.32H431.598V171.52H435.79V176.32H439.63V179.904H435.79V185.984C435.79 186.347 435.822 186.688 435.886 187.008C435.971 187.307 436.121 187.563 436.334 187.776C436.633 188.117 437.059 188.288 437.614 188.288C437.977 188.288 438.265 188.256 438.478 188.192C438.691 188.107 438.894 188 439.086 187.872L440.27 191.552C439.779 191.787 439.246 191.957 438.67 192.064C438.115 192.192 437.497 192.256 436.814 192.256C436.025 192.256 435.31 192.139 434.67 191.904C434.051 191.648 433.529 191.307 433.102 190.88C432.099 189.92 431.598 188.555 431.598 186.784V179.904ZM457.406 188.224C456.68 189.504 455.699 190.539 454.462 191.328C453.246 192.117 451.752 192.512 449.982 192.512C448.787 192.512 447.678 192.309 446.654 191.904C445.651 191.477 444.776 190.891 444.03 190.144C443.283 189.397 442.696 188.523 442.27 187.52C441.864 186.496 441.662 185.376 441.662 184.16C441.662 183.029 441.864 181.963 442.27 180.96C442.675 179.936 443.24 179.051 443.966 178.304C444.691 177.536 445.544 176.928 446.526 176.48C447.528 176.032 448.627 175.808 449.822 175.808C451.08 175.808 452.2 176.021 453.182 176.448C454.163 176.853 454.984 177.429 455.646 178.176C456.307 178.901 456.808 179.765 457.15 180.768C457.491 181.771 457.662 182.859 457.662 184.032C457.662 184.181 457.662 184.309 457.662 184.416C457.64 184.544 457.63 184.661 457.63 184.768C457.608 184.875 457.598 184.992 457.598 185.12H445.79C445.875 185.76 446.046 186.315 446.302 186.784C446.579 187.232 446.91 187.616 447.294 187.936C447.699 188.235 448.136 188.459 448.606 188.608C449.075 188.736 449.555 188.8 450.046 188.8C451.006 188.8 451.795 188.587 452.414 188.16C453.054 187.712 453.555 187.157 453.918 186.496L457.406 188.224ZM453.598 182.144C453.576 181.867 453.48 181.557 453.31 181.216C453.16 180.875 452.926 180.555 452.606 180.256C452.307 179.957 451.923 179.712 451.454 179.52C451.006 179.328 450.462 179.232 449.822 179.232C448.926 179.232 448.136 179.488 447.454 180C446.771 180.512 446.291 181.227 446.014 182.144H453.598Z" fill="#272833"/>
<path d="M20.7881 234.544H22.3241L19.2681 246H17.7641L15.3001 238.448H15.2361L12.7721 246H11.2681L8.08413 234.544H9.62013L12.0361 243.552H12.1001L14.5801 236.08H15.9561L18.4361 243.552H18.5001L20.7881 234.544ZM26.1191 246.256C24.9671 246.256 24.0178 245.861 23.2711 245.072C22.5245 244.283 22.1511 243.285 22.1511 242.08C22.1511 240.885 22.5138 239.893 23.2391 239.104C23.9645 238.304 24.8925 237.904 26.0231 237.904C27.1858 237.904 28.1085 238.283 28.7911 239.04C29.4845 239.787 29.8311 240.837 29.8311 242.192L29.8151 242.352H23.6551C23.6765 243.12 23.9325 243.739 24.4231 244.208C24.9138 244.677 25.5005 244.912 26.1831 244.912C27.1218 244.912 27.8578 244.443 28.3911 243.504L29.7031 244.144C29.3511 244.805 28.8605 245.323 28.2311 245.696C27.6125 246.069 26.9085 246.256 26.1191 246.256ZM23.7671 241.136H28.2631C28.2205 240.592 27.9965 240.144 27.5911 239.792C27.1965 239.429 26.6631 239.248 25.9911 239.248C25.4365 239.248 24.9565 239.419 24.5511 239.76C24.1565 240.101 23.8951 240.56 23.7671 241.136ZM45.7969 238.16L43.2689 246H41.7649L39.8129 239.984L37.8769 246H36.3889L33.8609 238.16H35.3969L37.1409 244.08H37.1569L39.0929 238.16H40.6129L42.5489 244.08H42.5649L44.2929 238.16H45.7969ZM48.6594 235.456C48.6594 235.744 48.558 235.989 48.3554 236.192C48.1527 236.395 47.9074 236.496 47.6194 236.496C47.3314 236.496 47.086 236.395 46.8834 236.192C46.6807 235.989 46.5794 235.744 46.5794 235.456C46.5794 235.168 46.6807 234.923 46.8834 234.72C47.086 234.517 47.3314 234.416 47.6194 234.416C47.9074 234.416 48.1527 234.517 48.3554 234.72C48.558 234.923 48.6594 235.168 48.6594 235.456ZM48.3554 238.16V246H46.8834V238.16H48.3554ZM51.743 234.544V246H50.271V234.544H51.743ZM55.0086 234.544V246H53.5366V234.544H55.0086ZM61.7899 234.544V246H60.3179V234.544H61.7899ZM67.0254 246.256C65.8734 246.256 64.924 245.861 64.1774 245.072C63.4307 244.283 63.0574 243.285 63.0574 242.08C63.0574 240.885 63.42 239.893 64.1454 239.104C64.8707 238.304 65.7987 237.904 66.9294 237.904C68.092 237.904 69.0147 238.283 69.6974 239.04C70.3907 239.787 70.7374 240.837 70.7374 242.192L70.7214 242.352H64.5614C64.5827 243.12 64.8387 243.739 65.3294 244.208C65.82 244.677 66.4067 244.912 67.0894 244.912C68.028 244.912 68.764 244.443 69.2974 243.504L70.6094 244.144C70.2574 244.805 69.7667 245.323 69.1374 245.696C68.5187 246.069 67.8147 246.256 67.0254 246.256ZM64.6734 241.136H69.1694C69.1267 240.592 68.9027 240.144 68.4974 239.792C68.1027 239.429 67.5694 239.248 66.8974 239.248C66.3427 239.248 65.8627 239.419 65.4574 239.76C65.0627 240.101 64.8014 240.56 64.6734 241.136ZM74.9531 246.128C74.3131 246.128 73.7798 245.931 73.3531 245.536C72.9371 245.141 72.7238 244.592 72.7131 243.888V239.504H71.3371V238.16H72.7131V235.76H74.1851V238.16H76.1051V239.504H74.1851V243.408C74.1851 243.931 74.2865 244.288 74.4891 244.48C74.6918 244.661 74.9211 244.752 75.1771 244.752C75.2945 244.752 75.4065 244.741 75.5131 244.72C75.6305 244.688 75.7371 244.651 75.8331 244.608L76.2971 245.92C75.9131 246.059 75.4651 246.128 74.9531 246.128ZM88.029 238.16L83.117 249.456H81.597L83.421 245.504L80.189 238.16H81.789L84.125 243.792H84.157L86.429 238.16H88.029ZM88.2293 242.08C88.2293 240.875 88.6079 239.877 89.3653 239.088C90.1333 238.299 91.0986 237.904 92.2613 237.904C93.4239 237.904 94.3839 238.299 95.1413 239.088C95.9093 239.877 96.2933 240.875 96.2933 242.08C96.2933 243.296 95.9093 244.293 95.1413 245.072C94.3839 245.861 93.4239 246.256 92.2613 246.256C91.0986 246.256 90.1333 245.861 89.3653 245.072C88.6079 244.283 88.2293 243.285 88.2293 242.08ZM89.7013 242.08C89.7013 242.923 89.9466 243.605 90.4373 244.128C90.9279 244.651 91.5359 244.912 92.2613 244.912C92.9866 244.912 93.5946 244.651 94.0853 244.128C94.5759 243.605 94.8213 242.923 94.8213 242.08C94.8213 241.248 94.5759 240.571 94.0853 240.048C93.5839 239.515 92.9759 239.248 92.2613 239.248C91.5466 239.248 90.9386 239.515 90.4373 240.048C89.9466 240.571 89.7013 241.248 89.7013 242.08ZM104.432 246H103.024V244.912H102.96C102.736 245.296 102.39 245.616 101.92 245.872C101.462 246.128 100.982 246.256 100.48 246.256C99.5203 246.256 98.7789 245.984 98.2563 245.44C97.7443 244.885 97.4883 244.101 97.4883 243.088V238.16H98.9603V242.992C98.9923 244.272 99.6376 244.912 100.896 244.912C101.483 244.912 101.974 244.677 102.368 244.208C102.763 243.728 102.96 243.157 102.96 242.496V238.16H104.432V246ZM116.636 246H114.86L112.412 242.304L111.212 243.488V246H109.74V234.544H111.212V241.6L114.604 238.16H116.492V238.224L113.436 241.264L116.636 245.936V246ZM117.474 238.16H118.882V239.248H118.946C119.17 238.864 119.511 238.544 119.97 238.288C120.439 238.032 120.925 237.904 121.426 237.904C122.386 237.904 123.122 238.181 123.634 238.736C124.157 239.28 124.418 240.059 124.418 241.072V246H122.946V241.168C122.914 239.888 122.269 239.248 121.01 239.248C120.423 239.248 119.933 239.488 119.538 239.968C119.143 240.437 118.946 241.003 118.946 241.664V246H117.474V238.16ZM125.698 242.08C125.698 240.875 126.077 239.877 126.834 239.088C127.602 238.299 128.567 237.904 129.73 237.904C130.893 237.904 131.853 238.299 132.61 239.088C133.378 239.877 133.762 240.875 133.762 242.08C133.762 243.296 133.378 244.293 132.61 245.072C131.853 245.861 130.893 246.256 129.73 246.256C128.567 246.256 127.602 245.861 126.834 245.072C126.077 244.283 125.698 243.285 125.698 242.08ZM127.17 242.08C127.17 242.923 127.415 243.605 127.906 244.128C128.397 244.651 129.005 244.912 129.73 244.912C130.455 244.912 131.063 244.651 131.554 244.128C132.045 243.605 132.29 242.923 132.29 242.08C132.29 241.248 132.045 240.571 131.554 240.048C131.053 239.515 130.445 239.248 129.73 239.248C129.015 239.248 128.407 239.515 127.906 240.048C127.415 240.571 127.17 241.248 127.17 242.08ZM146.047 238.16L143.519 246H142.015L140.063 239.984L138.127 246H136.639L134.111 238.16H135.647L137.391 244.08H137.407L139.343 238.16H140.863L142.799 244.08H142.815L144.543 238.16H146.047ZM150.073 242.08C150.073 240.875 150.452 239.877 151.209 239.088C151.977 238.299 152.942 237.904 154.105 237.904C155.268 237.904 156.228 238.299 156.985 239.088C157.753 239.877 158.137 240.875 158.137 242.08C158.137 243.296 157.753 244.293 156.985 245.072C156.228 245.861 155.268 246.256 154.105 246.256C152.942 246.256 151.977 245.861 151.209 245.072C150.452 244.283 150.073 243.285 150.073 242.08ZM151.545 242.08C151.545 242.923 151.79 243.605 152.281 244.128C152.772 244.651 153.38 244.912 154.105 244.912C154.83 244.912 155.438 244.651 155.929 244.128C156.42 243.605 156.665 242.923 156.665 242.08C156.665 241.248 156.42 240.571 155.929 240.048C155.428 239.515 154.82 239.248 154.105 239.248C153.39 239.248 152.782 239.515 152.281 240.048C151.79 240.571 151.545 241.248 151.545 242.08ZM159.318 238.16H160.726V239.248H160.79C161.014 238.864 161.355 238.544 161.814 238.288C162.283 238.032 162.769 237.904 163.27 237.904C164.23 237.904 164.966 238.181 165.478 238.736C166.001 239.28 166.262 240.059 166.262 241.072V246H164.79V241.168C164.758 239.888 164.113 239.248 162.854 239.248C162.267 239.248 161.777 239.488 161.382 239.968C160.987 240.437 160.79 241.003 160.79 241.664V246H159.318V238.16ZM171.574 246.256C170.411 246.256 169.446 245.861 168.678 245.072C167.92 244.261 167.542 243.264 167.542 242.08C167.542 240.875 167.92 239.877 168.678 239.088C169.446 238.299 170.411 237.904 171.574 237.904C172.374 237.904 173.072 238.107 173.67 238.512C174.267 238.907 174.715 239.456 175.014 240.16L173.67 240.72C173.254 239.739 172.523 239.248 171.478 239.248C170.806 239.248 170.224 239.52 169.734 240.064C169.254 240.608 169.014 241.28 169.014 242.08C169.014 242.88 169.254 243.552 169.734 244.096C170.224 244.64 170.806 244.912 171.478 244.912C172.555 244.912 173.312 244.421 173.75 243.44L175.062 244C174.774 244.704 174.32 245.259 173.702 245.664C173.094 246.059 172.384 246.256 171.574 246.256ZM179.791 246.256C178.639 246.256 177.69 245.861 176.943 245.072C176.196 244.283 175.823 243.285 175.823 242.08C175.823 240.885 176.186 239.893 176.911 239.104C177.636 238.304 178.564 237.904 179.695 237.904C180.858 237.904 181.78 238.283 182.463 239.04C183.156 239.787 183.503 240.837 183.503 242.192L183.487 242.352H177.327C177.348 243.12 177.604 243.739 178.095 244.208C178.586 244.677 179.172 244.912 179.855 244.912C180.794 244.912 181.53 244.443 182.063 243.504L183.375 244.144C183.023 244.805 182.532 245.323 181.903 245.696C181.284 246.069 180.58 246.256 179.791 246.256ZM177.439 241.136H181.935C181.892 240.592 181.668 240.144 181.263 239.792C180.868 239.429 180.335 239.248 179.663 239.248C179.108 239.248 178.628 239.419 178.223 239.76C177.828 240.101 177.567 240.56 177.439 241.136ZM195.373 238.16L190.461 249.456H188.941L190.765 245.504L187.533 238.16H189.133L191.469 243.792H191.501L193.773 238.16H195.373ZM195.573 242.08C195.573 240.875 195.952 239.877 196.709 239.088C197.477 238.299 198.442 237.904 199.605 237.904C200.768 237.904 201.728 238.299 202.485 239.088C203.253 239.877 203.637 240.875 203.637 242.08C203.637 243.296 203.253 244.293 202.485 245.072C201.728 245.861 200.768 246.256 199.605 246.256C198.442 246.256 197.477 245.861 196.709 245.072C195.952 244.283 195.573 243.285 195.573 242.08ZM197.045 242.08C197.045 242.923 197.29 243.605 197.781 244.128C198.272 244.651 198.88 244.912 199.605 244.912C200.33 244.912 200.938 244.651 201.429 244.128C201.92 243.605 202.165 242.923 202.165 242.08C202.165 241.248 201.92 240.571 201.429 240.048C200.928 239.515 200.32 239.248 199.605 239.248C198.89 239.248 198.282 239.515 197.781 240.048C197.29 240.571 197.045 241.248 197.045 242.08ZM211.776 246H210.368V244.912H210.304C210.08 245.296 209.733 245.616 209.264 245.872C208.805 246.128 208.325 246.256 207.824 246.256C206.864 246.256 206.123 245.984 205.6 245.44C205.088 244.885 204.832 244.101 204.832 243.088V238.16H206.304V242.992C206.336 244.272 206.981 244.912 208.24 244.912C208.827 244.912 209.317 244.677 209.712 244.208C210.107 243.728 210.304 243.157 210.304 242.496V238.16H211.776V246ZM215.04 246H213.568V238.16H214.976V239.44H215.04C215.189 239.024 215.493 238.672 215.952 238.384C216.421 238.085 216.88 237.936 217.328 237.936C217.755 237.936 218.117 238 218.416 238.128L217.968 239.552C217.787 239.477 217.499 239.44 217.104 239.44C216.549 239.44 216.064 239.664 215.648 240.112C215.243 240.56 215.04 241.083 215.04 241.68V246ZM223.968 243.6C223.968 243.984 224.128 244.304 224.448 244.56C224.779 244.816 225.163 244.944 225.6 244.944C226.219 244.944 226.768 244.715 227.248 244.256C227.739 243.797 227.984 243.259 227.984 242.64C227.525 242.277 226.885 242.096 226.064 242.096C225.467 242.096 224.965 242.24 224.56 242.528C224.165 242.816 223.968 243.173 223.968 243.6ZM225.872 237.904C226.96 237.904 227.819 238.197 228.448 238.784C229.077 239.36 229.392 240.155 229.392 241.168V246H227.984V244.912H227.92C227.312 245.808 226.501 246.256 225.488 246.256C224.624 246.256 223.899 246 223.312 245.488C222.736 244.976 222.448 244.336 222.448 243.568C222.448 242.757 222.752 242.112 223.36 241.632C223.979 241.152 224.8 240.912 225.824 240.912C226.699 240.912 227.419 241.072 227.984 241.392V241.056C227.984 240.544 227.781 240.112 227.376 239.76C226.971 239.397 226.496 239.216 225.952 239.216C225.131 239.216 224.48 239.563 224 240.256L222.704 239.44C223.419 238.416 224.475 237.904 225.872 237.904ZM234.558 246.256C233.395 246.256 232.43 245.861 231.662 245.072C230.905 244.261 230.526 243.264 230.526 242.08C230.526 240.875 230.905 239.877 231.662 239.088C232.43 238.299 233.395 237.904 234.558 237.904C235.358 237.904 236.057 238.107 236.654 238.512C237.251 238.907 237.699 239.456 237.998 240.16L236.654 240.72C236.238 239.739 235.507 239.248 234.462 239.248C233.79 239.248 233.209 239.52 232.718 240.064C232.238 240.608 231.998 241.28 231.998 242.08C231.998 242.88 232.238 243.552 232.718 244.096C233.209 244.64 233.79 244.912 234.462 244.912C235.539 244.912 236.297 244.421 236.734 243.44L238.046 244C237.758 244.704 237.305 245.259 236.686 245.664C236.078 246.059 235.369 246.256 234.558 246.256ZM242.839 246.256C241.677 246.256 240.711 245.861 239.943 245.072C239.186 244.261 238.807 243.264 238.807 242.08C238.807 240.875 239.186 239.877 239.943 239.088C240.711 238.299 241.677 237.904 242.839 237.904C243.639 237.904 244.338 238.107 244.935 238.512C245.533 238.907 245.981 239.456 246.279 240.16L244.935 240.72C244.519 239.739 243.789 239.248 242.743 239.248C242.071 239.248 241.49 239.52 240.999 240.064C240.519 240.608 240.279 241.28 240.279 242.08C240.279 242.88 240.519 243.552 240.999 244.096C241.49 244.64 242.071 244.912 242.743 244.912C243.821 244.912 244.578 244.421 245.015 243.44L246.327 244C246.039 244.704 245.586 245.259 244.967 245.664C244.359 246.059 243.65 246.256 242.839 246.256ZM247.089 242.08C247.089 240.875 247.467 239.877 248.225 239.088C248.993 238.299 249.958 237.904 251.121 237.904C252.283 237.904 253.243 238.299 254.001 239.088C254.769 239.877 255.153 240.875 255.153 242.08C255.153 243.296 254.769 244.293 254.001 245.072C253.243 245.861 252.283 246.256 251.121 246.256C249.958 246.256 248.993 245.861 248.225 245.072C247.467 244.283 247.089 243.285 247.089 242.08ZM248.561 242.08C248.561 242.923 248.806 243.605 249.297 244.128C249.787 244.651 250.395 244.912 251.121 244.912C251.846 244.912 252.454 244.651 252.945 244.128C253.435 243.605 253.681 242.923 253.681 242.08C253.681 241.248 253.435 240.571 252.945 240.048C252.443 239.515 251.835 239.248 251.121 239.248C250.406 239.248 249.798 239.515 249.297 240.048C248.806 240.571 248.561 241.248 248.561 242.08ZM263.292 246H261.884V244.912H261.82C261.596 245.296 261.249 245.616 260.78 245.872C260.321 246.128 259.841 246.256 259.34 246.256C258.38 246.256 257.638 245.984 257.116 245.44C256.604 244.885 256.348 244.101 256.348 243.088V238.16H257.82V242.992C257.852 244.272 258.497 244.912 259.756 244.912C260.342 244.912 260.833 244.677 261.228 244.208C261.622 243.728 261.82 243.157 261.82 242.496V238.16H263.292V246ZM265.084 238.16H266.492V239.248H266.556C266.78 238.864 267.121 238.544 267.58 238.288C268.049 238.032 268.534 237.904 269.036 237.904C269.996 237.904 270.732 238.181 271.244 238.736C271.766 239.28 272.028 240.059 272.028 241.072V246H270.556V241.168C270.524 239.888 269.878 239.248 268.62 239.248C268.033 239.248 267.542 239.488 267.148 239.968C266.753 240.437 266.556 241.003 266.556 241.664V246H265.084V238.16ZM276.453 246.128C275.813 246.128 275.28 245.931 274.853 245.536C274.437 245.141 274.224 244.592 274.213 243.888V239.504H272.837V238.16H274.213V235.76H275.685V238.16H277.605V239.504H275.685V243.408C275.685 243.931 275.786 244.288 275.989 244.48C276.192 244.661 276.421 244.752 276.677 244.752C276.794 244.752 276.906 244.741 277.013 244.72C277.13 244.688 277.237 244.651 277.333 244.608L277.797 245.92C277.413 246.059 276.965 246.128 276.453 246.128ZM284.425 235.456C284.425 235.744 284.324 235.989 284.121 236.192C283.918 236.395 283.673 236.496 283.385 236.496C283.097 236.496 282.852 236.395 282.649 236.192C282.446 235.989 282.345 235.744 282.345 235.456C282.345 235.168 282.446 234.923 282.649 234.72C282.852 234.517 283.097 234.416 283.385 234.416C283.673 234.416 283.918 234.517 284.121 234.72C284.324 234.923 284.425 235.168 284.425 235.456ZM284.121 238.16V246H282.649V238.16H284.121ZM292.037 243.824C292.037 244.507 291.738 245.083 291.141 245.552C290.543 246.021 289.791 246.256 288.885 246.256C288.095 246.256 287.402 246.053 286.805 245.648C286.207 245.232 285.781 244.688 285.525 244.016L286.837 243.456C287.029 243.925 287.306 244.293 287.669 244.56C288.042 244.816 288.447 244.944 288.885 244.944C289.354 244.944 289.743 244.843 290.053 244.64C290.373 244.437 290.533 244.197 290.533 243.92C290.533 243.419 290.149 243.051 289.381 242.816L288.037 242.48C286.511 242.096 285.749 241.36 285.749 240.272C285.749 239.557 286.037 238.987 286.613 238.56C287.199 238.123 287.946 237.904 288.853 237.904C289.546 237.904 290.17 238.069 290.725 238.4C291.29 238.731 291.685 239.173 291.909 239.728L290.597 240.272C290.447 239.941 290.202 239.685 289.861 239.504C289.53 239.312 289.157 239.216 288.741 239.216C288.357 239.216 288.01 239.312 287.701 239.504C287.402 239.696 287.253 239.931 287.253 240.208C287.253 240.656 287.674 240.976 288.517 241.168L289.701 241.472C291.258 241.856 292.037 242.64 292.037 243.824ZM300.137 234.416C300.67 234.416 301.108 234.507 301.449 234.688L301.049 235.984C300.793 235.856 300.505 235.792 300.185 235.792C299.822 235.792 299.524 235.92 299.289 236.176C299.065 236.421 298.953 236.752 298.953 237.168V238.16H301.001V239.504H298.953V246H297.481V239.504H296.009V238.16H297.481V237.024C297.481 236.245 297.726 235.616 298.217 235.136C298.718 234.656 299.358 234.416 300.137 234.416ZM309.135 246H307.727V244.912H307.663C307.439 245.296 307.093 245.616 306.623 245.872C306.165 246.128 305.685 246.256 305.183 246.256C304.223 246.256 303.482 245.984 302.959 245.44C302.447 244.885 302.191 244.101 302.191 243.088V238.16H303.663V242.992C303.695 244.272 304.341 244.912 305.599 244.912C306.186 244.912 306.677 244.677 307.071 244.208C307.466 243.728 307.663 243.157 307.663 242.496V238.16H309.135V246ZM312.399 234.544V246H310.927V234.544H312.399ZM315.665 234.544V246H314.193V234.544H315.665ZM324.467 238.16L319.555 249.456H318.035L319.859 245.504L316.627 238.16H318.227L320.562 243.792H320.595L322.867 238.16H324.467ZM332.751 246H331.279L328.111 238.16H329.711L332.015 244.24H332.047L334.383 238.16H335.951L332.751 246ZM340.197 246.256C339.045 246.256 338.096 245.861 337.349 245.072C336.603 244.283 336.229 243.285 336.229 242.08C336.229 240.885 336.592 239.893 337.317 239.104C338.043 238.304 338.971 237.904 340.101 237.904C341.264 237.904 342.187 238.283 342.869 239.04C343.563 239.787 343.909 240.837 343.909 242.192L343.893 242.352H337.733C337.755 243.12 338.011 243.739 338.501 244.208C338.992 244.677 339.579 244.912 340.261 244.912C341.2 244.912 341.936 244.443 342.469 243.504L343.781 244.144C343.429 244.805 342.939 245.323 342.309 245.696C341.691 246.069 340.987 246.256 340.197 246.256ZM337.845 241.136H342.341C342.299 240.592 342.075 240.144 341.669 239.792C341.275 239.429 340.741 239.248 340.069 239.248C339.515 239.248 339.035 239.419 338.629 239.76C338.235 240.101 337.973 240.56 337.845 241.136ZM346.727 246H345.255V238.16H346.663V239.44H346.727C346.877 239.024 347.181 238.672 347.639 238.384C348.109 238.085 348.567 237.936 349.015 237.936C349.442 237.936 349.805 238 350.103 238.128L349.655 239.552C349.474 239.477 349.186 239.44 348.791 239.44C348.237 239.44 347.751 239.664 347.335 240.112C346.93 240.56 346.727 241.083 346.727 241.68V246ZM352.972 235.456C352.972 235.744 352.871 235.989 352.668 236.192C352.465 236.395 352.22 236.496 351.932 236.496C351.644 236.496 351.399 236.395 351.196 236.192C350.993 235.989 350.892 235.744 350.892 235.456C350.892 235.168 350.993 234.923 351.196 234.72C351.399 234.517 351.644 234.416 351.932 234.416C352.22 234.416 352.465 234.517 352.668 234.72C352.871 234.923 352.972 235.168 352.972 235.456ZM352.668 238.16V246H351.196V238.16H352.668ZM362.312 235.456C362.312 235.744 362.21 235.989 362.008 236.192C361.805 236.395 361.56 236.496 361.272 236.496C360.984 236.496 360.738 236.395 360.536 236.192C360.333 235.989 360.232 235.744 360.232 235.456C360.232 235.168 360.333 234.923 360.536 234.72C360.738 234.517 360.984 234.416 361.272 234.416C361.56 234.416 361.805 234.517 362.008 234.72C362.21 234.923 362.312 235.168 362.312 235.456ZM357.016 239.504V246H355.544V239.504H354.072V238.16H355.544V237.024C355.544 236.64 355.608 236.288 355.736 235.968C355.874 235.648 356.061 235.376 356.296 235.152C356.53 234.917 356.808 234.736 357.128 234.608C357.458 234.48 357.816 234.416 358.2 234.416C358.733 234.416 359.17 234.507 359.512 234.688L359.112 235.984C358.856 235.856 358.568 235.792 358.248 235.792C357.885 235.792 357.586 235.92 357.352 236.176C357.128 236.421 357.016 236.752 357.016 237.168V238.16H362.008V246H360.536V239.504H357.016ZM367.369 246.256C366.217 246.256 365.268 245.861 364.521 245.072C363.774 244.283 363.401 243.285 363.401 242.08C363.401 240.885 363.764 239.893 364.489 239.104C365.214 238.304 366.142 237.904 367.273 237.904C368.436 237.904 369.358 238.283 370.041 239.04C370.734 239.787 371.081 240.837 371.081 242.192L371.065 242.352H364.905C364.926 243.12 365.182 243.739 365.673 244.208C366.164 244.677 366.75 244.912 367.433 244.912C368.372 244.912 369.108 244.443 369.641 243.504L370.953 244.144C370.601 244.805 370.11 245.323 369.481 245.696C368.862 246.069 368.158 246.256 367.369 246.256ZM365.017 241.136H369.513C369.47 240.592 369.246 240.144 368.841 239.792C368.446 239.429 367.913 239.248 367.241 239.248C366.686 239.248 366.206 239.419 365.801 239.76C365.406 240.101 365.145 240.56 365.017 241.136ZM376.025 244.912C376.751 244.912 377.343 244.651 377.801 244.128C378.281 243.605 378.521 242.923 378.521 242.08C378.521 241.259 378.281 240.581 377.801 240.048C377.332 239.515 376.74 239.248 376.025 239.248C375.321 239.248 374.729 239.515 374.249 240.048C373.769 240.581 373.529 241.259 373.529 242.08C373.529 242.912 373.769 243.589 374.249 244.112C374.729 244.645 375.321 244.912 376.025 244.912ZM375.785 246.256C374.761 246.256 373.881 245.851 373.145 245.04C372.42 244.219 372.057 243.232 372.057 242.08C372.057 240.928 372.42 239.941 373.145 239.12C373.881 238.309 374.761 237.904 375.785 237.904C376.361 237.904 376.884 238.027 377.353 238.272C377.833 238.517 378.201 238.843 378.457 239.248H378.521L378.457 238.16V234.544H379.929V246H378.521V244.912H378.457C378.201 245.317 377.833 245.643 377.353 245.888C376.884 246.133 376.361 246.256 375.785 246.256ZM383.772 245.008C383.772 245.307 383.665 245.563 383.452 245.776C383.249 245.989 382.993 246.096 382.684 246.096C382.385 246.096 382.129 245.989 381.916 245.776C381.703 245.563 381.596 245.307 381.596 245.008C381.596 244.699 381.703 244.443 381.916 244.24C382.129 244.027 382.385 243.92 382.684 243.92C382.993 243.92 383.249 244.027 383.452 244.24C383.665 244.443 383.772 244.699 383.772 245.008ZM392.478 235.952V246H391.006V235.952H387.806V234.544H395.678V235.952H392.478ZM396.959 234.544H398.431V238.16L398.367 239.248H398.431C398.655 238.864 398.996 238.544 399.455 238.288C399.924 238.032 400.409 237.904 400.911 237.904C401.871 237.904 402.607 238.181 403.119 238.736C403.641 239.28 403.903 240.059 403.903 241.072V246H402.431V241.36C402.431 239.952 401.807 239.248 400.559 239.248C399.961 239.248 399.455 239.499 399.039 240C398.633 240.491 398.431 241.067 398.431 241.728V246H396.959V234.544ZM407.534 235.456C407.534 235.744 407.433 235.989 407.23 236.192C407.028 236.395 406.782 236.496 406.494 236.496C406.206 236.496 405.961 236.395 405.758 236.192C405.556 235.989 405.454 235.744 405.454 235.456C405.454 235.168 405.556 234.923 405.758 234.72C405.961 234.517 406.206 234.416 406.494 234.416C406.782 234.416 407.028 234.517 407.23 234.72C407.433 234.923 407.534 235.168 407.534 235.456ZM407.23 238.16V246H405.758V238.16H407.23ZM415.146 243.824C415.146 244.507 414.847 245.083 414.25 245.552C413.653 246.021 412.901 246.256 411.994 246.256C411.205 246.256 410.511 246.053 409.914 245.648C409.317 245.232 408.89 244.688 408.634 244.016L409.946 243.456C410.138 243.925 410.415 244.293 410.778 244.56C411.151 244.816 411.557 244.944 411.994 244.944C412.463 244.944 412.853 244.843 413.162 244.64C413.482 244.437 413.642 244.197 413.642 243.92C413.642 243.419 413.258 243.051 412.49 242.816L411.146 242.48C409.621 242.096 408.858 241.36 408.858 240.272C408.858 239.557 409.146 238.987 409.722 238.56C410.309 238.123 411.055 237.904 411.962 237.904C412.655 237.904 413.279 238.069 413.834 238.4C414.399 238.731 414.794 239.173 415.018 239.728L413.706 240.272C413.557 239.941 413.311 239.685 412.97 239.504C412.639 239.312 412.266 239.216 411.85 239.216C411.466 239.216 411.119 239.312 410.81 239.504C410.511 239.696 410.362 239.931 410.362 240.208C410.362 240.656 410.783 240.976 411.626 241.168L412.81 241.472C414.367 241.856 415.146 242.64 415.146 243.824ZM426.823 246H425.415V244.912H425.351C425.127 245.296 424.78 245.616 424.311 245.872C423.852 246.128 423.372 246.256 422.871 246.256C421.911 246.256 421.17 245.984 420.647 245.44C420.135 244.885 419.879 244.101 419.879 243.088V238.16H421.351V242.992C421.383 244.272 422.028 244.912 423.287 244.912C423.874 244.912 424.364 244.677 424.759 244.208C425.154 243.728 425.351 243.157 425.351 242.496V238.16H426.823V246ZM434.537 243.824C434.537 244.507 434.238 245.083 433.641 245.552C433.043 246.021 432.291 246.256 431.385 246.256C430.595 246.256 429.902 246.053 429.305 245.648C428.707 245.232 428.281 244.688 428.025 244.016L429.337 243.456C429.529 243.925 429.806 244.293 430.169 244.56C430.542 244.816 430.947 244.944 431.385 244.944C431.854 244.944 432.243 244.843 432.553 244.64C432.873 244.437 433.033 244.197 433.033 243.92C433.033 243.419 432.649 243.051 431.881 242.816L430.537 242.48C429.011 242.096 428.249 241.36 428.249 240.272C428.249 239.557 428.537 238.987 429.113 238.56C429.699 238.123 430.446 237.904 431.353 237.904C432.046 237.904 432.67 238.069 433.225 238.4C433.79 238.731 434.185 239.173 434.409 239.728L433.097 240.272C432.947 239.941 432.702 239.685 432.361 239.504C432.03 239.312 431.657 239.216 431.241 239.216C430.857 239.216 430.51 239.312 430.201 239.504C429.902 239.696 429.753 239.931 429.753 240.208C429.753 240.656 430.174 240.976 431.017 241.168L432.201 241.472C433.758 241.856 434.537 242.64 434.537 243.824ZM442.698 246H441.29V244.912H441.226C441.002 245.296 440.655 245.616 440.186 245.872C439.727 246.128 439.247 246.256 438.746 246.256C437.786 246.256 437.045 245.984 436.522 245.44C436.01 244.885 435.754 244.101 435.754 243.088V238.16H437.226V242.992C437.258 244.272 437.903 244.912 439.162 244.912C439.749 244.912 440.239 244.677 440.634 244.208C441.029 243.728 441.226 243.157 441.226 242.496V238.16H442.698V246ZM445.484 243.6C445.484 243.984 445.644 244.304 445.964 244.56C446.294 244.816 446.678 244.944 447.116 244.944C447.734 244.944 448.284 244.715 448.764 244.256C449.254 243.797 449.5 243.259 449.5 242.64C449.041 242.277 448.401 242.096 447.58 242.096C446.982 242.096 446.481 242.24 446.076 242.528C445.681 242.816 445.484 243.173 445.484 243.6ZM447.388 237.904C448.476 237.904 449.334 238.197 449.964 238.784C450.593 239.36 450.908 240.155 450.908 241.168V246H449.5V244.912H449.436C448.828 245.808 448.017 246.256 447.004 246.256C446.14 246.256 445.414 246 444.828 245.488C444.252 244.976 443.964 244.336 443.964 243.568C443.964 242.757 444.268 242.112 444.876 241.632C445.494 241.152 446.316 240.912 447.34 240.912C448.214 240.912 448.934 241.072 449.5 241.392V241.056C449.5 240.544 449.297 240.112 448.892 239.76C448.486 239.397 448.012 239.216 447.468 239.216C446.646 239.216 445.996 239.563 445.516 240.256L444.22 239.44C444.934 238.416 445.99 237.904 447.388 237.904ZM454.04 234.544V246H452.568V234.544H454.04ZM457.306 234.544V246H455.834V234.544H457.306ZM466.107 238.16L461.195 249.456H459.675L461.499 245.504L458.267 238.16H459.867L462.203 243.792H462.235L464.507 238.16H466.107ZM154.305 274.128C153.665 274.128 153.131 273.931 152.705 273.536C152.289 273.141 152.075 272.592 152.065 271.888V267.504H150.689V266.16H152.065V263.76H153.537V266.16H155.457V267.504H153.537V271.408C153.537 271.931 153.638 272.288 153.841 272.48C154.043 272.661 154.273 272.752 154.529 272.752C154.646 272.752 154.758 272.741 154.865 272.72C154.982 272.688 155.089 272.651 155.185 272.608L155.649 273.92C155.265 274.059 154.817 274.128 154.305 274.128ZM157.773 271.6C157.773 271.984 157.933 272.304 158.253 272.56C158.583 272.816 158.967 272.944 159.405 272.944C160.023 272.944 160.573 272.715 161.053 272.256C161.543 271.797 161.789 271.259 161.789 270.64C161.33 270.277 160.69 270.096 159.869 270.096C159.271 270.096 158.77 270.24 158.365 270.528C157.97 270.816 157.773 271.173 157.773 271.6ZM159.677 265.904C160.765 265.904 161.623 266.197 162.253 266.784C162.882 267.36 163.197 268.155 163.197 269.168V274H161.789V272.912H161.725C161.117 273.808 160.306 274.256 159.293 274.256C158.429 274.256 157.703 274 157.117 273.488C156.541 272.976 156.253 272.336 156.253 271.568C156.253 270.757 156.557 270.112 157.165 269.632C157.783 269.152 158.605 268.912 159.629 268.912C160.503 268.912 161.223 269.072 161.789 269.392V269.056C161.789 268.544 161.586 268.112 161.181 267.76C160.775 267.397 160.301 267.216 159.757 267.216C158.935 267.216 158.285 267.563 157.805 268.256L156.509 267.44C157.223 266.416 158.279 265.904 159.677 265.904ZM171.753 274H169.977L167.529 270.304L166.329 271.488V274H164.857V262.544H166.329V269.6L169.721 266.16H171.609V266.224L168.553 269.264L171.753 273.936V274ZM175.877 274.256C174.725 274.256 173.776 273.861 173.029 273.072C172.282 272.283 171.909 271.285 171.909 270.08C171.909 268.885 172.272 267.893 172.997 267.104C173.722 266.304 174.65 265.904 175.781 265.904C176.944 265.904 177.866 266.283 178.549 267.04C179.242 267.787 179.589 268.837 179.589 270.192L179.573 270.352H173.413C173.434 271.12 173.69 271.739 174.181 272.208C174.672 272.677 175.258 272.912 175.941 272.912C176.88 272.912 177.616 272.443 178.149 271.504L179.461 272.144C179.109 272.805 178.618 273.323 177.989 273.696C177.37 274.069 176.666 274.256 175.877 274.256ZM173.525 269.136H178.021C177.978 268.592 177.754 268.144 177.349 267.792C176.954 267.429 176.421 267.248 175.749 267.248C175.194 267.248 174.714 267.419 174.309 267.76C173.914 268.101 173.653 268.56 173.525 269.136ZM187.013 271.824C187.013 272.507 186.715 273.083 186.117 273.552C185.52 274.021 184.768 274.256 183.861 274.256C183.072 274.256 182.379 274.053 181.781 273.648C181.184 273.232 180.757 272.688 180.501 272.016L181.813 271.456C182.005 271.925 182.283 272.293 182.645 272.56C183.019 272.816 183.424 272.944 183.861 272.944C184.331 272.944 184.72 272.843 185.029 272.64C185.349 272.437 185.509 272.197 185.509 271.92C185.509 271.419 185.125 271.051 184.357 270.816L183.013 270.48C181.488 270.096 180.725 269.36 180.725 268.272C180.725 267.557 181.013 266.987 181.589 266.56C182.176 266.123 182.923 265.904 183.829 265.904C184.523 265.904 185.147 266.069 185.701 266.4C186.267 266.731 186.661 267.173 186.885 267.728L185.573 268.272C185.424 267.941 185.179 267.685 184.837 267.504C184.507 267.312 184.133 267.216 183.717 267.216C183.333 267.216 182.987 267.312 182.677 267.504C182.379 267.696 182.229 267.931 182.229 268.208C182.229 268.656 182.651 268.976 183.493 269.168L184.677 269.472C186.235 269.856 187.013 270.64 187.013 271.824ZM191.362 270.08C191.362 268.875 191.741 267.877 192.498 267.088C193.266 266.299 194.231 265.904 195.394 265.904C196.557 265.904 197.517 266.299 198.274 267.088C199.042 267.877 199.426 268.875 199.426 270.08C199.426 271.296 199.042 272.293 198.274 273.072C197.517 273.861 196.557 274.256 195.394 274.256C194.231 274.256 193.266 273.861 192.498 273.072C191.741 272.283 191.362 271.285 191.362 270.08ZM192.834 270.08C192.834 270.923 193.079 271.605 193.57 272.128C194.061 272.651 194.669 272.912 195.394 272.912C196.119 272.912 196.727 272.651 197.218 272.128C197.709 271.605 197.954 270.923 197.954 270.08C197.954 269.248 197.709 268.571 197.218 268.048C196.717 267.515 196.109 267.248 195.394 267.248C194.679 267.248 194.071 267.515 193.57 268.048C193.079 268.571 192.834 269.248 192.834 270.08ZM200.607 266.16H202.015V267.248H202.079C202.303 266.864 202.644 266.544 203.103 266.288C203.572 266.032 204.058 265.904 204.559 265.904C205.519 265.904 206.255 266.181 206.767 266.736C207.29 267.28 207.551 268.059 207.551 269.072V274H206.079V269.168C206.047 267.888 205.402 267.248 204.143 267.248C203.556 267.248 203.066 267.488 202.671 267.968C202.276 268.437 202.079 269.003 202.079 269.664V274H200.607V266.16ZM210.751 262.544V274H209.279V262.544H210.751ZM219.552 266.16L214.64 277.456H213.12L214.944 273.504L211.712 266.16H213.312L215.648 271.792H215.68L217.952 266.16H219.552ZM225.101 271.6C225.101 271.984 225.261 272.304 225.581 272.56C225.911 272.816 226.295 272.944 226.733 272.944C227.351 272.944 227.901 272.715 228.381 272.256C228.871 271.797 229.117 271.259 229.117 270.64C228.658 270.277 228.018 270.096 227.197 270.096C226.599 270.096 226.098 270.24 225.693 270.528C225.298 270.816 225.101 271.173 225.101 271.6ZM227.005 265.904C228.093 265.904 228.951 266.197 229.581 266.784C230.21 267.36 230.525 268.155 230.525 269.168V274H229.117V272.912H229.053C228.445 273.808 227.634 274.256 226.621 274.256C225.757 274.256 225.031 274 224.445 273.488C223.869 272.976 223.581 272.336 223.581 271.568C223.581 270.757 223.885 270.112 224.493 269.632C225.111 269.152 225.933 268.912 226.957 268.912C227.831 268.912 228.551 269.072 229.117 269.392V269.056C229.117 268.544 228.914 268.112 228.509 267.76C228.103 267.397 227.629 267.216 227.085 267.216C226.263 267.216 225.613 267.563 225.133 268.256L223.837 267.44C224.551 266.416 225.607 265.904 227.005 265.904ZM239.004 262.416C239.538 262.416 239.975 262.507 240.316 262.688L239.916 263.984C239.66 263.856 239.372 263.792 239.052 263.792C238.69 263.792 238.391 263.92 238.156 264.176C237.932 264.421 237.82 264.752 237.82 265.168V266.16H239.868V267.504H237.82V274H236.348V267.504H234.876V266.16H236.348V265.024C236.348 264.245 236.594 263.616 237.084 263.136C237.586 262.656 238.226 262.416 239.004 262.416ZM244.314 274.256C243.162 274.256 242.213 273.861 241.466 273.072C240.72 272.283 240.346 271.285 240.346 270.08C240.346 268.885 240.709 267.893 241.434 267.104C242.16 266.304 243.088 265.904 244.218 265.904C245.381 265.904 246.304 266.283 246.986 267.04C247.68 267.787 248.026 268.837 248.026 270.192L248.01 270.352H241.85C241.872 271.12 242.128 271.739 242.618 272.208C243.109 272.677 243.696 272.912 244.378 272.912C245.317 272.912 246.053 272.443 246.586 271.504L247.898 272.144C247.546 272.805 247.056 273.323 246.426 273.696C245.808 274.069 245.104 274.256 244.314 274.256ZM241.962 269.136H246.458C246.416 268.592 246.192 268.144 245.786 267.792C245.392 267.429 244.858 267.248 244.186 267.248C243.632 267.248 243.152 267.419 242.746 267.76C242.352 268.101 242.09 268.56 241.962 269.136ZM260.32 266.16L257.792 274H256.288L254.336 267.984L252.4 274H250.912L248.384 266.16H249.92L251.664 272.08H251.68L253.616 266.16H255.136L257.072 272.08H257.088L258.816 266.16H260.32ZM266.266 274H264.794V266.16H266.202V267.248H266.266C266.49 266.864 266.832 266.544 267.29 266.288C267.76 266.032 268.224 265.904 268.682 265.904C269.258 265.904 269.765 266.037 270.202 266.304C270.64 266.571 270.96 266.939 271.162 267.408C271.813 266.405 272.714 265.904 273.866 265.904C274.773 265.904 275.472 266.181 275.962 266.736C276.453 267.291 276.698 268.08 276.698 269.104V274H275.226V269.328C275.226 268.592 275.093 268.064 274.826 267.744C274.56 267.413 274.112 267.248 273.482 267.248C272.917 267.248 272.442 267.488 272.058 267.968C271.674 268.448 271.482 269.013 271.482 269.664V274H270.01V269.328C270.01 268.592 269.877 268.064 269.61 267.744C269.344 267.413 268.896 267.248 268.266 267.248C267.701 267.248 267.226 267.488 266.842 267.968C266.458 268.448 266.266 269.013 266.266 269.664V274ZM280.323 263.456C280.323 263.744 280.222 263.989 280.019 264.192C279.817 264.395 279.571 264.496 279.283 264.496C278.995 264.496 278.75 264.395 278.547 264.192C278.345 263.989 278.243 263.744 278.243 263.456C278.243 263.168 278.345 262.923 278.547 262.72C278.75 262.517 278.995 262.416 279.283 262.416C279.571 262.416 279.817 262.517 280.019 262.72C280.222 262.923 280.323 263.168 280.323 263.456ZM280.019 266.16V274H278.547V266.16H280.019ZM281.935 266.16H283.343V267.248H283.407C283.631 266.864 283.972 266.544 284.431 266.288C284.9 266.032 285.386 265.904 285.887 265.904C286.847 265.904 287.583 266.181 288.095 266.736C288.618 267.28 288.879 268.059 288.879 269.072V274H287.407V269.168C287.375 267.888 286.73 267.248 285.471 267.248C284.884 267.248 284.394 267.488 283.999 267.968C283.604 268.437 283.407 269.003 283.407 269.664V274H281.935V266.16ZM297.487 274H296.079V272.912H296.015C295.791 273.296 295.444 273.616 294.975 273.872C294.516 274.128 294.036 274.256 293.535 274.256C292.575 274.256 291.834 273.984 291.311 273.44C290.799 272.885 290.543 272.101 290.543 271.088V266.16H292.015V270.992C292.047 272.272 292.692 272.912 293.951 272.912C294.538 272.912 295.028 272.677 295.423 272.208C295.818 271.728 296.015 271.157 296.015 270.496V266.16H297.487V274ZM302.461 274.128C301.821 274.128 301.288 273.931 300.861 273.536C300.445 273.141 300.232 272.592 300.221 271.888V267.504H298.845V266.16H300.221V263.76H301.693V266.16H303.613V267.504H301.693V271.408C301.693 271.931 301.794 272.288 301.997 272.48C302.2 272.661 302.429 272.752 302.685 272.752C302.802 272.752 302.914 272.741 303.021 272.72C303.138 272.688 303.245 272.651 303.341 272.608L303.805 273.92C303.421 274.059 302.973 274.128 302.461 274.128ZM308.455 274.256C307.303 274.256 306.354 273.861 305.607 273.072C304.86 272.283 304.487 271.285 304.487 270.08C304.487 268.885 304.85 267.893 305.575 267.104C306.3 266.304 307.228 265.904 308.359 265.904C309.522 265.904 310.444 266.283 311.127 267.04C311.82 267.787 312.167 268.837 312.167 270.192L312.151 270.352H305.991C306.012 271.12 306.268 271.739 306.759 272.208C307.25 272.677 307.836 272.912 308.519 272.912C309.458 272.912 310.194 272.443 310.727 271.504L312.039 272.144C311.687 272.805 311.196 273.323 310.567 273.696C309.948 274.069 309.244 274.256 308.455 274.256ZM306.103 269.136H310.599C310.556 268.592 310.332 268.144 309.927 267.792C309.532 267.429 308.999 267.248 308.327 267.248C307.772 267.248 307.292 267.419 306.887 267.76C306.492 268.101 306.231 268.56 306.103 269.136ZM319.591 271.824C319.591 272.507 319.293 273.083 318.695 273.552C318.098 274.021 317.346 274.256 316.439 274.256C315.65 274.256 314.957 274.053 314.359 273.648C313.762 273.232 313.335 272.688 313.079 272.016L314.391 271.456C314.583 271.925 314.861 272.293 315.223 272.56C315.597 272.816 316.002 272.944 316.439 272.944C316.909 272.944 317.298 272.843 317.607 272.64C317.927 272.437 318.087 272.197 318.087 271.92C318.087 271.419 317.703 271.051 316.935 270.816L315.591 270.48C314.066 270.096 313.303 269.36 313.303 268.272C313.303 267.557 313.591 266.987 314.167 266.56C314.754 266.123 315.501 265.904 316.407 265.904C317.101 265.904 317.725 266.069 318.279 266.4C318.845 266.731 319.239 267.173 319.463 267.728L318.151 268.272C318.002 267.941 317.757 267.685 317.415 267.504C317.085 267.312 316.711 267.216 316.295 267.216C315.911 267.216 315.565 267.312 315.255 267.504C314.957 267.696 314.807 267.931 314.807 268.208C314.807 268.656 315.229 268.976 316.071 269.168L317.255 269.472C318.813 269.856 319.591 270.64 319.591 271.824ZM322.921 273.008C322.921 273.307 322.814 273.563 322.601 273.776C322.398 273.989 322.142 274.096 321.833 274.096C321.534 274.096 321.278 273.989 321.065 273.776C320.851 273.563 320.745 273.307 320.745 273.008C320.745 272.699 320.851 272.443 321.065 272.24C321.278 272.027 321.534 271.92 321.833 271.92C322.142 271.92 322.398 272.027 322.601 272.24C322.814 272.443 322.921 272.699 322.921 273.008Z" fill="#1D1E2C"/>
<path d="M286.125 137.25C301.658 137.25 314.25 124.658 314.25 109.125C314.25 93.592 301.658 81 286.125 81C270.592 81 258 93.592 258 109.125C258 124.658 270.592 137.25 286.125 137.25Z" fill="#89128A"/>
<path opacity="0.25" d="M286.125 81C281.977 80.9795 277.876 81.8766 274.116 83.6271C270.356 85.3775 267.029 87.938 264.375 91.125C269.707 86.157 276.758 83.4524 284.045 83.581C291.331 83.7095 298.283 86.6612 303.436 91.8142C308.589 96.9672 311.541 103.919 311.669 111.205C311.798 118.492 309.093 125.543 304.125 130.875C308.621 127.189 311.864 122.201 313.409 116.596C314.953 110.991 314.723 105.045 312.749 99.5769C310.776 94.1084 307.156 89.3859 302.388 86.0592C297.62 82.7325 291.939 80.965 286.125 81Z" fill="white"/>
<path d="M297.375 103.5L282.375 118.5L274.875 111" stroke="white" stroke-width="3.75" stroke-miterlimit="10" stroke-linecap="round" stroke-linejoin="round"/>
<path d="M286.125 137.25C301.658 137.25 314.25 124.658 314.25 109.125C314.25 93.592 301.658 81 286.125 81C270.592 81 258 93.592 258 109.125C258 124.658 270.592 137.25 286.125 137.25Z" stroke="white" stroke-width="3.75" stroke-miterlimit="10" stroke-linecap="round" stroke-linejoin="round"/>
<defs>
<clipPath id="clip0_142_15565">
<rect width="123" height="128" fill="white" transform="translate(175.5)"/>
</clipPath>
</defs>
</svg>
