<svg width="28" height="28" viewBox="0 0 28 28" fill="none" xmlns="http://www.w3.org/2000/svg">
<rect width="28" height="28" rx="14" fill="#F8F1F8"/>
<path d="M15.8623 18.3373C17.1602 18.3373 18.2109 17.2863 18.2109 15.9888C18.2109 14.6913 17.1602 13.6403 15.8623 13.6403C14.5645 13.6403 13.5137 14.6913 13.5137 15.9888C13.5137 17.2863 14.5645 18.3373 15.8623 18.3373Z" fill="#89128A"/>
<path fill-rule="evenodd" clip-rule="evenodd" d="M20.1787 9.94122H19.1494V8.52838C19.1494 7.6925 18.4629 7.00635 17.627 7.00635H13.5479C12.7119 7.00635 12.0254 7.6925 12.0254 8.52838V9.94122H7.79004C6.80176 9.94122 6 10.7428 6 11.7284V19.3635C6 20.3491 6.80176 21.1537 7.79004 21.1537H20.1816C21.167 21.1537 21.9717 20.3522 21.9717 19.3635V11.7284C21.9688 10.7428 21.167 9.94122 20.1787 9.94122ZM7.88086 12.7015C7.88086 13.2192 8.30176 13.6403 8.81934 13.6403C9.33691 13.6403 9.75879 13.2192 9.75879 12.7015C9.75879 12.1838 9.33691 11.7627 8.81934 11.7627C8.30176 11.7627 7.88086 12.1838 7.88086 12.7015ZM15.8623 20.215C13.5293 20.215 11.6357 18.3218 11.6357 15.9888C11.6357 13.6559 13.5293 11.7627 15.8623 11.7627C18.1943 11.7627 20.0879 13.6559 20.0879 15.9888C20.0879 18.3218 18.1982 20.215 15.8623 20.215Z" fill="#89128A"/>
<path d="M11.6357 8.58447C11.6357 8.09796 11.2363 7.69873 10.75 7.69873H8.36719C7.88086 7.69873 7.48145 8.09796 7.48145 8.58447V9.28937H11.6357V8.58447Z" fill="#89128A"/>
</svg>
