<svg width="327" height="152" viewBox="0 0 327 152" fill="none" xmlns="http://www.w3.org/2000/svg">
<g opacity="0.218">
<path opacity="0.54" d="M412.744 162.547C418.865 150.242 410.719 134.571 398.595 128.112C386.471 121.653 371.891 122.185 358.268 123.975C344.644 125.764 330.826 128.622 317.29 126.265C289.28 121.379 270.092 96.0396 254.523 72.2535C238.955 48.4674 221.695 22.4205 194.394 14.4636C172.988 8.2288 150.151 14.6952 127.858 14.4689C88.9431 14.077 51.015 -8.61008 32.2748 -42.7228" stroke="#BCC5D5" stroke-width="0.866727" stroke-miterlimit="10"/>
<path opacity="0.54" d="M411.886 166.156C418.01 153.869 409.983 138.214 397.954 131.64C396.88 131.05 395.781 130.526 394.669 130.036C383.325 125.139 370.173 125.574 357.787 127.056C355.399 127.341 352.997 127.659 350.599 127.98C339.339 129.481 328 130.974 316.87 128.973C313.319 128.335 309.837 127.36 306.471 126.061C284.021 117.443 267.813 95.5388 254.43 74.746C253.46 73.2342 252.481 71.716 251.495 70.1916C236.902 47.643 220.477 24.5189 195.532 16.2262C188.407 13.8847 180.966 12.6428 173.466 12.5432C164.479 12.3687 155.299 13.5873 146.273 14.6848C140.107 15.4347 133.988 16.1236 127.873 16.3081C124.998 16.3945 122.122 16.3568 119.245 16.1948C100.684 14.9732 82.7634 8.92602 67.2573 -1.34826C51.6374 -11.566 38.8058 -25.5101 29.9192 -41.9238" stroke="#BCC5D5" stroke-width="0.866727" stroke-miterlimit="10"/>
<path opacity="0.54" d="M411.028 169.765C417.16 157.49 409.254 141.857 397.32 135.168C396.251 134.57 395.164 134.026 394.059 133.535C382.793 128.534 369.681 128.813 357.306 130.146C354.913 130.407 352.526 130.697 350.129 130.99C338.884 132.367 327.556 133.754 316.449 131.697C312.904 131.04 309.428 130.05 306.067 128.741C283.645 120.035 267.533 98.1229 254.329 77.2532C253.371 75.7379 252.406 74.2114 251.436 72.6847C237.067 50.0612 220.972 27.1076 196.649 18.0121C189.54 15.2816 182.039 13.7107 174.432 13.3597C165.215 12.9774 155.723 14.4026 146.543 15.8143C140.278 16.776 134.086 17.7303 127.874 18.1601C124.95 18.3593 122.025 18.4366 119.087 18.3689C100.363 17.9434 81.4708 11.5556 65.5438 0.997666C49.5555 -9.64213 36.4936 -24.125 27.5556 -41.1233" stroke="#BCC5D5" stroke-width="0.866727" stroke-miterlimit="10"/>
<path opacity="0.54" d="M410.176 173.37C416.313 161.116 408.531 145.497 396.685 138.701C395.628 138.094 394.548 137.54 393.446 137.036C382.249 131.926 369.185 132.047 356.821 133.236C354.438 133.468 352.043 133.73 349.653 133.995C338.423 135.246 327.103 136.528 316.022 134.414C312.485 133.74 309.018 132.738 305.667 131.421C283.28 122.631 267.257 100.708 254.23 79.759L251.381 75.1751C237.236 52.4704 221.459 29.668 197.775 19.7881C190.69 16.6693 183.129 14.7734 175.411 14.1807C165.96 13.5843 156.159 15.2237 146.827 16.9542C140.455 18.1298 134.195 19.3551 127.888 20.0217C124.922 20.3388 121.943 20.523 118.942 20.5497C99.8107 20.7375 80.1799 14.2955 63.845 3.35701C47.4897 -7.7107 34.1978 -22.7335 25.2046 -40.3151" stroke="#BCC5D5" stroke-width="0.866727" stroke-miterlimit="10"/>
<path opacity="0.54" d="M409.319 176.986C415.458 164.743 407.797 149.147 396.052 142.236C394.999 141.616 393.931 141.057 392.84 140.541C381.72 135.324 368.698 135.29 356.345 136.335C353.963 136.535 351.576 136.774 349.182 137.015C337.967 138.141 326.651 139.312 315.593 137.15C312.063 136.459 308.604 135.443 305.261 134.114C282.903 125.24 266.98 103.299 254.124 82.279C253.189 80.7515 252.254 79.2168 251.318 77.6747C237.397 54.8958 221.94 32.2008 198.893 21.5783C191.836 18.3222 184.559 15.6807 176.383 15.0116C166.691 14.2034 156.589 16.0537 147.104 18.097C140.632 19.4919 134.299 20.9764 127.889 21.8883C124.88 22.3175 121.844 22.6082 118.777 22.7388C99.2415 23.5446 78.8688 17.0377 62.1271 5.72456C45.4025 -5.76885 31.8792 -21.3307 22.8311 -39.495" stroke="#BCC5D5" stroke-width="0.866727" stroke-miterlimit="10"/>
<path opacity="0.54" d="M408.462 180.596C414.609 168.37 407.066 152.785 395.417 145.764C394.376 145.135 393.312 144.56 392.225 144.04C381.18 138.706 368.201 138.527 355.859 139.422C353.478 139.596 351.092 139.81 348.707 140.023C337.507 141.027 326.197 142.091 315.168 139.87C311.643 139.162 308.191 138.132 304.854 136.794C282.525 127.83 266.697 105.884 254.018 84.7855C253.094 83.2502 252.177 81.7147 251.252 80.1675C237.558 57.3131 222.413 34.695 200.008 23.3578C192.963 19.7952 185.718 16.6776 177.35 15.8251C167.426 14.8087 157.013 16.8672 147.368 19.2249C140.788 20.8336 134.383 22.5841 127.884 23.7378C124.816 24.2871 121.722 24.6774 118.613 24.9073C98.671 26.3264 77.5601 19.7681 60.4099 8.07156C43.2319 -3.64314 29.7105 -20.0926 20.4592 -38.6957" stroke="#BCC5D5" stroke-width="0.866727" stroke-miterlimit="10"/>
<path opacity="0.54" d="M407.603 184.201C413.754 171.987 406.337 156.423 394.778 149.291C393.747 148.654 392.688 148.067 391.612 147.536C380.637 142.102 367.704 141.756 355.381 142.515C353.001 142.661 350.622 142.842 348.238 143.03C337.057 143.907 325.755 144.862 314.748 142.587C311.23 141.859 307.786 140.814 304.456 139.465C282.156 130.419 266.425 108.454 253.923 87.2836C253.012 85.7462 252.104 84.2019 251.199 82.6505C237.727 59.7215 222.897 37.1467 201.136 25.1336C194.111 21.2581 186.891 17.6594 178.327 16.6375C168.17 15.4089 157.449 17.6784 147.652 20.356C140.97 22.1772 134.493 24.1928 127.898 25.5916C124.782 26.2601 121.632 26.7581 118.463 27.0833C98.1142 29.1146 76.261 22.4946 58.7054 10.4251C41.1196 -1.66403 27.4617 -18.7367 18.1052 -37.8897" stroke="#BCC5D5" stroke-width="0.866727" stroke-miterlimit="10"/>
<path opacity="0.54" d="M406.751 187.811C412.911 175.616 405.608 160.067 394.149 152.825C393.123 152.18 392.075 151.585 391.004 151.04C380.104 145.491 367.213 144.999 354.901 145.604C352.53 145.724 350.146 145.88 347.77 146.041C336.595 146.798 325.307 147.64 314.328 145.313C310.818 144.57 307.382 143.511 304.062 142.148C281.793 133.021 266.152 111.045 253.831 89.7947C252.937 88.2479 252.044 86.6988 251.15 85.1473C237.903 62.1431 223.397 39.5789 202.27 26.9158C195.258 22.715 188.07 18.6637 179.313 17.4587C168.92 16.0152 157.893 18.4997 147.941 21.4894C141.149 23.5258 134.608 25.8048 127.907 27.4486C124.745 28.2331 121.542 28.8383 118.312 29.2614C97.5585 31.912 74.9654 25.2318 57.0019 12.7818C39.0081 0.312078 25.2147 -17.3739 15.7481 -37.0808" stroke="#BCC5D5" stroke-width="0.866727" stroke-miterlimit="10"/>
<path opacity="0.54" d="M405.894 191.424C412.057 179.248 404.876 163.714 393.51 156.358C392.495 155.698 391.451 155.096 390.391 154.542C379.562 148.883 366.726 148.233 354.417 148.695C352.046 148.783 349.67 148.911 347.295 149.045C336.135 149.676 324.853 150.415 313.902 148.032C310.398 147.273 306.969 146.203 303.655 144.833C281.42 135.617 265.868 113.627 253.726 92.3047C252.846 90.7554 251.966 89.199 251.086 87.6354C238.07 64.5558 223.885 41.9808 203.384 28.6962C196.388 24.1627 189.222 19.6564 180.282 18.2795C169.657 16.6309 158.319 19.3196 148.215 22.6231C141.324 24.8718 134.709 27.4221 127.912 29.3119C124.706 30.2118 121.45 30.924 118.16 31.4447C97.0043 34.7066 73.6722 27.9661 55.2952 15.1437C36.8956 2.2992 22.9624 -16.0115 13.3869 -36.2655" stroke="#BCC5D5" stroke-width="0.866727" stroke-miterlimit="10"/>
<path opacity="0.54" d="M405.036 195.034C411.208 182.868 404.145 167.359 392.875 159.887C391.867 159.22 390.834 158.605 389.778 158.041C379.028 152.278 366.236 151.47 353.938 151.788C351.568 151.849 349.193 151.951 346.82 152.06C335.675 152.566 324.405 153.199 313.476 150.76C309.979 149.983 306.558 148.898 303.253 147.516C281.046 138.214 265.59 116.216 253.622 94.8156C252.753 93.2639 251.888 91.698 251.024 90.1332C238.232 66.9784 224.381 44.3605 204.51 30.4854C197.533 25.6136 190.392 20.656 181.258 19.1032C170.4 17.2383 158.752 20.1373 148.488 23.7601C141.49 26.2294 134.808 29.0377 127.915 31.1707C124.664 32.1896 121.353 33.0092 118.002 33.6249C96.4371 37.5098 72.3677 30.7065 53.5836 17.5025C34.7765 4.27938 20.7022 -14.6466 11.0207 -35.4544" stroke="#BCC5D5" stroke-width="0.866727" stroke-miterlimit="10"/>
<path opacity="0.54" d="M404.177 198.644C410.354 186.497 403.414 170.996 392.241 163.422C391.242 162.746 390.218 162.121 389.169 161.546C378.491 155.671 365.739 154.708 353.454 154.886C351.093 154.921 348.718 154.996 346.347 155.079C335.218 155.466 323.952 155.982 313.052 153.492C309.562 152.699 306.148 151.599 302.852 150.205C280.675 140.82 265.313 118.811 253.523 97.3301C252.666 95.7697 251.814 94.2038 250.968 92.6324C238.4 69.4038 224.891 46.7138 205.633 32.2698C198.675 27.0515 191.56 21.6574 182.231 19.929C171.138 17.8501 159.183 20.9621 148.767 24.9047C141.661 27.5879 134.913 30.6609 127.924 33.038C124.626 34.1728 121.261 35.0997 117.848 35.8132C95.8766 40.3082 71.0666 33.4469 51.8746 19.8624C32.6595 6.26382 18.4508 -13.2797 8.65728 -34.6412" stroke="#BCC5D5" stroke-width="0.866727" stroke-miterlimit="10"/>
<path opacity="0.54" d="M403.324 202.251C409.511 190.115 402.692 174.636 391.607 166.948C390.624 166.262 389.608 165.626 388.561 165.041C377.954 159.057 365.25 157.942 352.981 157.97C350.621 157.978 348.249 158.022 345.879 158.077C334.765 158.338 323.505 158.751 312.627 156.206C309.143 155.395 305.736 154.281 302.446 152.877C280.299 143.402 265.034 121.381 253.419 99.8294C252.572 98.2673 251.739 96.6884 250.904 95.1117C238.563 71.8107 225.41 49.0308 206.752 34.0416C199.816 28.4711 192.723 22.6405 183.204 20.7343C171.879 18.4482 159.614 21.7675 149.044 26.023C141.837 28.9158 135.017 32.2569 127.931 34.8781C124.589 36.1319 121.168 37.1662 117.69 37.9745C95.3123 43.0819 69.7616 36.1616 50.1637 22.2022C30.5427 8.22786 16.1963 -11.9347 6.29183 -33.849" stroke="#BCC5D5" stroke-width="0.866727" stroke-miterlimit="10"/>
<path opacity="0.54" d="M402.468 205.865C408.66 193.747 401.957 178.286 390.973 170.481C389.989 169.786 388.98 169.139 387.946 168.539C377.413 162.444 364.75 161.172 352.494 161.057C350.134 161.033 347.771 161.055 345.407 161.084C334.308 161.22 323.06 161.525 312.204 158.925C308.727 158.096 305.328 156.968 302.046 155.552C279.927 145.994 264.759 123.956 253.321 102.331C252.487 100.759 251.664 99.1813 250.85 97.5977C238.731 74.2117 225.951 51.3264 207.878 35.8132C200.965 29.8833 193.889 23.6304 184.182 21.5472C172.617 19.048 160.049 22.5794 149.32 27.15C142.005 30.2595 135.113 33.8697 127.931 36.729C124.544 38.0979 121.07 39.2395 117.531 40.1465C94.7487 45.8729 68.4542 38.8932 48.4508 24.5498C28.4228 10.1947 13.9398 -10.5809 3.93109 -33.0453" stroke="#BCC5D5" stroke-width="0.866727" stroke-miterlimit="10"/>
<path opacity="0.54" d="M401.611 209.475C407.807 197.368 401.227 181.929 390.332 174.012C389.359 173.306 388.359 172.648 387.332 172.037C376.869 165.835 364.255 164.411 352.005 164.152C349.646 164.102 347.289 164.09 344.928 164.1C333.839 164.112 322.6 164.306 311.773 161.654C308.303 160.809 304.912 159.667 301.638 158.239C279.554 148.597 264.475 126.547 253.217 104.843C252.402 103.267 251.592 101.679 250.791 100.095C238.896 76.6352 226.499 53.6225 208.995 37.6085C202.117 31.3109 195.05 24.6359 185.147 22.3771C173.353 19.6631 160.474 23.4092 149.592 28.2988C142.175 31.6279 135.212 35.502 127.933 38.5995C124.501 40.0809 120.974 41.3296 117.374 42.337C94.1848 48.6758 67.1535 41.6363 46.7409 26.9217C26.3069 12.1909 11.6884 -9.20316 1.56766 -32.2262" stroke="#BCC5D5" stroke-width="0.866727" stroke-miterlimit="10"/>
<path opacity="0.54" d="M400.759 213.082C406.959 200.995 400.504 185.569 389.703 177.544C388.743 176.828 387.744 176.16 386.729 175.539C376.344 169.229 363.769 167.645 351.536 167.24C349.181 167.165 346.822 167.127 344.463 167.104C333.388 166.996 322.157 167.079 311.357 164.371C307.894 163.508 304.51 162.353 301.24 160.921C279.185 151.196 264.201 129.135 253.115 107.354C252.311 105.77 251.513 104.18 250.728 102.593C239.059 79.0623 227.054 55.9009 210.113 39.3866C203.266 32.7146 196.211 25.6314 186.123 23.1952C174.096 20.2739 160.912 24.2252 149.871 29.429C142.348 32.9726 135.316 37.1058 127.936 40.4535C124.461 42.0544 120.879 43.4114 117.216 44.5148C93.6182 51.4661 65.8492 44.3732 45.0287 29.278C24.1858 14.1668 9.4305 -7.84127 -0.801335 -31.4181" stroke="#BCC5D5" stroke-width="0.866727" stroke-miterlimit="10"/>
<path opacity="0.54" d="M399.9 216.689C406.109 204.612 399.767 189.211 389.067 181.07C388.109 180.342 387.124 179.663 386.113 179.035C375.797 172.615 363.271 170.879 351.054 170.324C348.704 170.221 346.35 170.157 343.992 170.107C332.933 169.874 321.714 169.853 310.935 167.088C307.48 166.208 304.104 165.039 300.845 163.593C278.818 153.779 263.929 131.706 253.022 109.853C252.231 108.267 251.45 106.673 250.677 105.071C239.232 81.4602 227.637 58.1438 211.244 41.1571C204.442 34.1094 197.388 26.6128 187.104 24.0002C174.843 20.8658 161.353 25.0299 150.156 30.5469C142.531 34.3023 135.428 38.7014 127.952 42.294C124.433 44.0093 120.797 45.4729 117.07 46.6739C93.0684 54.2442 64.5564 47.0856 43.3291 31.6158C22.0784 16.1301 7.18738 -6.49733 -3.15598 -30.6249" stroke="#BCC5D5" stroke-width="0.866727" stroke-miterlimit="10"/>
<path opacity="0.54" d="M399.044 220.303C405.255 208.246 399.041 192.853 388.43 184.604C387.484 183.867 386.508 183.179 385.503 182.539C375.263 176.008 362.78 174.121 350.574 173.422C348.225 173.287 345.872 173.195 343.522 173.12C332.477 172.762 321.262 172.629 310.513 169.814C307.065 168.916 303.698 167.733 300.447 166.276C278.449 156.378 263.655 134.294 252.927 112.361C252.15 110.767 251.382 109.168 250.624 107.563C239.403 83.879 228.235 60.3972 212.372 42.9346C205.62 35.5028 198.555 27.6086 188.079 24.8185C175.583 21.4702 161.785 25.8475 150.429 31.6786C142.696 35.6487 135.528 40.3176 127.955 44.1474C124.394 45.9801 120.704 47.5509 116.915 48.8472C92.5059 57.0299 63.2553 49.818 41.6199 33.9667C19.9622 18.1003 4.93561 -5.14041 -5.51983 -29.8216" stroke="#BCC5D5" stroke-width="0.866727" stroke-miterlimit="10"/>
<path opacity="0.54" d="M398.186 223.914C404.401 211.869 398.312 196.497 387.796 188.14C386.855 187.396 385.894 186.694 384.889 186.046C374.725 179.409 362.282 177.362 350.088 176.517C347.74 176.352 345.395 176.239 343.047 176.136C332.017 175.652 320.808 175.415 310.089 172.546C306.647 171.632 303.286 170.435 300.042 168.965C278.075 158.987 263.374 136.889 252.824 114.877C252.056 113.281 251.307 111.673 250.565 110.066C239.568 86.3059 228.843 62.6496 213.495 44.7294C206.798 36.9067 199.722 28.6186 189.062 25.6538C176.334 22.0982 162.227 26.6826 150.718 32.8327C142.883 37.0153 135.642 41.9504 127.968 46.0254C124.361 47.9734 120.616 49.6521 116.762 51.0477C91.9473 59.8495 61.9546 52.5718 39.9134 36.3456C17.85 20.1044 2.68546 -3.7563 -7.875 -28.9914" stroke="#BCC5D5" stroke-width="0.866727" stroke-miterlimit="10"/>
<path opacity="0.54" d="M397.333 227.522C403.558 215.494 397.582 200.14 387.161 191.668C386.231 190.909 385.27 190.201 384.281 189.542C374.187 182.795 361.793 180.596 349.61 179.608C347.27 179.419 344.919 179.271 342.579 179.147C331.563 178.534 320.368 178.196 309.662 175.269C306.228 174.336 302.875 173.124 299.638 171.645C277.704 161.575 263.092 139.468 252.721 117.384C251.965 115.779 251.226 114.17 250.503 112.558C239.732 88.7246 229.457 64.879 214.615 46.5098C207.979 38.295 200.886 29.6113 190.03 26.469C177.068 22.6994 162.649 27.4883 150.99 33.961C143.049 38.3643 135.734 43.5574 127.973 47.8819C124.324 49.9449 120.525 51.7307 116.609 53.2241C91.3814 62.6395 60.656 55.3073 38.2057 38.6947C15.7355 22.0788 0.434483 -2.40004 -10.2371 -28.189" stroke="#BCC5D5" stroke-width="0.866727" stroke-miterlimit="10"/>
<path opacity="0.54" d="M396.476 231.129C402.703 219.114 396.853 203.781 386.529 195.194C385.609 194.426 384.653 193.711 383.678 193.037C373.661 186.179 361.308 183.824 349.136 182.695C346.798 182.48 344.455 182.304 342.108 182.149C331.11 181.421 319.918 180.963 309.239 177.978C305.814 177.028 302.47 175.804 299.241 174.319C277.337 164.165 262.826 142.049 252.623 119.885C251.885 118.276 251.154 116.659 250.439 115.039C239.892 91.1306 230.084 67.1 215.733 48.2814C209.171 39.6721 202.048 30.5942 190.995 27.2817C177.799 23.298 163.073 28.3018 151.259 35.0857C143.21 39.7028 135.83 45.1607 127.971 49.7285C124.279 51.9088 120.425 53.8022 116.442 55.392C90.8083 65.4216 59.3428 58.0283 36.4861 41.0431C13.6079 24.0467 -1.83386 -1.04043 -12.6079 -27.3859" stroke="#BCC5D5" stroke-width="0.866727" stroke-miterlimit="10"/>
<path opacity="0.54" d="M395.619 234.745C401.857 222.748 396.126 207.43 385.891 198.729C384.976 197.953 384.031 197.225 383.057 196.544C373.11 189.583 360.809 187.067 348.649 185.786C346.311 185.538 343.971 185.344 341.632 185.161C330.648 184.307 319.462 183.743 308.812 180.699C305.393 179.732 302.057 178.493 298.836 176.994C276.961 166.757 262.544 144.62 252.52 122.385C251.794 120.768 251.08 119.148 250.377 117.526C240.06 93.5359 230.727 69.3236 216.853 50.0595C210.364 41.0558 203.208 31.5905 191.975 28.0933C178.545 23.9026 163.511 29.1144 151.538 36.2173C143.387 41.0471 135.937 46.7707 127.975 51.5838C124.241 53.8769 120.333 55.8764 116.289 57.5641C90.2501 68.2118 58.043 60.7597 34.779 43.3917C11.494 26.0206 -4.08653 0.303592 -14.9731 -26.5873" stroke="#BCC5D5" stroke-width="0.866727" stroke-miterlimit="10"/>
<path opacity="0.54" d="M394.762 238.352C401 226.368 395.388 211.066 385.253 202.262C384.349 201.478 383.407 200.734 382.445 200.048C372.573 192.975 360.31 190.304 348.167 188.885C345.831 188.615 343.493 188.384 341.16 188.178C330.189 187.199 319.018 186.529 308.39 183.433C304.978 182.448 301.648 181.195 298.433 179.687C276.587 169.363 262.262 147.221 252.418 124.909C251.704 123.289 251.003 121.661 250.32 120.035C240.228 95.9689 231.386 71.5617 217.977 51.8542C211.574 42.4465 204.376 32.5954 192.95 28.9284C179.286 24.5236 163.941 29.9509 151.814 37.3659C143.555 42.4095 136.039 48.404 127.981 53.4542C124.204 55.8636 120.244 57.9716 116.135 59.7587C89.6898 71.0188 56.7488 63.5063 33.071 45.7641C9.39312 28.0218 -6.33246 1.67397 -17.335 -25.7698" stroke="#BCC5D5" stroke-width="0.866727" stroke-miterlimit="10"/>
<path opacity="0.54" d="M393.909 241.961C400.157 229.991 394.666 214.708 384.625 205.79C383.728 204.992 382.8 204.243 381.843 203.542C372.048 196.359 359.826 193.539 347.694 191.967C345.365 191.666 343.026 191.414 340.697 191.176C329.736 190.073 318.575 189.298 307.975 186.145C304.569 185.145 301.248 183.878 298.041 182.356C276.227 171.946 261.995 149.787 252.331 127.401C251.628 125.77 250.943 124.14 250.275 122.511C240.407 98.3695 232.08 73.7681 219.114 53.6226C212.803 43.817 205.558 33.5809 193.935 29.7314C180.035 25.1128 164.387 30.7546 152.107 38.4804C143.744 43.7441 136.157 49.9961 127.998 55.2925C124.178 57.819 120.162 60.0351 115.987 61.9193C89.1379 73.7921 55.4551 66.2259 31.3693 48.1031C7.28357 29.9803 -8.5832 3.02737 -19.6859 -24.9713" stroke="#BCC5D5" stroke-width="0.866727" stroke-miterlimit="10"/>
<path opacity="0.54" d="M393.051 245.569C399.302 233.614 393.937 218.35 383.984 209.318C383.095 208.513 382.174 207.753 381.222 207.041C371.496 199.747 359.322 196.771 347.205 195.06C344.878 194.733 342.55 194.443 340.223 194.19C329.27 192.969 318.112 192.077 307.545 188.873C304.147 187.854 300.834 186.572 297.635 185.04C275.854 174.548 261.713 152.378 252.227 129.912C251.538 128.282 250.864 126.641 250.213 125.003C240.568 100.784 232.753 75.9991 220.229 55.4006C214.019 45.188 206.716 34.5704 194.906 30.5496C180.764 25.7257 164.817 31.5736 152.376 39.6129C143.909 45.0896 136.253 51.6061 127.998 57.1465C124.134 59.7851 120.064 62.1082 115.828 64.0935C88.5712 76.5868 54.1491 68.9533 29.6567 50.4568C5.16436 31.9604 -10.8383 4.38706 -22.0529 -24.1642" stroke="#BCC5D5" stroke-width="0.866727" stroke-miterlimit="10"/>
<path opacity="0.54" d="M392.195 249.185C398.452 237.247 393.203 222.001 383.348 212.86C382.471 212.045 381.556 211.266 380.613 210.552C370.967 203.149 358.834 200.019 346.732 198.157C344.407 197.805 342.079 197.487 339.749 197.203C328.82 195.855 317.674 194.858 307.125 191.598C303.733 190.564 300.426 189.268 297.233 187.724C275.481 177.141 261.435 154.968 252.129 132.423C251.45 130.784 250.794 129.139 250.157 127.499C240.738 103.208 233.453 78.2283 221.353 57.1892C215.25 46.5769 207.878 35.5714 195.88 31.3726C181.509 26.3337 165.243 32.3925 152.655 40.7548C144.088 46.449 136.358 53.2268 128.007 59.0121C124.101 61.7672 119.975 64.1981 115.672 66.2804C88.0085 79.3851 52.848 71.6992 27.9475 52.8213C3.04698 33.9433 -13.0909 5.75868 -24.4168 -23.3474" stroke="#BCC5D5" stroke-width="0.866727" stroke-miterlimit="10"/>
<path opacity="0.54" d="M392.203 260.399C398.467 248.474 393.341 233.249 383.577 223.994C382.708 223.164 381.802 222.388 380.862 221.648C371.282 214.141 359.197 210.85 347.106 208.845C344.787 208.459 342.46 208.125 340.134 207.811C329.22 206.337 318.076 205.237 307.553 201.92C304.171 200.867 300.873 199.56 297.687 198.01C275.964 187.345 262.012 165.153 252.88 142.536C252.214 140.894 251.571 139.248 250.95 137.598C241.752 113.233 235.01 88.0666 223.327 66.5728C217.34 55.55 209.897 44.171 197.705 39.7976C183.099 34.5457 166.53 40.8168 153.785 49.4926C145.109 55.3966 137.308 62.4504 128.861 68.4728C124.913 71.3417 120.734 73.8801 116.368 76.0621C88.2981 89.7851 52.3957 82.0344 27.0822 62.7758C1.7687 43.5172 -14.4999 14.7184 -25.9375 -14.9394" stroke="#BCC5D5" stroke-width="0.866727" stroke-miterlimit="10"/>
<path opacity="0.54" d="M390.484 256.399C396.757 244.491 391.746 229.277 382.082 219.912C381.22 219.075 380.323 218.284 379.392 217.538C369.888 209.917 357.846 206.477 345.765 204.328C343.448 203.915 341.12 203.55 338.804 203.215C327.906 201.617 316.77 200.404 306.27 197.039C302.895 195.966 299.606 194.644 296.428 193.082C274.736 182.339 260.877 160.131 251.923 137.436C251.274 135.785 250.646 134.135 250.034 132.477C241.064 108.036 234.865 82.6893 223.593 60.7442C217.723 49.3175 210.208 37.5535 197.827 33.0033C182.987 27.5443 166.109 34.0215 153.21 43.0104C144.432 49.1272 136.559 56.4439 128.017 62.7122C124.027 65.6953 119.795 68.3409 115.365 70.6215C86.8886 84.9568 50.2453 77.146 24.5252 57.5138C-1.19489 37.8816 -17.6004 8.46262 -29.1489 -21.748" stroke="#BCC5D5" stroke-width="0.866727" stroke-miterlimit="10"/>
<path opacity="0.54" d="M389.625 260.008C395.902 248.112 391.014 232.92 381.447 223.44C380.59 222.596 379.702 221.791 378.784 221.035C369.35 213.312 357.357 209.713 345.286 207.413C342.97 206.974 340.651 206.582 338.335 206.215C327.45 204.49 316.328 203.173 305.852 199.756C302.483 198.668 299.199 197.332 296.027 195.759C274.363 184.928 260.606 162.705 251.824 139.936C251.188 138.282 250.572 136.624 249.978 134.962C241.233 110.447 235.593 84.9231 224.718 62.5152C218.977 50.6813 211.371 38.543 198.802 33.8146C183.73 28.1414 166.542 34.8258 153.485 44.1417C144.6 50.4792 136.66 58.0558 128.017 64.5672C123.984 67.6661 119.696 70.4191 115.2 72.7968C86.3176 87.7452 48.9347 79.8814 22.8025 59.8684C-3.3296 39.8554 -19.8668 9.82236 -31.5264 -20.942" stroke="#BCC5D5" stroke-width="0.866727" stroke-miterlimit="10"/>
<path opacity="0.54" d="M388.768 263.621C395.054 251.746 390.285 236.567 380.804 226.981C379.959 226.129 379.078 225.317 378.161 224.546C368.803 216.712 356.85 212.956 344.792 210.522C342.477 210.058 340.158 209.633 337.852 209.244C326.977 207.4 315.864 205.972 305.416 202.493C302.055 201.385 298.78 200.034 295.615 198.45C273.987 187.528 260.319 165.301 251.716 142.456C251.091 140.793 250.489 139.13 249.912 137.467C241.391 112.877 236.32 87.1809 225.835 64.3115C220.224 52.0755 212.533 39.5502 199.767 34.6455C184.462 28.758 166.965 35.6568 153.759 45.2849C144.767 51.836 136.76 59.6776 128.019 66.4323C123.944 69.645 119.603 72.5059 115.044 74.984C85.7558 90.5517 47.6318 82.6218 21.0968 62.2334C-5.43818 41.845 -22.1158 11.1945 -33.8806 -20.1248" stroke="#BCC5D5" stroke-width="0.866727" stroke-miterlimit="10"/>
<path opacity="0.54" d="M387.917 267.231C394.205 255.365 389.556 240.211 380.18 230.509C379.344 229.642 378.466 228.82 377.564 228.043C368.277 220.098 356.371 216.194 344.331 213.603C342.024 213.105 339.706 212.659 337.394 212.24C326.535 210.272 315.427 208.732 305.008 205.203C301.654 204.081 298.387 202.717 295.232 201.119C273.629 190.115 260.056 167.87 251.633 144.952C251.021 143.287 250.433 141.62 249.871 139.95C241.575 115.285 237.078 89.4217 226.975 66.08C221.507 53.4425 213.717 40.536 200.765 35.454C185.225 29.3597 167.42 36.4654 154.056 46.4062C144.96 53.1703 136.884 61.2775 128.048 68.2822C123.931 71.608 119.537 74.576 114.915 77.1539C85.2188 93.3341 46.3563 85.3508 19.4135 64.5829C-7.52921 43.815 -24.3428 12.5493 -36.2185 -19.3229" stroke="#BCC5D5" stroke-width="0.866727" stroke-miterlimit="10"/>
<path opacity="0.54" d="M387.058 270.84C393.35 258.993 388.827 243.854 379.539 234.039C378.709 233.163 377.846 232.325 376.942 231.544C367.73 223.488 355.867 219.425 343.837 216.699C341.531 216.173 339.216 215.704 336.911 215.256C326.068 213.163 314.973 211.517 304.574 207.928C301.227 206.79 297.967 205.413 294.817 203.809C273.246 192.72 259.767 170.466 251.516 147.468C250.915 145.794 250.346 144.122 249.795 142.444C241.722 117.698 237.804 91.6801 228.08 67.8664C222.759 54.8267 214.866 41.5329 201.719 36.275C185.945 29.9666 167.833 37.2853 154.315 47.5402C145.113 54.5187 136.97 62.896 128.032 70.1399C123.873 73.5827 119.423 76.6588 114.734 79.3338C84.6338 96.1308 45.0284 88.0829 17.6798 66.9402C-9.66873 45.7974 -26.6259 13.9138 -38.6098 -18.5127" stroke="#BCC5D5" stroke-width="0.866727" stroke-miterlimit="10"/>
<path opacity="0.54" d="M386.201 274.447C393.063 261.557 387.228 244.768 376.335 235.037C365.443 225.307 350.75 221.188 336.444 218.26C322.139 215.332 307.377 213.207 294.417 206.488C271.314 194.503 257.587 169.751 249.746 144.935C241.904 120.12 238.568 93.9412 229.213 69.6497C224.039 56.2087 216.036 42.539 202.703 37.0997C186.695 30.5771 168.274 38.1099 154.598 48.6849C140.923 59.2598 129.599 72.951 114.588 81.5213C84.0816 98.9327 43.737 90.8285 15.9806 69.3052C-11.7759 47.7819 -28.8687 15.2851 -40.9605 -17.6949" stroke="#BCC5D5" stroke-width="0.866727" stroke-miterlimit="10"/>
</g>
</svg>
