<svg width="151" height="52" viewBox="0 0 151 52" fill="none" xmlns="http://www.w3.org/2000/svg">
<rect y="0.5" width="151" height="51" rx="6" fill="#EFF2F7"/>
<path d="M32.6911 20.044H35.2031L39.8111 27.724H39.9391L39.8111 25.516V20.044H41.9551V31.5H39.6831L34.8191 23.388H34.6911L34.8191 25.596V31.5H32.6911V20.044ZM47.7096 23.404C48.3176 23.404 48.8722 23.5107 49.3736 23.724C49.8856 23.9267 50.3229 24.2147 50.6856 24.588C51.0589 24.9507 51.3469 25.388 51.5496 25.9C51.7629 26.412 51.8696 26.972 51.8696 27.58C51.8696 28.188 51.7629 28.748 51.5496 29.26C51.3469 29.772 51.0589 30.2147 50.6856 30.588C50.3229 30.9507 49.8856 31.2387 49.3736 31.452C48.8722 31.6547 48.3176 31.756 47.7096 31.756C47.1016 31.756 46.5416 31.6547 46.0296 31.452C45.5282 31.2387 45.0909 30.9507 44.7176 30.588C44.3549 30.2147 44.0669 29.772 43.8536 29.26C43.6509 28.748 43.5496 28.188 43.5496 27.58C43.5496 26.972 43.6509 26.412 43.8536 25.9C44.0669 25.388 44.3549 24.9507 44.7176 24.588C45.0909 24.2147 45.5282 23.9267 46.0296 23.724C46.5416 23.5107 47.1016 23.404 47.7096 23.404ZM47.7096 29.82C47.9762 29.82 48.2322 29.772 48.4776 29.676C48.7336 29.5693 48.9576 29.42 49.1496 29.228C49.3416 29.036 49.4909 28.8013 49.5976 28.524C49.7149 28.2467 49.7736 27.932 49.7736 27.58C49.7736 27.228 49.7149 26.9133 49.5976 26.636C49.4909 26.3587 49.3416 26.124 49.1496 25.932C48.9576 25.74 48.7336 25.596 48.4776 25.5C48.2322 25.3933 47.9762 25.34 47.7096 25.34C47.4322 25.34 47.1709 25.3933 46.9256 25.5C46.6802 25.596 46.4616 25.74 46.2696 25.932C46.0776 26.124 45.9229 26.3587 45.8056 26.636C45.6989 26.9133 45.6456 27.228 45.6456 27.58C45.6456 27.932 45.6989 28.2467 45.8056 28.524C45.9229 28.8013 46.0776 29.036 46.2696 29.228C46.4616 29.42 46.6802 29.5693 46.9256 29.676C47.1709 29.772 47.4322 29.82 47.7096 29.82ZM53.8459 25.452H52.4699V23.66H53.8459V21.26H55.9419V23.66H57.8619V25.452H55.9419V28.492C55.9419 28.6733 55.9579 28.844 55.9899 29.004C56.0326 29.1533 56.1073 29.2813 56.2139 29.388C56.3633 29.5587 56.5766 29.644 56.8539 29.644C57.0353 29.644 57.1793 29.628 57.2859 29.596C57.3926 29.5533 57.4939 29.5 57.5899 29.436L58.1819 31.276C57.9366 31.3933 57.6699 31.4787 57.3819 31.532C57.1046 31.596 56.7953 31.628 56.4539 31.628C56.0593 31.628 55.7019 31.5693 55.3819 31.452C55.0726 31.324 54.8113 31.1533 54.5979 30.94C54.0966 30.46 53.8459 29.7773 53.8459 28.892V25.452ZM61.5748 20.044H63.9108L66.2788 26.94L66.6948 28.412H66.8228L67.2708 26.94L69.7348 20.044H72.0708L67.8948 31.5H65.6228L61.5748 20.044ZM79.7809 29.612C79.4183 30.252 78.9276 30.7693 78.3089 31.164C77.7009 31.5587 76.9543 31.756 76.0689 31.756C75.4716 31.756 74.9169 31.6547 74.4049 31.452C73.9036 31.2387 73.4663 30.9453 73.0929 30.572C72.7196 30.1987 72.4263 29.7613 72.2129 29.26C72.0103 28.748 71.9089 28.188 71.9089 27.58C71.9089 27.0147 72.0103 26.4813 72.2129 25.98C72.4156 25.468 72.6983 25.0253 73.0609 24.652C73.4236 24.268 73.8503 23.964 74.3409 23.74C74.8423 23.516 75.3916 23.404 75.9889 23.404C76.6183 23.404 77.1783 23.5107 77.6689 23.724C78.1596 23.9267 78.5703 24.2147 78.9009 24.588C79.2316 24.9507 79.4823 25.3827 79.6529 25.884C79.8236 26.3853 79.9089 26.9293 79.9089 27.516C79.9089 27.5907 79.9089 27.6547 79.9089 27.708C79.8983 27.772 79.8929 27.8307 79.8929 27.884C79.8823 27.9373 79.8769 27.996 79.8769 28.06H73.9729C74.0156 28.38 74.1009 28.6573 74.2289 28.892C74.3676 29.116 74.5329 29.308 74.7249 29.468C74.9276 29.6173 75.1463 29.7293 75.3809 29.804C75.6156 29.868 75.8556 29.9 76.1009 29.9C76.5809 29.9 76.9756 29.7933 77.2849 29.58C77.6049 29.356 77.8556 29.0787 78.0369 28.748L79.7809 29.612ZM77.8769 26.572C77.8663 26.4333 77.8183 26.2787 77.7329 26.108C77.6583 25.9373 77.5409 25.7773 77.3809 25.628C77.2316 25.4787 77.0396 25.356 76.8049 25.26C76.5809 25.164 76.3089 25.116 75.9889 25.116C75.5409 25.116 75.1463 25.244 74.8049 25.5C74.4636 25.756 74.2236 26.1133 74.0849 26.572H77.8769ZM81.2476 23.66H83.2156V24.748H83.3436C83.4396 24.556 83.5676 24.38 83.7276 24.22C83.8876 24.06 84.0636 23.9213 84.2556 23.804C84.4582 23.6867 84.6716 23.596 84.8956 23.532C85.1302 23.468 85.3596 23.436 85.5836 23.436C85.8609 23.436 86.0956 23.4627 86.2876 23.516C86.4902 23.5693 86.6609 23.6387 86.7996 23.724L86.2396 25.628C86.1116 25.564 85.9676 25.516 85.8076 25.484C85.6582 25.4413 85.4716 25.42 85.2476 25.42C84.9596 25.42 84.6982 25.4787 84.4636 25.596C84.2289 25.7027 84.0262 25.8573 83.8556 26.06C83.6956 26.2627 83.5676 26.5027 83.4716 26.78C83.3862 27.0467 83.3436 27.34 83.3436 27.66V31.5H81.2476V23.66ZM88.9312 22.524C88.7499 22.524 88.5739 22.492 88.4032 22.428C88.2432 22.3533 88.0992 22.2573 87.9712 22.14C87.8539 22.012 87.7579 21.868 87.6832 21.708C87.6192 21.548 87.5872 21.372 87.5872 21.18C87.5872 20.988 87.6192 20.812 87.6832 20.652C87.7579 20.492 87.8539 20.3533 87.9712 20.236C88.0992 20.108 88.2432 20.012 88.4032 19.948C88.5739 19.8733 88.7499 19.836 88.9312 19.836C89.3045 19.836 89.6245 19.9693 89.8912 20.236C90.1579 20.492 90.2912 20.8067 90.2912 21.18C90.2912 21.5533 90.1579 21.8733 89.8912 22.14C89.6245 22.396 89.3045 22.524 88.9312 22.524ZM87.8912 31.5V23.66H89.9872V31.5H87.8912ZM94.8958 31.5H92.7998V25.452H91.3918V23.66H92.7998V22.892C92.7998 22.412 92.8691 21.9907 93.0078 21.628C93.1571 21.2547 93.3651 20.9453 93.6318 20.7C93.8985 20.444 94.2131 20.252 94.5758 20.124C94.9385 19.9853 95.3385 19.916 95.7758 19.916C95.9891 19.916 96.1598 19.9267 96.2878 19.948C96.4158 19.9693 96.5385 20.0013 96.6558 20.044L96.5278 22.012C96.4531 21.98 96.3678 21.9533 96.2718 21.932C96.1758 21.9107 96.0531 21.9 95.9038 21.9C95.5945 21.9 95.3491 22.0013 95.1678 22.204C94.9865 22.396 94.8958 22.668 94.8958 23.02V23.66H99.9518V31.5H97.8558V25.452H94.8958V31.5ZM98.8958 22.524C98.7145 22.524 98.5385 22.492 98.3678 22.428C98.2078 22.3533 98.0638 22.2573 97.9358 22.14C97.8185 22.012 97.7225 21.868 97.6478 21.708C97.5838 21.548 97.5518 21.372 97.5518 21.18C97.5518 20.988 97.5838 20.812 97.6478 20.652C97.7225 20.492 97.8185 20.3533 97.9358 20.236C98.0638 20.108 98.2078 20.012 98.3678 19.948C98.5385 19.8733 98.7145 19.836 98.8958 19.836C99.2691 19.836 99.5891 19.9693 99.8558 20.236C100.122 20.492 100.256 20.8067 100.256 21.18C100.256 21.5533 100.122 21.8733 99.8558 22.14C99.5891 22.396 99.2691 22.524 98.8958 22.524ZM109.218 29.612C108.856 30.252 108.365 30.7693 107.746 31.164C107.138 31.5587 106.392 31.756 105.506 31.756C104.909 31.756 104.354 31.6547 103.842 31.452C103.341 31.2387 102.904 30.9453 102.53 30.572C102.157 30.1987 101.864 29.7613 101.65 29.26C101.448 28.748 101.346 28.188 101.346 27.58C101.346 27.0147 101.448 26.4813 101.65 25.98C101.853 25.468 102.136 25.0253 102.498 24.652C102.861 24.268 103.288 23.964 103.778 23.74C104.28 23.516 104.829 23.404 105.426 23.404C106.056 23.404 106.616 23.5107 107.106 23.724C107.597 23.9267 108.008 24.2147 108.338 24.588C108.669 24.9507 108.92 25.3827 109.09 25.884C109.261 26.3853 109.346 26.9293 109.346 27.516C109.346 27.5907 109.346 27.6547 109.346 27.708C109.336 27.772 109.33 27.8307 109.33 27.884C109.32 27.9373 109.314 27.996 109.314 28.06H103.41C103.453 28.38 103.538 28.6573 103.666 28.892C103.805 29.116 103.97 29.308 104.162 29.468C104.365 29.6173 104.584 29.7293 104.818 29.804C105.053 29.868 105.293 29.9 105.538 29.9C106.018 29.9 106.413 29.7933 106.722 29.58C107.042 29.356 107.293 29.0787 107.474 28.748L109.218 29.612ZM107.314 26.572C107.304 26.4333 107.256 26.2787 107.17 26.108C107.096 25.9373 106.978 25.7773 106.818 25.628C106.669 25.4787 106.477 25.356 106.242 25.26C106.018 25.164 105.746 25.116 105.426 25.116C104.978 25.116 104.584 25.244 104.242 25.5C103.901 25.756 103.661 26.1133 103.522 26.572H107.314ZM116.603 30.556H116.475C116.283 30.8867 115.985 31.1693 115.579 31.404C115.174 31.6387 114.673 31.756 114.075 31.756C113.574 31.756 113.094 31.6547 112.635 31.452C112.187 31.2387 111.787 30.9507 111.435 30.588C111.094 30.2147 110.822 29.772 110.619 29.26C110.417 28.748 110.315 28.188 110.315 27.58C110.315 26.972 110.417 26.412 110.619 25.9C110.822 25.388 111.094 24.9507 111.435 24.588C111.787 24.2147 112.187 23.9267 112.635 23.724C113.094 23.5107 113.574 23.404 114.075 23.404C114.673 23.404 115.174 23.5213 115.579 23.756C115.985 23.9907 116.283 24.2733 116.475 24.604H116.603L116.475 23.484V20.044H118.571V31.5H116.603V30.556ZM114.507 29.82C114.785 29.82 115.046 29.772 115.291 29.676C115.547 29.5693 115.771 29.42 115.963 29.228C116.155 29.036 116.31 28.8013 116.427 28.524C116.545 28.2467 116.603 27.932 116.603 27.58C116.603 27.228 116.545 26.9133 116.427 26.636C116.31 26.3587 116.155 26.124 115.963 25.932C115.771 25.74 115.547 25.596 115.291 25.5C115.046 25.3933 114.785 25.34 114.507 25.34C114.23 25.34 113.963 25.3933 113.707 25.5C113.462 25.6067 113.243 25.756 113.051 25.948C112.859 26.14 112.705 26.3747 112.587 26.652C112.47 26.9293 112.411 27.2387 112.411 27.58C112.411 27.9213 112.47 28.2307 112.587 28.508C112.705 28.7853 112.859 29.02 113.051 29.212C113.243 29.404 113.462 29.5533 113.707 29.66C113.963 29.7667 114.23 29.82 114.507 29.82Z" fill="white"/>
</svg>
