<svg width="245" height="132" viewBox="0 0 245 132" fill="none" xmlns="http://www.w3.org/2000/svg">
<rect opacity="0.24" width="245" height="131" rx="4" fill="#FEFCF1"/>
<path d="M33 29H35V31H33V29ZM33 33H35V39H33V33ZM34 24C28.48 24 24 28.48 24 34C24 39.52 28.48 44 34 44C39.52 44 44 39.52 44 34C44 28.48 39.52 24 34 24ZM34 42C29.59 42 26 38.41 26 34C26 29.59 29.59 26 34 26C38.41 26 42 29.59 42 34C42 38.41 38.41 42 34 42Z" fill="#F1D302"/>
<path d="M50.864 38V29.408H53.492C54.804 29.408 55.856 29.804 56.648 30.596C57.448 31.388 57.848 32.424 57.848 33.704C57.848 34.992 57.448 36.032 56.648 36.824C55.856 37.608 54.804 38 53.492 38H50.864ZM51.968 30.464V36.944H53.492C54.492 36.944 55.28 36.66 55.856 36.092C56.432 35.516 56.72 34.72 56.72 33.704C56.72 32.696 56.432 31.904 55.856 31.328C55.28 30.752 54.492 30.464 53.492 30.464H51.968ZM58.4571 35.06C58.4571 34.156 58.7411 33.408 59.3091 32.816C59.8851 32.224 60.6091 31.928 61.4811 31.928C62.3531 31.928 63.0731 32.224 63.6411 32.816C64.2171 33.408 64.5051 34.156 64.5051 35.06C64.5051 35.972 64.2171 36.72 63.6411 37.304C63.0731 37.896 62.3531 38.192 61.4811 38.192C60.6091 38.192 59.8851 37.896 59.3091 37.304C58.7411 36.712 58.4571 35.964 58.4571 35.06ZM59.5611 35.06C59.5611 35.692 59.7451 36.204 60.1131 36.596C60.4811 36.988 60.9371 37.184 61.4811 37.184C62.0251 37.184 62.4811 36.988 62.8491 36.596C63.2171 36.204 63.4011 35.692 63.4011 35.06C63.4011 34.436 63.2171 33.928 62.8491 33.536C62.4731 33.136 62.0171 32.936 61.4811 32.936C60.9451 32.936 60.4891 33.136 60.1131 33.536C59.7451 33.928 59.5611 34.436 59.5611 35.06ZM68.1959 38.192C67.3239 38.192 66.5999 37.896 66.0239 37.304C65.4559 36.696 65.1719 35.948 65.1719 35.06C65.1719 34.156 65.4559 33.408 66.0239 32.816C66.5999 32.224 67.3239 31.928 68.1959 31.928C68.7959 31.928 69.3199 32.08 69.7679 32.384C70.2159 32.68 70.5519 33.092 70.7759 33.62L69.7679 34.04C69.4559 33.304 68.9079 32.936 68.1239 32.936C67.6199 32.936 67.1839 33.14 66.8159 33.548C66.4559 33.956 66.2759 34.46 66.2759 35.06C66.2759 35.66 66.4559 36.164 66.8159 36.572C67.1839 36.98 67.6199 37.184 68.1239 37.184C68.9319 37.184 69.4999 36.816 69.8279 36.08L70.8119 36.5C70.5959 37.028 70.2559 37.444 69.7919 37.748C69.3359 38.044 68.8039 38.192 68.1959 38.192ZM76.9375 38H75.8815V37.184H75.8335C75.6655 37.472 75.4055 37.712 75.0535 37.904C74.7095 38.096 74.3495 38.192 73.9735 38.192C73.2535 38.192 72.6975 37.988 72.3055 37.58C71.9215 37.164 71.7295 36.576 71.7295 35.816V32.12H72.8335V35.744C72.8575 36.704 73.3415 37.184 74.2855 37.184C74.7255 37.184 75.0935 37.008 75.3895 36.656C75.6855 36.296 75.8335 35.868 75.8335 35.372V32.12H76.9375V38ZM79.3854 38H78.2814V32.12H79.3374V32.936H79.3854C79.5534 32.648 79.8094 32.408 80.1534 32.216C80.5054 32.024 80.8534 31.928 81.1974 31.928C81.6294 31.928 82.0094 32.028 82.3374 32.228C82.6654 32.428 82.9054 32.704 83.0574 33.056C83.5454 32.304 84.2214 31.928 85.0854 31.928C85.7654 31.928 86.2894 32.136 86.6574 32.552C87.0254 32.968 87.2094 33.56 87.2094 34.328V38H86.1054V34.496C86.1054 33.944 86.0054 33.548 85.8054 33.308C85.6054 33.06 85.2694 32.936 84.7974 32.936C84.3734 32.936 84.0174 33.116 83.7294 33.476C83.4414 33.836 83.2974 34.26 83.2974 34.748V38H82.1934V34.496C82.1934 33.944 82.0934 33.548 81.8934 33.308C81.6934 33.06 81.3574 32.936 80.8854 32.936C80.4614 32.936 80.1054 33.116 79.8174 33.476C79.5294 33.836 79.3854 34.26 79.3854 34.748V38ZM91.1401 38.192C90.2761 38.192 89.5641 37.896 89.0041 37.304C88.4441 36.712 88.1641 35.964 88.1641 35.06C88.1641 34.164 88.4361 33.42 88.9801 32.828C89.5241 32.228 90.2201 31.928 91.0681 31.928C91.9401 31.928 92.6321 32.212 93.1441 32.78C93.6641 33.34 93.9241 34.128 93.9241 35.144L93.9121 35.264H89.2921C89.3081 35.84 89.5001 36.304 89.8681 36.656C90.2361 37.008 90.6761 37.184 91.1881 37.184C91.8921 37.184 92.4441 36.832 92.8441 36.128L93.8281 36.608C93.5641 37.104 93.1961 37.492 92.7241 37.772C92.2601 38.052 91.7321 38.192 91.1401 38.192ZM89.3761 34.352H92.7481C92.7161 33.944 92.5481 33.608 92.2441 33.344C91.9481 33.072 91.5481 32.936 91.0441 32.936C90.6281 32.936 90.2681 33.064 89.9641 33.32C89.6681 33.576 89.4721 33.92 89.3761 34.352ZM94.9337 32.12H95.9897V32.936H96.0377C96.2057 32.648 96.4617 32.408 96.8057 32.216C97.1577 32.024 97.5217 31.928 97.8977 31.928C98.6177 31.928 99.1697 32.136 99.5537 32.552C99.9457 32.96 100.142 33.544 100.142 34.304V38H99.0377V34.376C99.0137 33.416 98.5297 32.936 97.5857 32.936C97.1457 32.936 96.7777 33.116 96.4817 33.476C96.1857 33.828 96.0377 34.252 96.0377 34.748V38H94.9337V32.12ZM103.461 38.096C102.981 38.096 102.581 37.948 102.261 37.652C101.949 37.356 101.789 36.944 101.781 36.416V33.128H100.749V32.12H101.781V30.32H102.885V32.12H104.325V33.128H102.885V36.056C102.885 36.448 102.961 36.716 103.113 36.86C103.265 36.996 103.437 37.064 103.629 37.064C103.717 37.064 103.801 37.056 103.881 37.04C103.969 37.016 104.049 36.988 104.121 36.956L104.469 37.94C104.181 38.044 103.845 38.096 103.461 38.096ZM109.992 36.368C109.992 36.88 109.768 37.312 109.32 37.664C108.872 38.016 108.308 38.192 107.628 38.192C107.036 38.192 106.516 38.04 106.068 37.736C105.62 37.424 105.3 37.016 105.108 36.512L106.092 36.092C106.236 36.444 106.444 36.72 106.716 36.92C106.996 37.112 107.3 37.208 107.628 37.208C107.98 37.208 108.272 37.132 108.504 36.98C108.744 36.828 108.864 36.648 108.864 36.44C108.864 36.064 108.576 35.788 108 35.612L106.992 35.36C105.848 35.072 105.276 34.52 105.276 33.704C105.276 33.168 105.492 32.74 105.924 32.42C106.364 32.092 106.924 31.928 107.604 31.928C108.124 31.928 108.592 32.052 109.008 32.3C109.432 32.548 109.728 32.88 109.896 33.296L108.912 33.704C108.8 33.456 108.616 33.264 108.36 33.128C108.112 32.984 107.832 32.912 107.52 32.912C107.232 32.912 106.972 32.984 106.74 33.128C106.516 33.272 106.404 33.448 106.404 33.656C106.404 33.992 106.72 34.232 107.352 34.376L108.24 34.604C109.408 34.892 109.992 35.48 109.992 36.368ZM116.536 38.192C115.584 38.192 114.816 37.88 114.232 37.256C113.648 36.64 113.356 35.824 113.356 34.808V29.408H114.46V34.856C114.46 35.56 114.644 36.116 115.012 36.524C115.38 36.932 115.888 37.136 116.536 37.136C117.184 37.136 117.692 36.932 118.06 36.524C118.428 36.116 118.612 35.56 118.612 34.856V29.408H119.716V34.808C119.716 35.848 119.428 36.672 118.852 37.28C118.276 37.888 117.504 38.192 116.536 38.192ZM121.055 32.12H122.111V32.936H122.159C122.327 32.648 122.583 32.408 122.927 32.216C123.279 32.024 123.643 31.928 124.019 31.928C124.739 31.928 125.291 32.136 125.675 32.552C126.067 32.96 126.263 33.544 126.263 34.304V38H125.159V34.376C125.135 33.416 124.651 32.936 123.707 32.936C123.267 32.936 122.899 33.116 122.603 33.476C122.307 33.828 122.159 34.252 122.159 34.748V38H121.055V32.12ZM130.18 38H129.076L126.7 32.12H127.9L129.628 36.68H129.652L131.404 32.12H132.58L130.18 38ZM135.765 38.192C134.901 38.192 134.189 37.896 133.629 37.304C133.069 36.712 132.789 35.964 132.789 35.06C132.789 34.164 133.061 33.42 133.605 32.828C134.149 32.228 134.845 31.928 135.693 31.928C136.565 31.928 137.257 32.212 137.769 32.78C138.289 33.34 138.549 34.128 138.549 35.144L138.537 35.264H133.917C133.933 35.84 134.125 36.304 134.493 36.656C134.861 37.008 135.301 37.184 135.813 37.184C136.517 37.184 137.069 36.832 137.469 36.128L138.453 36.608C138.189 37.104 137.821 37.492 137.349 37.772C136.885 38.052 136.357 38.192 135.765 38.192ZM134.001 34.352H137.373C137.341 33.944 137.173 33.608 136.869 33.344C136.573 33.072 136.173 32.936 135.669 32.936C135.253 32.936 134.893 33.064 134.589 33.32C134.293 33.576 134.097 33.92 134.001 34.352ZM140.663 38H139.559V32.12H140.615V33.08H140.663C140.775 32.768 141.003 32.504 141.347 32.288C141.699 32.064 142.043 31.952 142.379 31.952C142.699 31.952 142.971 32 143.195 32.096L142.859 33.164C142.723 33.108 142.507 33.08 142.211 33.08C141.795 33.08 141.431 33.248 141.119 33.584C140.815 33.92 140.663 34.312 140.663 34.76V38ZM145.346 30.092C145.346 30.308 145.27 30.492 145.118 30.644C144.966 30.796 144.782 30.872 144.566 30.872C144.35 30.872 144.166 30.796 144.014 30.644C143.862 30.492 143.786 30.308 143.786 30.092C143.786 29.876 143.862 29.692 144.014 29.54C144.166 29.388 144.35 29.312 144.566 29.312C144.782 29.312 144.966 29.388 145.118 29.54C145.27 29.692 145.346 29.876 145.346 30.092ZM145.118 32.12V38H144.014V32.12H145.118ZM152.351 30.092C152.351 30.308 152.275 30.492 152.123 30.644C151.971 30.796 151.787 30.872 151.571 30.872C151.355 30.872 151.171 30.796 151.019 30.644C150.867 30.492 150.791 30.308 150.791 30.092C150.791 29.876 150.867 29.692 151.019 29.54C151.171 29.388 151.355 29.312 151.571 29.312C151.787 29.312 151.971 29.388 152.123 29.54C152.275 29.692 152.351 29.876 152.351 30.092ZM148.379 33.128V38H147.275V33.128H146.171V32.12H147.275V31.268C147.275 30.98 147.323 30.716 147.419 30.476C147.523 30.236 147.663 30.032 147.839 29.864C148.015 29.688 148.223 29.552 148.463 29.456C148.711 29.36 148.979 29.312 149.267 29.312C149.667 29.312 149.995 29.38 150.251 29.516L149.951 30.488C149.759 30.392 149.543 30.344 149.303 30.344C149.031 30.344 148.807 30.44 148.631 30.632C148.463 30.816 148.379 31.064 148.379 31.376V32.12H152.123V38H151.019V33.128H148.379ZM156.144 38.192C155.28 38.192 154.568 37.896 154.008 37.304C153.448 36.712 153.168 35.964 153.168 35.06C153.168 34.164 153.44 33.42 153.984 32.828C154.528 32.228 155.224 31.928 156.072 31.928C156.944 31.928 157.636 32.212 158.148 32.78C158.668 33.34 158.928 34.128 158.928 35.144L158.916 35.264H154.296C154.312 35.84 154.504 36.304 154.872 36.656C155.24 37.008 155.68 37.184 156.192 37.184C156.896 37.184 157.448 36.832 157.848 36.128L158.832 36.608C158.568 37.104 158.2 37.492 157.728 37.772C157.264 38.052 156.736 38.192 156.144 38.192ZM154.38 34.352H157.752C157.72 33.944 157.552 33.608 157.248 33.344C156.952 33.072 156.552 32.936 156.048 32.936C155.632 32.936 155.272 33.064 154.968 33.32C154.672 33.576 154.476 33.92 154.38 34.352ZM162.636 37.184C163.18 37.184 163.624 36.988 163.968 36.596C164.328 36.204 164.508 35.692 164.508 35.06C164.508 34.444 164.328 33.936 163.968 33.536C163.616 33.136 163.172 32.936 162.636 32.936C162.108 32.936 161.664 33.136 161.304 33.536C160.944 33.936 160.764 34.444 160.764 35.06C160.764 35.684 160.944 36.192 161.304 36.584C161.664 36.984 162.108 37.184 162.636 37.184ZM162.456 38.192C161.688 38.192 161.028 37.888 160.476 37.28C159.932 36.664 159.66 35.924 159.66 35.06C159.66 34.196 159.932 33.456 160.476 32.84C161.028 32.232 161.688 31.928 162.456 31.928C162.888 31.928 163.28 32.02 163.632 32.204C163.992 32.388 164.268 32.632 164.46 32.936H164.508L164.46 32.12V29.408H165.564V38H164.508V37.184H164.46C164.268 37.488 163.992 37.732 163.632 37.916C163.28 38.1 162.888 38.192 162.456 38.192Z" fill="#F1D302"/>
<path d="M33.72 53.408H34.872L32.58 62H31.452L29.604 56.336H29.556L27.708 62H26.58L24.192 53.408H25.344L27.156 60.164H27.204L29.064 54.56H30.096L31.956 60.164H32.004L33.72 53.408ZM37.7183 62.192C36.8543 62.192 36.1423 61.896 35.5823 61.304C35.0223 60.712 34.7423 59.964 34.7423 59.06C34.7423 58.164 35.0143 57.42 35.5583 56.828C36.1023 56.228 36.7983 55.928 37.6463 55.928C38.5183 55.928 39.2103 56.212 39.7223 56.78C40.2423 57.34 40.5023 58.128 40.5023 59.144L40.4903 59.264H35.8703C35.8863 59.84 36.0783 60.304 36.4463 60.656C36.8143 61.008 37.2543 61.184 37.7663 61.184C38.4703 61.184 39.0223 60.832 39.4223 60.128L40.4062 60.608C40.1423 61.104 39.7743 61.492 39.3023 61.772C38.8383 62.052 38.3103 62.192 37.7183 62.192ZM35.9543 58.352H39.3263C39.2943 57.944 39.1263 57.608 38.8223 57.344C38.5263 57.072 38.1263 56.936 37.6223 56.936C37.2063 56.936 36.8463 57.064 36.5423 57.32C36.2463 57.576 36.0503 57.92 35.9543 58.352ZM52.4766 56.12L50.5806 62H49.4526L47.9886 57.488L46.5366 62H45.4206L43.5246 56.12H44.6766L45.9846 60.56H45.9966L47.4486 56.12H48.5886L50.0406 60.56H50.0526L51.3486 56.12H52.4766ZM54.6234 54.092C54.6234 54.308 54.5474 54.492 54.3954 54.644C54.2434 54.796 54.0594 54.872 53.8434 54.872C53.6274 54.872 53.4434 54.796 53.2914 54.644C53.1394 54.492 53.0634 54.308 53.0634 54.092C53.0634 53.876 53.1394 53.692 53.2914 53.54C53.4434 53.388 53.6274 53.312 53.8434 53.312C54.0594 53.312 54.2434 53.388 54.3954 53.54C54.5474 53.692 54.6234 53.876 54.6234 54.092ZM54.3954 56.12V62H53.2914V56.12H54.3954ZM56.9362 53.408V62H55.8322V53.408H56.9362ZM59.3854 53.408V62H58.2814V53.408H59.3854ZM64.4713 53.408V62H63.3673V53.408H64.4713ZM68.3979 62.192C67.5339 62.192 66.8219 61.896 66.2619 61.304C65.7019 60.712 65.4219 59.964 65.4219 59.06C65.4219 58.164 65.6939 57.42 66.2379 56.828C66.7819 56.228 67.4779 55.928 68.3259 55.928C69.1979 55.928 69.8899 56.212 70.4019 56.78C70.9219 57.34 71.1819 58.128 71.1819 59.144L71.1699 59.264H66.5499C66.5659 59.84 66.7579 60.304 67.1259 60.656C67.4939 61.008 67.9339 61.184 68.4459 61.184C69.1499 61.184 69.7019 60.832 70.1019 60.128L71.0859 60.608C70.8219 61.104 70.4539 61.492 69.9819 61.772C69.5179 62.052 68.9899 62.192 68.3979 62.192ZM66.6339 58.352H70.0059C69.9739 57.944 69.8059 57.608 69.5019 57.344C69.2059 57.072 68.8059 56.936 68.3019 56.936C67.8859 56.936 67.5259 57.064 67.2219 57.32C66.9259 57.576 66.7299 57.92 66.6339 58.352ZM74.3438 62.096C73.8638 62.096 73.4638 61.948 73.1438 61.652C72.8318 61.356 72.6718 60.944 72.6638 60.416V57.128H71.6318V56.12H72.6638V54.32H73.7678V56.12H75.2078V57.128H73.7678V60.056C73.7678 60.448 73.8438 60.716 73.9958 60.86C74.1478 60.996 74.3198 61.064 74.5117 61.064C74.5998 61.064 74.6838 61.056 74.7638 61.04C74.8518 61.016 74.9318 60.988 75.0038 60.956L75.3518 61.94C75.0638 62.044 74.7278 62.096 74.3438 62.096ZM84.1507 56.12L80.4667 64.592H79.3267L80.6947 61.628L78.2707 56.12H79.4707L81.2227 60.344H81.2467L82.9507 56.12H84.1507ZM84.3008 59.06C84.3008 58.156 84.5848 57.408 85.1528 56.816C85.7288 56.224 86.4528 55.928 87.3248 55.928C88.1968 55.928 88.9168 56.224 89.4848 56.816C90.0608 57.408 90.3488 58.156 90.3488 59.06C90.3488 59.972 90.0608 60.72 89.4848 61.304C88.9168 61.896 88.1968 62.192 87.3248 62.192C86.4528 62.192 85.7288 61.896 85.1528 61.304C84.5848 60.712 84.3008 59.964 84.3008 59.06ZM85.4048 59.06C85.4048 59.692 85.5888 60.204 85.9568 60.596C86.3248 60.988 86.7808 61.184 87.3248 61.184C87.8688 61.184 88.3248 60.988 88.6928 60.596C89.0608 60.204 89.2448 59.692 89.2448 59.06C89.2448 58.436 89.0608 57.928 88.6928 57.536C88.3168 57.136 87.8608 56.936 87.3248 56.936C86.7888 56.936 86.3328 57.136 85.9568 57.536C85.5888 57.928 85.4048 58.436 85.4048 59.06ZM96.4531 62H95.3971V61.184H95.3491C95.1811 61.472 94.9211 61.712 94.5691 61.904C94.2251 62.096 93.8651 62.192 93.4891 62.192C92.7691 62.192 92.2131 61.988 91.8211 61.58C91.4371 61.164 91.2451 60.576 91.2451 59.816V56.12H92.3491V59.744C92.3731 60.704 92.8571 61.184 93.8011 61.184C94.2411 61.184 94.6091 61.008 94.9051 60.656C95.2011 60.296 95.3491 59.868 95.3491 59.372V56.12H96.4531V62ZM105.606 62H104.274L102.438 59.228L101.538 60.116V62H100.434V53.408H101.538V58.7L104.082 56.12H105.498V56.168L103.206 58.448L105.606 61.952V62ZM106.235 56.12H107.291V56.936H107.339C107.507 56.648 107.763 56.408 108.107 56.216C108.459 56.024 108.823 55.928 109.199 55.928C109.919 55.928 110.471 56.136 110.855 56.552C111.247 56.96 111.443 57.544 111.443 58.304V62H110.339V58.376C110.315 57.416 109.831 56.936 108.887 56.936C108.447 56.936 108.079 57.116 107.783 57.476C107.487 57.828 107.339 58.252 107.339 58.748V62H106.235V56.12ZM112.402 59.06C112.402 58.156 112.686 57.408 113.254 56.816C113.83 56.224 114.554 55.928 115.426 55.928C116.298 55.928 117.018 56.224 117.586 56.816C118.162 57.408 118.45 58.156 118.45 59.06C118.45 59.972 118.162 60.72 117.586 61.304C117.018 61.896 116.298 62.192 115.426 62.192C114.554 62.192 113.83 61.896 113.254 61.304C112.686 60.712 112.402 59.964 112.402 59.06ZM113.506 59.06C113.506 59.692 113.69 60.204 114.058 60.596C114.426 60.988 114.882 61.184 115.426 61.184C115.97 61.184 116.426 60.988 116.794 60.596C117.162 60.204 117.346 59.692 117.346 59.06C117.346 58.436 117.162 57.928 116.794 57.536C116.418 57.136 115.962 56.936 115.426 56.936C114.89 56.936 114.434 57.136 114.058 57.536C113.69 57.928 113.506 58.436 113.506 59.06ZM127.664 56.12L125.768 62H124.64L123.176 57.488L121.724 62H120.608L118.712 56.12H119.864L121.172 60.56H121.184L122.636 56.12H123.776L125.228 60.56H125.24L126.536 56.12H127.664ZM130.684 59.06C130.684 58.156 130.968 57.408 131.536 56.816C132.112 56.224 132.836 55.928 133.708 55.928C134.58 55.928 135.3 56.224 135.868 56.816C136.444 57.408 136.732 58.156 136.732 59.06C136.732 59.972 136.444 60.72 135.868 61.304C135.3 61.896 134.58 62.192 133.708 62.192C132.836 62.192 132.112 61.896 131.536 61.304C130.968 60.712 130.684 59.964 130.684 59.06ZM131.788 59.06C131.788 59.692 131.972 60.204 132.34 60.596C132.708 60.988 133.164 61.184 133.708 61.184C134.252 61.184 134.708 60.988 135.076 60.596C135.444 60.204 135.628 59.692 135.628 59.06C135.628 58.436 135.444 57.928 135.076 57.536C134.7 57.136 134.244 56.936 133.708 56.936C133.172 56.936 132.716 57.136 132.34 57.536C131.972 57.928 131.788 58.436 131.788 59.06ZM137.617 56.12H138.673V56.936H138.721C138.889 56.648 139.145 56.408 139.489 56.216C139.841 56.024 140.205 55.928 140.581 55.928C141.301 55.928 141.853 56.136 142.237 56.552C142.629 56.96 142.825 57.544 142.825 58.304V62H141.721V58.376C141.697 57.416 141.213 56.936 140.269 56.936C139.829 56.936 139.461 57.116 139.165 57.476C138.869 57.828 138.721 58.252 138.721 58.748V62H137.617V56.12ZM146.809 62.192C145.937 62.192 145.213 61.896 144.637 61.304C144.069 60.696 143.785 59.948 143.785 59.06C143.785 58.156 144.069 57.408 144.637 56.816C145.213 56.224 145.937 55.928 146.809 55.928C147.409 55.928 147.933 56.08 148.381 56.384C148.829 56.68 149.165 57.092 149.389 57.62L148.381 58.04C148.069 57.304 147.521 56.936 146.737 56.936C146.233 56.936 145.797 57.14 145.429 57.548C145.069 57.956 144.889 58.46 144.889 59.06C144.889 59.66 145.069 60.164 145.429 60.572C145.797 60.98 146.233 61.184 146.737 61.184C147.545 61.184 148.113 60.816 148.441 60.08L149.425 60.5C149.209 61.028 148.869 61.444 148.405 61.748C147.949 62.044 147.417 62.192 146.809 62.192ZM152.972 62.192C152.108 62.192 151.396 61.896 150.836 61.304C150.276 60.712 149.996 59.964 149.996 59.06C149.996 58.164 150.268 57.42 150.812 56.828C151.356 56.228 152.052 55.928 152.9 55.928C153.772 55.928 154.464 56.212 154.976 56.78C155.496 57.34 155.756 58.128 155.756 59.144L155.744 59.264H151.124C151.14 59.84 151.332 60.304 151.7 60.656C152.068 61.008 152.508 61.184 153.02 61.184C153.724 61.184 154.276 60.832 154.676 60.128L155.66 60.608C155.396 61.104 155.028 61.492 154.556 61.772C154.092 62.052 153.564 62.192 152.972 62.192ZM151.208 58.352H154.58C154.548 57.944 154.38 57.608 154.076 57.344C153.78 57.072 153.38 56.936 152.876 56.936C152.46 56.936 152.1 57.064 151.796 57.32C151.5 57.576 151.304 57.92 151.208 58.352ZM164.658 56.12L160.974 64.592H159.834L161.202 61.628L158.778 56.12H159.978L161.73 60.344H161.754L163.458 56.12H164.658ZM164.809 59.06C164.809 58.156 165.093 57.408 165.661 56.816C166.237 56.224 166.961 55.928 167.833 55.928C168.705 55.928 169.425 56.224 169.993 56.816C170.569 57.408 170.857 58.156 170.857 59.06C170.857 59.972 170.569 60.72 169.993 61.304C169.425 61.896 168.705 62.192 167.833 62.192C166.961 62.192 166.237 61.896 165.661 61.304C165.093 60.712 164.809 59.964 164.809 59.06ZM165.913 59.06C165.913 59.692 166.097 60.204 166.465 60.596C166.833 60.988 167.289 61.184 167.833 61.184C168.377 61.184 168.833 60.988 169.201 60.596C169.569 60.204 169.753 59.692 169.753 59.06C169.753 58.436 169.569 57.928 169.201 57.536C168.825 57.136 168.369 56.936 167.833 56.936C167.297 56.936 166.841 57.136 166.465 57.536C166.097 57.928 165.913 58.436 165.913 59.06ZM176.961 62H175.905V61.184H175.857C175.689 61.472 175.429 61.712 175.077 61.904C174.733 62.096 174.373 62.192 173.997 62.192C173.277 62.192 172.721 61.988 172.329 61.58C171.945 61.164 171.753 60.576 171.753 59.816V56.12H172.857V59.744C172.881 60.704 173.365 61.184 174.309 61.184C174.749 61.184 175.117 61.008 175.413 60.656C175.709 60.296 175.857 59.868 175.857 59.372V56.12H176.961V62ZM179.409 62H178.305V56.12H179.361V57.08H179.409C179.521 56.768 179.749 56.504 180.093 56.288C180.445 56.064 180.789 55.952 181.125 55.952C181.445 55.952 181.717 56 181.941 56.096L181.605 57.164C181.469 57.108 181.253 57.08 180.957 57.08C180.541 57.08 180.177 57.248 179.865 57.584C179.561 57.92 179.409 58.312 179.409 58.76V62ZM186.105 60.2C186.105 60.488 186.225 60.728 186.465 60.92C186.713 61.112 187.001 61.208 187.329 61.208C187.793 61.208 188.205 61.036 188.565 60.692C188.933 60.348 189.117 59.944 189.117 59.48C188.773 59.208 188.293 59.072 187.677 59.072C187.229 59.072 186.853 59.18 186.549 59.396C186.253 59.612 186.105 59.88 186.105 60.2ZM187.533 55.928C188.349 55.928 188.993 56.148 189.465 56.588C189.937 57.02 190.173 57.616 190.173 58.376V62H189.117V61.184H189.069C188.613 61.856 188.005 62.192 187.245 62.192C186.597 62.192 186.053 62 185.613 61.616C185.181 61.232 184.965 60.752 184.965 60.176C184.965 59.568 185.193 59.084 185.649 58.724C186.113 58.364 186.729 58.184 187.497 58.184C188.153 58.184 188.693 58.304 189.117 58.544V58.292C189.117 57.908 188.965 57.584 188.661 57.32C188.357 57.048 188.001 56.912 187.593 56.912C186.977 56.912 186.489 57.172 186.129 57.692L185.157 57.08C185.693 56.312 186.485 55.928 187.533 55.928ZM194.048 62.192C193.176 62.192 192.452 61.896 191.876 61.304C191.308 60.696 191.024 59.948 191.024 59.06C191.024 58.156 191.308 57.408 191.876 56.816C192.452 56.224 193.176 55.928 194.048 55.928C194.648 55.928 195.172 56.08 195.62 56.384C196.068 56.68 196.404 57.092 196.628 57.62L195.62 58.04C195.308 57.304 194.76 56.936 193.976 56.936C193.472 56.936 193.036 57.14 192.668 57.548C192.308 57.956 192.128 58.46 192.128 59.06C192.128 59.66 192.308 60.164 192.668 60.572C193.036 60.98 193.472 61.184 193.976 61.184C194.784 61.184 195.352 60.816 195.68 60.08L196.664 60.5C196.448 61.028 196.108 61.444 195.644 61.748C195.188 62.044 194.656 62.192 194.048 62.192ZM200.258 62.192C199.386 62.192 198.662 61.896 198.086 61.304C197.518 60.696 197.234 59.948 197.234 59.06C197.234 58.156 197.518 57.408 198.086 56.816C198.662 56.224 199.386 55.928 200.258 55.928C200.858 55.928 201.382 56.08 201.83 56.384C202.278 56.68 202.614 57.092 202.838 57.62L201.83 58.04C201.518 57.304 200.97 56.936 200.186 56.936C199.682 56.936 199.246 57.14 198.878 57.548C198.518 57.956 198.338 58.46 198.338 59.06C198.338 59.66 198.518 60.164 198.878 60.572C199.246 60.98 199.682 61.184 200.186 61.184C200.994 61.184 201.562 60.816 201.89 60.08L202.874 60.5C202.658 61.028 202.318 61.444 201.854 61.748C201.398 62.044 200.866 62.192 200.258 62.192ZM203.445 59.06C203.445 58.156 203.729 57.408 204.297 56.816C204.873 56.224 205.597 55.928 206.469 55.928C207.341 55.928 208.061 56.224 208.629 56.816C209.205 57.408 209.493 58.156 209.493 59.06C209.493 59.972 209.205 60.72 208.629 61.304C208.061 61.896 207.341 62.192 206.469 62.192C205.597 62.192 204.873 61.896 204.297 61.304C203.729 60.712 203.445 59.964 203.445 59.06ZM204.549 59.06C204.549 59.692 204.733 60.204 205.101 60.596C205.469 60.988 205.925 61.184 206.469 61.184C207.013 61.184 207.469 60.988 207.837 60.596C208.205 60.204 208.389 59.692 208.389 59.06C208.389 58.436 208.205 57.928 207.837 57.536C207.461 57.136 207.005 56.936 206.469 56.936C205.933 56.936 205.477 57.136 205.101 57.536C204.733 57.928 204.549 58.436 204.549 59.06ZM215.598 62H214.542V61.184H214.494C214.326 61.472 214.066 61.712 213.714 61.904C213.37 62.096 213.01 62.192 212.634 62.192C211.914 62.192 211.358 61.988 210.966 61.58C210.582 61.164 210.39 60.576 210.39 59.816V56.12H211.494V59.744C211.518 60.704 212.002 61.184 212.946 61.184C213.386 61.184 213.754 61.008 214.05 60.656C214.346 60.296 214.494 59.868 214.494 59.372V56.12H215.598V62ZM216.942 56.12H217.998V56.936H218.046C218.214 56.648 218.47 56.408 218.814 56.216C219.166 56.024 219.53 55.928 219.906 55.928C220.626 55.928 221.178 56.136 221.562 56.552C221.954 56.96 222.15 57.544 222.15 58.304V62H221.046V58.376C221.022 57.416 220.538 56.936 219.594 56.936C219.154 56.936 218.786 57.116 218.49 57.476C218.194 57.828 218.046 58.252 218.046 58.748V62H216.942V56.12ZM225.469 62.096C224.989 62.096 224.589 61.948 224.269 61.652C223.957 61.356 223.797 60.944 223.789 60.416V57.128H222.757V56.12H223.789V54.32H224.893V56.12H226.333V57.128H224.893V60.056C224.893 60.448 224.969 60.716 225.121 60.86C225.273 60.996 225.445 61.064 225.637 61.064C225.725 61.064 225.809 61.056 225.889 61.04C225.977 61.016 226.057 60.988 226.129 60.956L226.477 61.94C226.189 62.044 225.853 62.096 225.469 62.096ZM26.1 74.092C26.1 74.308 26.024 74.492 25.872 74.644C25.72 74.796 25.536 74.872 25.32 74.872C25.104 74.872 24.92 74.796 24.768 74.644C24.616 74.492 24.54 74.308 24.54 74.092C24.54 73.876 24.616 73.692 24.768 73.54C24.92 73.388 25.104 73.312 25.32 73.312C25.536 73.312 25.72 73.388 25.872 73.54C26.024 73.692 26.1 73.876 26.1 74.092ZM25.872 76.12V82H24.768V76.12H25.872ZM31.8087 80.368C31.8087 80.88 31.5847 81.312 31.1367 81.664C30.6887 82.016 30.1247 82.192 29.4447 82.192C28.8527 82.192 28.3327 82.04 27.8847 81.736C27.4367 81.424 27.1167 81.016 26.9247 80.512L27.9087 80.092C28.0527 80.444 28.2607 80.72 28.5327 80.92C28.8127 81.112 29.1167 81.208 29.4447 81.208C29.7967 81.208 30.0887 81.132 30.3207 80.98C30.5607 80.828 30.6807 80.648 30.6807 80.44C30.6807 80.064 30.3927 79.788 29.8167 79.612L28.8087 79.36C27.6647 79.072 27.0927 78.52 27.0927 77.704C27.0927 77.168 27.3087 76.74 27.7407 76.42C28.1807 76.092 28.7407 75.928 29.4207 75.928C29.9407 75.928 30.4087 76.052 30.8247 76.3C31.2487 76.548 31.5447 76.88 31.7127 77.296L30.7287 77.704C30.6167 77.456 30.4327 77.264 30.1767 77.128C29.9287 76.984 29.6487 76.912 29.3367 76.912C29.0487 76.912 28.7887 76.984 28.5567 77.128C28.3327 77.272 28.2207 77.448 28.2207 77.656C28.2207 77.992 28.5367 78.232 29.1687 78.376L30.0567 78.604C31.2247 78.892 31.8087 79.48 31.8087 80.368ZM37.884 73.312C38.284 73.312 38.612 73.38 38.868 73.516L38.568 74.488C38.376 74.392 38.16 74.344 37.92 74.344C37.648 74.344 37.424 74.44 37.248 74.632C37.08 74.816 36.996 75.064 36.996 75.376V76.12H38.532V77.128H36.996V82H35.892V77.128H34.788V76.12H35.892V75.268C35.892 74.684 36.076 74.212 36.444 73.852C36.82 73.492 37.3 73.312 37.884 73.312ZM44.6328 82H43.5768V81.184H43.5288C43.3608 81.472 43.1008 81.712 42.7488 81.904C42.4048 82.096 42.0448 82.192 41.6688 82.192C40.9488 82.192 40.3928 81.988 40.0008 81.58C39.6168 81.164 39.4248 80.576 39.4248 79.816V76.12H40.5288V79.744C40.5528 80.704 41.0368 81.184 41.9808 81.184C42.4208 81.184 42.7888 81.008 43.0848 80.656C43.3808 80.296 43.5288 79.868 43.5288 79.372V76.12H44.6328V82ZM47.0807 73.408V82H45.9767V73.408H47.0807ZM49.5299 73.408V82H48.4259V73.408H49.5299ZM56.1311 76.12L52.4471 84.592H51.3071L52.6751 81.628L50.2511 76.12H51.4511L53.2031 80.344H53.2271L54.9311 76.12H56.1311ZM62.3444 82H61.2404L58.8644 76.12H60.0644L61.7924 80.68H61.8164L63.5684 76.12H64.7444L62.3444 82ZM67.9292 82.192C67.0652 82.192 66.3532 81.896 65.7932 81.304C65.2332 80.712 64.9532 79.964 64.9532 79.06C64.9532 78.164 65.2252 77.42 65.7692 76.828C66.3132 76.228 67.0092 75.928 67.8572 75.928C68.7292 75.928 69.4212 76.212 69.9332 76.78C70.4532 77.34 70.7132 78.128 70.7132 79.144L70.7012 79.264H66.0812C66.0972 79.84 66.2892 80.304 66.6572 80.656C67.0252 81.008 67.4652 81.184 67.9772 81.184C68.6812 81.184 69.2332 80.832 69.6332 80.128L70.6172 80.608C70.3532 81.104 69.9852 81.492 69.5132 81.772C69.0492 82.052 68.5212 82.192 67.9292 82.192ZM66.1652 78.352H69.5372C69.5052 77.944 69.3372 77.608 69.0332 77.344C68.7372 77.072 68.3372 76.936 67.8332 76.936C67.4172 76.936 67.0572 77.064 66.7532 77.32C66.4572 77.576 66.2612 77.92 66.1652 78.352ZM72.8268 82H71.7228V76.12H72.7788V77.08H72.8268C72.9388 76.768 73.1668 76.504 73.5108 76.288C73.8628 76.064 74.2068 75.952 74.5428 75.952C74.8628 75.952 75.1348 76 75.3588 76.096L75.0228 77.164C74.8868 77.108 74.6708 77.08 74.3748 77.08C73.9588 77.08 73.5948 77.248 73.2828 77.584C72.9788 77.92 72.8268 78.312 72.8268 78.76V82ZM77.5102 74.092C77.5102 74.308 77.4342 74.492 77.2822 74.644C77.1302 74.796 76.9462 74.872 76.7302 74.872C76.5142 74.872 76.3302 74.796 76.1782 74.644C76.0262 74.492 75.9502 74.308 75.9502 74.092C75.9502 73.876 76.0262 73.692 76.1782 73.54C76.3302 73.388 76.5142 73.312 76.7302 73.312C76.9462 73.312 77.1302 73.388 77.2822 73.54C77.4342 73.692 77.5102 73.876 77.5102 74.092ZM77.2822 76.12V82H76.1782V76.12H77.2822ZM84.5149 74.092C84.5149 74.308 84.4389 74.492 84.2869 74.644C84.1349 74.796 83.9509 74.872 83.7349 74.872C83.5189 74.872 83.3349 74.796 83.1829 74.644C83.0309 74.492 82.9549 74.308 82.9549 74.092C82.9549 73.876 83.0309 73.692 83.1829 73.54C83.3349 73.388 83.5189 73.312 83.7349 73.312C83.9509 73.312 84.1349 73.388 84.2869 73.54C84.4389 73.692 84.5149 73.876 84.5149 74.092ZM80.5429 77.128V82H79.4389V77.128H78.3349V76.12H79.4389V75.268C79.4389 74.98 79.4869 74.716 79.5829 74.476C79.6869 74.236 79.8269 74.032 80.0029 73.864C80.1789 73.688 80.3869 73.552 80.6269 73.456C80.8749 73.36 81.1429 73.312 81.4309 73.312C81.8309 73.312 82.1589 73.38 82.4149 73.516L82.1149 74.488C81.9229 74.392 81.7069 74.344 81.4669 74.344C81.1949 74.344 80.9709 74.44 80.7949 74.632C80.6269 74.816 80.5429 75.064 80.5429 75.376V76.12H84.2869V82H83.1829V77.128H80.5429ZM88.3081 82.192C87.4441 82.192 86.7321 81.896 86.1721 81.304C85.6121 80.712 85.3321 79.964 85.3321 79.06C85.3321 78.164 85.6041 77.42 86.1481 76.828C86.6921 76.228 87.3881 75.928 88.2361 75.928C89.1081 75.928 89.8001 76.212 90.3121 76.78C90.8321 77.34 91.0921 78.128 91.0921 79.144L91.0801 79.264H86.4601C86.4761 79.84 86.6681 80.304 87.0361 80.656C87.4041 81.008 87.8441 81.184 88.3561 81.184C89.0601 81.184 89.6121 80.832 90.0121 80.128L90.9961 80.608C90.7321 81.104 90.3641 81.492 89.8921 81.772C89.4281 82.052 88.9001 82.192 88.3081 82.192ZM86.5441 78.352H89.9161C89.8841 77.944 89.7161 77.608 89.4121 77.344C89.1161 77.072 88.7161 76.936 88.2121 76.936C87.7961 76.936 87.4361 77.064 87.1321 77.32C86.8361 77.576 86.6401 77.92 86.5441 78.352ZM94.8003 81.184C95.3443 81.184 95.7883 80.988 96.1323 80.596C96.4923 80.204 96.6723 79.692 96.6723 79.06C96.6723 78.444 96.4923 77.936 96.1323 77.536C95.7803 77.136 95.3363 76.936 94.8003 76.936C94.2723 76.936 93.8283 77.136 93.4683 77.536C93.1083 77.936 92.9283 78.444 92.9283 79.06C92.9283 79.684 93.1083 80.192 93.4683 80.584C93.8283 80.984 94.2723 81.184 94.8003 81.184ZM94.6203 82.192C93.8523 82.192 93.1923 81.888 92.6403 81.28C92.0963 80.664 91.8243 79.924 91.8243 79.06C91.8243 78.196 92.0963 77.456 92.6403 76.84C93.1923 76.232 93.8523 75.928 94.6203 75.928C95.0523 75.928 95.4443 76.02 95.7963 76.204C96.1563 76.388 96.4323 76.632 96.6243 76.936H96.6723L96.6243 76.12V73.408H97.7283V82H96.6723V81.184H96.6243C96.4323 81.488 96.1563 81.732 95.7963 81.916C95.4443 82.1 95.0523 82.192 94.6203 82.192ZM100.61 81.256C100.61 81.48 100.53 81.672 100.37 81.832C100.218 81.992 100.026 82.072 99.7943 82.072C99.5703 82.072 99.3783 81.992 99.2183 81.832C99.0583 81.672 98.9783 81.48 98.9783 81.256C98.9783 81.024 99.0583 80.832 99.2183 80.68C99.3783 80.52 99.5703 80.44 99.7943 80.44C100.026 80.44 100.218 80.52 100.37 80.68C100.53 80.832 100.61 81.024 100.61 81.256ZM107.14 74.464V82H106.036V74.464H103.636V73.408H109.54V74.464H107.14ZM110.5 73.408H111.604V76.12L111.556 76.936H111.604C111.772 76.648 112.028 76.408 112.372 76.216C112.724 76.024 113.088 75.928 113.464 75.928C114.184 75.928 114.736 76.136 115.12 76.552C115.512 76.96 115.708 77.544 115.708 78.304V82H114.604V78.52C114.604 77.464 114.136 76.936 113.2 76.936C112.752 76.936 112.372 77.124 112.06 77.5C111.756 77.868 111.604 78.3 111.604 78.796V82H110.5V73.408ZM118.432 74.092C118.432 74.308 118.356 74.492 118.204 74.644C118.052 74.796 117.868 74.872 117.652 74.872C117.436 74.872 117.252 74.796 117.1 74.644C116.948 74.492 116.872 74.308 116.872 74.092C116.872 73.876 116.948 73.692 117.1 73.54C117.252 73.388 117.436 73.312 117.652 73.312C117.868 73.312 118.052 73.388 118.204 73.54C118.356 73.692 118.432 73.876 118.432 74.092ZM118.204 76.12V82H117.1V76.12H118.204ZM124.141 80.368C124.141 80.88 123.917 81.312 123.469 81.664C123.021 82.016 122.457 82.192 121.777 82.192C121.185 82.192 120.665 82.04 120.217 81.736C119.769 81.424 119.449 81.016 119.257 80.512L120.241 80.092C120.385 80.444 120.593 80.72 120.865 80.92C121.145 81.112 121.449 81.208 121.777 81.208C122.129 81.208 122.421 81.132 122.653 80.98C122.893 80.828 123.013 80.648 123.013 80.44C123.013 80.064 122.725 79.788 122.149 79.612L121.141 79.36C119.997 79.072 119.425 78.52 119.425 77.704C119.425 77.168 119.641 76.74 120.073 76.42C120.513 76.092 121.073 75.928 121.753 75.928C122.273 75.928 122.741 76.052 123.157 76.3C123.581 76.548 123.877 76.88 124.045 77.296L123.061 77.704C122.949 77.456 122.765 77.264 122.509 77.128C122.261 76.984 121.981 76.912 121.669 76.912C121.381 76.912 121.121 76.984 120.889 77.128C120.665 77.272 120.553 77.448 120.553 77.656C120.553 77.992 120.869 78.232 121.501 78.376L122.389 78.604C123.557 78.892 124.141 79.48 124.141 80.368ZM132.898 82H131.842V81.184H131.794C131.626 81.472 131.366 81.712 131.014 81.904C130.67 82.096 130.31 82.192 129.934 82.192C129.214 82.192 128.658 81.988 128.266 81.58C127.882 81.164 127.69 80.576 127.69 79.816V76.12H128.794V79.744C128.818 80.704 129.302 81.184 130.246 81.184C130.686 81.184 131.054 81.008 131.35 80.656C131.646 80.296 131.794 79.868 131.794 79.372V76.12H132.898V82ZM138.684 80.368C138.684 80.88 138.46 81.312 138.012 81.664C137.564 82.016 137 82.192 136.32 82.192C135.728 82.192 135.208 82.04 134.76 81.736C134.312 81.424 133.992 81.016 133.8 80.512L134.784 80.092C134.928 80.444 135.136 80.72 135.408 80.92C135.688 81.112 135.992 81.208 136.32 81.208C136.672 81.208 136.964 81.132 137.196 80.98C137.436 80.828 137.556 80.648 137.556 80.44C137.556 80.064 137.268 79.788 136.692 79.612L135.684 79.36C134.54 79.072 133.968 78.52 133.968 77.704C133.968 77.168 134.184 76.74 134.616 76.42C135.056 76.092 135.616 75.928 136.296 75.928C136.816 75.928 137.284 76.052 137.7 76.3C138.124 76.548 138.42 76.88 138.588 77.296L137.604 77.704C137.492 77.456 137.308 77.264 137.052 77.128C136.804 76.984 136.524 76.912 136.212 76.912C135.924 76.912 135.664 76.984 135.432 77.128C135.208 77.272 135.096 77.448 135.096 77.656C135.096 77.992 135.412 78.232 136.044 78.376L136.932 78.604C138.1 78.892 138.684 79.48 138.684 80.368ZM144.805 82H143.749V81.184H143.701C143.533 81.472 143.273 81.712 142.921 81.904C142.577 82.096 142.217 82.192 141.841 82.192C141.121 82.192 140.565 81.988 140.173 81.58C139.789 81.164 139.597 80.576 139.597 79.816V76.12H140.701V79.744C140.725 80.704 141.209 81.184 142.153 81.184C142.593 81.184 142.961 81.008 143.257 80.656C143.553 80.296 143.701 79.868 143.701 79.372V76.12H144.805V82ZM146.894 80.2C146.894 80.488 147.014 80.728 147.254 80.92C147.502 81.112 147.79 81.208 148.118 81.208C148.582 81.208 148.994 81.036 149.354 80.692C149.722 80.348 149.906 79.944 149.906 79.48C149.562 79.208 149.082 79.072 148.466 79.072C148.018 79.072 147.642 79.18 147.338 79.396C147.042 79.612 146.894 79.88 146.894 80.2ZM148.322 75.928C149.138 75.928 149.782 76.148 150.254 76.588C150.726 77.02 150.962 77.616 150.962 78.376V82H149.906V81.184H149.858C149.402 81.856 148.794 82.192 148.034 82.192C147.386 82.192 146.842 82 146.402 81.616C145.97 81.232 145.754 80.752 145.754 80.176C145.754 79.568 145.982 79.084 146.438 78.724C146.902 78.364 147.518 78.184 148.286 78.184C148.942 78.184 149.482 78.304 149.906 78.544V78.292C149.906 77.908 149.754 77.584 149.45 77.32C149.146 77.048 148.79 76.912 148.382 76.912C147.766 76.912 147.278 77.172 146.918 77.692L145.946 77.08C146.482 76.312 147.274 75.928 148.322 75.928ZM153.311 73.408V82H152.207V73.408H153.311ZM155.76 73.408V82H154.656V73.408H155.76ZM162.362 76.12L158.678 84.592H157.538L158.906 81.628L156.482 76.12H157.682L159.434 80.344H159.458L161.162 76.12H162.362ZM168.047 82.096C167.567 82.096 167.167 81.948 166.847 81.652C166.535 81.356 166.375 80.944 166.367 80.416V77.128H165.335V76.12H166.367V74.32H167.471V76.12H168.911V77.128H167.471V80.056C167.471 80.448 167.547 80.716 167.699 80.86C167.851 80.996 168.023 81.064 168.215 81.064C168.303 81.064 168.387 81.056 168.467 81.04C168.555 81.016 168.635 80.988 168.707 80.956L169.055 81.94C168.767 82.044 168.431 82.096 168.047 82.096ZM170.648 80.2C170.648 80.488 170.768 80.728 171.008 80.92C171.256 81.112 171.544 81.208 171.872 81.208C172.336 81.208 172.748 81.036 173.108 80.692C173.476 80.348 173.66 79.944 173.66 79.48C173.316 79.208 172.836 79.072 172.22 79.072C171.772 79.072 171.396 79.18 171.092 79.396C170.796 79.612 170.648 79.88 170.648 80.2ZM172.076 75.928C172.892 75.928 173.536 76.148 174.008 76.588C174.48 77.02 174.716 77.616 174.716 78.376V82H173.66V81.184H173.612C173.156 81.856 172.548 82.192 171.788 82.192C171.14 82.192 170.596 82 170.156 81.616C169.724 81.232 169.508 80.752 169.508 80.176C169.508 79.568 169.736 79.084 170.192 78.724C170.656 78.364 171.272 78.184 172.04 78.184C172.696 78.184 173.236 78.304 173.66 78.544V78.292C173.66 77.908 173.508 77.584 173.204 77.32C172.9 77.048 172.544 76.912 172.136 76.912C171.52 76.912 171.032 77.172 170.672 77.692L169.7 77.08C170.236 76.312 171.028 75.928 172.076 75.928ZM181.133 82H179.801L177.965 79.228L177.065 80.116V82H175.961V73.408H177.065V78.7L179.609 76.12H181.025V76.168L178.733 78.448L181.133 81.952V82ZM184.226 82.192C183.362 82.192 182.65 81.896 182.09 81.304C181.53 80.712 181.25 79.964 181.25 79.06C181.25 78.164 181.522 77.42 182.066 76.828C182.61 76.228 183.306 75.928 184.154 75.928C185.026 75.928 185.718 76.212 186.23 76.78C186.75 77.34 187.01 78.128 187.01 79.144L186.998 79.264H182.378C182.394 79.84 182.586 80.304 182.954 80.656C183.322 81.008 183.762 81.184 184.274 81.184C184.978 81.184 185.53 80.832 185.93 80.128L186.914 80.608C186.65 81.104 186.282 81.492 185.81 81.772C185.346 82.052 184.818 82.192 184.226 82.192ZM182.462 78.352H185.834C185.802 77.944 185.634 77.608 185.33 77.344C185.034 77.072 184.634 76.936 184.13 76.936C183.714 76.936 183.354 77.064 183.05 77.32C182.754 77.576 182.558 77.92 182.462 78.352ZM192.578 80.368C192.578 80.88 192.354 81.312 191.906 81.664C191.458 82.016 190.894 82.192 190.214 82.192C189.622 82.192 189.102 82.04 188.654 81.736C188.206 81.424 187.886 81.016 187.694 80.512L188.678 80.092C188.822 80.444 189.03 80.72 189.302 80.92C189.582 81.112 189.886 81.208 190.214 81.208C190.566 81.208 190.858 81.132 191.09 80.98C191.33 80.828 191.45 80.648 191.45 80.44C191.45 80.064 191.162 79.788 190.586 79.612L189.578 79.36C188.434 79.072 187.862 78.52 187.862 77.704C187.862 77.168 188.078 76.74 188.51 76.42C188.95 76.092 189.51 75.928 190.19 75.928C190.71 75.928 191.178 76.052 191.594 76.3C192.018 76.548 192.314 76.88 192.482 77.296L191.498 77.704C191.386 77.456 191.202 77.264 190.946 77.128C190.698 76.984 190.418 76.912 190.106 76.912C189.818 76.912 189.558 76.984 189.326 77.128C189.102 77.272 188.99 77.448 188.99 77.656C188.99 77.992 189.306 78.232 189.938 78.376L190.826 78.604C191.994 78.892 192.578 79.48 192.578 80.368ZM198.504 82.096C198.024 82.096 197.624 81.948 197.304 81.652C196.992 81.356 196.832 80.944 196.824 80.416V77.128H195.792V76.12H196.824V74.32H197.928V76.12H199.368V77.128H197.928V80.056C197.928 80.448 198.004 80.716 198.156 80.86C198.308 80.996 198.48 81.064 198.672 81.064C198.76 81.064 198.844 81.056 198.924 81.04C199.012 81.016 199.092 80.988 199.164 80.956L199.512 81.94C199.224 82.044 198.888 82.096 198.504 82.096ZM208.922 76.12L207.026 82H205.898L204.434 77.488L202.982 82H201.866L199.97 76.12H201.122L202.43 80.56H202.442L203.894 76.12H205.034L206.486 80.56H206.498L207.794 76.12H208.922ZM209.188 79.06C209.188 78.156 209.472 77.408 210.04 76.816C210.616 76.224 211.34 75.928 212.212 75.928C213.084 75.928 213.804 76.224 214.372 76.816C214.948 77.408 215.236 78.156 215.236 79.06C215.236 79.972 214.948 80.72 214.372 81.304C213.804 81.896 213.084 82.192 212.212 82.192C211.34 82.192 210.616 81.896 210.04 81.304C209.472 80.712 209.188 79.964 209.188 79.06ZM210.292 79.06C210.292 79.692 210.476 80.204 210.844 80.596C211.212 80.988 211.668 81.184 212.212 81.184C212.756 81.184 213.212 80.988 213.58 80.596C213.948 80.204 214.132 79.692 214.132 79.06C214.132 78.436 213.948 77.928 213.58 77.536C213.204 77.136 212.748 76.936 212.212 76.936C211.676 76.936 211.22 77.136 210.844 77.536C210.476 77.928 210.292 78.436 210.292 79.06ZM33 96.12L31.104 102H29.976L28.512 97.488L27.06 102H25.944L24.048 96.12H25.2L26.508 100.56H26.52L27.972 96.12H29.112L30.564 100.56H30.576L31.872 96.12H33ZM33.2657 99.06C33.2657 98.156 33.5497 97.408 34.1177 96.816C34.6937 96.224 35.4177 95.928 36.2897 95.928C37.1617 95.928 37.8817 96.224 38.4497 96.816C39.0257 97.408 39.3137 98.156 39.3137 99.06C39.3137 99.972 39.0257 100.72 38.4497 101.304C37.8817 101.896 37.1617 102.192 36.2897 102.192C35.4177 102.192 34.6937 101.896 34.1177 101.304C33.5497 100.712 33.2657 99.964 33.2657 99.06ZM34.3697 99.06C34.3697 99.692 34.5537 100.204 34.9217 100.596C35.2897 100.988 35.7457 101.184 36.2897 101.184C36.8337 101.184 37.2897 100.988 37.6577 100.596C38.0257 100.204 38.2097 99.692 38.2097 99.06C38.2097 98.436 38.0257 97.928 37.6577 97.536C37.2817 97.136 36.8257 96.936 36.2897 96.936C35.7537 96.936 35.2977 97.136 34.9217 97.536C34.5537 97.928 34.3697 98.436 34.3697 99.06ZM41.3033 102H40.1993V96.12H41.2553V97.08H41.3033C41.4153 96.768 41.6433 96.504 41.9873 96.288C42.3393 96.064 42.6833 95.952 43.0193 95.952C43.3393 95.952 43.6113 96 43.8353 96.096L43.4993 97.164C43.3633 97.108 43.1473 97.08 42.8513 97.08C42.4353 97.08 42.0713 97.248 41.7593 97.584C41.4553 97.92 41.3033 98.312 41.3033 98.76V102ZM49.7893 102H48.4573L46.6213 99.228L45.7213 100.116V102H44.6173V93.408H45.7213V98.7L48.2653 96.12H49.6813V96.168L47.3893 98.448L49.7893 101.952V102ZM51.8461 94.092C51.8461 94.308 51.7701 94.492 51.6181 94.644C51.4661 94.796 51.2821 94.872 51.0661 94.872C50.8501 94.872 50.6661 94.796 50.5141 94.644C50.3621 94.492 50.2861 94.308 50.2861 94.092C50.2861 93.876 50.3621 93.692 50.5141 93.54C50.6661 93.388 50.8501 93.312 51.0661 93.312C51.2821 93.312 51.4661 93.388 51.6181 93.54C51.7701 93.692 51.8461 93.876 51.8461 94.092ZM51.6181 96.12V102H50.5141V96.12H51.6181ZM53.0548 96.12H54.1108V96.936H54.1588C54.3268 96.648 54.5828 96.408 54.9268 96.216C55.2788 96.024 55.6428 95.928 56.0188 95.928C56.7388 95.928 57.2908 96.136 57.6748 96.552C58.0668 96.96 58.2628 97.544 58.2628 98.304V102H57.1588V98.376C57.1348 97.416 56.6508 96.936 55.7068 96.936C55.2668 96.936 54.8988 97.116 54.6028 97.476C54.3068 97.828 54.1588 98.252 54.1588 98.748V102H53.0548V96.12ZM62.1401 101.184C62.6841 101.184 63.1281 100.988 63.4721 100.596C63.8321 100.204 64.0121 99.692 64.0121 99.06C64.0121 98.444 63.8321 97.936 63.4721 97.536C63.1201 97.136 62.6761 96.936 62.1401 96.936C61.6121 96.936 61.1681 97.136 60.8081 97.536C60.4481 97.936 60.2681 98.444 60.2681 99.06C60.2681 99.684 60.4481 100.192 60.8081 100.584C61.1681 100.984 61.6121 101.184 62.1401 101.184ZM62.1041 104.784C61.7761 104.784 61.4681 104.74 61.1801 104.652C60.8921 104.572 60.6281 104.456 60.3881 104.304C60.1561 104.152 59.9561 103.972 59.7881 103.764C59.6201 103.556 59.4921 103.324 59.4041 103.068L60.4481 102.636C60.5681 102.98 60.7761 103.256 61.0721 103.464C61.3681 103.672 61.7121 103.776 62.1041 103.776C62.7041 103.776 63.1721 103.596 63.5081 103.236C63.8441 102.876 64.0121 102.38 64.0121 101.748V101.184H63.9641C63.7561 101.496 63.4721 101.744 63.1121 101.928C62.7601 102.104 62.3761 102.192 61.9601 102.192C61.1921 102.192 60.5321 101.892 59.9801 101.292C59.4361 100.676 59.1641 99.932 59.1641 99.06C59.1641 98.188 59.4361 97.448 59.9801 96.84C60.5321 96.232 61.1921 95.928 61.9601 95.928C62.3761 95.928 62.7601 96.02 63.1121 96.204C63.4721 96.38 63.7561 96.624 63.9641 96.936H64.0121V96.12H65.0681V101.748C65.0681 102.692 64.8001 103.432 64.2641 103.968C63.7201 104.512 63.0001 104.784 62.1041 104.784ZM71.6909 101.184C72.2349 101.184 72.6789 100.988 73.0229 100.596C73.3829 100.204 73.5629 99.692 73.5629 99.06C73.5629 98.444 73.3829 97.936 73.0229 97.536C72.6709 97.136 72.2269 96.936 71.6909 96.936C71.1629 96.936 70.7189 97.136 70.3589 97.536C69.9989 97.936 69.8189 98.444 69.8189 99.06C69.8189 99.684 69.9989 100.192 70.3589 100.584C70.7189 100.984 71.1629 101.184 71.6909 101.184ZM71.5109 102.192C70.7429 102.192 70.0829 101.888 69.5309 101.28C68.9869 100.664 68.7149 99.924 68.7149 99.06C68.7149 98.196 68.9869 97.456 69.5309 96.84C70.0829 96.232 70.7429 95.928 71.5109 95.928C71.9429 95.928 72.3349 96.02 72.6869 96.204C73.0469 96.388 73.3229 96.632 73.5149 96.936H73.5629L73.5149 96.12V93.408H74.6189V102H73.5629V101.184H73.5149C73.3229 101.488 73.0469 101.732 72.6869 101.916C72.3349 102.1 71.9429 102.192 71.5109 102.192ZM76.7104 100.2C76.7104 100.488 76.8304 100.728 77.0704 100.92C77.3184 101.112 77.6064 101.208 77.9344 101.208C78.3984 101.208 78.8104 101.036 79.1704 100.692C79.5384 100.348 79.7224 99.944 79.7224 99.48C79.3784 99.208 78.8984 99.072 78.2824 99.072C77.8344 99.072 77.4584 99.18 77.1544 99.396C76.8584 99.612 76.7104 99.88 76.7104 100.2ZM78.1384 95.928C78.9544 95.928 79.5984 96.148 80.0704 96.588C80.5424 97.02 80.7784 97.616 80.7784 98.376V102H79.7224V101.184H79.6744C79.2184 101.856 78.6104 102.192 77.8504 102.192C77.2024 102.192 76.6584 102 76.2184 101.616C75.7864 101.232 75.5704 100.752 75.5704 100.176C75.5704 99.568 75.7984 99.084 76.2544 98.724C76.7184 98.364 77.3344 98.184 78.1024 98.184C78.7584 98.184 79.2984 98.304 79.7224 98.544V98.292C79.7224 97.908 79.5704 97.584 79.2664 97.32C78.9624 97.048 78.6064 96.912 78.1984 96.912C77.5824 96.912 77.0944 97.172 76.7344 97.692L75.7624 97.08C76.2984 96.312 77.0904 95.928 78.1384 95.928ZM87.1624 96.12L83.4784 104.592H82.3384L83.7064 101.628L81.2824 96.12H82.4824L84.2344 100.344H84.2584L85.9624 96.12H87.1624ZM92.2658 100.368C92.2658 100.88 92.0418 101.312 91.5938 101.664C91.1458 102.016 90.5818 102.192 89.9018 102.192C89.3098 102.192 88.7898 102.04 88.3418 101.736C87.8938 101.424 87.5738 101.016 87.3818 100.512L88.3658 100.092C88.5098 100.444 88.7178 100.72 88.9898 100.92C89.2698 101.112 89.5738 101.208 89.9018 101.208C90.2538 101.208 90.5458 101.132 90.7778 100.98C91.0178 100.828 91.1378 100.648 91.1378 100.44C91.1378 100.064 90.8498 99.788 90.2738 99.612L89.2658 99.36C88.1218 99.072 87.5498 98.52 87.5498 97.704C87.5498 97.168 87.7658 96.74 88.1978 96.42C88.6378 96.092 89.1978 95.928 89.8778 95.928C90.3978 95.928 90.8658 96.052 91.2818 96.3C91.7058 96.548 92.0018 96.88 92.1698 97.296L91.1858 97.704C91.0738 97.456 90.8898 97.264 90.6338 97.128C90.3858 96.984 90.1058 96.912 89.7938 96.912C89.5058 96.912 89.2458 96.984 89.0138 97.128C88.7898 97.272 88.6777 97.448 88.6777 97.656C88.6777 97.992 88.9938 98.232 89.6258 98.376L90.5138 98.604C91.6818 98.892 92.2658 99.48 92.2658 100.368ZM94.7627 101.256C94.7627 101.48 94.6827 101.672 94.5227 101.832C94.3707 101.992 94.1787 102.072 93.9467 102.072C93.7227 102.072 93.5307 101.992 93.3707 101.832C93.2107 101.672 93.1307 101.48 93.1307 101.256C93.1307 101.024 93.2107 100.832 93.3707 100.68C93.5307 100.52 93.7227 100.44 93.9467 100.44C94.1787 100.44 94.3707 100.52 94.5227 100.68C94.6827 100.832 94.7627 101.024 94.7627 101.256Z" fill="#575A65"/>
<rect x="0.5" y="0.5" width="244" height="131" rx="3.5" stroke="#FAF0AB"/>
</svg>
