<svg width="56" height="40" viewBox="0 0 56 40" fill="none" xmlns="http://www.w3.org/2000/svg">
<rect x="0.3" y="0.3" width="55.4" height="39.4" rx="5.7" stroke="#E5E9F2" stroke-width="0.6"/>
<path d="M28.9406 19.9982L33.8006 15.1382C33.9099 15.0107 33.9669 14.8466 33.9604 14.6789C33.954 14.5111 33.8844 14.3519 33.7657 14.2332C33.6469 14.1144 33.4878 14.0449 33.32 14.0384C33.1522 14.0319 32.9882 14.089 32.8606 14.1982L28.0006 19.0582L23.1406 14.1916C23.0131 14.0823 22.849 14.0253 22.6813 14.0317C22.5135 14.0382 22.3543 14.1078 22.2356 14.2265C22.1169 14.3452 22.0473 14.5044 22.0408 14.6722C22.0343 14.84 22.0914 15.004 22.2006 15.1316L27.0606 19.9982L22.194 24.8582C22.1242 24.918 22.0675 24.9915 22.0275 25.0742C21.9875 25.157 21.965 25.247 21.9614 25.3389C21.9579 25.4307 21.9734 25.5222 22.0069 25.6078C22.0404 25.6933 22.0912 25.771 22.1562 25.836C22.2212 25.901 22.2989 25.9518 22.3844 25.9853C22.47 26.0188 22.5615 26.0343 22.6533 26.0308C22.7451 26.0272 22.8352 26.0047 22.9179 25.9647C23.0007 25.9247 23.0742 25.868 23.134 25.7982L28.0006 20.9382L32.8606 25.7982C32.9882 25.9074 33.1522 25.9645 33.32 25.958C33.4878 25.9515 33.6469 25.882 33.7657 25.7633C33.8844 25.6445 33.954 25.4854 33.9604 25.3176C33.9669 25.1498 33.9099 24.9858 33.8006 24.8582L28.9406 19.9982Z" fill="#444854"/>
</svg>
